%MOIN*%
%FSLAX54Y54*%
%ADD10C,0.0100*%
%ADD11C,0.0120*%
%ADD12C,0.0160*%
%ADD13C,0.0070*%
%ADD14C,0.0130*%
%ADD15C,0.0060*%
%ADD16C,0.0090*%
%ADD17C,0.0190*%
%ADD18C,0.0139*%
%ADD19C,0.0050*%
%ADD20C,0.0080*%
%ADD21C,0.0040*%
%ADD22C,0.0073*%
%ADD23C,0.0010*%
G75*
D10*
X22961Y10111D02*
X22961Y10485D01*
X23148Y10671D01*
X23335Y10485D01*
X23335Y10111D01*
X23569Y10111D02*
X23569Y10671D01*
X23942Y10111D01*
X23942Y10671D01*
X24176Y10485D02*
X24363Y10671D01*
X24550Y10485D01*
X24550Y10111D01*
X24784Y10111D02*
X25158Y10111D01*
X25392Y10204D02*
X25392Y10578D01*
X25485Y10671D01*
X25672Y10671D01*
X25766Y10578D01*
X25766Y10204D01*
X25672Y10111D01*
X25485Y10111D01*
X25392Y10204D01*
X26000Y10204D02*
X26000Y10578D01*
X26093Y10671D01*
X26280Y10671D01*
X26373Y10578D01*
X26373Y10391D02*
X26186Y10391D01*
X26373Y10391D02*
X26373Y10204D01*
X26280Y10111D01*
X26093Y10111D01*
X26000Y10204D01*
X24784Y10111D02*
X24784Y10671D01*
X24550Y10391D02*
X24176Y10391D01*
X24176Y10485D02*
X24176Y10111D01*
X23335Y10391D02*
X22961Y10391D01*
X28430Y10111D02*
X28617Y10111D01*
X28524Y10111D02*
X28524Y10671D01*
X28617Y10671D02*
X28430Y10671D01*
X28836Y10671D02*
X29209Y10111D01*
X29209Y10671D01*
X28836Y10671D02*
X28836Y10111D01*
X35551Y16461D02*
X35551Y16741D01*
X35644Y16835D01*
X36018Y16835D01*
X36111Y16741D01*
X36111Y16461D01*
X35551Y16461D01*
X35551Y17069D02*
X35551Y17256D01*
X35551Y17162D02*
X36111Y17162D01*
X36111Y17069D02*
X36111Y17256D01*
X36018Y17474D02*
X35644Y17474D01*
X35551Y17567D01*
X35551Y17754D01*
X35644Y17848D01*
X35831Y17848D02*
X35831Y17661D01*
X35831Y17848D02*
X36018Y17848D01*
X36111Y17754D01*
X36111Y17567D01*
X36018Y17474D01*
X36111Y18082D02*
X36111Y18268D01*
X36111Y18175D02*
X35551Y18175D01*
X35551Y18082D02*
X35551Y18268D01*
X35551Y18487D02*
X35551Y18860D01*
X35551Y18674D02*
X36111Y18674D01*
X36111Y19094D02*
X35737Y19094D01*
X35551Y19281D01*
X35737Y19468D01*
X36111Y19468D01*
X36111Y19702D02*
X35551Y19702D01*
X35831Y19468D02*
X35831Y19094D01*
X36111Y19702D02*
X36111Y20076D01*
X32696Y23321D02*
X32603Y23228D01*
X32416Y23415D01*
X32323Y23321D01*
X32089Y23321D02*
X31995Y23228D01*
X31808Y23415D01*
X31715Y23321D01*
X31481Y23321D02*
X31388Y23228D01*
X31201Y23415D01*
X31107Y23321D01*
X30873Y23321D02*
X30686Y23135D01*
X30500Y23321D01*
X30500Y22761D01*
X30266Y22854D02*
X30172Y22761D01*
X29985Y22761D01*
X29892Y22854D01*
X29892Y23228D01*
X29985Y23321D01*
X30172Y23321D01*
X30266Y23228D01*
X30266Y22854D01*
X30873Y22761D02*
X30873Y23321D01*
X29658Y23228D02*
X29564Y23321D01*
X29378Y23321D01*
X29284Y23228D01*
X29284Y22854D01*
X29378Y22761D01*
X29564Y22761D01*
X29658Y22854D01*
X29050Y23321D02*
X28957Y23228D01*
X28770Y23415D01*
X28676Y23321D01*
X28442Y23321D02*
X28349Y23228D01*
X28162Y23415D01*
X28069Y23321D01*
X27835Y23321D02*
X27741Y23228D01*
X27554Y23415D01*
X27461Y23321D01*
X19050Y24611D02*
X19050Y25171D01*
X18863Y24985D01*
X18676Y25171D01*
X18676Y24611D01*
X18442Y24611D02*
X18442Y25171D01*
X18069Y25171D02*
X18069Y24611D01*
X18256Y24798D01*
X18442Y24611D01*
X17835Y24891D02*
X17835Y25078D01*
X17741Y25171D01*
X17461Y25171D01*
X17461Y24611D01*
X17461Y24798D02*
X17741Y24798D01*
X17835Y24891D01*
D11*
X17161Y24911D02*
X13061Y24911D01*
X12711Y25261D01*
X9840Y26261D02*
X9842Y26277D01*
X9848Y26293D01*
X9857Y26307D01*
X9869Y26318D01*
X9883Y26326D01*
X9899Y26331D01*
X9915Y26332D01*
X9931Y26329D01*
X9946Y26322D01*
X9960Y26313D01*
X9970Y26300D01*
X9978Y26285D01*
X9982Y26269D01*
X9982Y26253D01*
X9978Y26237D01*
X9970Y26222D01*
X9960Y26209D01*
X9947Y26200D01*
X9931Y26193D01*
X9915Y26190D01*
X9899Y26191D01*
X9883Y26196D01*
X9869Y26204D01*
X9857Y26215D01*
X9848Y26229D01*
X9842Y26245D01*
X9840Y26261D01*
X19361Y24911D02*
X23761Y24911D01*
X24161Y25311D01*
X25211Y23761D02*
X25661Y23311D01*
X26161Y23311D01*
X34011Y23311D02*
X34711Y23311D01*
X35161Y23761D01*
X36111Y25761D02*
X36511Y26161D01*
X36111Y25761D02*
X36111Y20361D01*
X36111Y16211D02*
X36111Y11611D01*
X36511Y11211D01*
X36611Y10361D02*
X36961Y10011D01*
X36611Y10361D02*
X29761Y10361D01*
X22411Y10361D02*
X21611Y10361D01*
X21211Y9961D01*
X38161Y9411D02*
X38161Y9211D01*
X39161Y9211D01*
X39161Y9411D01*
X39161Y27661D02*
X39161Y27911D01*
X38161Y27911D01*
X38161Y27661D01*
D12*
X38161Y28911D02*
X37749Y28911D01*
X37355Y28911D02*
X36943Y28911D01*
X36550Y28911D02*
X36138Y28911D01*
X35744Y28911D02*
X35332Y28911D01*
X34938Y28911D02*
X34526Y28911D01*
X34133Y28911D02*
X33721Y28911D01*
X33327Y28911D02*
X32915Y28911D01*
X32521Y28911D02*
X32109Y28911D01*
X31715Y28911D02*
X31303Y28911D01*
X30910Y28911D02*
X30498Y28911D01*
X30104Y28911D02*
X29692Y28911D01*
X29298Y28911D02*
X28886Y28911D01*
X28493Y28911D02*
X28081Y28911D01*
X27687Y28911D02*
X27275Y28911D01*
X26881Y28911D02*
X26469Y28911D01*
X26076Y28911D02*
X25664Y28911D01*
X25270Y28911D02*
X24858Y28911D01*
X24464Y28911D02*
X24052Y28911D01*
X23658Y28911D02*
X23246Y28911D01*
X22853Y28911D02*
X22441Y28911D01*
X22047Y28911D02*
X21635Y28911D01*
X21241Y28911D02*
X20829Y28911D01*
X20436Y28911D02*
X20024Y28911D01*
X19630Y28911D02*
X19218Y28911D01*
X18824Y28911D02*
X18412Y28911D01*
X18019Y28911D02*
X17607Y28911D01*
X17213Y28911D02*
X16801Y28911D01*
X16407Y28911D02*
X15995Y28911D01*
X15601Y28911D02*
X15189Y28911D01*
X14796Y28911D02*
X14384Y28911D01*
X13990Y28911D02*
X13578Y28911D01*
X13184Y28911D02*
X12772Y28911D01*
X12379Y28911D02*
X11967Y28911D01*
X11573Y28911D02*
X11161Y28911D01*
X11161Y29307D01*
X11161Y29700D02*
X11161Y30096D01*
X11161Y30490D02*
X11161Y30885D01*
X11161Y31279D02*
X11161Y31675D01*
X11161Y32068D02*
X11161Y32464D01*
X11161Y32858D02*
X11161Y33254D01*
X11161Y33647D02*
X11161Y34043D01*
X11161Y34437D02*
X11161Y34832D01*
X11161Y35226D02*
X11161Y35622D01*
X11161Y36015D02*
X11161Y36411D01*
X10656Y36411D01*
X10262Y36411D02*
X9757Y36411D01*
X9363Y36411D02*
X8858Y36411D01*
X8464Y36411D02*
X7959Y36411D01*
X7565Y36411D02*
X7060Y36411D01*
X6666Y36411D02*
X6161Y36411D01*
X5697Y36411D01*
X5304Y36411D02*
X4840Y36411D01*
X4446Y36411D02*
X3983Y36411D01*
X3589Y36411D02*
X3126Y36411D01*
X2732Y36411D02*
X2268Y36411D01*
X1875Y36411D02*
X1411Y36411D01*
X1411Y35965D01*
X1411Y35572D02*
X1411Y35126D01*
X1411Y34732D02*
X1411Y34287D01*
X1411Y33893D02*
X1411Y33447D01*
X1411Y33054D02*
X1411Y32608D01*
X1411Y32214D02*
X1411Y31768D01*
X1411Y31375D02*
X1411Y30929D01*
X1411Y30535D02*
X1411Y30090D01*
X1411Y29696D02*
X1411Y29250D01*
X1411Y28857D02*
X1411Y28411D01*
X1875Y28411D01*
X2268Y28411D02*
X2732Y28411D01*
X3126Y28411D02*
X3589Y28411D01*
X3983Y28411D02*
X4446Y28411D01*
X4840Y28411D02*
X5304Y28411D01*
X5697Y28411D02*
X6161Y28411D01*
X6666Y28411D01*
X7060Y28411D02*
X7565Y28411D01*
X7959Y28411D02*
X8464Y28411D01*
X8858Y28411D02*
X9363Y28411D01*
X9757Y28411D02*
X10262Y28411D01*
X10656Y28411D02*
X11161Y28411D01*
X11161Y28911D01*
X6161Y28857D02*
X6161Y28411D01*
X6161Y29250D02*
X6161Y29696D01*
X6161Y30090D02*
X6161Y30535D01*
X6161Y30929D02*
X6161Y31375D01*
X6161Y31768D02*
X6161Y32214D01*
X6161Y32608D02*
X6161Y33054D01*
X6161Y33447D02*
X6161Y33893D01*
X6161Y34287D02*
X6161Y34732D01*
X6161Y35126D02*
X6161Y35572D01*
X6161Y35965D02*
X6161Y36411D01*
X11161Y36411D02*
X11567Y36411D01*
X11961Y36411D02*
X12367Y36411D01*
X12760Y36411D02*
X13166Y36411D01*
X13560Y36411D02*
X13966Y36411D01*
X14360Y36411D02*
X14766Y36411D01*
X15159Y36411D02*
X15565Y36411D01*
X15959Y36411D02*
X16365Y36411D01*
X16759Y36411D02*
X17164Y36411D01*
X17558Y36411D02*
X17964Y36411D01*
X18358Y36411D02*
X18764Y36411D01*
X19158Y36411D02*
X19563Y36411D01*
X19957Y36411D02*
X20363Y36411D01*
X20757Y36411D02*
X21163Y36411D01*
X21556Y36411D02*
X21962Y36411D01*
X22356Y36411D02*
X22762Y36411D01*
X23156Y36411D02*
X23562Y36411D01*
X23955Y36411D02*
X24361Y36411D01*
X24755Y36411D02*
X25161Y36411D01*
X25411Y36411D02*
X25839Y36411D01*
X26232Y36411D02*
X26660Y36411D01*
X27054Y36411D02*
X27482Y36411D01*
X27875Y36411D02*
X28303Y36411D01*
X28697Y36411D02*
X29125Y36411D01*
X29518Y36411D02*
X29946Y36411D01*
X30340Y36411D02*
X30768Y36411D01*
X31161Y36411D02*
X31589Y36411D01*
X31983Y36411D02*
X32411Y36411D01*
X32804Y36411D02*
X33232Y36411D01*
X33626Y36411D02*
X34054Y36411D01*
X34447Y36411D02*
X34875Y36411D01*
X35269Y36411D02*
X35697Y36411D01*
X36090Y36411D02*
X36518Y36411D01*
X36912Y36411D02*
X37340Y36411D01*
X37733Y36411D02*
X38161Y36411D01*
X38161Y36015D01*
X38161Y35622D02*
X38161Y35226D01*
X38161Y34832D02*
X38161Y34437D01*
X38161Y34043D02*
X38161Y33647D01*
X38161Y33254D02*
X38161Y32858D01*
X38161Y32464D02*
X38161Y32068D01*
X38161Y31675D02*
X38161Y31279D01*
X38161Y30885D02*
X38161Y30490D01*
X38161Y30096D02*
X38161Y29700D01*
X38161Y29307D02*
X38161Y28911D01*
X26411Y25661D02*
X26161Y25161D01*
X25911Y25661D01*
X26161Y25411D01*
X26161Y25661D01*
X26411Y25661D01*
X26161Y25411D01*
X26161Y25661D02*
X25911Y25661D01*
X25411Y25161D02*
X25161Y25161D01*
X25161Y25411D01*
X25411Y25161D01*
X25161Y25661D01*
X24911Y25161D01*
X25161Y25411D01*
X25161Y25161D02*
X24911Y25161D01*
D13*
X24886Y24739D02*
X25376Y24412D01*
X25376Y24739D02*
X24886Y24412D01*
X24886Y24223D02*
X24886Y23896D01*
X24886Y24059D02*
X25376Y24059D01*
X25886Y24141D02*
X25967Y24223D01*
X26131Y24223D01*
X26213Y24141D01*
X26213Y23896D01*
X26376Y23896D02*
X25886Y23896D01*
X25886Y24141D01*
X25886Y24412D02*
X26376Y24739D01*
X26376Y24412D02*
X25886Y24739D01*
X26376Y24223D02*
X26213Y24059D01*
X27886Y24059D02*
X28376Y24059D01*
X28376Y24412D02*
X27886Y24739D01*
X27967Y24927D02*
X27886Y25009D01*
X27886Y25172D01*
X27967Y25254D01*
X28049Y25254D01*
X28131Y25172D01*
X28213Y25254D01*
X28294Y25254D01*
X28376Y25172D01*
X28376Y25009D01*
X28294Y24927D01*
X28376Y24739D02*
X27886Y24412D01*
X27886Y24223D02*
X27886Y23896D01*
X28886Y23896D02*
X28886Y24141D01*
X28967Y24223D01*
X29131Y24223D01*
X29213Y24141D01*
X29213Y23896D01*
X29376Y23896D02*
X28886Y23896D01*
X29213Y24059D02*
X29376Y24223D01*
X29376Y24412D02*
X28886Y24739D01*
X28967Y24927D02*
X28886Y25009D01*
X28886Y25172D01*
X28967Y25254D01*
X29049Y25254D01*
X29131Y25172D01*
X29213Y25254D01*
X29294Y25254D01*
X29376Y25172D01*
X29376Y25009D01*
X29294Y24927D01*
X29376Y24739D02*
X28886Y24412D01*
X29131Y25091D02*
X29131Y25172D01*
X29049Y25596D02*
X28886Y25759D01*
X29376Y25759D01*
X29376Y25596D02*
X29376Y25923D01*
X29294Y26112D02*
X29376Y26193D01*
X29376Y26357D01*
X29294Y26439D01*
X29131Y26439D01*
X29049Y26357D01*
X29049Y26275D01*
X29131Y26112D01*
X28886Y26112D01*
X28886Y26439D01*
X28376Y26357D02*
X27886Y26357D01*
X28131Y26112D01*
X28131Y26439D01*
X28376Y25923D02*
X28376Y25596D01*
X28376Y25759D02*
X27886Y25759D01*
X28049Y25596D01*
X28131Y25172D02*
X28131Y25091D01*
X29886Y25172D02*
X29886Y25009D01*
X29967Y24927D01*
X29886Y24739D02*
X30376Y24412D01*
X30376Y24739D02*
X29886Y24412D01*
X29886Y24223D02*
X29886Y23896D01*
X29886Y24059D02*
X30376Y24059D01*
X30886Y24141D02*
X30967Y24223D01*
X31131Y24223D01*
X31213Y24141D01*
X31213Y23896D01*
X31376Y23896D02*
X30886Y23896D01*
X30886Y24141D01*
X30886Y24412D02*
X31376Y24739D01*
X31376Y24927D02*
X31049Y25254D01*
X30967Y25254D01*
X30886Y25172D01*
X30886Y25009D01*
X30967Y24927D01*
X30886Y24739D02*
X31376Y24412D01*
X31376Y24223D02*
X31213Y24059D01*
X31886Y24059D02*
X32376Y24059D01*
X32376Y24412D02*
X31886Y24739D01*
X32049Y24927D02*
X31886Y25091D01*
X32376Y25091D01*
X32376Y25254D02*
X32376Y24927D01*
X32376Y24739D02*
X31886Y24412D01*
X31886Y24223D02*
X31886Y23896D01*
X32886Y23896D02*
X32886Y24141D01*
X32967Y24223D01*
X33131Y24223D01*
X33213Y24141D01*
X33213Y23896D01*
X33376Y23896D02*
X32886Y23896D01*
X33213Y24059D02*
X33376Y24223D01*
X33376Y24412D02*
X32886Y24739D01*
X33049Y24927D02*
X32886Y25091D01*
X33376Y25091D01*
X33376Y25254D02*
X33376Y24927D01*
X33376Y24739D02*
X32886Y24412D01*
X33886Y24412D02*
X33886Y24657D01*
X33967Y24739D01*
X34294Y24739D01*
X34376Y24657D01*
X34376Y24412D01*
X33886Y24412D01*
X33967Y24223D02*
X33886Y24141D01*
X33886Y23978D01*
X33967Y23896D01*
X34049Y23896D01*
X34131Y23978D01*
X34131Y24141D01*
X34213Y24223D01*
X34294Y24223D01*
X34376Y24141D01*
X34376Y23978D01*
X34294Y23896D01*
X34886Y23978D02*
X34967Y23896D01*
X35049Y23896D01*
X35131Y23978D01*
X35131Y24141D01*
X35213Y24223D01*
X35294Y24223D01*
X35376Y24141D01*
X35376Y23978D01*
X35294Y23896D01*
X34886Y23978D02*
X34886Y24141D01*
X34967Y24223D01*
X34967Y24412D02*
X35294Y24412D01*
X35376Y24493D01*
X35376Y24657D01*
X35294Y24739D01*
X35376Y24927D02*
X34886Y24927D01*
X34967Y24739D02*
X34886Y24657D01*
X34886Y24493D01*
X34967Y24412D01*
X35376Y24927D02*
X35376Y25254D01*
X35376Y25596D02*
X35049Y25923D01*
X34967Y25923D01*
X34886Y25841D01*
X34886Y25678D01*
X34967Y25596D01*
X35376Y25596D02*
X35376Y25923D01*
X35376Y26112D02*
X35376Y26439D01*
X35376Y26275D02*
X34886Y26275D01*
X35049Y26112D01*
X34376Y26193D02*
X34294Y26112D01*
X33967Y26439D01*
X34294Y26439D01*
X34376Y26357D01*
X34376Y26193D01*
X34294Y26112D02*
X33967Y26112D01*
X33886Y26193D01*
X33886Y26357D01*
X33967Y26439D01*
X33376Y26357D02*
X33294Y26439D01*
X32967Y26439D01*
X32886Y26357D01*
X32886Y26193D01*
X32967Y26112D01*
X33049Y26112D01*
X33131Y26193D01*
X33131Y26439D01*
X33376Y26357D02*
X33376Y26193D01*
X33294Y26112D01*
X33376Y25923D02*
X33376Y25596D01*
X33376Y25759D02*
X32886Y25759D01*
X33049Y25596D01*
X32376Y25596D02*
X32376Y25923D01*
X32376Y25759D02*
X31886Y25759D01*
X32049Y25596D01*
X32049Y26112D02*
X31967Y26112D01*
X31886Y26193D01*
X31886Y26357D01*
X31967Y26439D01*
X32049Y26439D01*
X32131Y26357D01*
X32131Y26193D01*
X32049Y26112D01*
X32131Y26193D02*
X32213Y26112D01*
X32294Y26112D01*
X32376Y26193D01*
X32376Y26357D01*
X32294Y26439D01*
X32213Y26439D01*
X32131Y26357D01*
X31376Y26112D02*
X31294Y26112D01*
X30967Y26439D01*
X30886Y26439D01*
X30886Y26112D01*
X30886Y25759D02*
X31376Y25759D01*
X31376Y25596D02*
X31376Y25923D01*
X31049Y25596D02*
X30886Y25759D01*
X30376Y25759D02*
X29886Y25759D01*
X30049Y25596D01*
X30376Y25596D02*
X30376Y25923D01*
X30294Y26112D02*
X30131Y26112D01*
X30131Y26357D01*
X30213Y26439D01*
X30294Y26439D01*
X30376Y26357D01*
X30376Y26193D01*
X30294Y26112D01*
X30131Y26112D02*
X29967Y26275D01*
X29886Y26439D01*
X29967Y25254D02*
X29886Y25172D01*
X29967Y25254D02*
X30049Y25254D01*
X30376Y24927D01*
X30376Y25254D01*
X31376Y25254D02*
X31376Y24927D01*
X33886Y25091D02*
X34049Y25254D01*
X34376Y25254D01*
X34131Y25254D02*
X34131Y24927D01*
X34049Y24927D02*
X33886Y25091D01*
X34049Y24927D02*
X34376Y24927D01*
X34376Y25596D02*
X34049Y25923D01*
X33967Y25923D01*
X33886Y25841D01*
X33886Y25678D01*
X33967Y25596D01*
X34376Y25596D02*
X34376Y25923D01*
X36696Y25946D02*
X37023Y26273D01*
X37023Y26355D01*
X36941Y26436D01*
X36778Y26436D01*
X36696Y26355D01*
X36696Y25946D02*
X37023Y25946D01*
X37212Y25946D02*
X37539Y26273D01*
X37539Y26355D01*
X37457Y26436D01*
X37293Y26436D01*
X37212Y26355D01*
X37212Y25946D02*
X37539Y25946D01*
X37457Y25436D02*
X37212Y25191D01*
X37539Y25191D01*
X37457Y24946D02*
X37457Y25436D01*
X37023Y25355D02*
X37023Y25273D01*
X36696Y24946D01*
X37023Y24946D01*
X37023Y25355D02*
X36941Y25436D01*
X36778Y25436D01*
X36696Y25355D01*
X36778Y24436D02*
X36696Y24355D01*
X36778Y24436D02*
X36941Y24436D01*
X37023Y24355D01*
X37023Y24273D01*
X36696Y23946D01*
X37023Y23946D01*
X37212Y24028D02*
X37293Y23946D01*
X37457Y23946D01*
X37539Y24028D01*
X37539Y24109D01*
X37457Y24191D01*
X37212Y24191D01*
X37212Y24028D01*
X37212Y24191D02*
X37375Y24355D01*
X37539Y24436D01*
X37457Y23436D02*
X37293Y23436D01*
X37212Y23355D01*
X37212Y23273D01*
X37293Y23191D01*
X37457Y23191D01*
X37539Y23109D01*
X37539Y23028D01*
X37457Y22946D01*
X37293Y22946D01*
X37212Y23028D01*
X37212Y23109D01*
X37293Y23191D01*
X37457Y23191D02*
X37539Y23273D01*
X37539Y23355D01*
X37457Y23436D01*
X37023Y23355D02*
X36941Y23436D01*
X36778Y23436D01*
X36696Y23355D01*
X37023Y23355D02*
X37023Y23273D01*
X36696Y22946D01*
X37023Y22946D01*
X36941Y22436D02*
X36778Y22436D01*
X36696Y22355D01*
X36859Y22191D02*
X36941Y22191D01*
X37023Y22109D01*
X37023Y22028D01*
X36941Y21946D01*
X36778Y21946D01*
X36696Y22028D01*
X36941Y22191D02*
X37023Y22273D01*
X37023Y22355D01*
X36941Y22436D01*
X37212Y22355D02*
X37293Y22436D01*
X37457Y22436D01*
X37539Y22355D01*
X37212Y22028D01*
X37293Y21946D01*
X37457Y21946D01*
X37539Y22028D01*
X37539Y22355D01*
X37212Y22355D02*
X37212Y22028D01*
X37293Y21436D02*
X37212Y21355D01*
X37293Y21436D02*
X37457Y21436D01*
X37539Y21355D01*
X37539Y21273D01*
X37212Y20946D01*
X37539Y20946D01*
X37457Y20436D02*
X37212Y20191D01*
X37539Y20191D01*
X37457Y19946D02*
X37457Y20436D01*
X37023Y20355D02*
X37023Y20273D01*
X36941Y20191D01*
X37023Y20109D01*
X37023Y20028D01*
X36941Y19946D01*
X36778Y19946D01*
X36696Y20028D01*
X36859Y20191D02*
X36941Y20191D01*
X37023Y20355D02*
X36941Y20436D01*
X36778Y20436D01*
X36696Y20355D01*
X36778Y20946D02*
X36696Y21028D01*
X36778Y20946D02*
X36941Y20946D01*
X37023Y21028D01*
X37023Y21109D01*
X36941Y21191D01*
X36859Y21191D01*
X36941Y21191D02*
X37023Y21273D01*
X37023Y21355D01*
X36941Y21436D01*
X36778Y21436D01*
X36696Y21355D01*
X36778Y19436D02*
X36941Y19436D01*
X37023Y19355D01*
X37023Y19273D01*
X36941Y19191D01*
X37023Y19109D01*
X37023Y19028D01*
X36941Y18946D01*
X36778Y18946D01*
X36696Y19028D01*
X36859Y19191D02*
X36941Y19191D01*
X37212Y19191D02*
X37457Y19191D01*
X37539Y19109D01*
X37539Y19028D01*
X37457Y18946D01*
X37293Y18946D01*
X37212Y19028D01*
X37212Y19191D01*
X37375Y19355D01*
X37539Y19436D01*
X36778Y19436D02*
X36696Y19355D01*
X36778Y18436D02*
X36941Y18436D01*
X37023Y18355D01*
X37023Y18273D01*
X36941Y18191D01*
X37023Y18109D01*
X37023Y18028D01*
X36941Y17946D01*
X36778Y17946D01*
X36696Y18028D01*
X36859Y18191D02*
X36941Y18191D01*
X37212Y18109D02*
X37293Y18191D01*
X37457Y18191D01*
X37539Y18109D01*
X37539Y18028D01*
X37457Y17946D01*
X37293Y17946D01*
X37212Y18028D01*
X37212Y18109D01*
X37293Y18191D02*
X37212Y18273D01*
X37212Y18355D01*
X37293Y18436D01*
X37457Y18436D01*
X37539Y18355D01*
X37539Y18273D01*
X37457Y18191D01*
X36778Y18436D02*
X36696Y18355D01*
X36941Y17436D02*
X36696Y17191D01*
X37023Y17191D01*
X37212Y17028D02*
X37212Y17355D01*
X37293Y17436D01*
X37457Y17436D01*
X37539Y17355D01*
X37212Y17028D01*
X37293Y16946D01*
X37457Y16946D01*
X37539Y17028D01*
X37539Y17355D01*
X36941Y17436D02*
X36941Y16946D01*
X36941Y16436D02*
X36696Y16191D01*
X37023Y16191D01*
X37212Y16355D02*
X37293Y16436D01*
X37457Y16436D01*
X37539Y16355D01*
X37539Y16273D01*
X37212Y15946D01*
X37539Y15946D01*
X37457Y15436D02*
X37212Y15191D01*
X37539Y15191D01*
X37457Y14946D02*
X37457Y15436D01*
X37023Y15191D02*
X36696Y15191D01*
X36941Y15436D01*
X36941Y14946D01*
X36941Y14436D02*
X36696Y14191D01*
X37023Y14191D01*
X37212Y14191D02*
X37457Y14191D01*
X37539Y14109D01*
X37539Y14028D01*
X37457Y13946D01*
X37293Y13946D01*
X37212Y14028D01*
X37212Y14191D01*
X37375Y14355D01*
X37539Y14436D01*
X36941Y14436D02*
X36941Y13946D01*
X36941Y13436D02*
X36696Y13191D01*
X37023Y13191D01*
X37212Y13109D02*
X37293Y13191D01*
X37457Y13191D01*
X37539Y13109D01*
X37539Y13028D01*
X37457Y12946D01*
X37293Y12946D01*
X37212Y13028D01*
X37212Y13109D01*
X37293Y13191D02*
X37212Y13273D01*
X37212Y13355D01*
X37293Y13436D01*
X37457Y13436D01*
X37539Y13355D01*
X37539Y13273D01*
X37457Y13191D01*
X36941Y12946D02*
X36941Y13436D01*
X37023Y12436D02*
X36696Y12436D01*
X36696Y12191D01*
X36859Y12273D01*
X36941Y12273D01*
X37023Y12191D01*
X37023Y12028D01*
X36941Y11946D01*
X36778Y11946D01*
X36696Y12028D01*
X37212Y12028D02*
X37212Y12355D01*
X37293Y12436D01*
X37457Y12436D01*
X37539Y12355D01*
X37212Y12028D01*
X37293Y11946D01*
X37457Y11946D01*
X37539Y12028D01*
X37539Y12355D01*
X37457Y11436D02*
X37293Y11436D01*
X37212Y11355D01*
X37023Y11436D02*
X36696Y11436D01*
X36696Y11191D01*
X36859Y11273D01*
X36941Y11273D01*
X37023Y11191D01*
X37023Y11028D01*
X36941Y10946D01*
X36778Y10946D01*
X36696Y11028D01*
X37212Y10946D02*
X37539Y11273D01*
X37539Y11355D01*
X37457Y11436D01*
X37539Y10946D02*
X37212Y10946D01*
X37131Y9889D02*
X37294Y9889D01*
X37376Y9807D01*
X37376Y9643D01*
X37294Y9562D01*
X37131Y9562D02*
X37049Y9725D01*
X37049Y9807D01*
X37131Y9889D01*
X36886Y9889D02*
X36886Y9562D01*
X37131Y9562D01*
X37376Y9373D02*
X37376Y9046D01*
X37376Y9209D02*
X36886Y9209D01*
X37049Y9046D01*
X36426Y9046D02*
X36426Y9373D01*
X36426Y9209D02*
X35936Y9209D01*
X36099Y9046D01*
X36181Y9562D02*
X35936Y9807D01*
X36426Y9807D01*
X36181Y9889D02*
X36181Y9562D01*
X35426Y9643D02*
X35344Y9562D01*
X35426Y9643D02*
X35426Y9807D01*
X35344Y9889D01*
X35263Y9889D01*
X35181Y9807D01*
X35181Y9725D01*
X35181Y9807D02*
X35099Y9889D01*
X35017Y9889D01*
X34936Y9807D01*
X34936Y9643D01*
X35017Y9562D01*
X34936Y9209D02*
X35426Y9209D01*
X35426Y9046D02*
X35426Y9373D01*
X35099Y9046D02*
X34936Y9209D01*
X34426Y9209D02*
X33936Y9209D01*
X34099Y9046D01*
X34426Y9046D02*
X34426Y9373D01*
X34426Y9562D02*
X34099Y9889D01*
X34017Y9889D01*
X33936Y9807D01*
X33936Y9643D01*
X34017Y9562D01*
X34426Y9562D02*
X34426Y9889D01*
X33426Y9889D02*
X33426Y9562D01*
X33426Y9725D02*
X32936Y9725D01*
X33099Y9562D01*
X33426Y9373D02*
X33426Y9046D01*
X33426Y9209D02*
X32936Y9209D01*
X33099Y9046D01*
X31426Y9128D02*
X31426Y9291D01*
X31344Y9373D01*
X31017Y9373D01*
X30936Y9291D01*
X30936Y9128D01*
X31017Y9046D01*
X31099Y9046D01*
X31181Y9128D01*
X31181Y9373D01*
X31426Y9128D02*
X31344Y9046D01*
X30426Y9128D02*
X30344Y9046D01*
X30263Y9046D01*
X30181Y9128D01*
X30181Y9291D01*
X30263Y9373D01*
X30344Y9373D01*
X30426Y9291D01*
X30426Y9128D01*
X30181Y9128D02*
X30099Y9046D01*
X30017Y9046D01*
X29936Y9128D01*
X29936Y9291D01*
X30017Y9373D01*
X30099Y9373D01*
X30181Y9291D01*
X28426Y9046D02*
X28344Y9046D01*
X28017Y9373D01*
X27936Y9373D01*
X27936Y9046D01*
X27376Y9128D02*
X27376Y9291D01*
X27294Y9373D01*
X27213Y9373D01*
X27131Y9291D01*
X27131Y9046D01*
X27294Y9046D01*
X27376Y9128D01*
X27131Y9046D02*
X26967Y9209D01*
X26886Y9373D01*
X26376Y9291D02*
X26376Y9128D01*
X26294Y9046D01*
X26131Y9046D02*
X26049Y9209D01*
X26049Y9291D01*
X26131Y9373D01*
X26294Y9373D01*
X26376Y9291D01*
X26131Y9046D02*
X25886Y9046D01*
X25886Y9373D01*
X25426Y9291D02*
X24936Y9291D01*
X25181Y9046D01*
X25181Y9373D01*
X24426Y9291D02*
X24426Y9128D01*
X24344Y9046D01*
X24181Y9209D02*
X24181Y9291D01*
X24263Y9373D01*
X24344Y9373D01*
X24426Y9291D01*
X24181Y9291D02*
X24099Y9373D01*
X24017Y9373D01*
X23936Y9291D01*
X23936Y9128D01*
X24017Y9046D01*
X23426Y9046D02*
X23426Y9373D01*
X23426Y9046D02*
X23099Y9373D01*
X23017Y9373D01*
X22936Y9291D01*
X22936Y9128D01*
X23017Y9046D01*
X22326Y9046D02*
X22326Y9373D01*
X22326Y9209D02*
X21836Y9209D01*
X21999Y9046D01*
X21426Y9128D02*
X21426Y9291D01*
X21344Y9373D01*
X21017Y9373D01*
X21344Y9046D01*
X21426Y9128D01*
X21344Y9046D02*
X21017Y9046D01*
X20936Y9128D01*
X20936Y9291D01*
X21017Y9373D01*
X19897Y9368D02*
X19897Y8878D01*
X19570Y9368D01*
X19570Y8878D01*
X19390Y8878D02*
X19226Y8878D01*
X19308Y8878D02*
X19308Y9368D01*
X19226Y9368D02*
X19390Y9368D01*
X19038Y9368D02*
X19038Y9041D01*
X18874Y8878D01*
X18711Y9041D01*
X18711Y9368D01*
X18349Y9286D02*
X18349Y8959D01*
X18267Y8878D01*
X18022Y8878D01*
X18022Y9368D01*
X18267Y9368D01*
X18349Y9286D01*
X17833Y9368D02*
X17833Y8878D01*
X17506Y9368D01*
X17506Y8878D01*
X17318Y8959D02*
X17318Y9123D01*
X17154Y9123D01*
X16991Y9286D02*
X16991Y8959D01*
X17073Y8878D01*
X17236Y8878D01*
X17318Y8959D01*
X17318Y9286D02*
X17236Y9368D01*
X17073Y9368D01*
X16991Y9286D01*
X16633Y9368D02*
X16633Y9041D01*
X16470Y8878D01*
X16306Y9041D01*
X16306Y9368D01*
X16118Y9368D02*
X15791Y9368D01*
X15791Y9123D01*
X15954Y9205D01*
X16036Y9205D01*
X16118Y9123D01*
X16118Y8959D01*
X16036Y8878D01*
X15873Y8878D01*
X15791Y8959D01*
X15414Y8953D02*
X15333Y8871D01*
X15414Y8953D02*
X15414Y9116D01*
X15333Y9198D01*
X15251Y9198D01*
X15169Y9116D01*
X15169Y9034D01*
X15169Y9116D02*
X15087Y9198D01*
X15006Y9198D01*
X14924Y9116D01*
X14924Y8953D01*
X15006Y8871D01*
X14924Y9386D02*
X15251Y9386D01*
X15414Y9550D01*
X15251Y9713D01*
X14924Y9713D01*
X15006Y9902D02*
X14924Y9984D01*
X14924Y10147D01*
X15006Y10229D01*
X15087Y10229D01*
X15169Y10147D01*
X15251Y10229D01*
X15333Y10229D01*
X15414Y10147D01*
X15414Y9984D01*
X15333Y9902D01*
X15169Y10066D02*
X15169Y10147D01*
X14414Y10147D02*
X14414Y9984D01*
X14333Y9902D01*
X14169Y9984D02*
X14169Y10147D01*
X14251Y10229D01*
X14333Y10229D01*
X14414Y10147D01*
X14414Y10418D02*
X13924Y10418D01*
X13924Y10745D01*
X13924Y10933D02*
X13924Y11260D01*
X13924Y11097D02*
X14414Y11097D01*
X14414Y10745D02*
X14414Y10418D01*
X14169Y10418D02*
X14169Y10581D01*
X14006Y10229D02*
X13924Y10147D01*
X13924Y9984D01*
X14006Y9902D01*
X14087Y9902D01*
X14169Y9984D01*
X13924Y9713D02*
X13924Y9386D01*
X14414Y9386D01*
X14414Y9713D01*
X14169Y9550D02*
X14169Y9386D01*
X14169Y9198D02*
X14251Y9116D01*
X14251Y8871D01*
X14414Y8871D02*
X13924Y8871D01*
X13924Y9116D01*
X14006Y9198D01*
X14169Y9198D01*
X14251Y9034D02*
X14414Y9198D01*
X13364Y9296D02*
X13364Y9460D01*
X13283Y9542D01*
X12956Y9542D01*
X12874Y9460D01*
X12874Y9296D01*
X12956Y9215D01*
X13283Y9215D01*
X13364Y9296D01*
X13364Y9034D02*
X13364Y8871D01*
X13364Y8953D02*
X12874Y8953D01*
X12874Y9034D02*
X12874Y8871D01*
X12874Y9730D02*
X12874Y9975D01*
X12956Y10057D01*
X13119Y10057D01*
X13201Y9975D01*
X13201Y9730D01*
X13364Y9730D02*
X12874Y9730D01*
X13201Y9894D02*
X13364Y10057D01*
X13364Y10246D02*
X12874Y10246D01*
X12874Y10573D01*
X12874Y10761D02*
X12874Y11088D01*
X13119Y10925D02*
X13119Y10761D01*
X13364Y10761D02*
X12874Y10761D01*
X13119Y10409D02*
X13119Y10246D01*
X13364Y10246D02*
X13364Y10573D01*
X10864Y24591D02*
X10537Y24591D01*
X10374Y24754D01*
X10537Y24918D01*
X10864Y24918D01*
X10864Y25106D02*
X10374Y25106D01*
X10374Y25352D01*
X10456Y25433D01*
X10619Y25433D01*
X10701Y25352D01*
X10701Y25106D01*
X10701Y25270D02*
X10864Y25433D01*
X10864Y25622D02*
X10864Y25949D01*
X10864Y26138D02*
X10374Y26138D01*
X10374Y26465D01*
X10619Y26301D02*
X10619Y26138D01*
X10374Y25949D02*
X10374Y25622D01*
X10864Y25622D01*
X10619Y25622D02*
X10619Y25786D01*
X11428Y25943D02*
X11919Y25943D01*
X11428Y25616D01*
X11919Y25616D01*
X11837Y25428D02*
X11673Y25428D01*
X11673Y25264D01*
X11510Y25101D02*
X11837Y25101D01*
X11919Y25183D01*
X11919Y25346D01*
X11837Y25428D01*
X11510Y25428D02*
X11428Y25346D01*
X11428Y25183D01*
X11510Y25101D01*
X10619Y24918D02*
X10619Y24591D01*
X11428Y26132D02*
X11428Y26377D01*
X11510Y26459D01*
X11837Y26459D01*
X11919Y26377D01*
X11919Y26132D01*
X11428Y26132D01*
X12386Y26207D02*
X12467Y26289D01*
X12549Y26289D01*
X12631Y26207D01*
X12713Y26289D01*
X12794Y26289D01*
X12876Y26207D01*
X12876Y26043D01*
X12794Y25962D01*
X12876Y25773D02*
X12876Y25446D01*
X12876Y25609D02*
X12386Y25609D01*
X12549Y25446D01*
X12467Y25962D02*
X12386Y26043D01*
X12386Y26207D01*
X12631Y26207D02*
X12631Y26125D01*
X13386Y26043D02*
X13467Y25962D01*
X13386Y26043D02*
X13386Y26207D01*
X13467Y26289D01*
X13549Y26289D01*
X13876Y25962D01*
X13876Y26289D01*
X13876Y25773D02*
X13876Y25446D01*
X13876Y25609D02*
X13386Y25609D01*
X13549Y25446D01*
X14386Y25609D02*
X14876Y25609D01*
X14876Y25446D02*
X14876Y25773D01*
X14876Y25962D02*
X14876Y26289D01*
X14876Y26125D02*
X14386Y26125D01*
X14549Y25962D01*
X14386Y25609D02*
X14549Y25446D01*
X15386Y25609D02*
X15876Y25609D01*
X15876Y25446D02*
X15876Y25773D01*
X15794Y25962D02*
X15467Y26289D01*
X15794Y26289D01*
X15876Y26207D01*
X15876Y26043D01*
X15794Y25962D01*
X15467Y25962D01*
X15386Y26043D01*
X15386Y26207D01*
X15467Y26289D01*
X15386Y25609D02*
X15549Y25446D01*
X16386Y26028D02*
X16467Y25946D01*
X16549Y25946D01*
X16631Y26028D01*
X16631Y26273D01*
X16794Y26273D02*
X16467Y26273D01*
X16386Y26191D01*
X16386Y26028D01*
X16794Y25946D02*
X16876Y26028D01*
X16876Y26191D01*
X16794Y26273D01*
X17386Y26191D02*
X17467Y26273D01*
X17549Y26273D01*
X17631Y26191D01*
X17631Y26028D01*
X17549Y25946D01*
X17467Y25946D01*
X17386Y26028D01*
X17386Y26191D01*
X17631Y26191D02*
X17713Y26273D01*
X17794Y26273D01*
X17876Y26191D01*
X17876Y26028D01*
X17794Y25946D01*
X17713Y25946D01*
X17631Y26028D01*
X18886Y25946D02*
X18886Y26273D01*
X18967Y26273D01*
X19294Y25946D01*
X19376Y25946D01*
X19886Y26273D02*
X19967Y26109D01*
X20131Y25946D01*
X20131Y26191D01*
X20213Y26273D01*
X20294Y26273D01*
X20376Y26191D01*
X20376Y26028D01*
X20294Y25946D01*
X20131Y25946D01*
X20886Y25946D02*
X21131Y25946D01*
X21049Y26109D01*
X21049Y26191D01*
X21131Y26273D01*
X21294Y26273D01*
X21376Y26191D01*
X21376Y26028D01*
X21294Y25946D01*
X20886Y25946D02*
X20886Y26273D01*
X21886Y26191D02*
X22131Y25946D01*
X22131Y26273D01*
X22376Y26191D02*
X21886Y26191D01*
X22886Y26191D02*
X22967Y26273D01*
X23049Y26273D01*
X23131Y26191D01*
X23213Y26273D01*
X23294Y26273D01*
X23376Y26191D01*
X23376Y26028D01*
X23294Y25946D01*
X23131Y26109D02*
X23131Y26191D01*
X22886Y26191D02*
X22886Y26028D01*
X22967Y25946D01*
X23886Y26028D02*
X23967Y25946D01*
X23886Y26028D02*
X23886Y26191D01*
X23967Y26273D01*
X24049Y26273D01*
X24376Y25946D01*
X24376Y26273D01*
X24886Y26109D02*
X25049Y25946D01*
X24886Y26109D02*
X25376Y26109D01*
X25376Y25946D02*
X25376Y26273D01*
X25886Y26191D02*
X25967Y26273D01*
X26294Y25946D01*
X26376Y26028D01*
X26376Y26191D01*
X26294Y26273D01*
X25967Y26273D01*
X25886Y26191D02*
X25886Y26028D01*
X25967Y25946D01*
X26294Y25946D01*
X36941Y16436D02*
X36941Y15946D01*
X39946Y16191D02*
X40273Y16191D01*
X40462Y16028D02*
X40543Y15946D01*
X40707Y15946D01*
X40789Y16028D01*
X40789Y16109D01*
X40707Y16191D01*
X40625Y16191D01*
X40707Y16191D02*
X40789Y16273D01*
X40789Y16355D01*
X40707Y16436D01*
X40543Y16436D01*
X40462Y16355D01*
X40191Y16436D02*
X39946Y16191D01*
X40191Y15946D02*
X40191Y16436D01*
X40191Y16946D02*
X40191Y17436D01*
X39946Y17191D01*
X40273Y17191D01*
X40462Y17273D02*
X40625Y17436D01*
X40625Y16946D01*
X40462Y16946D02*
X40789Y16946D01*
X40707Y17946D02*
X40789Y18028D01*
X40789Y18355D01*
X40707Y18436D01*
X40543Y18436D01*
X40462Y18355D01*
X40462Y18273D01*
X40543Y18191D01*
X40789Y18191D01*
X40707Y17946D02*
X40543Y17946D01*
X40462Y18028D01*
X40273Y18028D02*
X40191Y17946D01*
X40028Y17946D01*
X39946Y18028D01*
X40109Y18191D02*
X40191Y18191D01*
X40273Y18109D01*
X40273Y18028D01*
X40191Y18191D02*
X40273Y18273D01*
X40273Y18355D01*
X40191Y18436D01*
X40028Y18436D01*
X39946Y18355D01*
X40028Y18946D02*
X39946Y19028D01*
X40028Y18946D02*
X40191Y18946D01*
X40273Y19028D01*
X40273Y19109D01*
X40191Y19191D01*
X40109Y19191D01*
X40191Y19191D02*
X40273Y19273D01*
X40273Y19355D01*
X40191Y19436D01*
X40028Y19436D01*
X39946Y19355D01*
X40462Y19436D02*
X40789Y19436D01*
X40789Y19355D01*
X40462Y19028D01*
X40462Y18946D01*
X40543Y19946D02*
X40462Y20028D01*
X40543Y19946D02*
X40707Y19946D01*
X40789Y20028D01*
X40789Y20191D01*
X40707Y20273D01*
X40625Y20273D01*
X40462Y20191D01*
X40462Y20436D01*
X40789Y20436D01*
X40707Y20946D02*
X40543Y20946D01*
X40462Y21028D01*
X40273Y21028D02*
X40191Y20946D01*
X40028Y20946D01*
X39946Y21028D01*
X40109Y21191D02*
X40191Y21191D01*
X40273Y21109D01*
X40273Y21028D01*
X40191Y21191D02*
X40273Y21273D01*
X40273Y21355D01*
X40191Y21436D01*
X40028Y21436D01*
X39946Y21355D01*
X40028Y21946D02*
X39946Y22028D01*
X40028Y21946D02*
X40191Y21946D01*
X40273Y22028D01*
X40273Y22109D01*
X40191Y22191D01*
X40109Y22191D01*
X40191Y22191D02*
X40273Y22273D01*
X40273Y22355D01*
X40191Y22436D01*
X40028Y22436D01*
X39946Y22355D01*
X40462Y22273D02*
X40625Y22436D01*
X40625Y21946D01*
X40462Y21946D02*
X40789Y21946D01*
X40707Y21436D02*
X40789Y21355D01*
X40789Y21273D01*
X40707Y21191D01*
X40789Y21109D01*
X40789Y21028D01*
X40707Y20946D01*
X40707Y21191D02*
X40625Y21191D01*
X40462Y21355D02*
X40543Y21436D01*
X40707Y21436D01*
X40191Y20436D02*
X40273Y20355D01*
X40273Y20273D01*
X40191Y20191D01*
X40273Y20109D01*
X40273Y20028D01*
X40191Y19946D01*
X40028Y19946D01*
X39946Y20028D01*
X40109Y20191D02*
X40191Y20191D01*
X40191Y20436D02*
X40028Y20436D01*
X39946Y20355D01*
X40191Y15436D02*
X39946Y15191D01*
X40273Y15191D01*
X40462Y15191D02*
X40625Y15273D01*
X40707Y15273D01*
X40789Y15191D01*
X40789Y15028D01*
X40707Y14946D01*
X40543Y14946D01*
X40462Y15028D01*
X40462Y15191D02*
X40462Y15436D01*
X40789Y15436D01*
X40191Y15436D02*
X40191Y14946D01*
X40191Y14436D02*
X39946Y14191D01*
X40273Y14191D01*
X40462Y14028D02*
X40462Y13946D01*
X40462Y14028D02*
X40789Y14355D01*
X40789Y14436D01*
X40462Y14436D01*
X40191Y14436D02*
X40191Y13946D01*
X40191Y13436D02*
X39946Y13191D01*
X40273Y13191D01*
X40462Y13273D02*
X40543Y13191D01*
X40789Y13191D01*
X40789Y13028D02*
X40789Y13355D01*
X40707Y13436D01*
X40543Y13436D01*
X40462Y13355D01*
X40462Y13273D01*
X40462Y13028D02*
X40543Y12946D01*
X40707Y12946D01*
X40789Y13028D01*
X40191Y12946D02*
X40191Y13436D01*
X40273Y12436D02*
X39946Y12436D01*
X39946Y12191D01*
X40109Y12273D01*
X40191Y12273D01*
X40273Y12191D01*
X40273Y12028D01*
X40191Y11946D01*
X40028Y11946D01*
X39946Y12028D01*
X39946Y11436D02*
X39946Y11191D01*
X40109Y11273D01*
X40191Y11273D01*
X40273Y11191D01*
X40273Y11028D01*
X40191Y10946D01*
X40028Y10946D01*
X39946Y11028D01*
X39946Y11436D02*
X40273Y11436D01*
X40462Y11355D02*
X40543Y11436D01*
X40707Y11436D01*
X40789Y11355D01*
X40789Y11273D01*
X40707Y11191D01*
X40789Y11109D01*
X40789Y11028D01*
X40707Y10946D01*
X40543Y10946D01*
X40462Y11028D01*
X40625Y11191D02*
X40707Y11191D01*
X40789Y11946D02*
X40462Y11946D01*
X40625Y11946D02*
X40625Y12436D01*
X40462Y12273D01*
X40439Y9686D02*
X40439Y9196D01*
X40112Y9686D01*
X40112Y9196D01*
X39923Y9278D02*
X39923Y9441D01*
X39759Y9441D01*
X39596Y9278D02*
X39678Y9196D01*
X39841Y9196D01*
X39923Y9278D01*
X39923Y9605D02*
X39841Y9686D01*
X39678Y9686D01*
X39596Y9605D01*
X39596Y9278D01*
X40627Y9196D02*
X40872Y9196D01*
X40954Y9278D01*
X40954Y9605D01*
X40872Y9686D01*
X40627Y9686D01*
X40627Y9196D01*
D14*
X28194Y12888D02*
X28032Y12726D01*
X27709Y12726D01*
X27547Y12888D01*
X27547Y13211D01*
X27709Y13373D01*
X28032Y13373D01*
X28194Y13211D01*
X28194Y12888D01*
X27181Y12726D02*
X27181Y13211D01*
X27019Y13373D01*
X26534Y13373D01*
X26534Y12726D01*
X26182Y12726D02*
X25859Y12726D01*
X26020Y12726D02*
X26020Y13373D01*
X25859Y13373D01*
X26020Y13697D02*
X26020Y13859D01*
X25493Y13373D02*
X25493Y12726D01*
X25008Y12726D01*
X24846Y12888D01*
X24846Y13373D01*
X24480Y13373D02*
X23995Y13373D01*
X23833Y13211D01*
X23833Y12888D01*
X23995Y12726D01*
X24480Y12726D01*
X24480Y13697D01*
X23474Y13373D02*
X23312Y13373D01*
X22989Y13050D01*
X22989Y13373D02*
X22989Y12726D01*
X22623Y12726D02*
X22623Y13373D01*
X22300Y13697D01*
X21976Y13373D01*
X21976Y12726D01*
X21976Y13211D02*
X22623Y13211D01*
D15*
X22411Y8661D02*
X21911Y8661D01*
X21661Y8411D01*
X21661Y7911D01*
X21911Y7661D01*
X22411Y7661D01*
X22661Y7911D01*
X22661Y8411D01*
X22411Y8661D01*
X22661Y8411D02*
X22911Y8661D01*
X23411Y8661D01*
X23661Y8411D01*
X23911Y8661D01*
X24411Y8661D01*
X24661Y8411D01*
X24911Y8661D01*
X25411Y8661D01*
X25661Y8411D01*
X25661Y7911D01*
X25411Y7661D01*
X24911Y7661D01*
X24661Y7911D01*
X24411Y7661D01*
X23911Y7661D01*
X23661Y7911D01*
X23411Y7661D01*
X22911Y7661D01*
X22661Y7911D01*
X21661Y7911D02*
X21411Y7661D01*
X20911Y7661D01*
X20661Y7911D01*
X20661Y8411D01*
X20911Y8661D01*
X21411Y8661D01*
X21661Y8411D01*
X23661Y8411D02*
X23661Y7911D01*
X24661Y7911D02*
X24661Y8411D01*
X25661Y8411D02*
X25911Y8661D01*
X26411Y8661D01*
X26661Y8411D01*
X26911Y8661D01*
X27411Y8661D01*
X27661Y8411D01*
X27911Y8661D01*
X28411Y8661D01*
X28661Y8411D01*
X28661Y7911D01*
X28411Y7661D01*
X27911Y7661D01*
X27661Y7911D01*
X27411Y7661D01*
X26911Y7661D01*
X26661Y7911D01*
X26411Y7661D01*
X25911Y7661D01*
X25661Y7911D01*
X26661Y7911D02*
X26661Y8411D01*
X27661Y8411D02*
X27661Y7911D01*
X29661Y7911D02*
X29911Y7661D01*
X30411Y7661D01*
X30661Y7911D01*
X30911Y7661D01*
X31411Y7661D01*
X31661Y7911D01*
X31661Y8411D01*
X31411Y8661D01*
X30911Y8661D01*
X30661Y8411D01*
X30661Y7911D01*
X30661Y8411D02*
X30411Y8661D01*
X29911Y8661D01*
X29661Y8411D01*
X29661Y7911D01*
X31661Y7911D02*
X31911Y7661D01*
X32411Y7661D01*
X32661Y7911D01*
X32911Y7661D01*
X33411Y7661D01*
X33661Y7911D01*
X33911Y7661D01*
X34411Y7661D01*
X34661Y7911D01*
X34661Y8411D01*
X34411Y8661D01*
X33911Y8661D01*
X33661Y8411D01*
X33661Y7911D01*
X33661Y8411D02*
X33411Y8661D01*
X32911Y8661D01*
X32661Y8411D01*
X32661Y7911D01*
X32661Y8411D02*
X32411Y8661D01*
X31911Y8661D01*
X31661Y8411D01*
X32097Y9041D02*
X31931Y9208D01*
X32431Y9208D01*
X32431Y9041D02*
X32431Y9375D01*
X32348Y9557D02*
X32014Y9890D01*
X32348Y9890D01*
X32431Y9807D01*
X32431Y9640D01*
X32348Y9557D01*
X32014Y9557D01*
X31931Y9640D01*
X31931Y9807D01*
X32014Y9890D01*
X34661Y8411D02*
X34911Y8661D01*
X35411Y8661D01*
X35661Y8411D01*
X35911Y8661D01*
X36411Y8661D01*
X36661Y8411D01*
X36911Y8661D01*
X37411Y8661D01*
X37661Y8411D01*
X37661Y7911D01*
X37411Y7661D01*
X36911Y7661D01*
X36661Y7911D01*
X36411Y7661D01*
X35911Y7661D01*
X35661Y7911D01*
X35411Y7661D01*
X34911Y7661D01*
X34661Y7911D01*
X35661Y7911D02*
X35661Y8411D01*
X36661Y8411D02*
X36661Y7911D01*
X37911Y9661D02*
X39411Y9661D01*
X39661Y9911D01*
X39661Y10411D01*
X39411Y10661D01*
X37911Y10661D01*
X37661Y10911D01*
X37661Y11411D01*
X37911Y11661D01*
X39411Y11661D01*
X39661Y11411D01*
X39661Y10911D01*
X39411Y10661D01*
X39411Y11661D02*
X39661Y11911D01*
X39661Y12411D01*
X39411Y12661D01*
X37911Y12661D01*
X37661Y12911D01*
X37661Y13411D01*
X37911Y13661D01*
X39411Y13661D01*
X39661Y13411D01*
X39661Y12911D01*
X39411Y12661D01*
X39411Y13661D02*
X39661Y13911D01*
X39661Y14411D01*
X39411Y14661D01*
X37911Y14661D01*
X37661Y14911D01*
X37661Y15411D01*
X37911Y15661D01*
X39411Y15661D01*
X39661Y15411D01*
X39661Y14911D01*
X39411Y14661D01*
X39411Y15661D02*
X39661Y15911D01*
X39661Y16411D01*
X39411Y16661D01*
X37911Y16661D01*
X37661Y16911D01*
X37661Y17411D01*
X37911Y17661D01*
X39411Y17661D01*
X39661Y17411D01*
X39661Y16911D01*
X39411Y16661D01*
X39411Y17661D02*
X39661Y17911D01*
X39661Y18411D01*
X39411Y18661D01*
X37911Y18661D01*
X37661Y18911D01*
X37661Y19411D01*
X37911Y19661D01*
X39411Y19661D01*
X39661Y19411D01*
X39661Y18911D01*
X39411Y18661D01*
X39411Y19661D02*
X39661Y19911D01*
X39661Y20411D01*
X39411Y20661D01*
X37911Y20661D01*
X37661Y20911D01*
X37661Y21411D01*
X37911Y21661D01*
X39411Y21661D01*
X39661Y21411D01*
X39661Y20911D01*
X39411Y20661D01*
X39411Y21661D02*
X39661Y21911D01*
X39661Y22411D01*
X39411Y22661D01*
X37911Y22661D01*
X37661Y22411D01*
X37661Y21911D01*
X37911Y21661D01*
X37911Y20661D02*
X37661Y20411D01*
X37661Y19911D01*
X37911Y19661D01*
X37911Y18661D02*
X37661Y18411D01*
X37661Y17911D01*
X37911Y17661D01*
X37911Y16661D02*
X37661Y16411D01*
X37661Y15911D01*
X37911Y15661D01*
X37911Y14661D02*
X37661Y14411D01*
X37661Y13911D01*
X37911Y13661D01*
X37911Y12661D02*
X37661Y12411D01*
X37661Y11911D01*
X37911Y11661D01*
X37911Y10661D02*
X37661Y10411D01*
X37661Y9911D01*
X37911Y9661D01*
X33880Y5171D02*
X33924Y5128D01*
X33924Y5084D01*
X33880Y5041D01*
X33794Y5041D01*
X33750Y5084D01*
X33750Y5128D01*
X33794Y5171D01*
X33880Y5171D01*
X33880Y5041D02*
X33924Y4998D01*
X33924Y4954D01*
X33880Y4911D01*
X33794Y4911D01*
X33750Y4954D01*
X33750Y4998D01*
X33794Y5041D01*
X33629Y5041D02*
X33586Y4998D01*
X33456Y4998D01*
X33456Y4911D02*
X33456Y5171D01*
X33586Y5171D01*
X33629Y5128D01*
X33629Y5041D01*
X33334Y5171D02*
X33248Y5171D01*
X33291Y5171D02*
X33291Y4954D01*
X33248Y4911D01*
X33204Y4911D01*
X33161Y4954D01*
X24661Y4411D02*
X24661Y3911D01*
X24411Y3661D01*
X23911Y3661D01*
X23661Y3911D01*
X23411Y3661D01*
X22911Y3661D01*
X22661Y3911D01*
X22411Y3661D01*
X21911Y3661D01*
X21661Y3911D01*
X21411Y3661D01*
X20911Y3661D01*
X20661Y3911D01*
X20411Y3661D01*
X19911Y3661D01*
X19661Y3911D01*
X19411Y3661D01*
X18911Y3661D01*
X18661Y3911D01*
X18411Y3661D01*
X17911Y3661D01*
X17661Y3911D01*
X17411Y3661D01*
X16911Y3661D01*
X16661Y3911D01*
X16661Y4411D01*
X16911Y4661D01*
X17411Y4661D01*
X17661Y4411D01*
X17911Y4661D01*
X18411Y4661D01*
X18661Y4411D01*
X18661Y3911D01*
X18661Y4411D02*
X18911Y4661D01*
X19411Y4661D01*
X19661Y4411D01*
X19911Y4661D01*
X20411Y4661D01*
X20661Y4411D01*
X20911Y4661D01*
X21411Y4661D01*
X21661Y4411D01*
X21661Y3911D01*
X21661Y4411D02*
X21911Y4661D01*
X22411Y4661D01*
X22661Y4411D01*
X22911Y4661D01*
X23411Y4661D01*
X23661Y4411D01*
X23911Y4661D01*
X24411Y4661D01*
X24661Y4411D01*
X23661Y4411D02*
X23661Y3911D01*
X22661Y3911D02*
X22661Y4411D01*
X20661Y4411D02*
X20661Y3911D01*
X19661Y3911D02*
X19661Y4411D01*
X17661Y4411D02*
X17661Y3911D01*
X14161Y3911D02*
X13911Y3661D01*
X13411Y3661D01*
X13161Y3911D01*
X12911Y3661D01*
X12411Y3661D01*
X12161Y3911D01*
X11911Y3661D01*
X11411Y3661D01*
X11161Y3911D01*
X10911Y3661D01*
X10411Y3661D01*
X10161Y3911D01*
X9911Y3661D01*
X9411Y3661D01*
X9161Y3911D01*
X8911Y3661D01*
X8411Y3661D01*
X8161Y3911D01*
X7911Y3661D01*
X7411Y3661D01*
X7161Y3911D01*
X6911Y3661D01*
X6411Y3661D01*
X6161Y3911D01*
X5911Y3661D01*
X5411Y3661D01*
X5161Y3911D01*
X4911Y3661D01*
X4411Y3661D01*
X4161Y3911D01*
X4161Y4411D01*
X4411Y4661D01*
X4911Y4661D01*
X5161Y4411D01*
X5411Y4661D01*
X5911Y4661D01*
X6161Y4411D01*
X6161Y3911D01*
X6161Y4411D02*
X6411Y4661D01*
X6911Y4661D01*
X7161Y4411D01*
X7411Y4661D01*
X7911Y4661D01*
X8161Y4411D01*
X8411Y4661D01*
X8911Y4661D01*
X9161Y4411D01*
X9161Y3911D01*
X9161Y4411D02*
X9411Y4661D01*
X9911Y4661D01*
X10161Y4411D01*
X10411Y4661D01*
X10911Y4661D01*
X11161Y4411D01*
X11411Y4661D01*
X11911Y4661D01*
X12161Y4411D01*
X12161Y3911D01*
X12161Y4411D02*
X12411Y4661D01*
X12911Y4661D01*
X13161Y4411D01*
X13411Y4661D01*
X13911Y4661D01*
X14161Y4411D01*
X14161Y3911D01*
X13161Y3911D02*
X13161Y4411D01*
X11161Y4411D02*
X11161Y3911D01*
X10161Y3911D02*
X10161Y4411D01*
X8161Y4411D02*
X8161Y3911D01*
X7161Y3911D02*
X7161Y4411D01*
X5161Y4411D02*
X5161Y3911D01*
X4880Y4911D02*
X4794Y4911D01*
X4750Y4954D01*
X4837Y5041D02*
X4880Y5041D01*
X4924Y4998D01*
X4924Y4954D01*
X4880Y4911D01*
X4880Y5041D02*
X4924Y5084D01*
X4924Y5128D01*
X4880Y5171D01*
X4794Y5171D01*
X4750Y5128D01*
X4629Y5128D02*
X4629Y5041D01*
X4586Y4998D01*
X4456Y4998D01*
X4456Y4911D02*
X4456Y5171D01*
X4586Y5171D01*
X4629Y5128D01*
X4334Y5171D02*
X4248Y5171D01*
X4291Y5171D02*
X4291Y4954D01*
X4248Y4911D01*
X4204Y4911D01*
X4161Y4954D01*
X2411Y9661D02*
X1911Y9661D01*
X1661Y9911D01*
X1661Y10411D01*
X1911Y10661D01*
X1661Y10911D01*
X1661Y11411D01*
X1911Y11661D01*
X1661Y11911D01*
X1661Y12411D01*
X1911Y12661D01*
X2411Y12661D01*
X2661Y12411D01*
X2661Y11911D01*
X2411Y11661D01*
X2661Y11411D01*
X2661Y10911D01*
X2411Y10661D01*
X2661Y10411D01*
X2661Y9911D01*
X2411Y9661D01*
X2411Y10661D02*
X1911Y10661D01*
X1911Y11661D02*
X2411Y11661D01*
X11661Y8411D02*
X11661Y7911D01*
X11911Y7661D01*
X12411Y7661D01*
X12661Y7911D01*
X12911Y7661D01*
X13411Y7661D01*
X13661Y7911D01*
X13661Y8411D01*
X13411Y8661D01*
X12911Y8661D01*
X12661Y8411D01*
X12661Y7911D01*
X12661Y8411D02*
X12411Y8661D01*
X11911Y8661D01*
X11661Y8411D01*
X13661Y8411D02*
X13911Y8661D01*
X14411Y8661D01*
X14661Y8411D01*
X14911Y8661D01*
X15411Y8661D01*
X15661Y8411D01*
X15911Y8661D01*
X16411Y8661D01*
X16661Y8411D01*
X16661Y7911D01*
X16411Y7661D01*
X15911Y7661D01*
X15661Y7911D01*
X15411Y7661D01*
X14911Y7661D01*
X14661Y7911D01*
X14411Y7661D01*
X13911Y7661D01*
X13661Y7911D01*
X14661Y7911D02*
X14661Y8411D01*
X15661Y8411D02*
X15661Y7911D01*
X16661Y7911D02*
X16911Y7661D01*
X17411Y7661D01*
X17661Y7911D01*
X17911Y7661D01*
X18411Y7661D01*
X18661Y7911D01*
X18911Y7661D01*
X19411Y7661D01*
X19661Y7911D01*
X19661Y8411D01*
X19411Y8661D01*
X18911Y8661D01*
X18661Y8411D01*
X18661Y7911D01*
X18661Y8411D02*
X18411Y8661D01*
X17911Y8661D01*
X17661Y8411D01*
X17661Y7911D01*
X17661Y8411D02*
X17411Y8661D01*
X16911Y8661D01*
X16661Y8411D01*
X9536Y24686D02*
X9619Y24769D01*
X9619Y24936D01*
X9536Y25019D01*
X9452Y25019D01*
X9369Y24936D01*
X9369Y24769D01*
X9286Y24686D01*
X9202Y24686D01*
X9119Y24769D01*
X9119Y24936D01*
X9202Y25019D01*
X9119Y25201D02*
X9119Y25452D01*
X9202Y25535D01*
X9536Y25535D01*
X9619Y25452D01*
X9619Y25201D01*
X9119Y25201D01*
X9286Y25717D02*
X9119Y25884D01*
X9286Y26051D01*
X9619Y26051D01*
X9369Y26051D02*
X9369Y25717D01*
X9286Y25717D02*
X9619Y25717D01*
X9811Y26661D02*
X9311Y26661D01*
X9061Y26911D01*
X8811Y26661D01*
X8311Y26661D01*
X8061Y26911D01*
X8061Y27411D01*
X8311Y27661D01*
X8811Y27661D01*
X9061Y27411D01*
X9311Y27661D01*
X9811Y27661D01*
X10061Y27411D01*
X10061Y26911D01*
X9811Y26661D01*
X10061Y26911D02*
X10311Y26661D01*
X10811Y26661D01*
X11061Y26911D01*
X11311Y26661D01*
X11811Y26661D01*
X12061Y26911D01*
X12311Y26661D01*
X12811Y26661D01*
X13061Y26911D01*
X13061Y27411D01*
X12811Y27661D01*
X12311Y27661D01*
X12061Y27411D01*
X12061Y26911D01*
X12061Y27411D02*
X11811Y27661D01*
X11311Y27661D01*
X11061Y27411D01*
X11061Y26911D01*
X11061Y27411D02*
X10811Y27661D01*
X10311Y27661D01*
X10061Y27411D01*
X9061Y27411D02*
X9061Y26911D01*
X8519Y26101D02*
X8519Y25767D01*
X8019Y25767D01*
X8102Y25585D02*
X8019Y25502D01*
X8019Y25335D01*
X8102Y25251D01*
X8436Y25251D01*
X8519Y25335D01*
X8519Y25502D01*
X8436Y25585D01*
X8436Y25069D02*
X8519Y24986D01*
X8519Y24819D01*
X8436Y24736D01*
X8269Y24819D02*
X8269Y24986D01*
X8352Y25069D01*
X8436Y25069D01*
X8269Y24819D02*
X8186Y24736D01*
X8102Y24736D01*
X8019Y24819D01*
X8019Y24986D01*
X8102Y25069D01*
X13061Y26911D02*
X13311Y26661D01*
X13811Y26661D01*
X14061Y26911D01*
X14311Y26661D01*
X14811Y26661D01*
X15061Y26911D01*
X15311Y26661D01*
X15811Y26661D01*
X16061Y26911D01*
X16061Y27411D01*
X15811Y27661D01*
X15311Y27661D01*
X15061Y27411D01*
X15061Y26911D01*
X15061Y27411D02*
X14811Y27661D01*
X14311Y27661D01*
X14061Y27411D01*
X14061Y26911D01*
X14061Y27411D02*
X13811Y27661D01*
X13311Y27661D01*
X13061Y27411D01*
X16061Y27411D02*
X16311Y27661D01*
X16811Y27661D01*
X17061Y27411D01*
X17311Y27661D01*
X17811Y27661D01*
X18061Y27411D01*
X18061Y26911D01*
X17811Y26661D01*
X17311Y26661D01*
X17061Y26911D01*
X16811Y26661D01*
X16311Y26661D01*
X16061Y26911D01*
X17061Y26911D02*
X17061Y27411D01*
X18661Y27411D02*
X18661Y26911D01*
X18911Y26661D01*
X19411Y26661D01*
X19661Y26911D01*
X19661Y27411D01*
X19411Y27661D01*
X18911Y27661D01*
X18661Y27411D01*
X19661Y27411D02*
X19911Y27661D01*
X20411Y27661D01*
X20661Y27411D01*
X20911Y27661D01*
X21411Y27661D01*
X21661Y27411D01*
X21911Y27661D01*
X22411Y27661D01*
X22661Y27411D01*
X22911Y27661D01*
X23411Y27661D01*
X23661Y27411D01*
X23911Y27661D01*
X24411Y27661D01*
X24661Y27411D01*
X24911Y27661D01*
X25411Y27661D01*
X25661Y27411D01*
X25911Y27661D01*
X26411Y27661D01*
X26661Y27411D01*
X26661Y26911D01*
X26411Y26661D01*
X25911Y26661D01*
X25661Y26911D01*
X25411Y26661D01*
X24911Y26661D01*
X24661Y26911D01*
X24661Y27411D01*
X24661Y26911D02*
X24411Y26661D01*
X23911Y26661D01*
X23661Y26911D01*
X23411Y26661D01*
X22911Y26661D01*
X22661Y26911D01*
X22411Y26661D01*
X21911Y26661D01*
X21661Y26911D01*
X21661Y27411D01*
X21661Y26911D02*
X21411Y26661D01*
X20911Y26661D01*
X20661Y26911D01*
X20411Y26661D01*
X19911Y26661D01*
X19661Y26911D01*
X20661Y26911D02*
X20661Y27411D01*
X22661Y27411D02*
X22661Y26911D01*
X23661Y26911D02*
X23661Y27411D01*
X25661Y27411D02*
X25661Y26911D01*
X27661Y26911D02*
X27661Y27411D01*
X27911Y27661D01*
X28411Y27661D01*
X28661Y27411D01*
X28911Y27661D01*
X29411Y27661D01*
X29661Y27411D01*
X29911Y27661D01*
X30411Y27661D01*
X30661Y27411D01*
X30911Y27661D01*
X31411Y27661D01*
X31661Y27411D01*
X31911Y27661D01*
X32411Y27661D01*
X32661Y27411D01*
X32911Y27661D01*
X33411Y27661D01*
X33661Y27411D01*
X33911Y27661D01*
X34411Y27661D01*
X34661Y27411D01*
X34911Y27661D01*
X35411Y27661D01*
X35661Y27411D01*
X35661Y26911D01*
X35411Y26661D01*
X34911Y26661D01*
X34661Y26911D01*
X34411Y26661D01*
X33911Y26661D01*
X33661Y26911D01*
X33661Y27411D01*
X33661Y26911D02*
X33411Y26661D01*
X32911Y26661D01*
X32661Y26911D01*
X32411Y26661D01*
X31911Y26661D01*
X31661Y26911D01*
X31411Y26661D01*
X30911Y26661D01*
X30661Y26911D01*
X30661Y27411D01*
X30661Y26911D02*
X30411Y26661D01*
X29911Y26661D01*
X29661Y26911D01*
X29411Y26661D01*
X28911Y26661D01*
X28661Y26911D01*
X28411Y26661D01*
X27911Y26661D01*
X27661Y26911D01*
X28661Y26911D02*
X28661Y27411D01*
X29661Y27411D02*
X29661Y26911D01*
X31661Y26911D02*
X31661Y27411D01*
X32661Y27411D02*
X32661Y26911D01*
X34661Y26911D02*
X34661Y27411D01*
X36661Y29411D02*
X36911Y29161D01*
X37411Y29161D01*
X37661Y29411D01*
X37661Y29911D01*
X37411Y30161D01*
X36911Y30161D01*
X36661Y29911D01*
X36661Y29411D01*
X36911Y30161D02*
X36661Y30411D01*
X36661Y30911D01*
X36911Y31161D01*
X36661Y31411D01*
X36661Y31911D01*
X36911Y32161D01*
X36661Y32411D01*
X36661Y32911D01*
X36911Y33161D01*
X36661Y33411D01*
X36661Y33911D01*
X36911Y34161D01*
X36661Y34411D01*
X36661Y34911D01*
X36911Y35161D01*
X37411Y35161D01*
X37661Y34911D01*
X37661Y34411D01*
X37411Y34161D01*
X37661Y33911D01*
X37661Y33411D01*
X37411Y33161D01*
X36911Y33161D01*
X37411Y33161D02*
X37661Y32911D01*
X37661Y32411D01*
X37411Y32161D01*
X37661Y31911D01*
X37661Y31411D01*
X37411Y31161D01*
X37661Y30911D01*
X37661Y30411D01*
X37411Y30161D01*
X37411Y31161D02*
X36911Y31161D01*
X36911Y32161D02*
X37411Y32161D01*
X37411Y34161D02*
X36911Y34161D01*
X42911Y27661D02*
X43411Y27661D01*
X43661Y27411D01*
X43661Y26911D01*
X43411Y26661D01*
X43661Y26411D01*
X43661Y25911D01*
X43411Y25661D01*
X43661Y25411D01*
X43661Y24911D01*
X43411Y24661D01*
X42911Y24661D01*
X42661Y24911D01*
X42661Y25411D01*
X42911Y25661D01*
X42661Y25911D01*
X42661Y26411D01*
X42911Y26661D01*
X42661Y26911D01*
X42661Y27411D01*
X42911Y27661D01*
X42911Y26661D02*
X43411Y26661D01*
X43411Y25661D02*
X42911Y25661D01*
X39661Y25411D02*
X39661Y24911D01*
X39411Y24661D01*
X37911Y24661D01*
X37661Y24411D01*
X37661Y23911D01*
X37911Y23661D01*
X39411Y23661D01*
X39661Y23411D01*
X39661Y22911D01*
X39411Y22661D01*
X39411Y23661D02*
X39661Y23911D01*
X39661Y24411D01*
X39411Y24661D01*
X39661Y25411D02*
X39411Y25661D01*
X37911Y25661D01*
X37661Y25411D01*
X37661Y24911D01*
X37911Y24661D01*
X37911Y25661D02*
X37661Y25911D01*
X37661Y26411D01*
X37911Y26661D01*
X39411Y26661D01*
X39661Y26411D01*
X39661Y25911D01*
X39411Y25661D01*
X39411Y26661D02*
X39661Y26911D01*
X39661Y27411D01*
X39411Y27661D01*
X37911Y27661D01*
X37661Y27411D01*
X37661Y26911D01*
X37911Y26661D01*
X37911Y23661D02*
X37661Y23411D01*
X37661Y22911D01*
X37911Y22661D01*
X21990Y30618D02*
X21883Y30618D01*
X21670Y30405D01*
X21670Y30618D02*
X21670Y30191D01*
X21452Y30405D02*
X21025Y30405D01*
X21025Y30511D02*
X21132Y30618D01*
X21345Y30618D01*
X21452Y30511D01*
X21452Y30405D01*
X21345Y30191D02*
X21132Y30191D01*
X21025Y30298D01*
X21025Y30511D01*
X20808Y30618D02*
X20594Y30191D01*
X20381Y30618D01*
X20058Y30618D02*
X20058Y30191D01*
X20164Y30191D02*
X19951Y30191D01*
X19951Y30618D02*
X20058Y30618D01*
X20058Y30832D02*
X20058Y30938D01*
X19734Y30618D02*
X19627Y30618D01*
X19414Y30405D01*
X19414Y30618D02*
X19414Y30191D01*
X19196Y30298D02*
X19196Y30725D01*
X19089Y30832D01*
X18769Y30832D01*
X18769Y30191D01*
X19089Y30191D01*
X19196Y30298D01*
X18552Y30084D02*
X18125Y30084D01*
X17907Y30191D02*
X17907Y30832D01*
X17694Y30618D01*
X17480Y30832D01*
X17480Y30191D01*
X17263Y30191D02*
X17263Y30832D01*
X16836Y30832D02*
X16836Y30191D01*
X17049Y30405D01*
X17263Y30191D01*
X16618Y30511D02*
X16618Y30725D01*
X16511Y30832D01*
X16191Y30832D01*
X16191Y30191D01*
X16191Y30405D02*
X16511Y30405D01*
X16618Y30511D01*
D16*
X37196Y22966D02*
X37196Y22791D01*
X37312Y22850D01*
X37371Y22850D01*
X37429Y22791D01*
X37429Y22674D01*
X37371Y22616D01*
X37254Y22616D01*
X37196Y22674D01*
X37196Y22966D02*
X37429Y22966D01*
X37601Y22966D02*
X37601Y22733D01*
X37718Y22616D01*
X37834Y22733D01*
X37834Y22966D01*
D17*
X31744Y15317D02*
X31391Y15317D01*
X31214Y15140D01*
X31214Y14433D01*
X31921Y15140D01*
X31921Y14433D01*
X31744Y14256D01*
X31391Y14256D01*
X31214Y14433D01*
X30770Y14433D02*
X30770Y14610D01*
X30593Y14786D01*
X30063Y14786D01*
X30063Y14433D01*
X30240Y14256D01*
X30593Y14256D01*
X30770Y14433D01*
X30417Y15140D02*
X30063Y14786D01*
X29619Y14786D02*
X29619Y14433D01*
X29442Y14256D01*
X29089Y14256D01*
X28912Y14433D01*
X28912Y14786D02*
X29266Y14963D01*
X29442Y14963D01*
X29619Y14786D01*
X28912Y14786D02*
X28912Y15317D01*
X29619Y15317D01*
X30417Y15140D02*
X30770Y15317D01*
X31744Y15317D02*
X31921Y15140D01*
X28468Y15140D02*
X28291Y15317D01*
X27938Y15317D01*
X27761Y15140D01*
X28468Y15140D02*
X28468Y14963D01*
X27761Y14256D01*
X28468Y14256D01*
X26166Y14256D02*
X26166Y14963D01*
X25813Y15317D01*
X25459Y14963D01*
X25459Y14256D01*
X25015Y14433D02*
X25015Y14786D01*
X24662Y14786D01*
X25015Y14433D02*
X24838Y14256D01*
X24485Y14256D01*
X24308Y14433D01*
X24308Y15140D01*
X24485Y15317D01*
X24838Y15317D01*
X25015Y15140D01*
X25459Y14786D02*
X26166Y14786D01*
X23864Y14256D02*
X23157Y14256D01*
X23157Y15317D01*
X23864Y15317D01*
X23511Y14786D02*
X23157Y14786D01*
X22713Y14256D02*
X22713Y15317D01*
X22360Y14963D01*
X22006Y15317D01*
X22006Y14256D01*
D18*
X26531Y10161D02*
X26533Y10211D01*
X26539Y10261D01*
X26549Y10310D01*
X26563Y10358D01*
X26580Y10405D01*
X26601Y10450D01*
X26626Y10494D01*
X26654Y10535D01*
X26686Y10574D01*
X26720Y10611D01*
X26757Y10645D01*
X26797Y10675D01*
X26839Y10702D01*
X26883Y10726D01*
X26929Y10747D01*
X26976Y10763D01*
X27024Y10776D01*
X27074Y10785D01*
X27123Y10790D01*
X27174Y10791D01*
X27224Y10788D01*
X27273Y10781D01*
X27322Y10770D01*
X27370Y10755D01*
X27416Y10737D01*
X27461Y10715D01*
X27504Y10689D01*
X27545Y10660D01*
X27584Y10628D01*
X27620Y10593D01*
X27652Y10555D01*
X27682Y10515D01*
X27709Y10472D01*
X27732Y10428D01*
X27751Y10382D01*
X27767Y10334D01*
X27779Y10285D01*
X27787Y10236D01*
X27791Y10186D01*
X27791Y10136D01*
X27787Y10086D01*
X27779Y10037D01*
X27767Y9988D01*
X27751Y9940D01*
X27732Y9894D01*
X27709Y9850D01*
X27682Y9807D01*
X27652Y9767D01*
X27620Y9729D01*
X27584Y9694D01*
X27545Y9662D01*
X27504Y9633D01*
X27461Y9607D01*
X27416Y9585D01*
X27370Y9567D01*
X27322Y9552D01*
X27273Y9541D01*
X27224Y9534D01*
X27174Y9531D01*
X27123Y9532D01*
X27074Y9537D01*
X27024Y9546D01*
X26976Y9559D01*
X26929Y9575D01*
X26883Y9596D01*
X26839Y9620D01*
X26797Y9647D01*
X26757Y9677D01*
X26720Y9711D01*
X26686Y9748D01*
X26654Y9787D01*
X26626Y9828D01*
X26601Y9872D01*
X26580Y9917D01*
X26563Y9964D01*
X26549Y10012D01*
X26539Y10061D01*
X26533Y10111D01*
X26531Y10161D01*
X38531Y8161D02*
X38533Y8211D01*
X38539Y8261D01*
X38549Y8310D01*
X38563Y8358D01*
X38580Y8405D01*
X38601Y8450D01*
X38626Y8494D01*
X38654Y8535D01*
X38686Y8574D01*
X38720Y8611D01*
X38757Y8645D01*
X38797Y8675D01*
X38839Y8702D01*
X38883Y8726D01*
X38929Y8747D01*
X38976Y8763D01*
X39024Y8776D01*
X39074Y8785D01*
X39123Y8790D01*
X39174Y8791D01*
X39224Y8788D01*
X39273Y8781D01*
X39322Y8770D01*
X39370Y8755D01*
X39416Y8737D01*
X39461Y8715D01*
X39504Y8689D01*
X39545Y8660D01*
X39584Y8628D01*
X39620Y8593D01*
X39652Y8555D01*
X39682Y8515D01*
X39709Y8472D01*
X39732Y8428D01*
X39751Y8382D01*
X39767Y8334D01*
X39779Y8285D01*
X39787Y8236D01*
X39791Y8186D01*
X39791Y8136D01*
X39787Y8086D01*
X39779Y8037D01*
X39767Y7988D01*
X39751Y7940D01*
X39732Y7894D01*
X39709Y7850D01*
X39682Y7807D01*
X39652Y7767D01*
X39620Y7729D01*
X39584Y7694D01*
X39545Y7662D01*
X39504Y7633D01*
X39461Y7607D01*
X39416Y7585D01*
X39370Y7567D01*
X39322Y7552D01*
X39273Y7541D01*
X39224Y7534D01*
X39174Y7531D01*
X39123Y7532D01*
X39074Y7537D01*
X39024Y7546D01*
X38976Y7559D01*
X38929Y7575D01*
X38883Y7596D01*
X38839Y7620D01*
X38797Y7647D01*
X38757Y7677D01*
X38720Y7711D01*
X38686Y7748D01*
X38654Y7787D01*
X38626Y7828D01*
X38601Y7872D01*
X38580Y7917D01*
X38563Y7964D01*
X38549Y8012D01*
X38539Y8061D01*
X38533Y8111D01*
X38531Y8161D01*
X26531Y21161D02*
X26533Y21211D01*
X26539Y21261D01*
X26549Y21310D01*
X26563Y21358D01*
X26580Y21405D01*
X26601Y21450D01*
X26626Y21494D01*
X26654Y21535D01*
X26686Y21574D01*
X26720Y21611D01*
X26757Y21645D01*
X26797Y21675D01*
X26839Y21702D01*
X26883Y21726D01*
X26929Y21747D01*
X26976Y21763D01*
X27024Y21776D01*
X27074Y21785D01*
X27123Y21790D01*
X27174Y21791D01*
X27224Y21788D01*
X27273Y21781D01*
X27322Y21770D01*
X27370Y21755D01*
X27416Y21737D01*
X27461Y21715D01*
X27504Y21689D01*
X27545Y21660D01*
X27584Y21628D01*
X27620Y21593D01*
X27652Y21555D01*
X27682Y21515D01*
X27709Y21472D01*
X27732Y21428D01*
X27751Y21382D01*
X27767Y21334D01*
X27779Y21285D01*
X27787Y21236D01*
X27791Y21186D01*
X27791Y21136D01*
X27787Y21086D01*
X27779Y21037D01*
X27767Y20988D01*
X27751Y20940D01*
X27732Y20894D01*
X27709Y20850D01*
X27682Y20807D01*
X27652Y20767D01*
X27620Y20729D01*
X27584Y20694D01*
X27545Y20662D01*
X27504Y20633D01*
X27461Y20607D01*
X27416Y20585D01*
X27370Y20567D01*
X27322Y20552D01*
X27273Y20541D01*
X27224Y20534D01*
X27174Y20531D01*
X27123Y20532D01*
X27074Y20537D01*
X27024Y20546D01*
X26976Y20559D01*
X26929Y20575D01*
X26883Y20596D01*
X26839Y20620D01*
X26797Y20647D01*
X26757Y20677D01*
X26720Y20711D01*
X26686Y20748D01*
X26654Y20787D01*
X26626Y20828D01*
X26601Y20872D01*
X26580Y20917D01*
X26563Y20964D01*
X26549Y21012D01*
X26539Y21061D01*
X26533Y21111D01*
X26531Y21161D01*
X36031Y27161D02*
X36033Y27211D01*
X36039Y27261D01*
X36049Y27310D01*
X36063Y27358D01*
X36080Y27405D01*
X36101Y27450D01*
X36126Y27494D01*
X36154Y27535D01*
X36186Y27574D01*
X36220Y27611D01*
X36257Y27645D01*
X36297Y27675D01*
X36339Y27702D01*
X36383Y27726D01*
X36429Y27747D01*
X36476Y27763D01*
X36524Y27776D01*
X36574Y27785D01*
X36623Y27790D01*
X36674Y27791D01*
X36724Y27788D01*
X36773Y27781D01*
X36822Y27770D01*
X36870Y27755D01*
X36916Y27737D01*
X36961Y27715D01*
X37004Y27689D01*
X37045Y27660D01*
X37084Y27628D01*
X37120Y27593D01*
X37152Y27555D01*
X37182Y27515D01*
X37209Y27472D01*
X37232Y27428D01*
X37251Y27382D01*
X37267Y27334D01*
X37279Y27285D01*
X37287Y27236D01*
X37291Y27186D01*
X37291Y27136D01*
X37287Y27086D01*
X37279Y27037D01*
X37267Y26988D01*
X37251Y26940D01*
X37232Y26894D01*
X37209Y26850D01*
X37182Y26807D01*
X37152Y26767D01*
X37120Y26729D01*
X37084Y26694D01*
X37045Y26662D01*
X37004Y26633D01*
X36961Y26607D01*
X36916Y26585D01*
X36870Y26567D01*
X36822Y26552D01*
X36773Y26541D01*
X36724Y26534D01*
X36674Y26531D01*
X36623Y26532D01*
X36574Y26537D01*
X36524Y26546D01*
X36476Y26559D01*
X36429Y26575D01*
X36383Y26596D01*
X36339Y26620D01*
X36297Y26647D01*
X36257Y26677D01*
X36220Y26711D01*
X36186Y26748D01*
X36154Y26787D01*
X36126Y26828D01*
X36101Y26872D01*
X36080Y26917D01*
X36063Y26964D01*
X36049Y27012D01*
X36039Y27061D01*
X36033Y27111D01*
X36031Y27161D01*
X6531Y27161D02*
X6533Y27211D01*
X6539Y27261D01*
X6549Y27310D01*
X6563Y27358D01*
X6580Y27405D01*
X6601Y27450D01*
X6626Y27494D01*
X6654Y27535D01*
X6686Y27574D01*
X6720Y27611D01*
X6757Y27645D01*
X6797Y27675D01*
X6839Y27702D01*
X6883Y27726D01*
X6929Y27747D01*
X6976Y27763D01*
X7024Y27776D01*
X7074Y27785D01*
X7123Y27790D01*
X7174Y27791D01*
X7224Y27788D01*
X7273Y27781D01*
X7322Y27770D01*
X7370Y27755D01*
X7416Y27737D01*
X7461Y27715D01*
X7504Y27689D01*
X7545Y27660D01*
X7584Y27628D01*
X7620Y27593D01*
X7652Y27555D01*
X7682Y27515D01*
X7709Y27472D01*
X7732Y27428D01*
X7751Y27382D01*
X7767Y27334D01*
X7779Y27285D01*
X7787Y27236D01*
X7791Y27186D01*
X7791Y27136D01*
X7787Y27086D01*
X7779Y27037D01*
X7767Y26988D01*
X7751Y26940D01*
X7732Y26894D01*
X7709Y26850D01*
X7682Y26807D01*
X7652Y26767D01*
X7620Y26729D01*
X7584Y26694D01*
X7545Y26662D01*
X7504Y26633D01*
X7461Y26607D01*
X7416Y26585D01*
X7370Y26567D01*
X7322Y26552D01*
X7273Y26541D01*
X7224Y26534D01*
X7174Y26531D01*
X7123Y26532D01*
X7074Y26537D01*
X7024Y26546D01*
X6976Y26559D01*
X6929Y26575D01*
X6883Y26596D01*
X6839Y26620D01*
X6797Y26647D01*
X6757Y26677D01*
X6720Y26711D01*
X6686Y26748D01*
X6654Y26787D01*
X6626Y26828D01*
X6601Y26872D01*
X6580Y26917D01*
X6563Y26964D01*
X6549Y27012D01*
X6539Y27061D01*
X6533Y27111D01*
X6531Y27161D01*
X6031Y8161D02*
X6033Y8211D01*
X6039Y8261D01*
X6049Y8310D01*
X6063Y8358D01*
X6080Y8405D01*
X6101Y8450D01*
X6126Y8494D01*
X6154Y8535D01*
X6186Y8574D01*
X6220Y8611D01*
X6257Y8645D01*
X6297Y8675D01*
X6339Y8702D01*
X6383Y8726D01*
X6429Y8747D01*
X6476Y8763D01*
X6524Y8776D01*
X6574Y8785D01*
X6623Y8790D01*
X6674Y8791D01*
X6724Y8788D01*
X6773Y8781D01*
X6822Y8770D01*
X6870Y8755D01*
X6916Y8737D01*
X6961Y8715D01*
X7004Y8689D01*
X7045Y8660D01*
X7084Y8628D01*
X7120Y8593D01*
X7152Y8555D01*
X7182Y8515D01*
X7209Y8472D01*
X7232Y8428D01*
X7251Y8382D01*
X7267Y8334D01*
X7279Y8285D01*
X7287Y8236D01*
X7291Y8186D01*
X7291Y8136D01*
X7287Y8086D01*
X7279Y8037D01*
X7267Y7988D01*
X7251Y7940D01*
X7232Y7894D01*
X7209Y7850D01*
X7182Y7807D01*
X7152Y7767D01*
X7120Y7729D01*
X7084Y7694D01*
X7045Y7662D01*
X7004Y7633D01*
X6961Y7607D01*
X6916Y7585D01*
X6870Y7567D01*
X6822Y7552D01*
X6773Y7541D01*
X6724Y7534D01*
X6674Y7531D01*
X6623Y7532D01*
X6574Y7537D01*
X6524Y7546D01*
X6476Y7559D01*
X6429Y7575D01*
X6383Y7596D01*
X6339Y7620D01*
X6297Y7647D01*
X6257Y7677D01*
X6220Y7711D01*
X6186Y7748D01*
X6154Y7787D01*
X6126Y7828D01*
X6101Y7872D01*
X6080Y7917D01*
X6063Y7964D01*
X6049Y8012D01*
X6039Y8061D01*
X6033Y8111D01*
X6031Y8161D01*
D19*
X1481Y12906D02*
X1406Y12981D01*
X1481Y12906D02*
X1556Y12906D01*
X1631Y12981D01*
X1631Y13356D01*
X1556Y13356D02*
X1706Y13356D01*
X1866Y13356D02*
X2092Y13356D01*
X2167Y13281D01*
X2167Y13131D01*
X2092Y13056D01*
X1866Y13056D01*
X1866Y12906D02*
X1866Y13356D01*
X2327Y13356D02*
X2327Y13131D01*
X2477Y13206D01*
X2552Y13206D01*
X2627Y13131D01*
X2627Y12981D01*
X2552Y12906D01*
X2402Y12906D01*
X2327Y12981D01*
X2327Y13356D02*
X2627Y13356D01*
X5861Y13361D02*
X5861Y13561D01*
X6061Y13561D01*
X6061Y14761D01*
X5861Y14761D01*
X5861Y14961D01*
X8061Y14961D01*
X8161Y14861D01*
X8261Y14961D01*
X10461Y14961D01*
X10461Y14761D01*
X10261Y14761D01*
X10261Y13561D01*
X10461Y13561D01*
X10461Y13361D01*
X8261Y13361D01*
X8161Y13461D01*
X8061Y13361D01*
X5861Y13361D01*
X7261Y13761D02*
X7261Y14561D01*
X9061Y14561D01*
X9061Y13761D01*
X7261Y13761D01*
X8361Y13761D02*
X8361Y14561D01*
X8461Y14561D02*
X8461Y13761D01*
X8561Y13761D02*
X8561Y14561D01*
X8661Y14561D02*
X8661Y13761D01*
X8761Y13761D02*
X8761Y14561D01*
X8861Y14561D02*
X8861Y13761D01*
X8961Y13761D02*
X8961Y14561D01*
X12986Y14786D02*
X12986Y15236D01*
X13211Y15236D01*
X13286Y15161D01*
X13286Y15011D01*
X13211Y14936D01*
X12986Y14936D01*
X13136Y14936D02*
X13286Y14786D01*
X13446Y14786D02*
X13747Y14786D01*
X13597Y14786D02*
X13597Y15236D01*
X13446Y15086D01*
X13907Y15161D02*
X13907Y14861D01*
X14207Y15161D01*
X14207Y14861D01*
X14132Y14786D01*
X13982Y14786D01*
X13907Y14861D01*
X13907Y15161D02*
X13982Y15236D01*
X14132Y15236D01*
X14207Y15161D01*
X8821Y19434D02*
X8520Y19434D01*
X8821Y19734D01*
X8821Y19809D01*
X8746Y19884D01*
X8595Y19884D01*
X8520Y19809D01*
X8360Y19809D02*
X8285Y19884D01*
X8135Y19884D01*
X8060Y19809D01*
X8060Y19734D01*
X8135Y19659D01*
X8285Y19659D01*
X8360Y19584D01*
X8360Y19509D01*
X8285Y19434D01*
X8135Y19434D01*
X8060Y19509D01*
X16281Y10431D02*
X16206Y10356D01*
X16281Y10431D02*
X16431Y10281D01*
X16506Y10356D01*
X16666Y10356D02*
X16741Y10431D01*
X16892Y10281D01*
X16967Y10356D01*
X17127Y10356D02*
X17352Y10356D01*
X17427Y10281D01*
X17427Y10131D01*
X17352Y10056D01*
X17127Y10056D01*
X17127Y9906D02*
X17127Y10356D01*
X17587Y10281D02*
X17587Y9981D01*
X17662Y9906D01*
X17812Y9906D01*
X17887Y9981D01*
X17887Y10281D01*
X17812Y10356D01*
X17662Y10356D01*
X17587Y10281D01*
X18048Y10356D02*
X18048Y9906D01*
X18198Y10056D01*
X18348Y9906D01*
X18348Y10356D01*
X18508Y10356D02*
X18508Y9906D01*
X18808Y9906D01*
X18968Y9906D02*
X18968Y10356D01*
X19194Y10356D01*
X19269Y10281D01*
X19269Y10131D01*
X19194Y10056D01*
X18968Y10056D01*
X19118Y10056D02*
X19269Y9906D01*
X19429Y10356D02*
X19504Y10431D01*
X19654Y10281D01*
X19729Y10356D01*
X19889Y10356D02*
X19964Y10431D01*
X20114Y10281D01*
X20189Y10356D01*
X18808Y10356D02*
X18508Y10356D01*
X18508Y10131D02*
X18658Y10131D01*
X17802Y5356D02*
X17652Y5356D01*
X17577Y5281D01*
X17417Y5281D02*
X17417Y5131D01*
X17342Y5056D01*
X17116Y5056D01*
X17116Y4906D02*
X17116Y5356D01*
X17342Y5356D01*
X17417Y5281D01*
X17802Y5356D02*
X17877Y5281D01*
X17877Y5206D01*
X17577Y4906D01*
X17877Y4906D01*
X16881Y4981D02*
X16881Y5356D01*
X16806Y5356D02*
X16956Y5356D01*
X16881Y4981D02*
X16806Y4906D01*
X16731Y4906D01*
X16656Y4981D01*
X42585Y24041D02*
X42660Y23966D01*
X42735Y23966D01*
X42810Y24041D01*
X42810Y24416D01*
X42735Y24416D02*
X42885Y24416D01*
X43045Y24416D02*
X43270Y24416D01*
X43345Y24341D01*
X43345Y24191D01*
X43270Y24116D01*
X43045Y24116D01*
X43045Y23966D02*
X43045Y24416D01*
X43506Y24416D02*
X43806Y24416D01*
X43806Y24341D01*
X43506Y24041D01*
X43506Y23966D01*
X43486Y28715D02*
X43036Y28715D01*
X43036Y28940D01*
X43111Y29015D01*
X43261Y29015D01*
X43336Y28940D01*
X43336Y28715D01*
X43336Y28865D02*
X43486Y29015D01*
X43261Y29176D02*
X43261Y29476D01*
X43486Y29401D02*
X43036Y29401D01*
X43261Y29176D01*
X41486Y29251D02*
X41411Y29176D01*
X41486Y29251D02*
X41486Y29401D01*
X41411Y29476D01*
X41261Y29476D01*
X41186Y29401D01*
X41186Y29326D01*
X41261Y29176D01*
X41036Y29176D01*
X41036Y29476D01*
X41111Y29015D02*
X41261Y29015D01*
X41336Y28940D01*
X41336Y28715D01*
X41486Y28715D02*
X41036Y28715D01*
X41036Y28940D01*
X41111Y29015D01*
X41336Y28865D02*
X41486Y29015D01*
X40486Y29015D02*
X40336Y28865D01*
X40336Y28940D02*
X40336Y28715D01*
X40486Y28715D02*
X40036Y28715D01*
X40036Y28940D01*
X40111Y29015D01*
X40261Y29015D01*
X40336Y28940D01*
X40411Y29176D02*
X40486Y29251D01*
X40486Y29401D01*
X40411Y29476D01*
X40336Y29476D01*
X40261Y29401D01*
X40261Y29176D01*
X40411Y29176D01*
X40261Y29176D02*
X40111Y29326D01*
X40036Y29476D01*
X39281Y34585D02*
X38981Y34585D01*
X38906Y34660D01*
X38906Y34810D01*
X38981Y34885D01*
X38906Y35045D02*
X39356Y35345D01*
X38906Y35345D01*
X39056Y35506D02*
X38906Y35656D01*
X39356Y35656D01*
X39356Y35506D02*
X39356Y35806D01*
X39356Y35045D02*
X38906Y35045D01*
X39281Y34885D02*
X39356Y34810D01*
X39356Y34660D01*
X39281Y34585D01*
X37627Y35406D02*
X37327Y35406D01*
X37477Y35406D02*
X37477Y35856D01*
X37327Y35706D01*
X37167Y35631D02*
X37092Y35556D01*
X36866Y35556D01*
X36866Y35406D02*
X36866Y35856D01*
X37092Y35856D01*
X37167Y35781D01*
X37167Y35631D01*
X36706Y35856D02*
X36556Y35856D01*
X36631Y35856D02*
X36631Y35481D01*
X36556Y35406D01*
X36481Y35406D01*
X36406Y35481D01*
X19556Y33691D02*
X19256Y33691D01*
X19481Y33916D01*
X19481Y33466D01*
X19095Y33466D02*
X19095Y33916D01*
X18795Y33916D02*
X19095Y33466D01*
X18795Y33466D02*
X18795Y33916D01*
X18635Y33841D02*
X18560Y33916D01*
X18410Y33916D01*
X18335Y33841D01*
X18335Y33541D01*
X18410Y33466D01*
X18560Y33466D01*
X18635Y33541D01*
X10877Y34481D02*
X10802Y34406D01*
X10652Y34406D01*
X10577Y34481D01*
X10417Y34406D02*
X10417Y34856D01*
X10577Y34781D02*
X10652Y34856D01*
X10802Y34856D01*
X10877Y34781D01*
X10877Y34706D01*
X10802Y34631D01*
X10877Y34556D01*
X10877Y34481D01*
X10802Y34631D02*
X10727Y34631D01*
X10417Y34406D02*
X10116Y34856D01*
X10116Y34406D01*
X9956Y34481D02*
X9881Y34406D01*
X9731Y34406D01*
X9656Y34481D01*
X9656Y34781D01*
X9731Y34856D01*
X9881Y34856D01*
X9956Y34781D01*
X5856Y34795D02*
X5406Y34795D01*
X5856Y35095D01*
X5406Y35095D01*
X5481Y35256D02*
X5406Y35331D01*
X5406Y35481D01*
X5481Y35556D01*
X5556Y35556D01*
X5856Y35256D01*
X5856Y35556D01*
X5781Y34635D02*
X5856Y34560D01*
X5856Y34410D01*
X5781Y34335D01*
X5481Y34335D01*
X5406Y34410D01*
X5406Y34560D01*
X5481Y34635D01*
X5486Y29476D02*
X5486Y29176D01*
X5486Y29326D02*
X5036Y29326D01*
X5186Y29176D01*
X5261Y29015D02*
X5336Y28940D01*
X5336Y28715D01*
X5486Y28715D02*
X5036Y28715D01*
X5036Y28940D01*
X5111Y29015D01*
X5261Y29015D01*
X5336Y28865D02*
X5486Y29015D01*
X3486Y29015D02*
X3336Y28865D01*
X3336Y28940D02*
X3336Y28715D01*
X3486Y28715D02*
X3036Y28715D01*
X3036Y28940D01*
X3111Y29015D01*
X3261Y29015D01*
X3336Y28940D01*
X3486Y29176D02*
X3186Y29476D01*
X3111Y29476D01*
X3036Y29401D01*
X3036Y29251D01*
X3111Y29176D01*
X3486Y29176D02*
X3486Y29476D01*
X2236Y29401D02*
X2236Y29251D01*
X2161Y29176D01*
X2236Y29015D02*
X2086Y28865D01*
X2086Y28940D02*
X2086Y28715D01*
X2236Y28715D02*
X1786Y28715D01*
X1786Y28940D01*
X1861Y29015D01*
X2011Y29015D01*
X2086Y28940D01*
X1861Y29176D02*
X1786Y29251D01*
X1786Y29401D01*
X1861Y29476D01*
X1936Y29476D01*
X2011Y29401D01*
X2086Y29476D01*
X2161Y29476D01*
X2236Y29401D01*
X2011Y29401D02*
X2011Y29326D01*
D20*
X1911Y35161D02*
X1661Y35411D01*
X1661Y35911D01*
X1911Y36161D01*
X2411Y36161D01*
X2661Y35911D01*
X2911Y36161D01*
X3411Y36161D01*
X3661Y35911D01*
X3911Y36161D01*
X4411Y36161D01*
X4661Y35911D01*
X4911Y36161D01*
X5411Y36161D01*
X5661Y35911D01*
X5661Y35411D01*
X5411Y35161D01*
X4911Y35161D01*
X4661Y35411D01*
X4411Y35161D01*
X3911Y35161D01*
X3661Y35411D01*
X3411Y35161D01*
X2911Y35161D01*
X2661Y35411D01*
X2411Y35161D01*
X1911Y35161D01*
X6661Y35411D02*
X6911Y35161D01*
X7411Y35161D01*
X7661Y35411D01*
X7911Y35161D01*
X8411Y35161D01*
X8661Y35411D01*
X8911Y35161D01*
X9411Y35161D01*
X9661Y35411D01*
X9911Y35161D01*
X10411Y35161D01*
X10661Y35411D01*
X10661Y35911D01*
X10411Y36161D01*
X9911Y36161D01*
X9661Y35911D01*
X9411Y36161D01*
X8911Y36161D01*
X8661Y35911D01*
X8411Y36161D01*
X7911Y36161D01*
X7661Y35911D01*
X7411Y36161D01*
X6911Y36161D01*
X6661Y35911D01*
X6661Y35411D01*
X15661Y34911D02*
X15661Y34411D01*
X15911Y34161D01*
X16411Y34161D01*
X16661Y34411D01*
X16911Y34161D01*
X17411Y34161D01*
X17661Y34411D01*
X17911Y34161D01*
X18411Y34161D01*
X18661Y34411D01*
X18911Y34161D01*
X19411Y34161D01*
X19661Y34411D01*
X19661Y34911D01*
X19411Y35161D01*
X18911Y35161D01*
X18661Y34911D01*
X18411Y35161D01*
X17911Y35161D01*
X17661Y34911D01*
X17411Y35161D01*
X16911Y35161D01*
X16661Y34911D01*
X16411Y35161D01*
X15911Y35161D01*
X15661Y34911D01*
X9885Y19109D02*
X8185Y19109D01*
X7835Y18314D02*
X7835Y17509D01*
X8185Y16709D02*
X9885Y16709D01*
X10235Y17509D02*
X10235Y18302D01*
X8335Y17909D02*
X8337Y17961D01*
X8343Y18013D01*
X8353Y18065D01*
X8366Y18115D01*
X8383Y18165D01*
X8404Y18213D01*
X8429Y18259D01*
X8457Y18303D01*
X8488Y18345D01*
X8522Y18385D01*
X8559Y18422D01*
X8599Y18456D01*
X8641Y18487D01*
X8685Y18515D01*
X8731Y18540D01*
X8779Y18561D01*
X8829Y18578D01*
X8879Y18591D01*
X8931Y18601D01*
X8983Y18607D01*
X9035Y18609D01*
X9087Y18607D01*
X9139Y18601D01*
X9191Y18591D01*
X9241Y18578D01*
X9291Y18561D01*
X9339Y18540D01*
X9385Y18515D01*
X9429Y18487D01*
X9471Y18456D01*
X9511Y18422D01*
X9548Y18385D01*
X9582Y18345D01*
X9613Y18303D01*
X9641Y18259D01*
X9666Y18213D01*
X9687Y18165D01*
X9704Y18115D01*
X9717Y18065D01*
X9727Y18013D01*
X9733Y17961D01*
X9735Y17909D01*
X9733Y17857D01*
X9727Y17805D01*
X9717Y17753D01*
X9704Y17703D01*
X9687Y17653D01*
X9666Y17605D01*
X9641Y17559D01*
X9613Y17515D01*
X9582Y17473D01*
X9548Y17433D01*
X9511Y17396D01*
X9471Y17362D01*
X9429Y17331D01*
X9385Y17303D01*
X9339Y17278D01*
X9291Y17257D01*
X9241Y17240D01*
X9191Y17227D01*
X9139Y17217D01*
X9087Y17211D01*
X9035Y17209D01*
X8983Y17211D01*
X8931Y17217D01*
X8879Y17227D01*
X8829Y17240D01*
X8779Y17257D01*
X8731Y17278D01*
X8685Y17303D01*
X8641Y17331D01*
X8599Y17362D01*
X8559Y17396D01*
X8522Y17433D01*
X8488Y17473D01*
X8457Y17515D01*
X8429Y17559D01*
X8404Y17605D01*
X8383Y17653D01*
X8366Y17703D01*
X8353Y17753D01*
X8343Y17805D01*
X8337Y17857D01*
X8335Y17909D01*
X33161Y4661D02*
X33161Y3661D01*
X33411Y3411D01*
X33911Y3411D01*
X34161Y3661D01*
X34161Y4661D01*
X33911Y4911D01*
X33411Y4911D01*
X33161Y4661D01*
X34161Y4661D02*
X34411Y4911D01*
X34911Y4911D01*
X35161Y4661D01*
X35161Y3661D01*
X35411Y3411D01*
X35911Y3411D01*
X36161Y3661D01*
X36161Y4661D01*
X36411Y4911D01*
X36911Y4911D01*
X37161Y4661D01*
X37161Y3661D01*
X37411Y3411D01*
X37911Y3411D01*
X38161Y3661D01*
X38161Y4661D01*
X37911Y4911D01*
X37411Y4911D01*
X37161Y4661D01*
X36161Y4661D02*
X35911Y4911D01*
X35411Y4911D01*
X35161Y4661D01*
X35161Y3661D02*
X34911Y3411D01*
X34411Y3411D01*
X34161Y3661D01*
X36161Y3661D02*
X36411Y3411D01*
X36911Y3411D01*
X37161Y3661D01*
X39911Y35161D02*
X39661Y35411D01*
X39661Y35911D01*
X39911Y36161D01*
X40411Y36161D01*
X40661Y35911D01*
X40911Y36161D01*
X41411Y36161D01*
X41661Y35911D01*
X41911Y36161D01*
X42411Y36161D01*
X42661Y35911D01*
X42911Y36161D01*
X43411Y36161D01*
X43661Y35911D01*
X43661Y35411D01*
X43411Y35161D01*
X42911Y35161D01*
X42661Y35411D01*
X42411Y35161D01*
X41911Y35161D01*
X41661Y35411D01*
X41411Y35161D01*
X40911Y35161D01*
X40661Y35411D01*
X40411Y35161D01*
X39911Y35161D01*
D21*
X9128Y12681D02*
X8821Y12681D01*
X8974Y12681D02*
X8974Y13141D01*
X8821Y12988D01*
X8667Y13065D02*
X8590Y13141D01*
X8437Y13141D01*
X8360Y13065D01*
X8360Y12988D01*
X8437Y12911D01*
X8590Y12911D01*
X8667Y12834D01*
X8667Y12758D01*
X8590Y12681D01*
X8437Y12681D01*
X8360Y12758D01*
D18*
G36*
X42018Y34694D02*
X42354Y34694D01*
X42354Y34627D01*
X42086Y34627D01*
X42086Y34425D01*
X42018Y34425D01*
X42018Y34694D01*
X42018Y34694D01*
G37*
G36*
X42018Y34358D02*
X42354Y34358D01*
X42354Y34022D01*
X42287Y34022D01*
X42287Y34291D01*
X42220Y34291D01*
X42220Y34089D01*
X42153Y34089D01*
X42153Y34291D01*
X42086Y34291D01*
X42086Y34022D01*
X42018Y34022D01*
X42018Y34358D01*
X42018Y34358D01*
G37*
G36*
X42086Y33686D02*
X42287Y33686D01*
X42287Y33618D01*
X42086Y33618D01*
X42086Y33686D01*
X42086Y33686D01*
G37*
G36*
X42018Y33954D02*
X42354Y33954D01*
X42354Y33686D01*
X42287Y33686D01*
X42287Y33887D01*
X42086Y33887D01*
X42086Y33686D01*
X42018Y33686D01*
X42018Y33954D01*
X42018Y33954D01*
G37*
G36*
X42237Y33398D02*
X42237Y33460D01*
X42312Y33460D01*
X42312Y33398D01*
X42237Y33398D01*
X42237Y33398D01*
G37*
G36*
X42018Y33398D02*
X42018Y33460D01*
X42093Y33460D01*
X42093Y33398D01*
X42018Y33398D01*
X42018Y33398D01*
G37*
G36*
X42018Y32848D02*
X42086Y32848D01*
X42086Y32781D01*
X42018Y32781D01*
X42018Y32848D01*
X42018Y32848D01*
G37*
G36*
X42018Y33117D02*
X42354Y33117D01*
X42354Y32781D01*
X42153Y32781D01*
X42153Y32848D01*
X42086Y32848D01*
X42086Y32916D01*
X42153Y32916D01*
X42153Y33050D01*
X42018Y33050D01*
X42018Y33117D01*
X42018Y33117D01*
G37*
%LPC*%
G36*
X42220Y32848D02*
X42287Y32848D01*
X42287Y33050D01*
X42220Y33050D01*
X42220Y32848D01*
X42220Y32848D01*
G37*
%LPD*%
G36*
X42237Y32560D02*
X42237Y32623D01*
X42312Y32623D01*
X42312Y32560D01*
X42237Y32560D01*
X42237Y32560D01*
G37*
G36*
X42018Y32560D02*
X42018Y32623D01*
X42093Y32623D01*
X42093Y32560D01*
X42018Y32560D01*
X42018Y32560D01*
G37*
G36*
X42018Y32268D02*
X42153Y32268D01*
X42153Y32469D01*
X42354Y32469D01*
X42354Y32402D01*
X42220Y32402D01*
X42220Y32268D01*
X42354Y32268D01*
X42354Y32200D01*
X42018Y32200D01*
X42018Y32268D01*
X42018Y32268D01*
G37*
G36*
X42018Y32133D02*
X42086Y32133D01*
X42086Y31931D01*
X42153Y31931D01*
X42153Y32133D01*
X42287Y32133D01*
X42287Y32066D01*
X42220Y32066D01*
X42220Y31864D01*
X42018Y31864D01*
X42018Y32133D01*
X42018Y32133D01*
G37*
G36*
X42287Y32066D02*
X42354Y32066D01*
X42354Y31864D01*
X42287Y31864D01*
X42287Y32066D01*
X42287Y32066D01*
G37*
G36*
X42018Y31461D02*
X42354Y31461D01*
X42354Y31125D01*
X42287Y31125D01*
X42287Y31394D01*
X42086Y31394D01*
X42086Y31192D01*
X42153Y31192D01*
X42153Y31326D01*
X42220Y31326D01*
X42220Y31125D01*
X42018Y31125D01*
X42018Y31461D01*
X42018Y31461D01*
G37*
G36*
X42237Y30904D02*
X42237Y30967D01*
X42312Y30967D01*
X42312Y30904D01*
X42237Y30904D01*
X42237Y30904D01*
G37*
G36*
X42018Y30904D02*
X42018Y30967D01*
X42093Y30967D01*
X42093Y30904D01*
X42018Y30904D01*
X42018Y30904D01*
G37*
G36*
X42018Y30611D02*
X42153Y30611D01*
X42153Y30813D01*
X42354Y30813D01*
X42354Y30746D01*
X42220Y30746D01*
X42220Y30611D01*
X42354Y30611D01*
X42354Y30544D01*
X42018Y30544D01*
X42018Y30611D01*
X42018Y30611D01*
G37*
G36*
X42018Y30275D02*
X42153Y30275D01*
X42153Y30477D01*
X42354Y30477D01*
X42354Y30410D01*
X42220Y30410D01*
X42220Y30275D01*
X42354Y30275D01*
X42354Y30208D01*
X42018Y30208D01*
X42018Y30275D01*
X42018Y30275D01*
G37*
G36*
X42018Y29737D02*
X42354Y29737D01*
X42354Y29468D01*
X42287Y29468D01*
X42287Y29670D01*
X42220Y29670D01*
X42220Y29468D01*
X42287Y29468D01*
X42287Y29401D01*
X42086Y29401D01*
X42086Y29468D01*
X42153Y29468D01*
X42153Y29670D01*
X42086Y29670D01*
X42086Y29468D01*
X42018Y29468D01*
X42018Y29737D01*
X42018Y29737D01*
G37*
G36*
X42237Y29180D02*
X42237Y29243D01*
X42312Y29243D01*
X42312Y29180D01*
X42237Y29180D01*
X42237Y29180D01*
G37*
G36*
X42018Y29180D02*
X42018Y29243D01*
X42093Y29243D01*
X42093Y29180D01*
X42018Y29180D01*
X42018Y29180D01*
G37*
G36*
X42018Y28888D02*
X42153Y28888D01*
X42153Y29089D01*
X42354Y29089D01*
X42354Y29022D01*
X42220Y29022D01*
X42220Y28888D01*
X42354Y28888D01*
X42354Y28820D01*
X42018Y28820D01*
X42018Y28888D01*
X42018Y28888D01*
G37*
G36*
X42018Y28753D02*
X42354Y28753D01*
X42354Y28484D01*
X42287Y28484D01*
X42287Y28686D01*
X42220Y28686D01*
X42220Y28484D01*
X42018Y28484D01*
X42018Y28753D01*
X42018Y28753D01*
G37*
%LPC*%
G36*
X42086Y28551D02*
X42153Y28551D01*
X42153Y28686D01*
X42086Y28686D01*
X42086Y28551D01*
X42086Y28551D01*
G37*
%LPD*%
G36*
X2026Y7923D02*
X2026Y8012D01*
X2115Y8012D01*
X2115Y7923D01*
X2026Y7923D01*
X2026Y7923D01*
G37*
G36*
X1937Y8012D02*
X1937Y8101D01*
X2026Y8101D01*
X2026Y8012D01*
X1937Y8012D01*
X1937Y8012D01*
G37*
G36*
X1937Y8190D02*
X1937Y8279D01*
X2026Y8279D01*
X2026Y8190D01*
X1937Y8190D01*
X1937Y8190D01*
G37*
G36*
X1759Y7923D02*
X1759Y8368D01*
X1848Y8368D01*
X1848Y8190D01*
X1937Y8190D01*
X1937Y8101D01*
X1848Y8101D01*
X1848Y7923D01*
X1759Y7923D01*
X1759Y7923D01*
G37*
G36*
X2026Y8279D02*
X2026Y8368D01*
X2115Y8368D01*
X2115Y8279D01*
X2026Y8279D01*
X2026Y8279D01*
G37*
G36*
X2204Y7923D02*
X2204Y8368D01*
X2649Y8368D01*
X2649Y8279D01*
X2293Y8279D01*
X2293Y8190D01*
X2560Y8190D01*
X2560Y8101D01*
X2293Y8101D01*
X2293Y8012D01*
X2649Y8012D01*
X2649Y7923D01*
X2204Y7923D01*
X2204Y7923D01*
G37*
G36*
X2915Y7923D02*
X2915Y8190D01*
X3004Y8190D01*
X3004Y7923D01*
X2915Y7923D01*
X2915Y7923D01*
G37*
G36*
X2827Y8190D02*
X2827Y8279D01*
X2915Y8279D01*
X2915Y8190D01*
X2827Y8190D01*
X2827Y8190D01*
G37*
G36*
X3004Y8190D02*
X3004Y8279D01*
X3093Y8279D01*
X3093Y8190D01*
X3004Y8190D01*
X3004Y8190D01*
G37*
G36*
X2738Y8279D02*
X2738Y8368D01*
X2827Y8368D01*
X2827Y8279D01*
X2738Y8279D01*
X2738Y8279D01*
G37*
G36*
X3093Y8279D02*
X3093Y8368D01*
X3182Y8368D01*
X3182Y8279D01*
X3093Y8279D01*
X3093Y8279D01*
G37*
G36*
X3271Y7923D02*
X3271Y8012D01*
X3627Y8012D01*
X3627Y8101D01*
X3271Y8101D01*
X3271Y8368D01*
X3716Y8368D01*
X3716Y8279D01*
X3360Y8279D01*
X3360Y8190D01*
X3716Y8190D01*
X3716Y7923D01*
X3271Y7923D01*
X3271Y7923D01*
G37*
G36*
X4008Y8212D02*
X3925Y8212D01*
X3925Y8311D01*
X4008Y8311D01*
X4008Y8212D01*
X4008Y8212D01*
G37*
G36*
X4008Y7923D02*
X3925Y7923D01*
X3925Y8022D01*
X4008Y8022D01*
X4008Y7923D01*
X4008Y7923D01*
G37*
G36*
X4379Y7923D02*
X4379Y8368D01*
X4823Y8368D01*
X4823Y7923D01*
X4734Y7923D01*
X4734Y8101D01*
X4468Y8101D01*
X4468Y7923D01*
X4379Y7923D01*
X4379Y7923D01*
G37*
%LPC*%
G36*
X4734Y8190D02*
X4734Y8279D01*
X4468Y8279D01*
X4468Y8190D01*
X4734Y8190D01*
X4734Y8190D01*
G37*
%LPD*%
G36*
X5001Y7923D02*
X5001Y8012D01*
X5268Y8012D01*
X5268Y7923D01*
X5001Y7923D01*
X5001Y7923D01*
G37*
G36*
X4912Y8012D02*
X4912Y8279D01*
X5001Y8279D01*
X5001Y8012D01*
X4912Y8012D01*
X4912Y8012D01*
G37*
G36*
X5268Y8012D02*
X5268Y8279D01*
X5357Y8279D01*
X5357Y8012D01*
X5268Y8012D01*
X5268Y8012D01*
G37*
G36*
X5001Y8279D02*
X5001Y8368D01*
X5268Y8368D01*
X5268Y8279D01*
X5001Y8279D01*
X5001Y8279D01*
G37*
G36*
X6698Y15964D02*
X6698Y16300D01*
X6766Y16300D01*
X6766Y16031D01*
X6967Y16031D01*
X6967Y15964D01*
X6698Y15964D01*
X6698Y15964D01*
G37*
G36*
X7035Y15964D02*
X7035Y16300D01*
X7371Y16300D01*
X7371Y16233D01*
X7102Y16233D01*
X7102Y16031D01*
X7371Y16031D01*
X7371Y15964D01*
X7035Y15964D01*
X7035Y15964D01*
G37*
G36*
X7707Y16031D02*
X7707Y16233D01*
X7774Y16233D01*
X7774Y16031D01*
X7707Y16031D01*
X7707Y16031D01*
G37*
G36*
X7438Y15964D02*
X7438Y16300D01*
X7707Y16300D01*
X7707Y16233D01*
X7505Y16233D01*
X7505Y16031D01*
X7707Y16031D01*
X7707Y15964D01*
X7438Y15964D01*
X7438Y15964D01*
G37*
G36*
X8043Y15964D02*
X8043Y16300D01*
X8312Y16300D01*
X8312Y16233D01*
X8110Y16233D01*
X8110Y16166D01*
X8312Y16166D01*
X8312Y16233D01*
X8379Y16233D01*
X8379Y16031D01*
X8312Y16031D01*
X8312Y16098D01*
X8110Y16098D01*
X8110Y16031D01*
X8312Y16031D01*
X8312Y15964D01*
X8043Y15964D01*
X8043Y15964D01*
G37*
G36*
X8446Y15964D02*
X8446Y16300D01*
X8782Y16300D01*
X8782Y15964D01*
X8715Y15964D01*
X8715Y16098D01*
X8513Y16098D01*
X8513Y15964D01*
X8446Y15964D01*
X8446Y15964D01*
G37*
%LPC*%
G36*
X8715Y16166D02*
X8715Y16233D01*
X8513Y16233D01*
X8513Y16166D01*
X8715Y16166D01*
X8715Y16166D01*
G37*
%LPD*%
G36*
X8850Y15964D02*
X8850Y16300D01*
X9186Y16300D01*
X9186Y16233D01*
X8917Y16233D01*
X8917Y16031D01*
X9186Y16031D01*
X9186Y15964D01*
X8850Y15964D01*
X8850Y15964D01*
G37*
G36*
X9455Y15964D02*
X9455Y16031D01*
X9522Y16031D01*
X9522Y15964D01*
X9455Y15964D01*
X9455Y15964D01*
G37*
G36*
X9387Y16031D02*
X9387Y16098D01*
X9455Y16098D01*
X9455Y16031D01*
X9387Y16031D01*
X9387Y16031D01*
G37*
G36*
X9387Y16166D02*
X9387Y16233D01*
X9455Y16233D01*
X9455Y16166D01*
X9387Y16166D01*
X9387Y16166D01*
G37*
G36*
X9253Y15964D02*
X9253Y16300D01*
X9320Y16300D01*
X9320Y16166D01*
X9387Y16166D01*
X9387Y16098D01*
X9320Y16098D01*
X9320Y15964D01*
X9253Y15964D01*
X9253Y15964D01*
G37*
G36*
X9455Y16233D02*
X9455Y16300D01*
X9522Y16300D01*
X9522Y16233D01*
X9455Y16233D01*
X9455Y16233D01*
G37*
G36*
X9791Y15964D02*
X9791Y16300D01*
X9858Y16300D01*
X9858Y16031D01*
X10060Y16031D01*
X10060Y15964D01*
X9791Y15964D01*
X9791Y15964D01*
G37*
G36*
X10127Y15964D02*
X10127Y16031D01*
X10261Y16031D01*
X10261Y16233D01*
X10127Y16233D01*
X10127Y16300D01*
X10463Y16300D01*
X10463Y16233D01*
X10328Y16233D01*
X10328Y16031D01*
X10463Y16031D01*
X10463Y15964D01*
X10127Y15964D01*
X10127Y15964D01*
G37*
G36*
X10530Y15964D02*
X10530Y16300D01*
X10866Y16300D01*
X10866Y16233D01*
X10597Y16233D01*
X10597Y16031D01*
X10799Y16031D01*
X10799Y16098D01*
X10665Y16098D01*
X10665Y16166D01*
X10866Y16166D01*
X10866Y15964D01*
X10530Y15964D01*
X10530Y15964D01*
G37*
G36*
X10933Y15964D02*
X10933Y16300D01*
X11001Y16300D01*
X11001Y16166D01*
X11202Y16166D01*
X11202Y16300D01*
X11270Y16300D01*
X11270Y15964D01*
X11202Y15964D01*
X11202Y16098D01*
X11001Y16098D01*
X11001Y15964D01*
X10933Y15964D01*
X10933Y15964D01*
G37*
G36*
X6880Y25285D02*
X6663Y25344D01*
X6612Y25095D01*
X6829Y25036D01*
X6880Y25285D01*
G37*
G36*
X6612Y25095D02*
X6396Y25153D01*
X6345Y24905D01*
X6562Y24846D01*
X6612Y25095D01*
G37*
G36*
X6345Y24905D02*
X6128Y24963D01*
X6077Y24714D01*
X6294Y24656D01*
X6345Y24905D01*
G37*
G36*
X4789Y24012D02*
X4738Y23763D01*
X4955Y23705D01*
X5006Y23953D01*
X4789Y24012D01*
G37*
G36*
X5809Y24524D02*
X5592Y24583D01*
X5542Y24334D01*
X5758Y24276D01*
X5809Y24524D01*
G37*
G36*
X6077Y24714D02*
X5860Y24773D01*
X5809Y24524D01*
X6026Y24466D01*
X6077Y24714D01*
G37*
G36*
X4203Y23383D02*
X3986Y23441D01*
X3935Y23193D01*
X4152Y23134D01*
X4203Y23383D01*
G37*
G36*
X4254Y23631D02*
X4203Y23383D01*
X4420Y23324D01*
X4471Y23573D01*
X4254Y23631D01*
G37*
G36*
X4738Y23763D02*
X4522Y23822D01*
X4471Y23573D01*
X4687Y23515D01*
X4738Y23763D01*
G37*
G36*
X6667Y22426D02*
X6450Y22485D01*
X6399Y22236D01*
X6616Y22178D01*
X6667Y22426D01*
G37*
G36*
X6399Y22236D02*
X6182Y22294D01*
X6131Y22046D01*
X6348Y21987D01*
X6399Y22236D01*
G37*
G36*
X5864Y21856D02*
X5647Y21914D01*
X5596Y21665D01*
X5813Y21607D01*
X5864Y21856D01*
G37*
G36*
X6131Y22046D02*
X5914Y22104D01*
X5864Y21856D01*
X6080Y21797D01*
X6131Y22046D01*
G37*
G36*
X4308Y20963D02*
X4257Y20714D01*
X4474Y20656D01*
X4525Y20904D01*
X4308Y20963D01*
G37*
G36*
X4793Y21095D02*
X4576Y21153D01*
X4525Y20904D01*
X4742Y20846D01*
X4793Y21095D01*
G37*
G36*
X6431Y19952D02*
X6214Y20011D01*
X6163Y19762D01*
X6380Y19703D01*
X6431Y19952D01*
G37*
G36*
X5896Y19572D02*
X5679Y19630D01*
X5628Y19381D01*
X5845Y19323D01*
X5896Y19572D01*
G37*
G36*
X6163Y19762D02*
X5947Y19820D01*
X5896Y19572D01*
X6112Y19513D01*
X6163Y19762D01*
G37*
G36*
X4825Y18811D02*
X4608Y18869D01*
X4557Y18620D01*
X4774Y18562D01*
X4825Y18811D01*
G37*
G36*
X5841Y17514D02*
X5625Y17573D01*
X5574Y17324D01*
X5790Y17266D01*
X5841Y17514D01*
G37*
G36*
X6109Y17705D02*
X5892Y17763D01*
X5841Y17514D01*
X6058Y17456D01*
X6109Y17705D01*
G37*
G36*
X1868Y22439D02*
X5656Y22418D01*
X5619Y22747D01*
X1861Y22807D01*
X1857Y22710D01*
X1854Y22632D01*
X1855Y22571D01*
X1855Y22510D01*
X1858Y22467D01*
X1868Y22439D01*
X1868Y22439D01*
G37*
G36*
X1754Y22009D02*
X1754Y21703D01*
X1916Y21703D01*
X1916Y22009D01*
X1754Y22009D01*
G37*
G36*
X1754Y20359D02*
X1754Y20053D01*
X4120Y20053D01*
X4120Y21583D01*
X1754Y21583D01*
X1754Y21277D01*
X2700Y21277D01*
X2700Y20359D01*
X1754Y20359D01*
G37*
%LPC*%
G36*
X3647Y21277D02*
X3647Y20359D01*
X3173Y20359D01*
X3173Y21277D01*
X3647Y21277D01*
G37*
%LPD*%
G36*
X1754Y19932D02*
X1754Y19627D01*
X1916Y19627D01*
X1916Y19932D01*
X1754Y19932D01*
G37*
G36*
X3173Y19201D02*
X3173Y18895D01*
X3033Y18895D01*
X3033Y18589D01*
X3173Y18589D01*
X3173Y18895D01*
X3647Y18895D01*
X3647Y19201D01*
X4120Y19201D01*
X4120Y19507D01*
X1754Y19507D01*
X1754Y19201D01*
X3173Y19201D01*
G37*
G36*
X1754Y18283D02*
X1754Y17977D01*
X4120Y17977D01*
X4120Y18283D01*
X3647Y18283D01*
X3647Y18589D01*
X3173Y18589D01*
X3173Y18283D01*
X1754Y18283D01*
G37*
G36*
X1754Y17856D02*
X1754Y17550D01*
X1939Y17550D01*
X1939Y17856D01*
X1754Y17856D01*
G37*
G36*
X3869Y17385D02*
X3869Y17048D01*
X1939Y17048D01*
X1939Y17385D01*
X1754Y17385D01*
X1754Y16406D01*
X1939Y16406D01*
X1939Y16742D01*
X3869Y16742D01*
X3869Y16406D01*
X4120Y16406D01*
X4120Y17385D01*
X3869Y17385D01*
G37*
G36*
X5018Y24501D02*
X5274Y16504D01*
X5477Y16525D01*
X5413Y24643D01*
X5363Y24651D01*
X5317Y24648D01*
X5275Y24640D01*
X5233Y24631D01*
X5195Y24616D01*
X5162Y24599D01*
X5128Y24581D01*
X5099Y24562D01*
X5075Y24545D01*
X5051Y24527D01*
X5032Y24511D01*
X5018Y24501D01*
X5018Y24501D01*
G37*
G36*
X3552Y19029D02*
X3174Y19029D01*
X3174Y18489D01*
X3552Y18489D01*
X3552Y19029D01*
G37*
G36*
X4219Y21829D02*
X4041Y21829D01*
X4041Y21422D01*
X4219Y21422D01*
X4219Y21829D01*
G37*
G36*
X4219Y20237D02*
X4041Y20237D01*
X4041Y19829D01*
X4219Y19829D01*
X4219Y20237D01*
G37*
G36*
X5274Y24144D02*
X5057Y24202D01*
X5006Y23953D01*
X5223Y23895D01*
X5274Y24144D01*
G37*
G36*
X5542Y24334D02*
X5325Y24392D01*
X5274Y24144D01*
X5491Y24085D01*
X5542Y24334D01*
G37*
G36*
X5328Y21475D02*
X5111Y21534D01*
X5060Y21285D01*
X5277Y21226D01*
X5328Y21475D01*
G37*
G36*
X4843Y21343D02*
X4793Y21095D01*
X5009Y21036D01*
X5060Y21285D01*
X4843Y21343D01*
G37*
G36*
X5596Y21665D02*
X5379Y21724D01*
X5328Y21475D01*
X5545Y21417D01*
X5596Y21665D01*
G37*
G36*
X5360Y19191D02*
X5143Y19250D01*
X5092Y19001D01*
X5309Y18943D01*
X5360Y19191D01*
G37*
G36*
X4876Y19059D02*
X4825Y18811D01*
X5042Y18752D01*
X5092Y19001D01*
X4876Y19059D01*
G37*
G36*
X5628Y19381D02*
X5411Y19440D01*
X5360Y19191D01*
X5577Y19133D01*
X5628Y19381D01*
G37*
G36*
X5306Y17134D02*
X5089Y17192D01*
X5038Y16944D01*
X5255Y16885D01*
X5306Y17134D01*
G37*
G36*
X4821Y17002D02*
X4770Y16754D01*
X4987Y16695D01*
X5038Y16944D01*
X4821Y17002D01*
G37*
G36*
X5574Y17324D02*
X5357Y17383D01*
X5306Y17134D01*
X5523Y17076D01*
X5574Y17324D01*
G37*
G36*
X6678Y33411D02*
X6678Y33705D01*
X6736Y33705D01*
X6736Y33470D01*
X6912Y33470D01*
X6912Y33411D01*
X6678Y33411D01*
X6678Y33411D01*
G37*
G36*
X6971Y33411D02*
X6971Y33705D01*
X7264Y33705D01*
X7264Y33646D01*
X7030Y33646D01*
X7030Y33587D01*
X7206Y33587D01*
X7206Y33529D01*
X7030Y33529D01*
X7030Y33470D01*
X7264Y33470D01*
X7264Y33411D01*
X6971Y33411D01*
X6971Y33411D01*
G37*
G36*
X7557Y33470D02*
X7557Y33646D01*
X7616Y33646D01*
X7616Y33470D01*
X7557Y33470D01*
X7557Y33470D01*
G37*
G36*
X7323Y33411D02*
X7323Y33705D01*
X7557Y33705D01*
X7557Y33646D01*
X7381Y33646D01*
X7381Y33470D01*
X7557Y33470D01*
X7557Y33411D01*
X7323Y33411D01*
X7323Y33411D01*
G37*
G36*
X7792Y33411D02*
X7792Y33705D01*
X8085Y33705D01*
X8085Y33646D01*
X7851Y33646D01*
X7851Y33470D01*
X8085Y33470D01*
X8085Y33411D01*
X7792Y33411D01*
X7792Y33411D01*
G37*
G36*
X8144Y33411D02*
X8144Y33705D01*
X8437Y33705D01*
X8437Y33411D01*
X8144Y33411D01*
X8144Y33411D01*
G37*
%LPC*%
G36*
X8378Y33470D02*
X8378Y33646D01*
X8202Y33646D01*
X8202Y33470D01*
X8378Y33470D01*
X8378Y33470D01*
G37*
%LPD*%
G36*
X8613Y33529D02*
X8613Y33587D01*
X8671Y33587D01*
X8671Y33529D01*
X8613Y33529D01*
X8613Y33529D01*
G37*
G36*
X8496Y33411D02*
X8496Y33705D01*
X8554Y33705D01*
X8554Y33646D01*
X8613Y33646D01*
X8613Y33587D01*
X8554Y33587D01*
X8554Y33411D01*
X8496Y33411D01*
X8496Y33411D01*
G37*
G36*
X8730Y33411D02*
X8730Y33470D01*
X8671Y33470D01*
X8671Y33529D01*
X8730Y33529D01*
X8730Y33705D01*
X8789Y33705D01*
X8789Y33411D01*
X8730Y33411D01*
X8730Y33411D01*
G37*
G36*
X8965Y33529D02*
X8965Y33587D01*
X9023Y33587D01*
X9023Y33529D01*
X8965Y33529D01*
X8965Y33529D01*
G37*
G36*
X8847Y33411D02*
X8847Y33705D01*
X8906Y33705D01*
X8906Y33646D01*
X8965Y33646D01*
X8965Y33587D01*
X8906Y33587D01*
X8906Y33411D01*
X8847Y33411D01*
X8847Y33411D01*
G37*
G36*
X9082Y33411D02*
X9082Y33470D01*
X9023Y33470D01*
X9023Y33529D01*
X9082Y33529D01*
X9082Y33705D01*
X9141Y33705D01*
X9141Y33411D01*
X9082Y33411D01*
X9082Y33411D01*
G37*
G36*
X9199Y33411D02*
X9199Y33705D01*
X9492Y33705D01*
X9492Y33646D01*
X9258Y33646D01*
X9258Y33587D01*
X9434Y33587D01*
X9434Y33529D01*
X9258Y33529D01*
X9258Y33470D01*
X9492Y33470D01*
X9492Y33411D01*
X9199Y33411D01*
X9199Y33411D01*
G37*
G36*
X9551Y33411D02*
X9551Y33705D01*
X9844Y33705D01*
X9844Y33646D01*
X9610Y33646D01*
X9610Y33470D01*
X9844Y33470D01*
X9844Y33411D01*
X9551Y33411D01*
X9551Y33411D01*
G37*
G36*
X10020Y33411D02*
X10020Y33646D01*
X9903Y33646D01*
X9903Y33705D01*
X10196Y33705D01*
X10196Y33646D01*
X10079Y33646D01*
X10079Y33411D01*
X10020Y33411D01*
X10020Y33411D01*
G37*
G36*
X10255Y33411D02*
X10255Y33705D01*
X10548Y33705D01*
X10548Y33646D01*
X10313Y33646D01*
X10313Y33587D01*
X10489Y33587D01*
X10489Y33529D01*
X10313Y33529D01*
X10313Y33470D01*
X10548Y33470D01*
X10548Y33411D01*
X10255Y33411D01*
X10255Y33411D01*
G37*
G36*
X10841Y33470D02*
X10841Y33646D01*
X10900Y33646D01*
X10900Y33470D01*
X10841Y33470D01*
X10841Y33470D01*
G37*
G36*
X10606Y33411D02*
X10606Y33705D01*
X10841Y33705D01*
X10841Y33646D01*
X10665Y33646D01*
X10665Y33470D01*
X10841Y33470D01*
X10841Y33411D01*
X10606Y33411D01*
X10606Y33411D01*
G37*
G36*
X6795Y32825D02*
X6795Y33060D01*
X6678Y33060D01*
X6678Y33118D01*
X6971Y33118D01*
X6971Y33060D01*
X6854Y33060D01*
X6854Y32825D01*
X6795Y32825D01*
X6795Y32825D01*
G37*
G36*
X7030Y32825D02*
X7030Y33118D01*
X7323Y33118D01*
X7323Y32825D01*
X7030Y32825D01*
X7030Y32825D01*
G37*
%LPC*%
G36*
X7264Y32884D02*
X7264Y33060D01*
X7088Y33060D01*
X7088Y32884D01*
X7264Y32884D01*
X7264Y32884D01*
G37*
%LPD*%
G36*
X7557Y32825D02*
X7557Y33118D01*
X7851Y33118D01*
X7851Y32942D01*
X7616Y32942D01*
X7616Y32825D01*
X7557Y32825D01*
X7557Y32825D01*
G37*
%LPC*%
G36*
X7792Y33001D02*
X7792Y33060D01*
X7616Y33060D01*
X7616Y33001D01*
X7792Y33001D01*
X7792Y33001D01*
G37*
%LPD*%
G36*
X8026Y32884D02*
X8026Y32942D01*
X8085Y32942D01*
X8085Y32884D01*
X8026Y32884D01*
X8026Y32884D01*
G37*
G36*
X7909Y32825D02*
X7909Y33118D01*
X7968Y33118D01*
X7968Y32884D01*
X8026Y32884D01*
X8026Y32825D01*
X7909Y32825D01*
X7909Y32825D01*
G37*
G36*
X8085Y32825D02*
X8085Y32884D01*
X8144Y32884D01*
X8144Y33118D01*
X8202Y33118D01*
X8202Y32825D01*
X8085Y32825D01*
X8085Y32825D01*
G37*
G36*
X8378Y32942D02*
X8378Y33001D01*
X8437Y33001D01*
X8437Y32942D01*
X8378Y32942D01*
X8378Y32942D01*
G37*
G36*
X8261Y32825D02*
X8261Y33118D01*
X8320Y33118D01*
X8320Y33060D01*
X8378Y33060D01*
X8378Y33001D01*
X8320Y33001D01*
X8320Y32825D01*
X8261Y32825D01*
X8261Y32825D01*
G37*
G36*
X8496Y32825D02*
X8496Y33001D01*
X8437Y33001D01*
X8437Y33060D01*
X8496Y33060D01*
X8496Y33118D01*
X8554Y33118D01*
X8554Y32825D01*
X8496Y32825D01*
X8496Y32825D01*
G37*
G36*
X9023Y32884D02*
X9023Y33060D01*
X9082Y33060D01*
X9082Y32884D01*
X9023Y32884D01*
X9023Y32884D01*
G37*
G36*
X8789Y32825D02*
X8789Y33118D01*
X9023Y33118D01*
X9023Y33060D01*
X8847Y33060D01*
X8847Y32884D01*
X9023Y32884D01*
X9023Y32825D01*
X8789Y32825D01*
X8789Y32825D01*
G37*
G36*
X9375Y32825D02*
X9375Y32884D01*
X9434Y32884D01*
X9434Y32825D01*
X9375Y32825D01*
X9375Y32825D01*
G37*
G36*
X9141Y32825D02*
X9141Y33118D01*
X9434Y33118D01*
X9434Y32942D01*
X9375Y32942D01*
X9375Y32884D01*
X9316Y32884D01*
X9316Y32942D01*
X9199Y32942D01*
X9199Y32825D01*
X9141Y32825D01*
X9141Y32825D01*
G37*
%LPC*%
G36*
X9375Y33001D02*
X9375Y33060D01*
X9199Y33060D01*
X9199Y33001D01*
X9375Y33001D01*
X9375Y33001D01*
G37*
%LPD*%
G36*
X9492Y32825D02*
X9492Y32884D01*
X9610Y32884D01*
X9610Y33060D01*
X9492Y33060D01*
X9492Y33118D01*
X9786Y33118D01*
X9786Y33060D01*
X9668Y33060D01*
X9668Y32884D01*
X9786Y32884D01*
X9786Y32825D01*
X9492Y32825D01*
X9492Y32825D01*
G37*
G36*
X9961Y32825D02*
X9961Y32884D01*
X10020Y32884D01*
X10020Y32825D01*
X9961Y32825D01*
X9961Y32825D01*
G37*
G36*
X9903Y32884D02*
X9903Y33001D01*
X9961Y33001D01*
X9961Y32884D01*
X9903Y32884D01*
X9903Y32884D01*
G37*
G36*
X10020Y32884D02*
X10020Y33001D01*
X10079Y33001D01*
X10079Y32884D01*
X10020Y32884D01*
X10020Y32884D01*
G37*
G36*
X9844Y33001D02*
X9844Y33118D01*
X9903Y33118D01*
X9903Y33001D01*
X9844Y33001D01*
X9844Y33001D01*
G37*
G36*
X10079Y33001D02*
X10079Y33118D01*
X10137Y33118D01*
X10137Y33001D01*
X10079Y33001D01*
X10079Y33001D01*
G37*
G36*
X10196Y32825D02*
X10196Y33118D01*
X10489Y33118D01*
X10489Y33060D01*
X10255Y33060D01*
X10255Y33001D01*
X10431Y33001D01*
X10431Y32942D01*
X10255Y32942D01*
X10255Y32884D01*
X10489Y32884D01*
X10489Y32825D01*
X10196Y32825D01*
X10196Y32825D01*
G37*
G36*
X10782Y32825D02*
X10782Y32884D01*
X10841Y32884D01*
X10841Y32825D01*
X10782Y32825D01*
X10782Y32825D01*
G37*
G36*
X10548Y32825D02*
X10548Y33118D01*
X10841Y33118D01*
X10841Y32942D01*
X10782Y32942D01*
X10782Y32884D01*
X10724Y32884D01*
X10724Y32942D01*
X10606Y32942D01*
X10606Y32825D01*
X10548Y32825D01*
X10548Y32825D01*
G37*
%LPC*%
G36*
X10782Y33001D02*
X10782Y33060D01*
X10606Y33060D01*
X10606Y33001D01*
X10782Y33001D01*
X10782Y33001D01*
G37*
%LPD*%
G36*
X6912Y32137D02*
X6912Y32196D01*
X6971Y32196D01*
X6971Y32137D01*
X6912Y32137D01*
X6912Y32137D01*
G37*
G36*
X6678Y32137D02*
X6678Y32431D01*
X6971Y32431D01*
X6971Y32255D01*
X6912Y32255D01*
X6912Y32196D01*
X6854Y32196D01*
X6854Y32255D01*
X6736Y32255D01*
X6736Y32137D01*
X6678Y32137D01*
X6678Y32137D01*
G37*
%LPC*%
G36*
X6912Y32313D02*
X6912Y32372D01*
X6736Y32372D01*
X6736Y32313D01*
X6912Y32313D01*
X6912Y32313D01*
G37*
%LPD*%
G36*
X7164Y32328D02*
X7109Y32328D01*
X7109Y32393D01*
X7164Y32393D01*
X7164Y32328D01*
X7164Y32328D01*
G37*
G36*
X7164Y32137D02*
X7109Y32137D01*
X7109Y32203D01*
X7164Y32203D01*
X7164Y32137D01*
X7164Y32137D01*
G37*
G36*
X7302Y32137D02*
X7302Y32372D01*
X7243Y32372D01*
X7243Y32431D01*
X7360Y32431D01*
X7360Y32137D01*
X7302Y32137D01*
X7302Y32137D01*
G37*
G36*
X7419Y32137D02*
X7419Y32196D01*
X7595Y32196D01*
X7595Y32255D01*
X7419Y32255D01*
X7419Y32372D01*
X7478Y32372D01*
X7478Y32313D01*
X7654Y32313D01*
X7654Y32137D01*
X7419Y32137D01*
X7419Y32137D01*
G37*
G36*
X7478Y32372D02*
X7478Y32431D01*
X7654Y32431D01*
X7654Y32372D01*
X7478Y32372D01*
X7478Y32372D01*
G37*
G36*
X6678Y31450D02*
X6678Y31743D01*
X6971Y31743D01*
X6971Y31684D01*
X6736Y31684D01*
X6736Y31508D01*
X6912Y31508D01*
X6912Y31567D01*
X6795Y31567D01*
X6795Y31626D01*
X6971Y31626D01*
X6971Y31450D01*
X6678Y31450D01*
X6678Y31450D01*
G37*
G36*
X7164Y31640D02*
X7109Y31640D01*
X7109Y31706D01*
X7164Y31706D01*
X7164Y31640D01*
X7164Y31640D01*
G37*
G36*
X7164Y31450D02*
X7109Y31450D01*
X7109Y31515D01*
X7164Y31515D01*
X7164Y31450D01*
X7164Y31450D01*
G37*
G36*
X7302Y31450D02*
X7302Y31684D01*
X7243Y31684D01*
X7243Y31743D01*
X7360Y31743D01*
X7360Y31450D01*
X7302Y31450D01*
X7302Y31450D01*
G37*
G36*
X7595Y31450D02*
X7595Y31567D01*
X7419Y31567D01*
X7419Y31743D01*
X7478Y31743D01*
X7478Y31626D01*
X7595Y31626D01*
X7595Y31743D01*
X7654Y31743D01*
X7654Y31450D01*
X7595Y31450D01*
X7595Y31450D01*
G37*
G36*
X6678Y30762D02*
X6678Y31055D01*
X6912Y31055D01*
X6912Y30997D01*
X6736Y30997D01*
X6736Y30938D01*
X6912Y30938D01*
X6912Y30997D01*
X6971Y30997D01*
X6971Y30821D01*
X6912Y30821D01*
X6912Y30879D01*
X6736Y30879D01*
X6736Y30821D01*
X6912Y30821D01*
X6912Y30762D01*
X6678Y30762D01*
X6678Y30762D01*
G37*
G36*
X7164Y30953D02*
X7109Y30953D01*
X7109Y31018D01*
X7164Y31018D01*
X7164Y30953D01*
X7164Y30953D01*
G37*
G36*
X7164Y30762D02*
X7109Y30762D01*
X7109Y30827D01*
X7164Y30827D01*
X7164Y30762D01*
X7164Y30762D01*
G37*
G36*
X7302Y30762D02*
X7302Y30997D01*
X7243Y30997D01*
X7243Y31055D01*
X7360Y31055D01*
X7360Y30762D01*
X7302Y30762D01*
X7302Y30762D01*
G37*
G36*
X7419Y30762D02*
X7419Y30821D01*
X7595Y30821D01*
X7595Y30879D01*
X7478Y30879D01*
X7478Y30938D01*
X7595Y30938D01*
X7595Y30997D01*
X7419Y30997D01*
X7419Y31055D01*
X7654Y31055D01*
X7654Y30762D01*
X7419Y30762D01*
X7419Y30762D01*
G37*
G36*
X40041Y33411D02*
X40281Y33411D01*
X40281Y33751D01*
X40041Y33751D01*
X40041Y33411D01*
G37*
G36*
X41041Y33411D02*
X41281Y33411D01*
X41281Y33751D01*
X41041Y33751D01*
X41041Y33411D01*
G37*
G36*
X43041Y33411D02*
X43281Y33411D01*
X43281Y33751D01*
X43041Y33751D01*
X43041Y33411D01*
G37*
G36*
X43041Y30571D02*
X43281Y30571D01*
X43281Y30911D01*
X43041Y30911D01*
X43041Y30571D01*
G37*
G36*
X41041Y30571D02*
X41281Y30571D01*
X41281Y30911D01*
X41041Y30911D01*
X41041Y30571D01*
G37*
G36*
X40041Y30571D02*
X40281Y30571D01*
X40281Y30911D01*
X40041Y30911D01*
X40041Y30571D01*
G37*
G36*
X5041Y30571D02*
X5281Y30571D01*
X5281Y30911D01*
X5041Y30911D01*
X5041Y30571D01*
G37*
G36*
X3041Y30571D02*
X3281Y30571D01*
X3281Y30911D01*
X3041Y30911D01*
X3041Y30571D01*
G37*
G36*
X2041Y30571D02*
X2281Y30571D01*
X2281Y30911D01*
X2041Y30911D01*
X2041Y30571D01*
G37*
G36*
X2041Y33411D02*
X2281Y33411D01*
X2281Y33751D01*
X2041Y33751D01*
X2041Y33411D01*
G37*
G36*
X3041Y33411D02*
X3281Y33411D01*
X3281Y33751D01*
X3041Y33751D01*
X3041Y33411D01*
G37*
G36*
X5041Y33411D02*
X5281Y33411D01*
X5281Y33751D01*
X5041Y33751D01*
X5041Y33411D01*
G37*
G36*
X12571Y14041D02*
X12911Y14041D01*
X12911Y14281D01*
X12571Y14281D01*
X12571Y14041D01*
G37*
G36*
X15411Y14041D02*
X15751Y14041D01*
X15751Y14281D01*
X15411Y14281D01*
X15411Y14041D01*
G37*
G36*
X4711Y11659D02*
X4711Y12331D01*
X5383Y12331D01*
X5383Y12196D01*
X4846Y12196D01*
X4846Y11793D01*
X5249Y11793D01*
X5249Y11927D01*
X4980Y11927D01*
X4980Y12062D01*
X5383Y12062D01*
X5383Y11659D01*
X4711Y11659D01*
X4711Y11659D01*
G37*
G36*
X5518Y11659D02*
X5518Y11793D01*
X5787Y11793D01*
X5787Y12196D01*
X5518Y12196D01*
X5518Y12331D01*
X6190Y12331D01*
X6190Y12196D01*
X5921Y12196D01*
X5921Y11793D01*
X6190Y11793D01*
X6190Y11659D01*
X5518Y11659D01*
X5518Y11659D01*
G37*
G36*
X6593Y11659D02*
X6593Y12196D01*
X6325Y12196D01*
X6325Y12331D01*
X6997Y12331D01*
X6997Y12196D01*
X6728Y12196D01*
X6728Y11659D01*
X6593Y11659D01*
X6593Y11659D01*
G37*
G36*
X7131Y11659D02*
X7131Y12331D01*
X7266Y12331D01*
X7266Y12062D01*
X7669Y12062D01*
X7669Y12331D01*
X7803Y12331D01*
X7803Y11659D01*
X7669Y11659D01*
X7669Y11927D01*
X7266Y11927D01*
X7266Y11659D01*
X7131Y11659D01*
X7131Y11659D01*
G37*
G36*
X7938Y11659D02*
X7938Y12331D01*
X8072Y12331D01*
X8072Y11793D01*
X8476Y11793D01*
X8476Y12331D01*
X8610Y12331D01*
X8610Y11659D01*
X7938Y11659D01*
X7938Y11659D01*
G37*
G36*
X8745Y11659D02*
X8745Y12331D01*
X9282Y12331D01*
X9282Y12196D01*
X8879Y12196D01*
X8879Y12062D01*
X9282Y12062D01*
X9282Y12196D01*
X9417Y12196D01*
X9417Y11793D01*
X9282Y11793D01*
X9282Y11927D01*
X8879Y11927D01*
X8879Y11793D01*
X9282Y11793D01*
X9282Y11659D01*
X8745Y11659D01*
X8745Y11659D01*
G37*
G36*
X9810Y11659D02*
X9684Y11659D01*
X9684Y11808D01*
X9810Y11808D01*
X9810Y11659D01*
X9810Y11659D01*
G37*
G36*
X9942Y11659D02*
X9942Y12331D01*
X10614Y12331D01*
X10614Y12196D01*
X10076Y12196D01*
X10076Y11793D01*
X10614Y11793D01*
X10614Y11659D01*
X9942Y11659D01*
X9942Y11659D01*
G37*
G36*
X10749Y11659D02*
X10749Y12331D01*
X11421Y12331D01*
X11421Y11659D01*
X10749Y11659D01*
X10749Y11659D01*
G37*
%LPC*%
G36*
X11286Y11793D02*
X11286Y12196D01*
X10883Y12196D01*
X10883Y11793D01*
X11286Y11793D01*
X11286Y11793D01*
G37*
%LPD*%
G36*
X11824Y11927D02*
X11824Y12062D01*
X11959Y12062D01*
X11959Y11927D01*
X11824Y11927D01*
X11824Y11927D01*
G37*
G36*
X11555Y11659D02*
X11555Y12331D01*
X11690Y12331D01*
X11690Y12196D01*
X11824Y12196D01*
X11824Y12062D01*
X11690Y12062D01*
X11690Y11659D01*
X11555Y11659D01*
X11555Y11659D01*
G37*
G36*
X12093Y11659D02*
X12093Y12062D01*
X11959Y12062D01*
X11959Y12196D01*
X12093Y12196D01*
X12093Y12331D01*
X12228Y12331D01*
X12228Y11659D01*
X12093Y11659D01*
X12093Y11659D01*
G37*
G36*
X12814Y12476D02*
X12437Y11499D01*
X12346Y11499D01*
X12721Y12476D01*
X12814Y12476D01*
X12814Y12476D01*
G37*
G36*
X13120Y11659D02*
X13120Y12196D01*
X12851Y12196D01*
X12851Y12331D01*
X13524Y12331D01*
X13524Y12196D01*
X13255Y12196D01*
X13255Y11659D01*
X13120Y11659D01*
X13120Y11659D01*
G37*
G36*
X13658Y11659D02*
X13658Y12331D01*
X14330Y12331D01*
X14330Y12196D01*
X13793Y12196D01*
X13793Y12062D01*
X14196Y12062D01*
X14196Y11927D01*
X13793Y11927D01*
X13793Y11793D01*
X14330Y11793D01*
X14330Y11659D01*
X13658Y11659D01*
X13658Y11659D01*
G37*
G36*
X14465Y11659D02*
X14465Y12331D01*
X14599Y12331D01*
X14599Y11793D01*
X15003Y11793D01*
X15003Y11659D01*
X14465Y11659D01*
X14465Y11659D01*
G37*
G36*
X15137Y11659D02*
X15137Y12331D01*
X15809Y12331D01*
X15809Y11659D01*
X15675Y11659D01*
X15675Y11927D01*
X15271Y11927D01*
X15271Y11659D01*
X15137Y11659D01*
X15137Y11659D01*
G37*
%LPC*%
G36*
X15675Y12062D02*
X15675Y12196D01*
X15271Y12196D01*
X15271Y12062D01*
X15675Y12062D01*
X15675Y12062D01*
G37*
%LPD*%
G36*
X16213Y11659D02*
X16213Y11793D01*
X16347Y11793D01*
X16347Y11659D01*
X16213Y11659D01*
X16213Y11659D01*
G37*
G36*
X16078Y11793D02*
X16078Y12062D01*
X16213Y12062D01*
X16213Y11793D01*
X16078Y11793D01*
X16078Y11793D01*
G37*
G36*
X16347Y11793D02*
X16347Y12062D01*
X16481Y12062D01*
X16481Y11793D01*
X16347Y11793D01*
X16347Y11793D01*
G37*
G36*
X15944Y12062D02*
X15944Y12331D01*
X16078Y12331D01*
X16078Y12062D01*
X15944Y12062D01*
X15944Y12062D01*
G37*
G36*
X16481Y12062D02*
X16481Y12331D01*
X16616Y12331D01*
X16616Y12062D01*
X16481Y12062D01*
X16481Y12062D01*
G37*
G36*
X16750Y11659D02*
X16750Y11793D01*
X17019Y11793D01*
X17019Y12196D01*
X16750Y12196D01*
X16750Y12331D01*
X17423Y12331D01*
X17423Y12196D01*
X17154Y12196D01*
X17154Y11793D01*
X17423Y11793D01*
X17423Y11659D01*
X16750Y11659D01*
X16750Y11659D01*
G37*
G36*
X17826Y11659D02*
X17826Y11793D01*
X17960Y11793D01*
X17960Y11659D01*
X17826Y11659D01*
X17826Y11659D01*
G37*
G36*
X17691Y11793D02*
X17691Y12062D01*
X17826Y12062D01*
X17826Y11793D01*
X17691Y11793D01*
X17691Y11793D01*
G37*
G36*
X17960Y11793D02*
X17960Y12062D01*
X18095Y12062D01*
X18095Y11793D01*
X17960Y11793D01*
X17960Y11793D01*
G37*
G36*
X17557Y12062D02*
X17557Y12331D01*
X17691Y12331D01*
X17691Y12062D01*
X17557Y12062D01*
X17557Y12062D01*
G37*
G36*
X18095Y12062D02*
X18095Y12331D01*
X18229Y12331D01*
X18229Y12062D01*
X18095Y12062D01*
X18095Y12062D01*
G37*
G36*
X18633Y11927D02*
X18633Y12062D01*
X18767Y12062D01*
X18767Y11927D01*
X18633Y11927D01*
X18633Y11927D01*
G37*
G36*
X18364Y11659D02*
X18364Y12331D01*
X18498Y12331D01*
X18498Y12196D01*
X18633Y12196D01*
X18633Y12062D01*
X18498Y12062D01*
X18498Y11659D01*
X18364Y11659D01*
X18364Y11659D01*
G37*
G36*
X18901Y11659D02*
X18901Y12062D01*
X18767Y12062D01*
X18767Y12196D01*
X18901Y12196D01*
X18901Y12331D01*
X19036Y12331D01*
X19036Y11659D01*
X18901Y11659D01*
X18901Y11659D01*
G37*
G36*
X19170Y11659D02*
X19170Y12331D01*
X19843Y12331D01*
X19843Y11659D01*
X19708Y11659D01*
X19708Y11927D01*
X19305Y11927D01*
X19305Y11659D01*
X19170Y11659D01*
X19170Y11659D01*
G37*
%LPC*%
G36*
X19708Y12062D02*
X19708Y12196D01*
X19305Y12196D01*
X19305Y12062D01*
X19708Y12062D01*
X19708Y12062D01*
G37*
%LPD*%
G36*
X20380Y11659D02*
X20380Y11793D01*
X20515Y11793D01*
X20515Y11659D01*
X20380Y11659D01*
X20380Y11659D01*
G37*
G36*
X20246Y11793D02*
X20246Y11927D01*
X20380Y11927D01*
X20380Y11793D01*
X20246Y11793D01*
X20246Y11793D01*
G37*
G36*
X20246Y12062D02*
X20246Y12196D01*
X20380Y12196D01*
X20380Y12062D01*
X20246Y12062D01*
X20246Y12062D01*
G37*
G36*
X19977Y11659D02*
X19977Y12331D01*
X20111Y12331D01*
X20111Y12062D01*
X20246Y12062D01*
X20246Y11927D01*
X20111Y11927D01*
X20111Y11659D01*
X19977Y11659D01*
X19977Y11659D01*
G37*
G36*
X20380Y12196D02*
X20380Y12331D01*
X20515Y12331D01*
X20515Y12196D01*
X20380Y12196D01*
X20380Y12196D01*
G37*
G36*
X20649Y11659D02*
X20649Y12331D01*
X21321Y12331D01*
X21321Y12196D01*
X20784Y12196D01*
X20784Y12062D01*
X21187Y12062D01*
X21187Y11927D01*
X20784Y11927D01*
X20784Y11793D01*
X21321Y11793D01*
X21321Y11659D01*
X20649Y11659D01*
X20649Y11659D01*
G37*
G36*
X21994Y11659D02*
X21994Y11793D01*
X22128Y11793D01*
X22128Y11659D01*
X21994Y11659D01*
X21994Y11659D01*
G37*
G36*
X21456Y11659D02*
X21456Y12331D01*
X22128Y12331D01*
X22128Y11927D01*
X21994Y11927D01*
X21994Y11793D01*
X21859Y11793D01*
X21859Y11927D01*
X21590Y11927D01*
X21590Y11659D01*
X21456Y11659D01*
X21456Y11659D01*
G37*
%LPC*%
G36*
X21994Y12062D02*
X21994Y12196D01*
X21590Y12196D01*
X21590Y12062D01*
X21994Y12062D01*
X21994Y12062D01*
G37*
%LPD*%
G36*
X22263Y11659D02*
X22263Y11793D01*
X22800Y11793D01*
X22800Y11927D01*
X22263Y11927D01*
X22263Y12331D01*
X22935Y12331D01*
X22935Y12196D01*
X22397Y12196D01*
X22397Y12062D01*
X22935Y12062D01*
X22935Y11659D01*
X22263Y11659D01*
X22263Y11659D01*
G37*
G36*
X23521Y12476D02*
X23144Y11499D01*
X23053Y11499D01*
X23428Y12476D01*
X23521Y12476D01*
X23521Y12476D01*
G37*
G36*
X24903Y11793D02*
X24903Y12196D01*
X25038Y12196D01*
X25038Y11793D01*
X24903Y11793D01*
X24903Y11793D01*
G37*
G36*
X24365Y11659D02*
X24365Y12331D01*
X24903Y12331D01*
X24903Y12196D01*
X24500Y12196D01*
X24500Y11793D01*
X24903Y11793D01*
X24903Y11659D01*
X24365Y11659D01*
X24365Y11659D01*
G37*
G36*
X25172Y11659D02*
X25172Y12331D01*
X25306Y12331D01*
X25306Y11793D01*
X25710Y11793D01*
X25710Y12331D01*
X25844Y12331D01*
X25844Y11659D01*
X25172Y11659D01*
X25172Y11659D01*
G37*
G36*
X25979Y11659D02*
X25979Y12331D01*
X26516Y12331D01*
X26516Y12196D01*
X26113Y12196D01*
X26113Y12062D01*
X26516Y12062D01*
X26516Y12196D01*
X26651Y12196D01*
X26651Y11793D01*
X26516Y11793D01*
X26516Y11927D01*
X26113Y11927D01*
X26113Y11793D01*
X26516Y11793D01*
X26516Y11659D01*
X25979Y11659D01*
X25979Y11659D01*
G37*
G36*
X26785Y11659D02*
X26785Y12331D01*
X27458Y12331D01*
X27458Y11659D01*
X26785Y11659D01*
X26785Y11659D01*
G37*
%LPC*%
G36*
X27323Y11793D02*
X27323Y12196D01*
X26920Y12196D01*
X26920Y11793D01*
X27323Y11793D01*
X27323Y11793D01*
G37*
%LPD*%
G36*
X27592Y11659D02*
X27592Y12331D01*
X28264Y12331D01*
X28264Y11659D01*
X28130Y11659D01*
X28130Y11927D01*
X27726Y11927D01*
X27726Y11659D01*
X27592Y11659D01*
X27592Y11659D01*
G37*
%LPC*%
G36*
X28130Y12062D02*
X28130Y12196D01*
X27726Y12196D01*
X27726Y12062D01*
X28130Y12062D01*
X28130Y12062D01*
G37*
%LPD*%
G36*
X28936Y11659D02*
X28936Y11793D01*
X29071Y11793D01*
X29071Y11659D01*
X28936Y11659D01*
X28936Y11659D01*
G37*
G36*
X28399Y11659D02*
X28399Y12331D01*
X29071Y12331D01*
X29071Y11927D01*
X28936Y11927D01*
X28936Y11793D01*
X28802Y11793D01*
X28802Y11927D01*
X28533Y11927D01*
X28533Y11659D01*
X28399Y11659D01*
X28399Y11659D01*
G37*
%LPC*%
G36*
X28936Y12062D02*
X28936Y12196D01*
X28533Y12196D01*
X28533Y12062D01*
X28936Y12062D01*
X28936Y12062D01*
G37*
%LPD*%
G36*
X29743Y11793D02*
X29743Y12196D01*
X29878Y12196D01*
X29878Y11793D01*
X29743Y11793D01*
X29743Y11793D01*
G37*
G36*
X29205Y11659D02*
X29205Y12331D01*
X29743Y12331D01*
X29743Y12196D01*
X29340Y12196D01*
X29340Y11793D01*
X29743Y11793D01*
X29743Y11659D01*
X29205Y11659D01*
X29205Y11659D01*
G37*
G36*
X5423Y2820D02*
X5423Y3144D01*
X5747Y3144D01*
X5747Y3079D01*
X5488Y3079D01*
X5488Y3014D01*
X5682Y3014D01*
X5682Y2950D01*
X5488Y2950D01*
X5488Y2885D01*
X5747Y2885D01*
X5747Y2820D01*
X5423Y2820D01*
X5423Y2820D01*
G37*
G36*
X5941Y2950D02*
X5941Y3014D01*
X6006Y3014D01*
X6006Y2950D01*
X5941Y2950D01*
X5941Y2950D01*
G37*
G36*
X5812Y2820D02*
X5812Y3144D01*
X5876Y3144D01*
X5876Y3079D01*
X5941Y3079D01*
X5941Y3014D01*
X5876Y3014D01*
X5876Y2820D01*
X5812Y2820D01*
X5812Y2820D01*
G37*
G36*
X6071Y2820D02*
X6071Y2885D01*
X6006Y2885D01*
X6006Y2950D01*
X6071Y2950D01*
X6071Y3144D01*
X6135Y3144D01*
X6135Y2820D01*
X6071Y2820D01*
X6071Y2820D01*
G37*
G36*
X6200Y2820D02*
X6200Y3144D01*
X6524Y3144D01*
X6524Y3079D01*
X6265Y3079D01*
X6265Y2885D01*
X6524Y2885D01*
X6524Y2820D01*
X6200Y2820D01*
X6200Y2820D01*
G37*
G36*
X6588Y2820D02*
X6588Y3144D01*
X6912Y3144D01*
X6912Y2820D01*
X6588Y2820D01*
X6588Y2820D01*
G37*
%LPC*%
G36*
X6847Y2885D02*
X6847Y3079D01*
X6653Y3079D01*
X6653Y2885D01*
X6847Y2885D01*
X6847Y2885D01*
G37*
%LPD*%
G36*
X7236Y2885D02*
X7236Y3079D01*
X7300Y3079D01*
X7300Y2885D01*
X7236Y2885D01*
X7236Y2885D01*
G37*
G36*
X6977Y2820D02*
X6977Y3144D01*
X7236Y3144D01*
X7236Y3079D01*
X7042Y3079D01*
X7042Y2885D01*
X7236Y2885D01*
X7236Y2820D01*
X6977Y2820D01*
X6977Y2820D01*
G37*
G36*
X7365Y2820D02*
X7365Y3144D01*
X7689Y3144D01*
X7689Y3079D01*
X7430Y3079D01*
X7430Y3014D01*
X7624Y3014D01*
X7624Y2950D01*
X7430Y2950D01*
X7430Y2885D01*
X7689Y2885D01*
X7689Y2820D01*
X7365Y2820D01*
X7365Y2820D01*
G37*
G36*
X8012Y2820D02*
X8012Y2885D01*
X8077Y2885D01*
X8077Y2820D01*
X8012Y2820D01*
X8012Y2820D01*
G37*
G36*
X7754Y2820D02*
X7754Y3144D01*
X8077Y3144D01*
X8077Y2950D01*
X8012Y2950D01*
X8012Y2885D01*
X7948Y2885D01*
X7948Y2950D01*
X7818Y2950D01*
X7818Y2820D01*
X7754Y2820D01*
X7754Y2820D01*
G37*
%LPC*%
G36*
X8012Y3014D02*
X8012Y3079D01*
X7818Y3079D01*
X7818Y3014D01*
X8012Y3014D01*
X8012Y3014D01*
G37*
%LPD*%
G36*
X8290Y3031D02*
X8229Y3031D01*
X8229Y3103D01*
X8290Y3103D01*
X8290Y3031D01*
X8290Y3031D01*
G37*
G36*
X8290Y2820D02*
X8229Y2820D01*
X8229Y2892D01*
X8290Y2892D01*
X8290Y2820D01*
X8290Y2820D01*
G37*
G36*
X8560Y2820D02*
X8560Y3144D01*
X8883Y3144D01*
X8883Y2820D01*
X8819Y2820D01*
X8819Y2950D01*
X8624Y2950D01*
X8624Y2820D01*
X8560Y2820D01*
X8560Y2820D01*
G37*
%LPC*%
G36*
X8819Y3014D02*
X8819Y3079D01*
X8624Y3079D01*
X8624Y3014D01*
X8819Y3014D01*
X8819Y3014D01*
G37*
%LPD*%
G36*
X9146Y2716D02*
X9088Y2716D01*
X9073Y2733D01*
X9060Y2751D01*
X9048Y2770D01*
X9037Y2788D01*
X9027Y2808D01*
X9019Y2828D01*
X9010Y2848D01*
X9004Y2870D01*
X9000Y2893D01*
X8996Y2915D01*
X8994Y2939D01*
X8994Y2965D01*
X8994Y2990D01*
X8996Y3014D01*
X9000Y3037D01*
X9004Y3060D01*
X9010Y3081D01*
X9019Y3102D01*
X9027Y3122D01*
X9037Y3141D01*
X9048Y3160D01*
X9060Y3179D01*
X9073Y3196D01*
X9088Y3214D01*
X9146Y3214D01*
X9146Y3211D01*
X9139Y3205D01*
X9132Y3198D01*
X9126Y3191D01*
X9119Y3184D01*
X9113Y3176D01*
X9107Y3168D01*
X9101Y3160D01*
X9095Y3152D01*
X9089Y3142D01*
X9083Y3133D01*
X9078Y3123D01*
X9072Y3112D01*
X9067Y3102D01*
X9063Y3091D01*
X9059Y3080D01*
X9054Y3068D01*
X9051Y3056D01*
X9048Y3044D01*
X9044Y3031D01*
X9042Y3018D01*
X9041Y3005D01*
X9039Y2992D01*
X9038Y2979D01*
X9038Y2965D01*
X9038Y2950D01*
X9039Y2937D01*
X9041Y2923D01*
X9042Y2910D01*
X9044Y2898D01*
X9047Y2886D01*
X9050Y2874D01*
X9054Y2862D01*
X9058Y2851D01*
X9062Y2839D01*
X9067Y2828D01*
X9072Y2817D01*
X9077Y2807D01*
X9083Y2797D01*
X9089Y2788D01*
X9094Y2778D01*
X9101Y2770D01*
X9107Y2761D01*
X9113Y2753D01*
X9120Y2745D01*
X9126Y2738D01*
X9133Y2731D01*
X9139Y2724D01*
X9146Y2719D01*
X9146Y2716D01*
X9146Y2716D01*
G37*
G36*
X9184Y2820D02*
X9184Y3144D01*
X9507Y3144D01*
X9507Y3079D01*
X9248Y3079D01*
X9248Y2885D01*
X9507Y2885D01*
X9507Y2820D01*
X9184Y2820D01*
X9184Y2820D01*
G37*
G36*
X9572Y2820D02*
X9572Y3144D01*
X9637Y3144D01*
X9637Y2885D01*
X9831Y2885D01*
X9831Y2820D01*
X9572Y2820D01*
X9572Y2820D01*
G37*
G36*
X10090Y2820D02*
X10090Y2885D01*
X10155Y2885D01*
X10155Y2820D01*
X10090Y2820D01*
X10090Y2820D01*
G37*
G36*
X10025Y2885D02*
X10025Y2950D01*
X10090Y2950D01*
X10090Y2885D01*
X10025Y2885D01*
X10025Y2885D01*
G37*
G36*
X10025Y3014D02*
X10025Y3079D01*
X10090Y3079D01*
X10090Y3014D01*
X10025Y3014D01*
X10025Y3014D01*
G37*
G36*
X9896Y2820D02*
X9896Y3144D01*
X9960Y3144D01*
X9960Y3014D01*
X10025Y3014D01*
X10025Y2950D01*
X9960Y2950D01*
X9960Y2820D01*
X9896Y2820D01*
X9896Y2820D01*
G37*
G36*
X10090Y3079D02*
X10090Y3144D01*
X10155Y3144D01*
X10155Y3079D01*
X10090Y3079D01*
X10090Y3079D01*
G37*
G36*
X10409Y2965D02*
X10409Y2939D01*
X10407Y2915D01*
X10402Y2893D01*
X10398Y2870D01*
X10392Y2848D01*
X10384Y2828D01*
X10376Y2808D01*
X10366Y2788D01*
X10354Y2770D01*
X10343Y2751D01*
X10329Y2733D01*
X10314Y2716D01*
X10256Y2716D01*
X10256Y2719D01*
X10263Y2724D01*
X10269Y2731D01*
X10276Y2738D01*
X10282Y2745D01*
X10289Y2753D01*
X10295Y2761D01*
X10302Y2770D01*
X10308Y2778D01*
X10314Y2788D01*
X10320Y2797D01*
X10325Y2807D01*
X10330Y2817D01*
X10335Y2828D01*
X10340Y2839D01*
X10344Y2851D01*
X10348Y2862D01*
X10352Y2874D01*
X10355Y2886D01*
X10358Y2898D01*
X10360Y2910D01*
X10362Y2923D01*
X10363Y2937D01*
X10364Y2950D01*
X10364Y2965D01*
X10364Y2979D01*
X10363Y2992D01*
X10362Y3005D01*
X10360Y3018D01*
X10358Y3031D01*
X10355Y3044D01*
X10352Y3056D01*
X10348Y3068D01*
X10344Y3080D01*
X10340Y3091D01*
X10335Y3102D01*
X10330Y3112D01*
X10325Y3123D01*
X10319Y3133D01*
X10313Y3142D01*
X10308Y3152D01*
X10302Y3160D01*
X10295Y3168D01*
X10289Y3176D01*
X10283Y3184D01*
X10276Y3191D01*
X10270Y3198D01*
X10263Y3205D01*
X10256Y3211D01*
X10256Y3214D01*
X10314Y3214D01*
X10329Y3196D01*
X10343Y3179D01*
X10354Y3160D01*
X10366Y3141D01*
X10376Y3122D01*
X10384Y3102D01*
X10392Y3081D01*
X10398Y3060D01*
X10402Y3037D01*
X10407Y3014D01*
X10409Y2990D01*
X10409Y2965D01*
X10409Y2965D01*
G37*
G36*
X10603Y3031D02*
X10542Y3031D01*
X10542Y3103D01*
X10603Y3103D01*
X10603Y3031D01*
X10603Y3031D01*
G37*
G36*
X10603Y2820D02*
X10542Y2820D01*
X10542Y2892D01*
X10603Y2892D01*
X10603Y2820D01*
X10603Y2820D01*
G37*
G36*
X10691Y2820D02*
X10691Y2885D01*
X10755Y2885D01*
X10755Y2820D01*
X10691Y2820D01*
X10691Y2820D01*
G37*
G36*
X10755Y2885D02*
X10755Y2950D01*
X10820Y2950D01*
X10820Y2885D01*
X10755Y2885D01*
X10755Y2885D01*
G37*
G36*
X10820Y2950D02*
X10820Y3014D01*
X10885Y3014D01*
X10885Y2950D01*
X10820Y2950D01*
X10820Y2950D01*
G37*
G36*
X10885Y3014D02*
X10885Y3079D01*
X10691Y3079D01*
X10691Y3144D01*
X10949Y3144D01*
X10949Y3014D01*
X10885Y3014D01*
X10885Y3014D01*
G37*
G36*
X11144Y2820D02*
X11144Y3144D01*
X11403Y3144D01*
X11403Y3079D01*
X11208Y3079D01*
X11208Y3014D01*
X11403Y3014D01*
X11403Y3079D01*
X11467Y3079D01*
X11467Y2885D01*
X11403Y2885D01*
X11403Y2950D01*
X11208Y2950D01*
X11208Y2885D01*
X11403Y2885D01*
X11403Y2820D01*
X11144Y2820D01*
X11144Y2820D01*
G37*
G36*
X11730Y2716D02*
X11672Y2716D01*
X11657Y2733D01*
X11644Y2751D01*
X11632Y2770D01*
X11621Y2788D01*
X11611Y2808D01*
X11603Y2828D01*
X11594Y2848D01*
X11588Y2870D01*
X11584Y2893D01*
X11580Y2915D01*
X11578Y2939D01*
X11578Y2965D01*
X11578Y2990D01*
X11580Y3014D01*
X11584Y3037D01*
X11588Y3060D01*
X11594Y3081D01*
X11603Y3102D01*
X11611Y3122D01*
X11621Y3141D01*
X11632Y3160D01*
X11644Y3179D01*
X11657Y3196D01*
X11672Y3214D01*
X11730Y3214D01*
X11730Y3211D01*
X11723Y3205D01*
X11717Y3198D01*
X11710Y3191D01*
X11703Y3184D01*
X11697Y3176D01*
X11691Y3168D01*
X11685Y3160D01*
X11679Y3152D01*
X11673Y3142D01*
X11667Y3133D01*
X11662Y3123D01*
X11656Y3112D01*
X11651Y3102D01*
X11647Y3091D01*
X11643Y3080D01*
X11639Y3068D01*
X11635Y3056D01*
X11632Y3044D01*
X11629Y3031D01*
X11626Y3018D01*
X11625Y3005D01*
X11623Y2992D01*
X11622Y2979D01*
X11622Y2965D01*
X11622Y2950D01*
X11623Y2937D01*
X11625Y2923D01*
X11626Y2910D01*
X11628Y2898D01*
X11631Y2886D01*
X11635Y2874D01*
X11638Y2862D01*
X11642Y2851D01*
X11647Y2839D01*
X11651Y2828D01*
X11656Y2817D01*
X11661Y2807D01*
X11667Y2797D01*
X11673Y2788D01*
X11678Y2778D01*
X11685Y2770D01*
X11691Y2761D01*
X11698Y2753D01*
X11704Y2745D01*
X11711Y2738D01*
X11717Y2731D01*
X11724Y2724D01*
X11730Y2719D01*
X11730Y2716D01*
X11730Y2716D01*
G37*
G36*
X12027Y2885D02*
X12027Y3079D01*
X12091Y3079D01*
X12091Y2885D01*
X12027Y2885D01*
X12027Y2885D01*
G37*
G36*
X11768Y2820D02*
X11768Y3144D01*
X12027Y3144D01*
X12027Y3079D01*
X11832Y3079D01*
X11832Y2885D01*
X12027Y2885D01*
X12027Y2820D01*
X11768Y2820D01*
X11768Y2820D01*
G37*
G36*
X12286Y2820D02*
X12286Y3079D01*
X12156Y3079D01*
X12156Y3144D01*
X12480Y3144D01*
X12480Y3079D01*
X12350Y3079D01*
X12350Y2820D01*
X12286Y2820D01*
X12286Y2820D01*
G37*
G36*
X12734Y2965D02*
X12734Y2939D01*
X12732Y2915D01*
X12728Y2893D01*
X12723Y2870D01*
X12717Y2848D01*
X12709Y2828D01*
X12701Y2808D01*
X12691Y2788D01*
X12679Y2770D01*
X12668Y2751D01*
X12654Y2733D01*
X12640Y2716D01*
X12582Y2716D01*
X12582Y2719D01*
X12588Y2724D01*
X12595Y2731D01*
X12601Y2738D01*
X12608Y2745D01*
X12614Y2753D01*
X12621Y2761D01*
X12627Y2770D01*
X12633Y2778D01*
X12639Y2788D01*
X12645Y2797D01*
X12650Y2807D01*
X12655Y2817D01*
X12660Y2828D01*
X12665Y2839D01*
X12669Y2851D01*
X12673Y2862D01*
X12677Y2874D01*
X12680Y2886D01*
X12683Y2898D01*
X12685Y2910D01*
X12687Y2923D01*
X12689Y2937D01*
X12689Y2950D01*
X12689Y2965D01*
X12689Y2979D01*
X12689Y2992D01*
X12687Y3005D01*
X12685Y3018D01*
X12683Y3031D01*
X12680Y3044D01*
X12677Y3056D01*
X12673Y3068D01*
X12669Y3080D01*
X12665Y3091D01*
X12660Y3102D01*
X12655Y3112D01*
X12650Y3123D01*
X12644Y3133D01*
X12639Y3142D01*
X12633Y3152D01*
X12627Y3160D01*
X12621Y3168D01*
X12614Y3176D01*
X12608Y3184D01*
X12602Y3191D01*
X12595Y3198D01*
X12588Y3205D01*
X12582Y3211D01*
X12582Y3214D01*
X12640Y3214D01*
X12654Y3196D01*
X12668Y3179D01*
X12679Y3160D01*
X12691Y3141D01*
X12701Y3122D01*
X12709Y3102D01*
X12717Y3081D01*
X12723Y3060D01*
X12728Y3037D01*
X12732Y3014D01*
X12734Y2990D01*
X12734Y2965D01*
X12734Y2965D01*
G37*
G36*
X12928Y3031D02*
X12868Y3031D01*
X12868Y3103D01*
X12928Y3103D01*
X12928Y3031D01*
X12928Y3031D01*
G37*
G36*
X12928Y2820D02*
X12868Y2820D01*
X12868Y2892D01*
X12928Y2892D01*
X12928Y2820D01*
X12928Y2820D01*
G37*
G36*
X13016Y2820D02*
X13016Y3144D01*
X13275Y3144D01*
X13275Y3079D01*
X13080Y3079D01*
X13080Y3014D01*
X13275Y3014D01*
X13275Y2820D01*
X13016Y2820D01*
X13016Y2820D01*
G37*
%LPC*%
G36*
X13210Y2885D02*
X13210Y2950D01*
X13080Y2950D01*
X13080Y2885D01*
X13210Y2885D01*
X13210Y2885D01*
G37*
%LPD*%
G36*
X13469Y2820D02*
X13469Y2885D01*
X13728Y2885D01*
X13728Y2950D01*
X13469Y2950D01*
X13469Y3144D01*
X13792Y3144D01*
X13792Y3079D01*
X13534Y3079D01*
X13534Y3014D01*
X13792Y3014D01*
X13792Y2820D01*
X13469Y2820D01*
X13469Y2820D01*
G37*
G36*
X13987Y2885D02*
X13987Y2950D01*
X14051Y2950D01*
X14051Y2885D01*
X13987Y2885D01*
X13987Y2885D01*
G37*
G36*
X13857Y2820D02*
X13857Y3144D01*
X13922Y3144D01*
X13922Y2885D01*
X13987Y2885D01*
X13987Y2820D01*
X13857Y2820D01*
X13857Y2820D01*
G37*
G36*
X14051Y2820D02*
X14051Y2885D01*
X14116Y2885D01*
X14116Y3144D01*
X14181Y3144D01*
X14181Y2820D01*
X14051Y2820D01*
X14051Y2820D01*
G37*
G36*
X14393Y3031D02*
X14333Y3031D01*
X14333Y3103D01*
X14393Y3103D01*
X14393Y3031D01*
X14393Y3031D01*
G37*
G36*
X14393Y2820D02*
X14333Y2820D01*
X14333Y2892D01*
X14393Y2892D01*
X14393Y2820D01*
X14393Y2820D01*
G37*
G36*
X14481Y2820D02*
X14481Y2950D01*
X14546Y2950D01*
X14546Y2885D01*
X14675Y2885D01*
X14675Y2950D01*
X14740Y2950D01*
X14740Y2820D01*
X14481Y2820D01*
X14481Y2820D01*
G37*
G36*
X14546Y2950D02*
X14546Y3014D01*
X14675Y3014D01*
X14675Y2950D01*
X14546Y2950D01*
X14546Y2950D01*
G37*
G36*
X14481Y3014D02*
X14481Y3144D01*
X14740Y3144D01*
X14740Y3014D01*
X14675Y3014D01*
X14675Y3079D01*
X14546Y3079D01*
X14546Y3014D01*
X14481Y3014D01*
X14481Y3014D01*
G37*
G36*
X2580Y2814D02*
X2580Y3137D01*
X2904Y3137D01*
X2904Y2943D01*
X2645Y2943D01*
X2645Y2814D01*
X2580Y2814D01*
X2580Y2814D01*
G37*
%LPC*%
G36*
X2839Y3008D02*
X2839Y3073D01*
X2645Y3073D01*
X2645Y3008D01*
X2839Y3008D01*
X2839Y3008D01*
G37*
%LPD*%
G36*
X2968Y2814D02*
X2968Y3137D01*
X3292Y3137D01*
X3292Y2814D01*
X2968Y2814D01*
X2968Y2814D01*
G37*
%LPC*%
G36*
X3227Y2879D02*
X3227Y3073D01*
X3033Y3073D01*
X3033Y2879D01*
X3227Y2879D01*
X3227Y2879D01*
G37*
%LPD*%
G36*
X3486Y2814D02*
X3486Y3073D01*
X3357Y3073D01*
X3357Y3137D01*
X3680Y3137D01*
X3680Y3073D01*
X3551Y3073D01*
X3551Y2814D01*
X3486Y2814D01*
X3486Y2814D01*
G37*
G36*
X3893Y3024D02*
X3833Y3024D01*
X3833Y3096D01*
X3893Y3096D01*
X3893Y3024D01*
X3893Y3024D01*
G37*
G36*
X3893Y2814D02*
X3833Y2814D01*
X3833Y2886D01*
X3893Y2886D01*
X3893Y2814D01*
X3893Y2814D01*
G37*
G36*
X4163Y2814D02*
X4163Y3137D01*
X4486Y3137D01*
X4486Y2814D01*
X4422Y2814D01*
X4422Y2943D01*
X4227Y2943D01*
X4227Y2814D01*
X4163Y2814D01*
X4163Y2814D01*
G37*
%LPC*%
G36*
X4422Y3008D02*
X4422Y3073D01*
X4227Y3073D01*
X4227Y3008D01*
X4422Y3008D01*
X4422Y3008D01*
G37*
%LPD*%
G36*
X4551Y2814D02*
X4551Y2879D01*
X4616Y2879D01*
X4616Y2943D01*
X4681Y2943D01*
X4681Y2879D01*
X4810Y2879D01*
X4810Y2814D01*
X4551Y2814D01*
X4551Y2814D01*
G37*
G36*
X4681Y2943D02*
X4681Y3008D01*
X4745Y3008D01*
X4745Y2943D01*
X4681Y2943D01*
X4681Y2943D01*
G37*
G36*
X4551Y3008D02*
X4551Y3073D01*
X4616Y3073D01*
X4616Y3008D01*
X4551Y3008D01*
X4551Y3008D01*
G37*
G36*
X4745Y3008D02*
X4745Y3073D01*
X4810Y3073D01*
X4810Y3008D01*
X4745Y3008D01*
X4745Y3008D01*
G37*
G36*
X4616Y3073D02*
X4616Y3137D01*
X4745Y3137D01*
X4745Y3073D01*
X4616Y3073D01*
X4616Y3073D01*
G37*
G36*
X29313Y2697D02*
X29313Y3056D01*
X29672Y3056D01*
X29672Y2984D01*
X29385Y2984D01*
X29385Y2912D01*
X29600Y2912D01*
X29600Y2840D01*
X29385Y2840D01*
X29385Y2768D01*
X29672Y2768D01*
X29672Y2697D01*
X29313Y2697D01*
X29313Y2697D01*
G37*
G36*
X29888Y2840D02*
X29888Y2912D01*
X29959Y2912D01*
X29959Y2840D01*
X29888Y2840D01*
X29888Y2840D01*
G37*
G36*
X29744Y2697D02*
X29744Y3056D01*
X29816Y3056D01*
X29816Y2984D01*
X29888Y2984D01*
X29888Y2912D01*
X29816Y2912D01*
X29816Y2697D01*
X29744Y2697D01*
X29744Y2697D01*
G37*
G36*
X30031Y2697D02*
X30031Y2768D01*
X29959Y2768D01*
X29959Y2840D01*
X30031Y2840D01*
X30031Y3056D01*
X30103Y3056D01*
X30103Y2697D01*
X30031Y2697D01*
X30031Y2697D01*
G37*
G36*
X30175Y2697D02*
X30175Y3056D01*
X30534Y3056D01*
X30534Y2984D01*
X30247Y2984D01*
X30247Y2768D01*
X30534Y2768D01*
X30534Y2697D01*
X30175Y2697D01*
X30175Y2697D01*
G37*
G36*
X30606Y2697D02*
X30606Y3056D01*
X30965Y3056D01*
X30965Y2697D01*
X30606Y2697D01*
X30606Y2697D01*
G37*
%LPC*%
G36*
X30893Y2768D02*
X30893Y2984D01*
X30677Y2984D01*
X30677Y2768D01*
X30893Y2768D01*
X30893Y2768D01*
G37*
%LPD*%
G36*
X31324Y2768D02*
X31324Y2984D01*
X31395Y2984D01*
X31395Y2768D01*
X31324Y2768D01*
X31324Y2768D01*
G37*
G36*
X31036Y2697D02*
X31036Y3056D01*
X31324Y3056D01*
X31324Y2984D01*
X31108Y2984D01*
X31108Y2768D01*
X31324Y2768D01*
X31324Y2697D01*
X31036Y2697D01*
X31036Y2697D01*
G37*
G36*
X31467Y2697D02*
X31467Y3056D01*
X31826Y3056D01*
X31826Y2984D01*
X31539Y2984D01*
X31539Y2912D01*
X31754Y2912D01*
X31754Y2840D01*
X31539Y2840D01*
X31539Y2768D01*
X31826Y2768D01*
X31826Y2697D01*
X31467Y2697D01*
X31467Y2697D01*
G37*
G36*
X32185Y2697D02*
X32185Y2768D01*
X32257Y2768D01*
X32257Y2697D01*
X32185Y2697D01*
X32185Y2697D01*
G37*
G36*
X31898Y2697D02*
X31898Y3056D01*
X32257Y3056D01*
X32257Y2840D01*
X32185Y2840D01*
X32185Y2768D01*
X32113Y2768D01*
X32113Y2840D01*
X31970Y2840D01*
X31970Y2697D01*
X31898Y2697D01*
X31898Y2697D01*
G37*
%LPC*%
G36*
X32185Y2912D02*
X32185Y2984D01*
X31970Y2984D01*
X31970Y2912D01*
X32185Y2912D01*
X32185Y2912D01*
G37*
%LPD*%
G36*
X32493Y2930D02*
X32426Y2930D01*
X32426Y3010D01*
X32493Y3010D01*
X32493Y2930D01*
X32493Y2930D01*
G37*
G36*
X32493Y2697D02*
X32426Y2697D01*
X32426Y2777D01*
X32493Y2777D01*
X32493Y2697D01*
X32493Y2697D01*
G37*
G36*
X32792Y2697D02*
X32792Y3056D01*
X33151Y3056D01*
X33151Y2697D01*
X33079Y2697D01*
X33079Y2840D01*
X32864Y2840D01*
X32864Y2697D01*
X32792Y2697D01*
X32792Y2697D01*
G37*
%LPC*%
G36*
X33079Y2912D02*
X33079Y2984D01*
X32864Y2984D01*
X32864Y2912D01*
X33079Y2912D01*
X33079Y2912D01*
G37*
%LPD*%
G36*
X33442Y2581D02*
X33378Y2581D01*
X33362Y2600D01*
X33347Y2620D01*
X33334Y2641D01*
X33321Y2661D01*
X33310Y2683D01*
X33301Y2705D01*
X33292Y2728D01*
X33285Y2752D01*
X33281Y2777D01*
X33276Y2802D01*
X33274Y2829D01*
X33274Y2857D01*
X33274Y2885D01*
X33276Y2912D01*
X33281Y2937D01*
X33285Y2963D01*
X33292Y2986D01*
X33301Y3009D01*
X33310Y3031D01*
X33321Y3053D01*
X33334Y3074D01*
X33347Y3094D01*
X33362Y3114D01*
X33378Y3133D01*
X33442Y3133D01*
X33442Y3130D01*
X33435Y3123D01*
X33428Y3116D01*
X33420Y3108D01*
X33413Y3100D01*
X33406Y3092D01*
X33399Y3083D01*
X33392Y3074D01*
X33386Y3064D01*
X33379Y3054D01*
X33373Y3044D01*
X33367Y3032D01*
X33361Y3021D01*
X33355Y3009D01*
X33350Y2997D01*
X33346Y2984D01*
X33341Y2972D01*
X33337Y2958D01*
X33333Y2945D01*
X33330Y2931D01*
X33327Y2917D01*
X33326Y2902D01*
X33324Y2887D01*
X33323Y2872D01*
X33323Y2857D01*
X33323Y2841D01*
X33324Y2826D01*
X33326Y2811D01*
X33327Y2797D01*
X33330Y2783D01*
X33333Y2769D01*
X33337Y2756D01*
X33341Y2743D01*
X33345Y2730D01*
X33350Y2718D01*
X33355Y2706D01*
X33361Y2694D01*
X33366Y2682D01*
X33372Y2671D01*
X33379Y2661D01*
X33385Y2650D01*
X33392Y2641D01*
X33399Y2631D01*
X33406Y2622D01*
X33414Y2613D01*
X33421Y2605D01*
X33428Y2598D01*
X33435Y2590D01*
X33442Y2584D01*
X33442Y2581D01*
X33442Y2581D01*
G37*
G36*
X33484Y2697D02*
X33484Y3056D01*
X33843Y3056D01*
X33843Y2984D01*
X33556Y2984D01*
X33556Y2768D01*
X33843Y2768D01*
X33843Y2697D01*
X33484Y2697D01*
X33484Y2697D01*
G37*
G36*
X33915Y2697D02*
X33915Y3056D01*
X33987Y3056D01*
X33987Y2768D01*
X34202Y2768D01*
X34202Y2697D01*
X33915Y2697D01*
X33915Y2697D01*
G37*
G36*
X34489Y2697D02*
X34489Y2768D01*
X34561Y2768D01*
X34561Y2697D01*
X34489Y2697D01*
X34489Y2697D01*
G37*
G36*
X34418Y2768D02*
X34418Y2840D01*
X34489Y2840D01*
X34489Y2768D01*
X34418Y2768D01*
X34418Y2768D01*
G37*
G36*
X34418Y2912D02*
X34418Y2984D01*
X34489Y2984D01*
X34489Y2912D01*
X34418Y2912D01*
X34418Y2912D01*
G37*
G36*
X34274Y2697D02*
X34274Y3056D01*
X34346Y3056D01*
X34346Y2912D01*
X34418Y2912D01*
X34418Y2840D01*
X34346Y2840D01*
X34346Y2697D01*
X34274Y2697D01*
X34274Y2697D01*
G37*
G36*
X34489Y2984D02*
X34489Y3056D01*
X34561Y3056D01*
X34561Y2984D01*
X34489Y2984D01*
X34489Y2984D01*
G37*
G36*
X34843Y2857D02*
X34843Y2829D01*
X34841Y2802D01*
X34836Y2777D01*
X34832Y2752D01*
X34825Y2728D01*
X34816Y2705D01*
X34806Y2683D01*
X34795Y2661D01*
X34783Y2641D01*
X34770Y2620D01*
X34755Y2600D01*
X34739Y2581D01*
X34674Y2581D01*
X34674Y2584D01*
X34682Y2590D01*
X34689Y2598D01*
X34696Y2605D01*
X34703Y2613D01*
X34710Y2622D01*
X34717Y2631D01*
X34725Y2641D01*
X34732Y2650D01*
X34738Y2661D01*
X34744Y2671D01*
X34750Y2682D01*
X34756Y2694D01*
X34762Y2706D01*
X34767Y2718D01*
X34771Y2730D01*
X34776Y2743D01*
X34780Y2756D01*
X34783Y2769D01*
X34787Y2783D01*
X34789Y2797D01*
X34791Y2811D01*
X34793Y2826D01*
X34794Y2841D01*
X34794Y2857D01*
X34794Y2872D01*
X34793Y2887D01*
X34791Y2902D01*
X34789Y2917D01*
X34787Y2931D01*
X34783Y2945D01*
X34780Y2958D01*
X34776Y2972D01*
X34771Y2984D01*
X34767Y2997D01*
X34762Y3009D01*
X34756Y3021D01*
X34750Y3032D01*
X34744Y3044D01*
X34737Y3054D01*
X34731Y3064D01*
X34724Y3074D01*
X34717Y3083D01*
X34711Y3092D01*
X34704Y3100D01*
X34696Y3108D01*
X34689Y3116D01*
X34682Y3123D01*
X34674Y3130D01*
X34674Y3133D01*
X34739Y3133D01*
X34755Y3114D01*
X34770Y3094D01*
X34783Y3074D01*
X34795Y3053D01*
X34806Y3031D01*
X34816Y3009D01*
X34825Y2986D01*
X34832Y2963D01*
X34836Y2937D01*
X34841Y2912D01*
X34843Y2885D01*
X34843Y2857D01*
X34843Y2857D01*
G37*
G36*
X35059Y2930D02*
X34992Y2930D01*
X34992Y3010D01*
X35059Y3010D01*
X35059Y2930D01*
X35059Y2930D01*
G37*
G36*
X35059Y2697D02*
X34992Y2697D01*
X34992Y2777D01*
X35059Y2777D01*
X35059Y2697D01*
X35059Y2697D01*
G37*
G36*
X35156Y2697D02*
X35156Y2768D01*
X35228Y2768D01*
X35228Y2840D01*
X35299Y2840D01*
X35299Y2768D01*
X35443Y2768D01*
X35443Y2697D01*
X35156Y2697D01*
X35156Y2697D01*
G37*
G36*
X35299Y2840D02*
X35299Y2912D01*
X35371Y2912D01*
X35371Y2840D01*
X35299Y2840D01*
X35299Y2840D01*
G37*
G36*
X35156Y2912D02*
X35156Y2984D01*
X35228Y2984D01*
X35228Y2912D01*
X35156Y2912D01*
X35156Y2912D01*
G37*
G36*
X35371Y2912D02*
X35371Y2984D01*
X35443Y2984D01*
X35443Y2912D01*
X35371Y2912D01*
X35371Y2912D01*
G37*
G36*
X35228Y2984D02*
X35228Y3056D01*
X35371Y3056D01*
X35371Y2984D01*
X35228Y2984D01*
X35228Y2984D01*
G37*
G36*
X35515Y2697D02*
X35515Y2768D01*
X35730Y2768D01*
X35730Y2840D01*
X35515Y2840D01*
X35515Y3056D01*
X35802Y3056D01*
X35802Y2697D01*
X35515Y2697D01*
X35515Y2697D01*
G37*
%LPC*%
G36*
X35730Y2912D02*
X35730Y2984D01*
X35587Y2984D01*
X35587Y2912D01*
X35730Y2912D01*
X35730Y2912D01*
G37*
%LPD*%
G36*
X36017Y2697D02*
X36017Y3056D01*
X36305Y3056D01*
X36305Y2984D01*
X36089Y2984D01*
X36089Y2912D01*
X36305Y2912D01*
X36305Y2984D01*
X36376Y2984D01*
X36376Y2768D01*
X36305Y2768D01*
X36305Y2840D01*
X36089Y2840D01*
X36089Y2768D01*
X36305Y2768D01*
X36305Y2697D01*
X36017Y2697D01*
X36017Y2697D01*
G37*
G36*
X36668Y2581D02*
X36604Y2581D01*
X36587Y2600D01*
X36572Y2620D01*
X36560Y2641D01*
X36547Y2661D01*
X36536Y2683D01*
X36527Y2705D01*
X36517Y2728D01*
X36510Y2752D01*
X36506Y2777D01*
X36501Y2802D01*
X36499Y2829D01*
X36499Y2857D01*
X36499Y2885D01*
X36501Y2912D01*
X36506Y2937D01*
X36510Y2963D01*
X36517Y2986D01*
X36527Y3009D01*
X36536Y3031D01*
X36547Y3053D01*
X36560Y3074D01*
X36572Y3094D01*
X36587Y3114D01*
X36604Y3133D01*
X36668Y3133D01*
X36668Y3130D01*
X36660Y3123D01*
X36653Y3116D01*
X36646Y3108D01*
X36638Y3100D01*
X36631Y3092D01*
X36624Y3083D01*
X36618Y3074D01*
X36611Y3064D01*
X36605Y3054D01*
X36598Y3044D01*
X36592Y3032D01*
X36586Y3021D01*
X36581Y3009D01*
X36576Y2997D01*
X36571Y2984D01*
X36566Y2972D01*
X36562Y2958D01*
X36559Y2945D01*
X36555Y2931D01*
X36553Y2917D01*
X36551Y2902D01*
X36549Y2887D01*
X36548Y2872D01*
X36548Y2857D01*
X36548Y2841D01*
X36549Y2826D01*
X36551Y2811D01*
X36553Y2797D01*
X36555Y2783D01*
X36558Y2769D01*
X36562Y2756D01*
X36566Y2743D01*
X36571Y2730D01*
X36575Y2718D01*
X36580Y2706D01*
X36586Y2694D01*
X36592Y2682D01*
X36598Y2671D01*
X36604Y2661D01*
X36611Y2650D01*
X36617Y2641D01*
X36625Y2631D01*
X36632Y2622D01*
X36639Y2613D01*
X36646Y2605D01*
X36653Y2598D01*
X36661Y2590D01*
X36668Y2584D01*
X36668Y2581D01*
X36668Y2581D01*
G37*
G36*
X36997Y2768D02*
X36997Y2984D01*
X37069Y2984D01*
X37069Y2768D01*
X36997Y2768D01*
X36997Y2768D01*
G37*
G36*
X36710Y2697D02*
X36710Y3056D01*
X36997Y3056D01*
X36997Y2984D01*
X36781Y2984D01*
X36781Y2768D01*
X36997Y2768D01*
X36997Y2697D01*
X36710Y2697D01*
X36710Y2697D01*
G37*
G36*
X37284Y2697D02*
X37284Y2984D01*
X37140Y2984D01*
X37140Y3056D01*
X37499Y3056D01*
X37499Y2984D01*
X37356Y2984D01*
X37356Y2697D01*
X37284Y2697D01*
X37284Y2697D01*
G37*
G36*
X37781Y2857D02*
X37781Y2829D01*
X37779Y2802D01*
X37774Y2777D01*
X37770Y2752D01*
X37763Y2728D01*
X37754Y2705D01*
X37745Y2683D01*
X37734Y2661D01*
X37721Y2641D01*
X37708Y2620D01*
X37693Y2600D01*
X37677Y2581D01*
X37612Y2581D01*
X37612Y2584D01*
X37620Y2590D01*
X37627Y2598D01*
X37634Y2605D01*
X37641Y2613D01*
X37648Y2622D01*
X37656Y2631D01*
X37663Y2641D01*
X37670Y2650D01*
X37676Y2661D01*
X37683Y2671D01*
X37689Y2682D01*
X37694Y2694D01*
X37700Y2706D01*
X37705Y2718D01*
X37710Y2730D01*
X37714Y2743D01*
X37718Y2756D01*
X37722Y2769D01*
X37725Y2783D01*
X37728Y2797D01*
X37729Y2811D01*
X37731Y2826D01*
X37732Y2841D01*
X37732Y2857D01*
X37732Y2872D01*
X37731Y2887D01*
X37729Y2902D01*
X37728Y2917D01*
X37725Y2931D01*
X37722Y2945D01*
X37718Y2958D01*
X37714Y2972D01*
X37710Y2984D01*
X37705Y2997D01*
X37700Y3009D01*
X37694Y3021D01*
X37688Y3032D01*
X37682Y3044D01*
X37676Y3054D01*
X37669Y3064D01*
X37663Y3074D01*
X37656Y3083D01*
X37649Y3092D01*
X37642Y3100D01*
X37635Y3108D01*
X37627Y3116D01*
X37620Y3123D01*
X37612Y3130D01*
X37612Y3133D01*
X37677Y3133D01*
X37693Y3114D01*
X37708Y3094D01*
X37721Y3074D01*
X37734Y3053D01*
X37745Y3031D01*
X37754Y3009D01*
X37763Y2986D01*
X37770Y2963D01*
X37774Y2937D01*
X37779Y2912D01*
X37781Y2885D01*
X37781Y2857D01*
X37781Y2857D01*
G37*
G36*
X37997Y2930D02*
X37930Y2930D01*
X37930Y3010D01*
X37997Y3010D01*
X37997Y2930D01*
X37997Y2930D01*
G37*
G36*
X37997Y2697D02*
X37930Y2697D01*
X37930Y2777D01*
X37997Y2777D01*
X37997Y2697D01*
X37997Y2697D01*
G37*
G36*
X38094Y2697D02*
X38094Y2768D01*
X38309Y2768D01*
X38309Y2840D01*
X38166Y2840D01*
X38166Y2912D01*
X38309Y2912D01*
X38309Y2984D01*
X38094Y2984D01*
X38094Y3056D01*
X38381Y3056D01*
X38381Y2697D01*
X38094Y2697D01*
X38094Y2697D01*
G37*
G36*
X38525Y2697D02*
X38525Y2984D01*
X38453Y2984D01*
X38453Y3056D01*
X38597Y3056D01*
X38597Y2697D01*
X38525Y2697D01*
X38525Y2697D01*
G37*
G36*
X38812Y2697D02*
X38812Y2768D01*
X39099Y2768D01*
X39099Y2840D01*
X38812Y2840D01*
X38812Y3056D01*
X39171Y3056D01*
X39171Y2984D01*
X38884Y2984D01*
X38884Y2912D01*
X39171Y2912D01*
X39171Y2697D01*
X38812Y2697D01*
X38812Y2697D01*
G37*
G36*
X39386Y2768D02*
X39386Y2840D01*
X39458Y2840D01*
X39458Y2768D01*
X39386Y2768D01*
X39386Y2768D01*
G37*
G36*
X39243Y2697D02*
X39243Y3056D01*
X39315Y3056D01*
X39315Y2768D01*
X39386Y2768D01*
X39386Y2697D01*
X39243Y2697D01*
X39243Y2697D01*
G37*
G36*
X39458Y2697D02*
X39458Y2768D01*
X39530Y2768D01*
X39530Y3056D01*
X39602Y3056D01*
X39602Y2697D01*
X39458Y2697D01*
X39458Y2697D01*
G37*
G36*
X39838Y2930D02*
X39771Y2930D01*
X39771Y3010D01*
X39838Y3010D01*
X39838Y2930D01*
X39838Y2930D01*
G37*
G36*
X39838Y2697D02*
X39771Y2697D01*
X39771Y2777D01*
X39838Y2777D01*
X39838Y2697D01*
X39838Y2697D01*
G37*
G36*
X39935Y2697D02*
X39935Y2768D01*
X40150Y2768D01*
X40150Y2840D01*
X40007Y2840D01*
X40007Y2912D01*
X40150Y2912D01*
X40150Y2984D01*
X39935Y2984D01*
X39935Y3056D01*
X40222Y3056D01*
X40222Y2697D01*
X39935Y2697D01*
X39935Y2697D01*
G37*
G36*
X40294Y2697D02*
X40294Y2768D01*
X40509Y2768D01*
X40509Y2840D01*
X40366Y2840D01*
X40366Y2912D01*
X40509Y2912D01*
X40509Y2984D01*
X40294Y2984D01*
X40294Y3056D01*
X40581Y3056D01*
X40581Y2697D01*
X40294Y2697D01*
X40294Y2697D01*
G37*
G36*
X40934Y2693D02*
X40934Y3016D01*
X41257Y3016D01*
X41257Y2822D01*
X40999Y2822D01*
X40999Y2693D01*
X40934Y2693D01*
X40934Y2693D01*
G37*
%LPC*%
G36*
X41192Y2887D02*
X41192Y2952D01*
X40999Y2952D01*
X40999Y2887D01*
X41192Y2887D01*
X41192Y2887D01*
G37*
%LPD*%
G36*
X41322Y2693D02*
X41322Y3016D01*
X41645Y3016D01*
X41645Y2693D01*
X41322Y2693D01*
X41322Y2693D01*
G37*
%LPC*%
G36*
X41580Y2758D02*
X41580Y2952D01*
X41386Y2952D01*
X41386Y2758D01*
X41580Y2758D01*
X41580Y2758D01*
G37*
%LPD*%
G36*
X41838Y2693D02*
X41838Y2952D01*
X41709Y2952D01*
X41709Y3016D01*
X42032Y3016D01*
X42032Y2952D01*
X41903Y2952D01*
X41903Y2693D01*
X41838Y2693D01*
X41838Y2693D01*
G37*
G36*
X42244Y2903D02*
X42184Y2903D01*
X42184Y2975D01*
X42244Y2975D01*
X42244Y2903D01*
X42244Y2903D01*
G37*
G36*
X42244Y2693D02*
X42184Y2693D01*
X42184Y2765D01*
X42244Y2765D01*
X42244Y2693D01*
X42244Y2693D01*
G37*
G36*
X42513Y2693D02*
X42513Y3016D01*
X42836Y3016D01*
X42836Y2693D01*
X42772Y2693D01*
X42772Y2822D01*
X42578Y2822D01*
X42578Y2693D01*
X42513Y2693D01*
X42513Y2693D01*
G37*
%LPC*%
G36*
X42772Y2887D02*
X42772Y2952D01*
X42578Y2952D01*
X42578Y2887D01*
X42772Y2887D01*
X42772Y2887D01*
G37*
%LPD*%
G36*
X42901Y2693D02*
X42901Y2758D01*
X43094Y2758D01*
X43094Y2822D01*
X42965Y2822D01*
X42965Y2887D01*
X43094Y2887D01*
X43094Y2952D01*
X42901Y2952D01*
X42901Y3016D01*
X43159Y3016D01*
X43159Y2693D01*
X42901Y2693D01*
X42901Y2693D01*
G37*
G36*
X2930Y6397D02*
X2930Y6462D01*
X2995Y6462D01*
X2995Y6397D01*
X2930Y6397D01*
X2930Y6397D01*
G37*
G36*
X2801Y6268D02*
X2801Y6591D01*
X2865Y6591D01*
X2865Y6527D01*
X2930Y6527D01*
X2930Y6462D01*
X2865Y6462D01*
X2865Y6268D01*
X2801Y6268D01*
X2801Y6268D01*
G37*
G36*
X3060Y6268D02*
X3060Y6462D01*
X2995Y6462D01*
X2995Y6527D01*
X3060Y6527D01*
X3060Y6591D01*
X3124Y6591D01*
X3124Y6268D01*
X3060Y6268D01*
X3060Y6268D01*
G37*
G36*
X3189Y6268D02*
X3189Y6591D01*
X3254Y6591D01*
X3254Y6332D01*
X3448Y6332D01*
X3448Y6591D01*
X3513Y6591D01*
X3513Y6268D01*
X3189Y6268D01*
X3189Y6268D01*
G37*
G36*
X3577Y6268D02*
X3577Y6332D01*
X3642Y6332D01*
X3642Y6268D01*
X3577Y6268D01*
X3577Y6268D01*
G37*
G36*
X3836Y6268D02*
X3836Y6332D01*
X3901Y6332D01*
X3901Y6268D01*
X3836Y6268D01*
X3836Y6268D01*
G37*
G36*
X3642Y6332D02*
X3642Y6397D01*
X3707Y6397D01*
X3707Y6332D01*
X3642Y6332D01*
X3642Y6332D01*
G37*
G36*
X3772Y6332D02*
X3772Y6397D01*
X3836Y6397D01*
X3836Y6332D01*
X3772Y6332D01*
X3772Y6332D01*
G37*
G36*
X3707Y6397D02*
X3707Y6462D01*
X3772Y6462D01*
X3772Y6397D01*
X3707Y6397D01*
X3707Y6397D01*
G37*
G36*
X3642Y6462D02*
X3642Y6527D01*
X3707Y6527D01*
X3707Y6462D01*
X3642Y6462D01*
X3642Y6462D01*
G37*
G36*
X3772Y6462D02*
X3772Y6527D01*
X3836Y6527D01*
X3836Y6462D01*
X3772Y6462D01*
X3772Y6462D01*
G37*
G36*
X3577Y6527D02*
X3577Y6591D01*
X3642Y6591D01*
X3642Y6527D01*
X3577Y6527D01*
X3577Y6527D01*
G37*
G36*
X3836Y6527D02*
X3836Y6591D01*
X3901Y6591D01*
X3901Y6527D01*
X3836Y6527D01*
X3836Y6527D01*
G37*
G36*
X4114Y6478D02*
X4053Y6478D01*
X4053Y6550D01*
X4114Y6550D01*
X4114Y6478D01*
X4114Y6478D01*
G37*
G36*
X4114Y6268D02*
X4053Y6268D01*
X4053Y6340D01*
X4114Y6340D01*
X4114Y6268D01*
X4114Y6268D01*
G37*
G36*
X4383Y6268D02*
X4383Y6332D01*
X4642Y6332D01*
X4642Y6397D01*
X4383Y6397D01*
X4383Y6591D01*
X4707Y6591D01*
X4707Y6527D01*
X4448Y6527D01*
X4448Y6462D01*
X4707Y6462D01*
X4707Y6268D01*
X4383Y6268D01*
X4383Y6268D01*
G37*
G36*
X4837Y6268D02*
X4837Y6332D01*
X5031Y6332D01*
X5031Y6268D01*
X4837Y6268D01*
X4837Y6268D01*
G37*
G36*
X4772Y6332D02*
X4772Y6527D01*
X4837Y6527D01*
X4837Y6332D01*
X4772Y6332D01*
X4772Y6332D01*
G37*
G36*
X5031Y6332D02*
X5031Y6527D01*
X5096Y6527D01*
X5096Y6332D01*
X5031Y6332D01*
X5031Y6332D01*
G37*
G36*
X4837Y6527D02*
X4837Y6591D01*
X5031Y6591D01*
X5031Y6527D01*
X4837Y6527D01*
X4837Y6527D01*
G37*
G36*
X5308Y6478D02*
X5248Y6478D01*
X5248Y6550D01*
X5308Y6550D01*
X5308Y6478D01*
X5308Y6478D01*
G37*
G36*
X5308Y6268D02*
X5248Y6268D01*
X5248Y6340D01*
X5308Y6340D01*
X5308Y6268D01*
X5308Y6268D01*
G37*
G36*
X5396Y6268D02*
X5396Y6332D01*
X5461Y6332D01*
X5461Y6397D01*
X5525Y6397D01*
X5525Y6332D01*
X5655Y6332D01*
X5655Y6268D01*
X5396Y6268D01*
X5396Y6268D01*
G37*
G36*
X5525Y6397D02*
X5525Y6462D01*
X5590Y6462D01*
X5590Y6397D01*
X5525Y6397D01*
X5525Y6397D01*
G37*
G36*
X5396Y6462D02*
X5396Y6527D01*
X5461Y6527D01*
X5461Y6462D01*
X5396Y6462D01*
X5396Y6462D01*
G37*
G36*
X5590Y6462D02*
X5590Y6527D01*
X5655Y6527D01*
X5655Y6462D01*
X5590Y6462D01*
X5590Y6462D01*
G37*
G36*
X5461Y6527D02*
X5461Y6591D01*
X5590Y6591D01*
X5590Y6527D01*
X5461Y6527D01*
X5461Y6527D01*
G37*
G36*
X5720Y6268D02*
X5720Y6397D01*
X5784Y6397D01*
X5784Y6332D01*
X5914Y6332D01*
X5914Y6397D01*
X5978Y6397D01*
X5978Y6268D01*
X5720Y6268D01*
X5720Y6268D01*
G37*
G36*
X5784Y6397D02*
X5784Y6462D01*
X5914Y6462D01*
X5914Y6397D01*
X5784Y6397D01*
X5784Y6397D01*
G37*
G36*
X5720Y6462D02*
X5720Y6591D01*
X5978Y6591D01*
X5978Y6462D01*
X5914Y6462D01*
X5914Y6527D01*
X5784Y6527D01*
X5784Y6462D01*
X5720Y6462D01*
X5720Y6462D01*
G37*
G36*
X6189Y6340D02*
X6117Y6174D01*
X6080Y6174D01*
X6124Y6340D01*
X6189Y6340D01*
X6189Y6340D01*
G37*
G36*
X6413Y6268D02*
X6413Y6332D01*
X6672Y6332D01*
X6672Y6397D01*
X6413Y6397D01*
X6413Y6591D01*
X6737Y6591D01*
X6737Y6527D01*
X6478Y6527D01*
X6478Y6462D01*
X6737Y6462D01*
X6737Y6268D01*
X6413Y6268D01*
X6413Y6268D01*
G37*
G36*
X6866Y6268D02*
X6866Y6527D01*
X6802Y6527D01*
X6802Y6591D01*
X6931Y6591D01*
X6931Y6268D01*
X6866Y6268D01*
X6866Y6268D01*
G37*
G36*
X7144Y6478D02*
X7083Y6478D01*
X7083Y6550D01*
X7144Y6550D01*
X7144Y6478D01*
X7144Y6478D01*
G37*
G36*
X7144Y6268D02*
X7083Y6268D01*
X7083Y6340D01*
X7144Y6340D01*
X7144Y6268D01*
X7144Y6268D01*
G37*
G36*
X7232Y6268D02*
X7232Y6332D01*
X7296Y6332D01*
X7296Y6397D01*
X7361Y6397D01*
X7361Y6332D01*
X7490Y6332D01*
X7490Y6268D01*
X7232Y6268D01*
X7232Y6268D01*
G37*
G36*
X7361Y6397D02*
X7361Y6462D01*
X7426Y6462D01*
X7426Y6397D01*
X7361Y6397D01*
X7361Y6397D01*
G37*
G36*
X7232Y6462D02*
X7232Y6527D01*
X7296Y6527D01*
X7296Y6462D01*
X7232Y6462D01*
X7232Y6462D01*
G37*
G36*
X7426Y6462D02*
X7426Y6527D01*
X7490Y6527D01*
X7490Y6462D01*
X7426Y6462D01*
X7426Y6462D01*
G37*
G36*
X7296Y6527D02*
X7296Y6591D01*
X7426Y6591D01*
X7426Y6527D01*
X7296Y6527D01*
X7296Y6527D01*
G37*
G36*
X7555Y6268D02*
X7555Y6332D01*
X7620Y6332D01*
X7620Y6397D01*
X7685Y6397D01*
X7685Y6332D01*
X7814Y6332D01*
X7814Y6268D01*
X7555Y6268D01*
X7555Y6268D01*
G37*
G36*
X7685Y6397D02*
X7685Y6462D01*
X7749Y6462D01*
X7749Y6397D01*
X7685Y6397D01*
X7685Y6397D01*
G37*
G36*
X7555Y6462D02*
X7555Y6527D01*
X7620Y6527D01*
X7620Y6462D01*
X7555Y6462D01*
X7555Y6462D01*
G37*
G36*
X7749Y6462D02*
X7749Y6527D01*
X7814Y6527D01*
X7814Y6462D01*
X7749Y6462D01*
X7749Y6462D01*
G37*
G36*
X7620Y6527D02*
X7620Y6591D01*
X7749Y6591D01*
X7749Y6527D01*
X7620Y6527D01*
X7620Y6527D01*
G37*
G36*
X8024Y6340D02*
X7953Y6174D01*
X7916Y6174D01*
X7960Y6340D01*
X8024Y6340D01*
X8024Y6340D01*
G37*
G36*
X2930Y5509D02*
X2930Y5573D01*
X3189Y5573D01*
X3189Y5638D01*
X2930Y5638D01*
X2930Y5832D01*
X3254Y5832D01*
X3254Y5768D01*
X2995Y5768D01*
X2995Y5703D01*
X3254Y5703D01*
X3254Y5509D01*
X2930Y5509D01*
X2930Y5509D01*
G37*
G36*
X3319Y5509D02*
X3319Y5573D01*
X3383Y5573D01*
X3383Y5638D01*
X3448Y5638D01*
X3448Y5573D01*
X3577Y5573D01*
X3577Y5509D01*
X3319Y5509D01*
X3319Y5509D01*
G37*
G36*
X3448Y5638D02*
X3448Y5703D01*
X3513Y5703D01*
X3513Y5638D01*
X3448Y5638D01*
X3448Y5638D01*
G37*
G36*
X3319Y5703D02*
X3319Y5768D01*
X3383Y5768D01*
X3383Y5703D01*
X3319Y5703D01*
X3319Y5703D01*
G37*
G36*
X3513Y5703D02*
X3513Y5768D01*
X3577Y5768D01*
X3577Y5703D01*
X3513Y5703D01*
X3513Y5703D01*
G37*
G36*
X3383Y5768D02*
X3383Y5832D01*
X3513Y5832D01*
X3513Y5768D01*
X3383Y5768D01*
X3383Y5768D01*
G37*
G36*
X3790Y5719D02*
X3730Y5719D01*
X3730Y5791D01*
X3790Y5791D01*
X3790Y5719D01*
X3790Y5719D01*
G37*
G36*
X3790Y5509D02*
X3730Y5509D01*
X3730Y5581D01*
X3790Y5581D01*
X3790Y5509D01*
X3790Y5509D01*
G37*
G36*
X3878Y5509D02*
X3878Y5573D01*
X3943Y5573D01*
X3943Y5638D01*
X4007Y5638D01*
X4007Y5573D01*
X4137Y5573D01*
X4137Y5509D01*
X3878Y5509D01*
X3878Y5509D01*
G37*
G36*
X4007Y5638D02*
X4007Y5703D01*
X4072Y5703D01*
X4072Y5638D01*
X4007Y5638D01*
X4007Y5638D01*
G37*
G36*
X3878Y5703D02*
X3878Y5768D01*
X3943Y5768D01*
X3943Y5703D01*
X3878Y5703D01*
X3878Y5703D01*
G37*
G36*
X4072Y5703D02*
X4072Y5768D01*
X4137Y5768D01*
X4137Y5703D01*
X4072Y5703D01*
X4072Y5703D01*
G37*
G36*
X3943Y5768D02*
X3943Y5832D01*
X4072Y5832D01*
X4072Y5768D01*
X3943Y5768D01*
X3943Y5768D01*
G37*
G36*
X4396Y5509D02*
X4396Y5638D01*
X4201Y5638D01*
X4201Y5832D01*
X4266Y5832D01*
X4266Y5703D01*
X4396Y5703D01*
X4396Y5832D01*
X4460Y5832D01*
X4460Y5509D01*
X4396Y5509D01*
X4396Y5509D01*
G37*
G36*
X4849Y5509D02*
X4849Y5573D01*
X5108Y5573D01*
X5108Y5638D01*
X4849Y5638D01*
X4849Y5832D01*
X5172Y5832D01*
X5172Y5768D01*
X4913Y5768D01*
X4913Y5703D01*
X5172Y5703D01*
X5172Y5509D01*
X4849Y5509D01*
X4849Y5509D01*
G37*
G36*
X5237Y5509D02*
X5237Y5573D01*
X5431Y5573D01*
X5431Y5638D01*
X5302Y5638D01*
X5302Y5703D01*
X5431Y5703D01*
X5431Y5768D01*
X5237Y5768D01*
X5237Y5832D01*
X5496Y5832D01*
X5496Y5509D01*
X5237Y5509D01*
X5237Y5509D01*
G37*
G36*
X5709Y5719D02*
X5648Y5719D01*
X5648Y5791D01*
X5709Y5791D01*
X5709Y5719D01*
X5709Y5719D01*
G37*
G36*
X5709Y5509D02*
X5648Y5509D01*
X5648Y5581D01*
X5709Y5581D01*
X5709Y5509D01*
X5709Y5509D01*
G37*
G36*
X5796Y5509D02*
X5796Y5573D01*
X5861Y5573D01*
X5861Y5638D01*
X5926Y5638D01*
X5926Y5573D01*
X6055Y5573D01*
X6055Y5509D01*
X5796Y5509D01*
X5796Y5509D01*
G37*
G36*
X5926Y5638D02*
X5926Y5703D01*
X5991Y5703D01*
X5991Y5638D01*
X5926Y5638D01*
X5926Y5638D01*
G37*
G36*
X5796Y5703D02*
X5796Y5768D01*
X5861Y5768D01*
X5861Y5703D01*
X5796Y5703D01*
X5796Y5703D01*
G37*
G36*
X5991Y5703D02*
X5991Y5768D01*
X6055Y5768D01*
X6055Y5703D01*
X5991Y5703D01*
X5991Y5703D01*
G37*
G36*
X5861Y5768D02*
X5861Y5832D01*
X5991Y5832D01*
X5991Y5768D01*
X5861Y5768D01*
X5861Y5768D01*
G37*
G36*
X6120Y5509D02*
X6120Y5832D01*
X6379Y5832D01*
X6379Y5768D01*
X6185Y5768D01*
X6185Y5703D01*
X6379Y5703D01*
X6379Y5509D01*
X6120Y5509D01*
X6120Y5509D01*
G37*
%LPC*%
G36*
X6314Y5573D02*
X6314Y5638D01*
X6185Y5638D01*
X6185Y5573D01*
X6314Y5573D01*
X6314Y5573D01*
G37*
%LPD*%
G36*
X6767Y5509D02*
X6767Y5573D01*
X7026Y5573D01*
X7026Y5638D01*
X6767Y5638D01*
X6767Y5832D01*
X7091Y5832D01*
X7091Y5768D01*
X6832Y5768D01*
X6832Y5703D01*
X7091Y5703D01*
X7091Y5509D01*
X6767Y5509D01*
X6767Y5509D01*
G37*
G36*
X7156Y5509D02*
X7156Y5573D01*
X7285Y5573D01*
X7285Y5768D01*
X7156Y5768D01*
X7156Y5832D01*
X7479Y5832D01*
X7479Y5768D01*
X7350Y5768D01*
X7350Y5573D01*
X7479Y5573D01*
X7479Y5509D01*
X7156Y5509D01*
X7156Y5509D01*
G37*
G36*
X7544Y5509D02*
X7544Y5832D01*
X7868Y5832D01*
X7868Y5768D01*
X7609Y5768D01*
X7609Y5573D01*
X7803Y5573D01*
X7803Y5638D01*
X7674Y5638D01*
X7674Y5703D01*
X7868Y5703D01*
X7868Y5509D01*
X7544Y5509D01*
X7544Y5509D01*
G37*
G36*
X8130Y5404D02*
X8072Y5404D01*
X8058Y5422D01*
X8044Y5439D01*
X8033Y5458D01*
X8021Y5477D01*
X8011Y5496D01*
X8003Y5516D01*
X7995Y5537D01*
X7989Y5558D01*
X7984Y5581D01*
X7980Y5604D01*
X7978Y5628D01*
X7978Y5653D01*
X7978Y5679D01*
X7980Y5703D01*
X7984Y5726D01*
X7989Y5748D01*
X7995Y5770D01*
X8003Y5790D01*
X8011Y5810D01*
X8021Y5830D01*
X8033Y5848D01*
X8044Y5867D01*
X8058Y5885D01*
X8072Y5902D01*
X8130Y5902D01*
X8130Y5900D01*
X8124Y5893D01*
X8117Y5887D01*
X8110Y5880D01*
X8104Y5873D01*
X8097Y5865D01*
X8091Y5857D01*
X8085Y5849D01*
X8079Y5840D01*
X8073Y5831D01*
X8068Y5821D01*
X8062Y5811D01*
X8057Y5801D01*
X8052Y5790D01*
X8047Y5779D01*
X8043Y5768D01*
X8039Y5757D01*
X8035Y5745D01*
X8032Y5732D01*
X8029Y5720D01*
X8027Y5707D01*
X8025Y5694D01*
X8023Y5681D01*
X8023Y5667D01*
X8023Y5653D01*
X8023Y5639D01*
X8023Y5625D01*
X8025Y5612D01*
X8026Y5599D01*
X8029Y5586D01*
X8032Y5574D01*
X8035Y5562D01*
X8039Y5550D01*
X8043Y5539D01*
X8047Y5528D01*
X8052Y5517D01*
X8057Y5506D01*
X8062Y5495D01*
X8067Y5486D01*
X8073Y5476D01*
X8079Y5467D01*
X8085Y5458D01*
X8091Y5450D01*
X8098Y5441D01*
X8104Y5434D01*
X8111Y5426D01*
X8117Y5419D01*
X8124Y5413D01*
X8130Y5407D01*
X8130Y5404D01*
X8130Y5404D01*
G37*
G36*
X8168Y5509D02*
X8168Y5573D01*
X8298Y5573D01*
X8298Y5768D01*
X8168Y5768D01*
X8168Y5832D01*
X8492Y5832D01*
X8492Y5768D01*
X8362Y5768D01*
X8362Y5573D01*
X8492Y5573D01*
X8492Y5509D01*
X8168Y5509D01*
X8168Y5509D01*
G37*
G36*
X8774Y5902D02*
X8593Y5432D01*
X8549Y5432D01*
X8729Y5902D01*
X8774Y5902D01*
X8774Y5902D01*
G37*
G36*
X8792Y5509D02*
X8792Y5832D01*
X9116Y5832D01*
X9116Y5509D01*
X8792Y5509D01*
X8792Y5509D01*
G37*
%LPC*%
G36*
X9051Y5573D02*
X9051Y5768D01*
X8857Y5768D01*
X8857Y5573D01*
X9051Y5573D01*
X9051Y5573D01*
G37*
%LPD*%
G36*
X9370Y5653D02*
X9370Y5628D01*
X9368Y5604D01*
X9364Y5581D01*
X9360Y5558D01*
X9353Y5537D01*
X9345Y5516D01*
X9337Y5496D01*
X9327Y5477D01*
X9315Y5458D01*
X9304Y5439D01*
X9290Y5422D01*
X9276Y5404D01*
X9218Y5404D01*
X9218Y5407D01*
X9224Y5413D01*
X9231Y5419D01*
X9237Y5426D01*
X9244Y5434D01*
X9250Y5441D01*
X9257Y5450D01*
X9263Y5458D01*
X9269Y5467D01*
X9275Y5476D01*
X9281Y5486D01*
X9286Y5495D01*
X9291Y5506D01*
X9296Y5517D01*
X9301Y5528D01*
X9305Y5539D01*
X9309Y5550D01*
X9313Y5562D01*
X9316Y5574D01*
X9319Y5586D01*
X9321Y5599D01*
X9323Y5612D01*
X9325Y5625D01*
X9325Y5639D01*
X9325Y5653D01*
X9325Y5667D01*
X9325Y5681D01*
X9323Y5694D01*
X9321Y5707D01*
X9319Y5720D01*
X9316Y5732D01*
X9313Y5745D01*
X9309Y5757D01*
X9305Y5768D01*
X9301Y5779D01*
X9296Y5790D01*
X9291Y5801D01*
X9286Y5811D01*
X9280Y5821D01*
X9275Y5831D01*
X9269Y5840D01*
X9263Y5849D01*
X9257Y5857D01*
X9250Y5865D01*
X9244Y5873D01*
X9238Y5880D01*
X9231Y5887D01*
X9224Y5893D01*
X9218Y5900D01*
X9218Y5902D01*
X9276Y5902D01*
X9290Y5885D01*
X9304Y5867D01*
X9315Y5848D01*
X9327Y5830D01*
X9337Y5810D01*
X9345Y5790D01*
X9353Y5770D01*
X9360Y5748D01*
X9364Y5726D01*
X9368Y5703D01*
X9370Y5679D01*
X9370Y5653D01*
X9370Y5653D01*
G37*
G36*
X9564Y5719D02*
X9504Y5719D01*
X9504Y5791D01*
X9564Y5791D01*
X9564Y5719D01*
X9564Y5719D01*
G37*
G36*
X9564Y5509D02*
X9504Y5509D01*
X9504Y5581D01*
X9564Y5581D01*
X9564Y5509D01*
X9564Y5509D01*
G37*
G36*
X9652Y5509D02*
X9652Y5573D01*
X9716Y5573D01*
X9716Y5638D01*
X9781Y5638D01*
X9781Y5573D01*
X9911Y5573D01*
X9911Y5509D01*
X9652Y5509D01*
X9652Y5509D01*
G37*
G36*
X9781Y5638D02*
X9781Y5703D01*
X9846Y5703D01*
X9846Y5638D01*
X9781Y5638D01*
X9781Y5638D01*
G37*
G36*
X9652Y5703D02*
X9652Y5768D01*
X9716Y5768D01*
X9716Y5703D01*
X9652Y5703D01*
X9652Y5703D01*
G37*
G36*
X9846Y5703D02*
X9846Y5768D01*
X9911Y5768D01*
X9911Y5703D01*
X9846Y5703D01*
X9846Y5703D01*
G37*
G36*
X9716Y5768D02*
X9716Y5832D01*
X9846Y5832D01*
X9846Y5768D01*
X9716Y5768D01*
X9716Y5768D01*
G37*
G36*
X9975Y5509D02*
X9975Y5573D01*
X10170Y5573D01*
X10170Y5638D01*
X10040Y5638D01*
X10040Y5703D01*
X10170Y5703D01*
X10170Y5768D01*
X9975Y5768D01*
X9975Y5832D01*
X10234Y5832D01*
X10234Y5509D01*
X9975Y5509D01*
X9975Y5509D01*
G37*
G36*
X41218Y23422D02*
X41218Y23489D01*
X41285Y23489D01*
X41285Y23422D01*
X41218Y23422D01*
X41218Y23422D01*
G37*
G36*
X41150Y23489D02*
X41150Y23556D01*
X41218Y23556D01*
X41218Y23489D01*
X41150Y23489D01*
X41150Y23489D01*
G37*
G36*
X41150Y23623D02*
X41150Y23691D01*
X41218Y23691D01*
X41218Y23623D01*
X41150Y23623D01*
X41150Y23623D01*
G37*
G36*
X41016Y23422D02*
X41016Y23758D01*
X41083Y23758D01*
X41083Y23623D01*
X41150Y23623D01*
X41150Y23556D01*
X41083Y23556D01*
X41083Y23422D01*
X41016Y23422D01*
X41016Y23422D01*
G37*
G36*
X41218Y23691D02*
X41218Y23758D01*
X41285Y23758D01*
X41285Y23691D01*
X41218Y23691D01*
X41218Y23691D01*
G37*
G36*
X41352Y23422D02*
X41352Y23758D01*
X41688Y23758D01*
X41688Y23691D01*
X41419Y23691D01*
X41419Y23623D01*
X41621Y23623D01*
X41621Y23556D01*
X41419Y23556D01*
X41419Y23489D01*
X41688Y23489D01*
X41688Y23422D01*
X41352Y23422D01*
X41352Y23422D01*
G37*
G36*
X41890Y23422D02*
X41890Y23623D01*
X41957Y23623D01*
X41957Y23422D01*
X41890Y23422D01*
X41890Y23422D01*
G37*
G36*
X41823Y23623D02*
X41823Y23691D01*
X41890Y23691D01*
X41890Y23623D01*
X41823Y23623D01*
X41823Y23623D01*
G37*
G36*
X41957Y23623D02*
X41957Y23691D01*
X42024Y23691D01*
X42024Y23623D01*
X41957Y23623D01*
X41957Y23623D01*
G37*
G36*
X41755Y23691D02*
X41755Y23758D01*
X41823Y23758D01*
X41823Y23691D01*
X41755Y23691D01*
X41755Y23691D01*
G37*
G36*
X42024Y23691D02*
X42024Y23758D01*
X42092Y23758D01*
X42092Y23691D01*
X42024Y23691D01*
X42024Y23691D01*
G37*
G36*
X42159Y23422D02*
X42159Y23489D01*
X42428Y23489D01*
X42428Y23556D01*
X42159Y23556D01*
X42159Y23758D01*
X42495Y23758D01*
X42495Y23691D01*
X42226Y23691D01*
X42226Y23623D01*
X42495Y23623D01*
X42495Y23422D01*
X42159Y23422D01*
X42159Y23422D01*
G37*
G36*
X42996Y23422D02*
X42996Y23758D01*
X43332Y23758D01*
X43332Y23422D01*
X43265Y23422D01*
X43265Y23556D01*
X43063Y23556D01*
X43063Y23422D01*
X42996Y23422D01*
X42996Y23422D01*
G37*
%LPC*%
G36*
X43265Y23623D02*
X43265Y23691D01*
X43063Y23691D01*
X43063Y23623D01*
X43265Y23623D01*
X43265Y23623D01*
G37*
%LPD*%
G36*
X43467Y23422D02*
X43467Y23691D01*
X43399Y23691D01*
X43399Y23758D01*
X43534Y23758D01*
X43534Y23422D01*
X43467Y23422D01*
X43467Y23422D01*
G37*
G36*
X4105Y34647D02*
X4441Y34647D01*
X4441Y34579D01*
X4172Y34579D01*
X4172Y34378D01*
X4105Y34378D01*
X4105Y34647D01*
X4105Y34647D01*
G37*
G36*
X4105Y34310D02*
X4441Y34310D01*
X4441Y33974D01*
X4374Y33974D01*
X4374Y34243D01*
X4306Y34243D01*
X4306Y34042D01*
X4239Y34042D01*
X4239Y34243D01*
X4172Y34243D01*
X4172Y33974D01*
X4105Y33974D01*
X4105Y34310D01*
X4105Y34310D01*
G37*
G36*
X4172Y33638D02*
X4374Y33638D01*
X4374Y33571D01*
X4172Y33571D01*
X4172Y33638D01*
X4172Y33638D01*
G37*
G36*
X4105Y33907D02*
X4441Y33907D01*
X4441Y33638D01*
X4374Y33638D01*
X4374Y33840D01*
X4172Y33840D01*
X4172Y33638D01*
X4105Y33638D01*
X4105Y33907D01*
X4105Y33907D01*
G37*
G36*
X4323Y33350D02*
X4323Y33413D01*
X4398Y33413D01*
X4398Y33350D01*
X4323Y33350D01*
X4323Y33350D01*
G37*
G36*
X4105Y33350D02*
X4105Y33413D01*
X4180Y33413D01*
X4180Y33350D01*
X4105Y33350D01*
X4105Y33350D01*
G37*
G36*
X4105Y32801D02*
X4172Y32801D01*
X4172Y32734D01*
X4105Y32734D01*
X4105Y32801D01*
X4105Y32801D01*
G37*
G36*
X4105Y33070D02*
X4441Y33070D01*
X4441Y32734D01*
X4239Y32734D01*
X4239Y32801D01*
X4172Y32801D01*
X4172Y32868D01*
X4239Y32868D01*
X4239Y33003D01*
X4105Y33003D01*
X4105Y33070D01*
X4105Y33070D01*
G37*
%LPC*%
G36*
X4306Y32801D02*
X4374Y32801D01*
X4374Y33003D01*
X4306Y33003D01*
X4306Y32801D01*
X4306Y32801D01*
G37*
%LPD*%
G36*
X4323Y32513D02*
X4323Y32576D01*
X4398Y32576D01*
X4398Y32513D01*
X4323Y32513D01*
X4323Y32513D01*
G37*
G36*
X4105Y32513D02*
X4105Y32576D01*
X4180Y32576D01*
X4180Y32513D01*
X4105Y32513D01*
X4105Y32513D01*
G37*
G36*
X4105Y32355D02*
X4374Y32355D01*
X4374Y32422D01*
X4441Y32422D01*
X4441Y32288D01*
X4105Y32288D01*
X4105Y32355D01*
X4105Y32355D01*
G37*
G36*
X4105Y32153D02*
X4374Y32153D01*
X4374Y32220D01*
X4441Y32220D01*
X4441Y32086D01*
X4105Y32086D01*
X4105Y32153D01*
X4105Y32153D01*
G37*
G36*
X4105Y31951D02*
X4441Y31951D01*
X4441Y31615D01*
X4374Y31615D01*
X4374Y31884D01*
X4172Y31884D01*
X4172Y31683D01*
X4239Y31683D01*
X4239Y31817D01*
X4306Y31817D01*
X4306Y31615D01*
X4105Y31615D01*
X4105Y31951D01*
X4105Y31951D01*
G37*
G36*
X4323Y31394D02*
X4323Y31457D01*
X4398Y31457D01*
X4398Y31394D01*
X4323Y31394D01*
X4323Y31394D01*
G37*
G36*
X4105Y31394D02*
X4105Y31457D01*
X4180Y31457D01*
X4180Y31394D01*
X4105Y31394D01*
X4105Y31394D01*
G37*
G36*
X4105Y31236D02*
X4374Y31236D01*
X4374Y31303D01*
X4441Y31303D01*
X4441Y31169D01*
X4105Y31169D01*
X4105Y31236D01*
X4105Y31236D01*
G37*
G36*
X4105Y31034D02*
X4172Y31034D01*
X4172Y30833D01*
X4105Y30833D01*
X4105Y31034D01*
X4105Y31034D01*
G37*
G36*
X4172Y31102D02*
X4374Y31102D01*
X4374Y31034D01*
X4172Y31034D01*
X4172Y31102D01*
X4172Y31102D01*
G37*
G36*
X4172Y30833D02*
X4374Y30833D01*
X4374Y30766D01*
X4172Y30766D01*
X4172Y30833D01*
X4172Y30833D01*
G37*
G36*
X4374Y31034D02*
X4441Y31034D01*
X4441Y30833D01*
X4374Y30833D01*
X4374Y31034D01*
X4374Y31034D01*
G37*
G36*
X4105Y30631D02*
X4441Y30631D01*
X4441Y30362D01*
X4374Y30362D01*
X4374Y30564D01*
X4306Y30564D01*
X4306Y30362D01*
X4374Y30362D01*
X4374Y30295D01*
X4172Y30295D01*
X4172Y30362D01*
X4239Y30362D01*
X4239Y30564D01*
X4172Y30564D01*
X4172Y30362D01*
X4105Y30362D01*
X4105Y30631D01*
X4105Y30631D01*
G37*
G36*
X4323Y30074D02*
X4323Y30137D01*
X4398Y30137D01*
X4398Y30074D01*
X4323Y30074D01*
X4323Y30074D01*
G37*
G36*
X4105Y30074D02*
X4105Y30137D01*
X4180Y30137D01*
X4180Y30074D01*
X4105Y30074D01*
X4105Y30074D01*
G37*
G36*
X4105Y29983D02*
X4172Y29983D01*
X4172Y29781D01*
X4239Y29781D01*
X4239Y29983D01*
X4441Y29983D01*
X4441Y29714D01*
X4105Y29714D01*
X4105Y29983D01*
X4105Y29983D01*
G37*
%LPC*%
G36*
X4306Y29781D02*
X4374Y29781D01*
X4374Y29916D01*
X4306Y29916D01*
X4306Y29781D01*
X4306Y29781D01*
G37*
%LPD*%
G36*
X8609Y6148D02*
X9146Y6958D01*
X8071Y6958D01*
X8609Y6148D01*
G37*
G36*
X37052Y6029D02*
X37052Y6096D01*
X37320Y6096D01*
X37320Y6163D01*
X37052Y6163D01*
X37052Y6365D01*
X37388Y6365D01*
X37388Y6298D01*
X37119Y6298D01*
X37119Y6230D01*
X37388Y6230D01*
X37388Y6029D01*
X37052Y6029D01*
X37052Y6029D01*
G37*
G36*
X37541Y6027D02*
X37541Y6229D01*
X37608Y6229D01*
X37608Y6027D01*
X37541Y6027D01*
X37541Y6027D01*
G37*
G36*
X37474Y6229D02*
X37474Y6296D01*
X37541Y6296D01*
X37541Y6229D01*
X37474Y6229D01*
X37474Y6229D01*
G37*
G36*
X37608Y6229D02*
X37608Y6296D01*
X37676Y6296D01*
X37676Y6229D01*
X37608Y6229D01*
X37608Y6229D01*
G37*
G36*
X37407Y6296D02*
X37407Y6363D01*
X37474Y6363D01*
X37474Y6296D01*
X37407Y6296D01*
X37407Y6296D01*
G37*
G36*
X37676Y6296D02*
X37676Y6363D01*
X37743Y6363D01*
X37743Y6296D01*
X37676Y6296D01*
X37676Y6296D01*
G37*
G36*
X32119Y5886D02*
X32767Y5348D01*
X32767Y6424D01*
X32119Y5886D01*
G37*
G36*
X33020Y6029D02*
X33020Y6366D01*
X33087Y6366D01*
X33087Y6097D01*
X33289Y6097D01*
X33289Y6029D01*
X33020Y6029D01*
X33020Y6029D01*
G37*
G36*
X33356Y6029D02*
X33356Y6366D01*
X33692Y6366D01*
X33692Y6298D01*
X33424Y6298D01*
X33424Y6097D01*
X33692Y6097D01*
X33692Y6029D01*
X33356Y6029D01*
X33356Y6029D01*
G37*
G36*
X34029Y6097D02*
X34029Y6298D01*
X34096Y6298D01*
X34096Y6097D01*
X34029Y6097D01*
X34029Y6097D01*
G37*
G36*
X33760Y6029D02*
X33760Y6366D01*
X34029Y6366D01*
X34029Y6298D01*
X33827Y6298D01*
X33827Y6097D01*
X34029Y6097D01*
X34029Y6029D01*
X33760Y6029D01*
X33760Y6029D01*
G37*
G36*
X34317Y6248D02*
X34254Y6248D01*
X34254Y6323D01*
X34317Y6323D01*
X34317Y6248D01*
X34317Y6248D01*
G37*
G36*
X34317Y6029D02*
X34254Y6029D01*
X34254Y6104D01*
X34317Y6104D01*
X34317Y6029D01*
X34317Y6029D01*
G37*
G36*
X34866Y6097D02*
X34866Y6298D01*
X34933Y6298D01*
X34933Y6097D01*
X34866Y6097D01*
X34866Y6097D01*
G37*
G36*
X34597Y6029D02*
X34597Y6366D01*
X34866Y6366D01*
X34866Y6298D01*
X34664Y6298D01*
X34664Y6097D01*
X34866Y6097D01*
X34866Y6029D01*
X34597Y6029D01*
X34597Y6029D01*
G37*
G36*
X35000Y6029D02*
X35000Y6097D01*
X35135Y6097D01*
X35135Y6298D01*
X35000Y6298D01*
X35000Y6366D01*
X35336Y6366D01*
X35336Y6298D01*
X35202Y6298D01*
X35202Y6097D01*
X35336Y6097D01*
X35336Y6029D01*
X35000Y6029D01*
X35000Y6029D01*
G37*
G36*
X35538Y6164D02*
X35538Y6231D01*
X35605Y6231D01*
X35605Y6164D01*
X35538Y6164D01*
X35538Y6164D01*
G37*
G36*
X35403Y6029D02*
X35403Y6366D01*
X35471Y6366D01*
X35471Y6298D01*
X35538Y6298D01*
X35538Y6231D01*
X35471Y6231D01*
X35471Y6029D01*
X35403Y6029D01*
X35403Y6029D01*
G37*
G36*
X35672Y6029D02*
X35672Y6097D01*
X35605Y6097D01*
X35605Y6164D01*
X35672Y6164D01*
X35672Y6366D01*
X35740Y6366D01*
X35740Y6029D01*
X35672Y6029D01*
X35672Y6029D01*
G37*
G36*
X35960Y6248D02*
X35898Y6248D01*
X35898Y6323D01*
X35960Y6323D01*
X35960Y6248D01*
X35960Y6248D01*
G37*
G36*
X35960Y6029D02*
X35898Y6029D01*
X35898Y6104D01*
X35960Y6104D01*
X35960Y6029D01*
X35960Y6029D01*
G37*
G36*
X36375Y6164D02*
X36375Y6231D01*
X36442Y6231D01*
X36442Y6164D01*
X36375Y6164D01*
X36375Y6164D01*
G37*
G36*
X36241Y6029D02*
X36241Y6366D01*
X36308Y6366D01*
X36308Y6298D01*
X36375Y6298D01*
X36375Y6231D01*
X36308Y6231D01*
X36308Y6029D01*
X36241Y6029D01*
X36241Y6029D01*
G37*
G36*
X36509Y6029D02*
X36509Y6231D01*
X36442Y6231D01*
X36442Y6298D01*
X36509Y6298D01*
X36509Y6366D01*
X36577Y6366D01*
X36577Y6029D01*
X36509Y6029D01*
X36509Y6029D01*
G37*
G36*
X36644Y6029D02*
X36644Y6366D01*
X36980Y6366D01*
X36980Y6029D01*
X36644Y6029D01*
X36644Y6029D01*
G37*
%LPC*%
G36*
X36913Y6097D02*
X36913Y6298D01*
X36711Y6298D01*
X36711Y6097D01*
X36913Y6097D01*
X36913Y6097D01*
G37*
%LPD*%
G36*
X38127Y5921D02*
X38067Y5921D01*
X38051Y5939D01*
X38037Y5958D01*
X38025Y5977D01*
X38013Y5996D01*
X38003Y6017D01*
X37994Y6038D01*
X37986Y6059D01*
X37979Y6081D01*
X37975Y6105D01*
X37971Y6128D01*
X37969Y6153D01*
X37969Y6180D01*
X37969Y6206D01*
X37971Y6231D01*
X37975Y6255D01*
X37979Y6278D01*
X37986Y6301D01*
X37994Y6322D01*
X38003Y6343D01*
X38013Y6363D01*
X38025Y6382D01*
X38037Y6402D01*
X38051Y6420D01*
X38067Y6438D01*
X38127Y6438D01*
X38127Y6435D01*
X38120Y6429D01*
X38113Y6422D01*
X38106Y6415D01*
X38099Y6407D01*
X38093Y6399D01*
X38086Y6391D01*
X38080Y6383D01*
X38073Y6374D01*
X38068Y6364D01*
X38062Y6354D01*
X38056Y6344D01*
X38050Y6333D01*
X38045Y6322D01*
X38040Y6311D01*
X38036Y6299D01*
X38032Y6287D01*
X38028Y6275D01*
X38025Y6262D01*
X38021Y6249D01*
X38019Y6235D01*
X38017Y6222D01*
X38016Y6208D01*
X38015Y6194D01*
X38015Y6180D01*
X38015Y6165D01*
X38016Y6150D01*
X38017Y6137D01*
X38019Y6123D01*
X38021Y6110D01*
X38024Y6097D01*
X38028Y6085D01*
X38031Y6073D01*
X38036Y6061D01*
X38040Y6049D01*
X38045Y6038D01*
X38050Y6027D01*
X38056Y6016D01*
X38061Y6006D01*
X38067Y5996D01*
X38073Y5986D01*
X38080Y5977D01*
X38086Y5968D01*
X38093Y5960D01*
X38100Y5951D01*
X38107Y5944D01*
X38113Y5937D01*
X38120Y5930D01*
X38127Y5924D01*
X38127Y5921D01*
X38127Y5921D01*
G37*
G36*
X38166Y6029D02*
X38166Y6097D01*
X38368Y6097D01*
X38368Y6164D01*
X38166Y6164D01*
X38166Y6298D01*
X38233Y6298D01*
X38233Y6231D01*
X38435Y6231D01*
X38435Y6029D01*
X38166Y6029D01*
X38166Y6029D01*
G37*
G36*
X38233Y6298D02*
X38233Y6366D01*
X38435Y6366D01*
X38435Y6298D01*
X38233Y6298D01*
X38233Y6298D01*
G37*
G36*
X38569Y6029D02*
X38569Y6298D01*
X38502Y6298D01*
X38502Y6366D01*
X38636Y6366D01*
X38636Y6029D01*
X38569Y6029D01*
X38569Y6029D01*
G37*
G36*
X38900Y6180D02*
X38900Y6153D01*
X38898Y6128D01*
X38894Y6105D01*
X38890Y6081D01*
X38883Y6059D01*
X38875Y6038D01*
X38866Y6017D01*
X38856Y5996D01*
X38844Y5977D01*
X38832Y5958D01*
X38818Y5939D01*
X38802Y5921D01*
X38742Y5921D01*
X38742Y5924D01*
X38749Y5930D01*
X38756Y5937D01*
X38762Y5944D01*
X38769Y5951D01*
X38776Y5960D01*
X38783Y5968D01*
X38790Y5977D01*
X38796Y5986D01*
X38802Y5996D01*
X38808Y6006D01*
X38813Y6016D01*
X38819Y6027D01*
X38824Y6038D01*
X38829Y6049D01*
X38833Y6061D01*
X38838Y6073D01*
X38841Y6085D01*
X38844Y6097D01*
X38848Y6110D01*
X38850Y6123D01*
X38852Y6137D01*
X38853Y6150D01*
X38854Y6165D01*
X38854Y6180D01*
X38854Y6194D01*
X38853Y6208D01*
X38852Y6222D01*
X38850Y6235D01*
X38848Y6249D01*
X38844Y6262D01*
X38841Y6275D01*
X38837Y6287D01*
X38833Y6299D01*
X38829Y6311D01*
X38824Y6322D01*
X38819Y6333D01*
X38813Y6344D01*
X38807Y6354D01*
X38801Y6364D01*
X38795Y6374D01*
X38789Y6383D01*
X38783Y6391D01*
X38776Y6399D01*
X38770Y6407D01*
X38763Y6415D01*
X38756Y6422D01*
X38749Y6429D01*
X38742Y6435D01*
X38742Y6438D01*
X38802Y6438D01*
X38818Y6420D01*
X38832Y6402D01*
X38844Y6382D01*
X38856Y6363D01*
X38866Y6343D01*
X38875Y6322D01*
X38883Y6301D01*
X38890Y6278D01*
X38894Y6255D01*
X38898Y6231D01*
X38900Y6206D01*
X38900Y6180D01*
X38900Y6180D01*
G37*
G36*
X39137Y6029D02*
X39137Y6366D01*
X39474Y6366D01*
X39474Y6298D01*
X39205Y6298D01*
X39205Y6097D01*
X39474Y6097D01*
X39474Y6029D01*
X39137Y6029D01*
X39137Y6029D01*
G37*
G36*
X39541Y6029D02*
X39541Y6366D01*
X39608Y6366D01*
X39608Y6097D01*
X39810Y6097D01*
X39810Y6029D01*
X39541Y6029D01*
X39541Y6029D01*
G37*
G36*
X40079Y6029D02*
X40079Y6097D01*
X40146Y6097D01*
X40146Y6029D01*
X40079Y6029D01*
X40079Y6029D01*
G37*
G36*
X40011Y6097D02*
X40011Y6164D01*
X40079Y6164D01*
X40079Y6097D01*
X40011Y6097D01*
X40011Y6097D01*
G37*
G36*
X40011Y6231D02*
X40011Y6298D01*
X40079Y6298D01*
X40079Y6231D01*
X40011Y6231D01*
X40011Y6231D01*
G37*
G36*
X39877Y6029D02*
X39877Y6366D01*
X39944Y6366D01*
X39944Y6231D01*
X40011Y6231D01*
X40011Y6164D01*
X39944Y6164D01*
X39944Y6029D01*
X39877Y6029D01*
X39877Y6029D01*
G37*
G36*
X40079Y6298D02*
X40079Y6366D01*
X40146Y6366D01*
X40146Y6298D01*
X40079Y6298D01*
X40079Y6298D01*
G37*
G36*
X40367Y6248D02*
X40304Y6248D01*
X40304Y6323D01*
X40367Y6323D01*
X40367Y6248D01*
X40367Y6248D01*
G37*
G36*
X40367Y6029D02*
X40304Y6029D01*
X40304Y6104D01*
X40367Y6104D01*
X40367Y6029D01*
X40367Y6029D01*
G37*
G36*
X40647Y6029D02*
X40647Y6097D01*
X40916Y6097D01*
X40916Y6164D01*
X40647Y6164D01*
X40647Y6366D01*
X40983Y6366D01*
X40983Y6298D01*
X40714Y6298D01*
X40714Y6231D01*
X40983Y6231D01*
X40983Y6029D01*
X40647Y6029D01*
X40647Y6029D01*
G37*
G36*
X41078Y6031D02*
X41078Y6367D01*
X41414Y6367D01*
X41414Y6300D01*
X41145Y6300D01*
X41145Y6098D01*
X41414Y6098D01*
X41414Y6031D01*
X41078Y6031D01*
X41078Y6031D01*
G37*
G36*
X41655Y6029D02*
X41655Y6097D01*
X41722Y6097D01*
X41722Y6029D01*
X41655Y6029D01*
X41655Y6029D01*
G37*
G36*
X41588Y6097D02*
X41588Y6164D01*
X41655Y6164D01*
X41655Y6097D01*
X41588Y6097D01*
X41588Y6097D01*
G37*
G36*
X41588Y6231D02*
X41588Y6298D01*
X41655Y6298D01*
X41655Y6231D01*
X41588Y6231D01*
X41588Y6231D01*
G37*
G36*
X41453Y6029D02*
X41453Y6366D01*
X41521Y6366D01*
X41521Y6231D01*
X41588Y6231D01*
X41588Y6164D01*
X41521Y6164D01*
X41521Y6029D01*
X41453Y6029D01*
X41453Y6029D01*
G37*
G36*
X41655Y6298D02*
X41655Y6366D01*
X41722Y6366D01*
X41722Y6298D01*
X41655Y6298D01*
X41655Y6298D01*
G37*
G36*
X42062Y5921D02*
X42002Y5921D01*
X41987Y5939D01*
X41973Y5958D01*
X41961Y5977D01*
X41949Y5996D01*
X41939Y6017D01*
X41930Y6038D01*
X41921Y6059D01*
X41915Y6081D01*
X41911Y6105D01*
X41906Y6128D01*
X41904Y6153D01*
X41904Y6180D01*
X41904Y6206D01*
X41906Y6231D01*
X41911Y6255D01*
X41915Y6278D01*
X41921Y6301D01*
X41930Y6322D01*
X41939Y6343D01*
X41949Y6363D01*
X41961Y6382D01*
X41973Y6402D01*
X41987Y6420D01*
X42002Y6438D01*
X42062Y6438D01*
X42062Y6435D01*
X42055Y6429D01*
X42048Y6422D01*
X42042Y6415D01*
X42035Y6407D01*
X42028Y6399D01*
X42022Y6391D01*
X42015Y6383D01*
X42009Y6374D01*
X42003Y6364D01*
X41997Y6354D01*
X41991Y6344D01*
X41986Y6333D01*
X41981Y6322D01*
X41976Y6311D01*
X41972Y6299D01*
X41967Y6287D01*
X41964Y6275D01*
X41960Y6262D01*
X41957Y6249D01*
X41955Y6235D01*
X41953Y6222D01*
X41951Y6208D01*
X41951Y6194D01*
X41951Y6180D01*
X41951Y6165D01*
X41951Y6150D01*
X41953Y6137D01*
X41954Y6123D01*
X41957Y6110D01*
X41960Y6097D01*
X41963Y6085D01*
X41967Y6073D01*
X41971Y6061D01*
X41976Y6049D01*
X41981Y6038D01*
X41986Y6027D01*
X41991Y6016D01*
X41997Y6006D01*
X42003Y5996D01*
X42009Y5986D01*
X42015Y5977D01*
X42022Y5968D01*
X42029Y5960D01*
X42035Y5951D01*
X42042Y5944D01*
X42049Y5937D01*
X42056Y5930D01*
X42062Y5924D01*
X42062Y5921D01*
X42062Y5921D01*
G37*
G36*
X42102Y6029D02*
X42102Y6097D01*
X42303Y6097D01*
X42303Y6164D01*
X42102Y6164D01*
X42102Y6298D01*
X42169Y6298D01*
X42169Y6231D01*
X42370Y6231D01*
X42370Y6029D01*
X42102Y6029D01*
X42102Y6029D01*
G37*
G36*
X42169Y6298D02*
X42169Y6366D01*
X42370Y6366D01*
X42370Y6298D01*
X42169Y6298D01*
X42169Y6298D01*
G37*
G36*
X42438Y6029D02*
X42438Y6097D01*
X42505Y6097D01*
X42505Y6164D01*
X42572Y6164D01*
X42572Y6097D01*
X42707Y6097D01*
X42707Y6029D01*
X42438Y6029D01*
X42438Y6029D01*
G37*
G36*
X42572Y6164D02*
X42572Y6231D01*
X42639Y6231D01*
X42639Y6164D01*
X42572Y6164D01*
X42572Y6164D01*
G37*
G36*
X42438Y6231D02*
X42438Y6298D01*
X42505Y6298D01*
X42505Y6231D01*
X42438Y6231D01*
X42438Y6231D01*
G37*
G36*
X42639Y6231D02*
X42639Y6298D01*
X42707Y6298D01*
X42707Y6231D01*
X42639Y6231D01*
X42639Y6231D01*
G37*
G36*
X42505Y6298D02*
X42505Y6366D01*
X42639Y6366D01*
X42639Y6298D01*
X42505Y6298D01*
X42505Y6298D01*
G37*
G36*
X42970Y6180D02*
X42970Y6153D01*
X42968Y6128D01*
X42964Y6105D01*
X42960Y6081D01*
X42953Y6059D01*
X42945Y6038D01*
X42936Y6017D01*
X42926Y5996D01*
X42914Y5977D01*
X42902Y5958D01*
X42888Y5939D01*
X42872Y5921D01*
X42812Y5921D01*
X42812Y5924D01*
X42819Y5930D01*
X42826Y5937D01*
X42833Y5944D01*
X42839Y5951D01*
X42846Y5960D01*
X42853Y5968D01*
X42860Y5977D01*
X42866Y5986D01*
X42872Y5996D01*
X42878Y6006D01*
X42884Y6016D01*
X42889Y6027D01*
X42894Y6038D01*
X42899Y6049D01*
X42903Y6061D01*
X42908Y6073D01*
X42911Y6085D01*
X42914Y6097D01*
X42918Y6110D01*
X42920Y6123D01*
X42922Y6137D01*
X42923Y6150D01*
X42924Y6165D01*
X42924Y6180D01*
X42924Y6194D01*
X42923Y6208D01*
X42922Y6222D01*
X42920Y6235D01*
X42918Y6249D01*
X42914Y6262D01*
X42911Y6275D01*
X42907Y6287D01*
X42903Y6299D01*
X42899Y6311D01*
X42894Y6322D01*
X42889Y6333D01*
X42883Y6344D01*
X42877Y6354D01*
X42871Y6364D01*
X42865Y6374D01*
X42859Y6383D01*
X42853Y6391D01*
X42846Y6399D01*
X42840Y6407D01*
X42833Y6415D01*
X42826Y6422D01*
X42819Y6429D01*
X42812Y6435D01*
X42812Y6438D01*
X42872Y6438D01*
X42888Y6420D01*
X42902Y6402D01*
X42914Y6382D01*
X42926Y6363D01*
X42936Y6343D01*
X42945Y6322D01*
X42953Y6301D01*
X42960Y6278D01*
X42964Y6255D01*
X42968Y6231D01*
X42970Y6206D01*
X42970Y6180D01*
X42970Y6180D01*
G37*
G36*
X33424Y5308D02*
X33424Y5510D01*
X33491Y5510D01*
X33491Y5308D01*
X33424Y5308D01*
X33424Y5308D01*
G37*
G36*
X33155Y5241D02*
X33155Y5577D01*
X33424Y5577D01*
X33424Y5510D01*
X33222Y5510D01*
X33222Y5308D01*
X33424Y5308D01*
X33424Y5241D01*
X33155Y5241D01*
X33155Y5241D01*
G37*
G36*
X33558Y5241D02*
X33558Y5577D01*
X33894Y5577D01*
X33894Y5510D01*
X33625Y5510D01*
X33625Y5308D01*
X33894Y5308D01*
X33894Y5241D01*
X33558Y5241D01*
X33558Y5241D01*
G37*
G36*
X34115Y5460D02*
X34052Y5460D01*
X34052Y5534D01*
X34115Y5534D01*
X34115Y5460D01*
X34115Y5460D01*
G37*
G36*
X34115Y5241D02*
X34052Y5241D01*
X34052Y5316D01*
X34115Y5316D01*
X34115Y5241D01*
X34115Y5241D01*
G37*
G36*
X34395Y5241D02*
X34395Y5308D01*
X34462Y5308D01*
X34462Y5376D01*
X34530Y5376D01*
X34530Y5308D01*
X34664Y5308D01*
X34664Y5241D01*
X34395Y5241D01*
X34395Y5241D01*
G37*
G36*
X34530Y5376D02*
X34530Y5443D01*
X34597Y5443D01*
X34597Y5376D01*
X34530Y5376D01*
X34530Y5376D01*
G37*
G36*
X34395Y5443D02*
X34395Y5510D01*
X34462Y5510D01*
X34462Y5443D01*
X34395Y5443D01*
X34395Y5443D01*
G37*
G36*
X34597Y5443D02*
X34597Y5510D01*
X34664Y5510D01*
X34664Y5443D01*
X34597Y5443D01*
X34597Y5443D01*
G37*
G36*
X34462Y5510D02*
X34462Y5577D01*
X34597Y5577D01*
X34597Y5510D01*
X34462Y5510D01*
X34462Y5510D01*
G37*
G36*
X34798Y5241D02*
X34798Y5577D01*
X35135Y5577D01*
X35135Y5510D01*
X34866Y5510D01*
X34866Y5308D01*
X35135Y5308D01*
X35135Y5241D01*
X34798Y5241D01*
X34798Y5241D01*
G37*
G36*
X35202Y5241D02*
X35202Y5577D01*
X35538Y5577D01*
X35538Y5510D01*
X35269Y5510D01*
X35269Y5443D01*
X35471Y5443D01*
X35471Y5376D01*
X35269Y5376D01*
X35269Y5308D01*
X35538Y5308D01*
X35538Y5241D01*
X35202Y5241D01*
X35202Y5241D01*
G37*
G36*
X35759Y5460D02*
X35696Y5460D01*
X35696Y5534D01*
X35759Y5534D01*
X35759Y5460D01*
X35759Y5460D01*
G37*
G36*
X35759Y5241D02*
X35696Y5241D01*
X35696Y5316D01*
X35759Y5316D01*
X35759Y5241D01*
X35759Y5241D01*
G37*
G36*
X35850Y5241D02*
X35850Y5308D01*
X36052Y5308D01*
X36052Y5376D01*
X35917Y5376D01*
X35917Y5443D01*
X36052Y5443D01*
X36052Y5510D01*
X35850Y5510D01*
X35850Y5577D01*
X36119Y5577D01*
X36119Y5241D01*
X35850Y5241D01*
X35850Y5241D01*
G37*
G36*
X36522Y5241D02*
X36522Y5308D01*
X36589Y5308D01*
X36589Y5241D01*
X36522Y5241D01*
X36522Y5241D01*
G37*
G36*
X36253Y5241D02*
X36253Y5577D01*
X36589Y5577D01*
X36589Y5376D01*
X36522Y5376D01*
X36522Y5308D01*
X36455Y5308D01*
X36455Y5376D01*
X36320Y5376D01*
X36320Y5241D01*
X36253Y5241D01*
X36253Y5241D01*
G37*
%LPC*%
G36*
X36522Y5443D02*
X36522Y5510D01*
X36320Y5510D01*
X36320Y5443D01*
X36522Y5443D01*
X36522Y5443D01*
G37*
%LPD*%
G36*
X36657Y5241D02*
X36657Y5308D01*
X36925Y5308D01*
X36925Y5376D01*
X36657Y5376D01*
X36657Y5577D01*
X36993Y5577D01*
X36993Y5510D01*
X36724Y5510D01*
X36724Y5443D01*
X36993Y5443D01*
X36993Y5241D01*
X36657Y5241D01*
X36657Y5241D01*
G37*
G36*
X37194Y5241D02*
X37194Y5510D01*
X37060Y5510D01*
X37060Y5577D01*
X37396Y5577D01*
X37396Y5510D01*
X37262Y5510D01*
X37262Y5241D01*
X37194Y5241D01*
X37194Y5241D01*
G37*
G36*
X37617Y5460D02*
X37554Y5460D01*
X37554Y5534D01*
X37617Y5534D01*
X37617Y5460D01*
X37617Y5460D01*
G37*
G36*
X37617Y5241D02*
X37554Y5241D01*
X37554Y5316D01*
X37617Y5316D01*
X37617Y5241D01*
X37617Y5241D01*
G37*
G36*
X37910Y5241D02*
X37910Y5376D01*
X37708Y5376D01*
X37708Y5577D01*
X37775Y5577D01*
X37775Y5443D01*
X37910Y5443D01*
X37910Y5577D01*
X37977Y5577D01*
X37977Y5241D01*
X37910Y5241D01*
X37910Y5241D01*
G37*
D22*
X13718Y11840D02*
X13718Y12163D01*
D18*
G36*
X23559Y11659D02*
X23559Y12331D01*
X24231Y12331D01*
X24231Y12196D01*
X23693Y12196D01*
X23693Y12062D01*
X24096Y12062D01*
X24096Y11927D01*
X23693Y11927D01*
X23693Y11793D01*
X24231Y11793D01*
X24231Y11659D01*
X23559Y11659D01*
X23559Y11659D01*
G37*
G36*
X42495Y23623D02*
X42432Y23623D01*
X42432Y23698D01*
X42495Y23698D01*
X42495Y23623D01*
X42495Y23623D01*
G37*
G36*
X42495Y23405D02*
X42432Y23405D01*
X42432Y23480D01*
X42495Y23480D01*
X42495Y23405D01*
X42495Y23405D01*
G37*
D10*
X1555Y7161D02*
X39767Y7161D01*
X39806Y7163D01*
X39844Y7169D01*
X39881Y7178D01*
X39918Y7191D01*
X39953Y7208D01*
X39986Y7227D01*
X40017Y7250D01*
X40046Y7276D01*
X40072Y7305D01*
X40095Y7336D01*
X40114Y7369D01*
X40131Y7404D01*
X40144Y7441D01*
X40153Y7478D01*
X40159Y7516D01*
X40161Y7555D01*
X40161Y7661D01*
X41161Y8661D01*
X41161Y22161D01*
X40161Y23161D01*
X40161Y27161D01*
X39161Y28161D01*
X1555Y28161D01*
X1516Y28159D01*
X1478Y28153D01*
X1441Y28144D01*
X1404Y28131D01*
X1369Y28114D01*
X1336Y28095D01*
X1305Y28072D01*
X1276Y28046D01*
X1250Y28017D01*
X1227Y27986D01*
X1208Y27953D01*
X1191Y27918D01*
X1178Y27881D01*
X1169Y27844D01*
X1163Y27806D01*
X1161Y27767D01*
X1161Y7555D01*
X1163Y7516D01*
X1169Y7478D01*
X1178Y7441D01*
X1191Y7404D01*
X1208Y7369D01*
X1227Y7336D01*
X1250Y7305D01*
X1276Y7276D01*
X1305Y7250D01*
X1336Y7227D01*
X1369Y7208D01*
X1404Y7191D01*
X1441Y7178D01*
X1478Y7169D01*
X1516Y7163D01*
X1555Y7161D01*
D15*
X15311Y13711D02*
X15161Y13711D01*
X15111Y13761D01*
X13211Y13761D01*
X13161Y13711D01*
X13011Y13711D01*
X12994Y13713D01*
X12977Y13717D01*
X12961Y13724D01*
X12947Y13734D01*
X12934Y13747D01*
X12924Y13761D01*
X12917Y13777D01*
X12913Y13794D01*
X12911Y13811D01*
X12911Y14511D01*
X12913Y14528D01*
X12917Y14545D01*
X12924Y14561D01*
X12934Y14575D01*
X12947Y14588D01*
X12961Y14598D01*
X12977Y14605D01*
X12994Y14609D01*
X13011Y14611D01*
X13161Y14611D01*
X13211Y14561D01*
X15111Y14561D01*
X15161Y14611D01*
X15311Y14611D01*
X15328Y14609D01*
X15345Y14605D01*
X15361Y14598D01*
X15375Y14588D01*
X15388Y14575D01*
X15398Y14561D01*
X15405Y14545D01*
X15409Y14528D01*
X15411Y14511D01*
X15411Y13811D01*
X15409Y13794D01*
X15405Y13777D01*
X15398Y13761D01*
X15388Y13747D01*
X15375Y13734D01*
X15361Y13724D01*
X15345Y13717D01*
X15328Y13713D01*
X15311Y13711D01*
X39711Y33311D02*
X39711Y33161D01*
X39761Y33111D01*
X39761Y31211D01*
X39711Y31161D01*
X39711Y31011D01*
X39713Y30994D01*
X39717Y30977D01*
X39724Y30961D01*
X39734Y30947D01*
X39747Y30934D01*
X39761Y30924D01*
X39777Y30917D01*
X39794Y30913D01*
X39811Y30911D01*
X40511Y30911D01*
X40528Y30913D01*
X40545Y30917D01*
X40561Y30924D01*
X40575Y30934D01*
X40588Y30947D01*
X40598Y30961D01*
X40605Y30977D01*
X40609Y30994D01*
X40611Y31011D01*
X40611Y31161D01*
X40561Y31211D01*
X40561Y33111D01*
X40611Y33161D01*
X40611Y33311D01*
X40609Y33328D01*
X40605Y33345D01*
X40598Y33361D01*
X40588Y33375D01*
X40575Y33388D01*
X40561Y33398D01*
X40545Y33405D01*
X40528Y33409D01*
X40511Y33411D01*
X39811Y33411D01*
X39794Y33409D01*
X39777Y33405D01*
X39761Y33398D01*
X39747Y33388D01*
X39734Y33375D01*
X39724Y33361D01*
X39717Y33345D01*
X39713Y33328D01*
X39711Y33311D01*
X40711Y33311D02*
X40711Y33161D01*
X40761Y33111D01*
X40761Y31211D01*
X40711Y31161D01*
X40711Y31011D01*
X40713Y30994D01*
X40717Y30977D01*
X40724Y30961D01*
X40734Y30947D01*
X40747Y30934D01*
X40761Y30924D01*
X40777Y30917D01*
X40794Y30913D01*
X40811Y30911D01*
X41511Y30911D01*
X41528Y30913D01*
X41545Y30917D01*
X41561Y30924D01*
X41575Y30934D01*
X41588Y30947D01*
X41598Y30961D01*
X41605Y30977D01*
X41609Y30994D01*
X41611Y31011D01*
X41611Y31161D01*
X41561Y31211D01*
X41561Y33111D01*
X41611Y33161D01*
X41611Y33311D01*
X41609Y33328D01*
X41605Y33345D01*
X41598Y33361D01*
X41588Y33375D01*
X41575Y33388D01*
X41561Y33398D01*
X41545Y33405D01*
X41528Y33409D01*
X41511Y33411D01*
X40811Y33411D01*
X40794Y33409D01*
X40777Y33405D01*
X40761Y33398D01*
X40747Y33388D01*
X40734Y33375D01*
X40724Y33361D01*
X40717Y33345D01*
X40713Y33328D01*
X40711Y33311D01*
X42711Y33311D02*
X42711Y33161D01*
X42761Y33111D01*
X42761Y31211D01*
X42711Y31161D01*
X42711Y31011D01*
X42713Y30994D01*
X42717Y30977D01*
X42724Y30961D01*
X42734Y30947D01*
X42747Y30934D01*
X42761Y30924D01*
X42777Y30917D01*
X42794Y30913D01*
X42811Y30911D01*
X43511Y30911D01*
X43528Y30913D01*
X43545Y30917D01*
X43561Y30924D01*
X43575Y30934D01*
X43588Y30947D01*
X43598Y30961D01*
X43605Y30977D01*
X43609Y30994D01*
X43611Y31011D01*
X43611Y31161D01*
X43561Y31211D01*
X43561Y33111D01*
X43611Y33161D01*
X43611Y33311D01*
X43609Y33328D01*
X43605Y33345D01*
X43598Y33361D01*
X43588Y33375D01*
X43575Y33388D01*
X43561Y33398D01*
X43545Y33405D01*
X43528Y33409D01*
X43511Y33411D01*
X42811Y33411D01*
X42794Y33409D01*
X42777Y33405D01*
X42761Y33398D01*
X42747Y33388D01*
X42734Y33375D01*
X42724Y33361D01*
X42717Y33345D01*
X42713Y33328D01*
X42711Y33311D01*
X5611Y31011D02*
X5611Y31161D01*
X5561Y31211D01*
X5561Y33111D01*
X5611Y33161D01*
X5611Y33311D01*
X5609Y33328D01*
X5605Y33345D01*
X5598Y33361D01*
X5588Y33375D01*
X5575Y33388D01*
X5561Y33398D01*
X5545Y33405D01*
X5528Y33409D01*
X5511Y33411D01*
X4811Y33411D01*
X4794Y33409D01*
X4777Y33405D01*
X4761Y33398D01*
X4747Y33388D01*
X4734Y33375D01*
X4724Y33361D01*
X4717Y33345D01*
X4713Y33328D01*
X4711Y33311D01*
X4711Y33161D01*
X4761Y33111D01*
X4761Y31211D01*
X4711Y31161D01*
X4711Y31011D01*
X4713Y30994D01*
X4717Y30977D01*
X4724Y30961D01*
X4734Y30947D01*
X4747Y30934D01*
X4761Y30924D01*
X4777Y30917D01*
X4794Y30913D01*
X4811Y30911D01*
X5511Y30911D01*
X5528Y30913D01*
X5545Y30917D01*
X5561Y30924D01*
X5575Y30934D01*
X5588Y30947D01*
X5598Y30961D01*
X5605Y30977D01*
X5609Y30994D01*
X5611Y31011D01*
X3611Y31011D02*
X3611Y31161D01*
X3561Y31211D01*
X3561Y33111D01*
X3611Y33161D01*
X3611Y33311D01*
X3609Y33328D01*
X3605Y33345D01*
X3598Y33361D01*
X3588Y33375D01*
X3575Y33388D01*
X3561Y33398D01*
X3545Y33405D01*
X3528Y33409D01*
X3511Y33411D01*
X2811Y33411D01*
X2794Y33409D01*
X2777Y33405D01*
X2761Y33398D01*
X2747Y33388D01*
X2734Y33375D01*
X2724Y33361D01*
X2717Y33345D01*
X2713Y33328D01*
X2711Y33311D01*
X2711Y33161D01*
X2761Y33111D01*
X2761Y31211D01*
X2711Y31161D01*
X2711Y31011D01*
X2611Y31011D02*
X2611Y31161D01*
X2561Y31211D01*
X2561Y33111D01*
X2611Y33161D01*
X2611Y33311D01*
X2609Y33328D01*
X2605Y33345D01*
X2598Y33361D01*
X2588Y33375D01*
X2575Y33388D01*
X2561Y33398D01*
X2545Y33405D01*
X2528Y33409D01*
X2511Y33411D01*
X1811Y33411D01*
X1794Y33409D01*
X1777Y33405D01*
X1761Y33398D01*
X1747Y33388D01*
X1734Y33375D01*
X1724Y33361D01*
X1717Y33345D01*
X1713Y33328D01*
X1711Y33311D01*
X1711Y33161D01*
X1761Y33111D01*
X1761Y31211D01*
X1711Y31161D01*
X1711Y31011D01*
X1713Y30994D01*
X1717Y30977D01*
X1724Y30961D01*
X1734Y30947D01*
X1747Y30934D01*
X1761Y30924D01*
X1777Y30917D01*
X1794Y30913D01*
X1811Y30911D01*
X2511Y30911D01*
X2528Y30913D01*
X2545Y30917D01*
X2561Y30924D01*
X2575Y30934D01*
X2588Y30947D01*
X2598Y30961D01*
X2605Y30977D01*
X2609Y30994D01*
X2611Y31011D01*
X2711Y31011D02*
X2713Y30994D01*
X2717Y30977D01*
X2724Y30961D01*
X2734Y30947D01*
X2747Y30934D01*
X2761Y30924D01*
X2777Y30917D01*
X2794Y30913D01*
X2811Y30911D01*
X3511Y30911D01*
X3528Y30913D01*
X3545Y30917D01*
X3561Y30924D01*
X3575Y30934D01*
X3588Y30947D01*
X3598Y30961D01*
X3605Y30977D01*
X3609Y30994D01*
X3611Y31011D01*
D23*
X1161Y2161D02*
X44468Y2161D01*
X44468Y36657D01*
X1161Y36657D01*
X1161Y2161D01*
M02*
