G75*
%MOIN*%
%OFA0B0*%
%FSLAX24Y24*%
%IPPOS*%
%LPD*%
%AMOC8*
5,1,8,0,0,1.08239X$1,22.5*
%
%ADD10C,0.0100*%
%ADD11C,0.0120*%
%ADD12C,0.0160*%
%ADD13C,0.0070*%
%ADD14C,0.0130*%
%ADD15C,0.0060*%
%ADD16C,0.0090*%
%ADD17C,0.0190*%
%ADD18C,0.0000*%
%ADD19C,0.0010*%
%ADD20C,0.0050*%
%ADD21C,0.0080*%
%ADD22R,0.0240X0.0340*%
%ADD23R,0.0340X0.0240*%
%ADD24C,0.0040*%
D10*
X000554Y005160D02*
X038766Y005160D01*
X038805Y005162D01*
X038843Y005168D01*
X038880Y005177D01*
X038917Y005190D01*
X038952Y005207D01*
X038985Y005226D01*
X039016Y005249D01*
X039045Y005275D01*
X039071Y005304D01*
X039094Y005335D01*
X039113Y005368D01*
X039130Y005403D01*
X039143Y005440D01*
X039152Y005477D01*
X039158Y005515D01*
X039160Y005554D01*
X039160Y005660D01*
X040160Y006660D01*
X040160Y020160D01*
X039160Y021160D01*
X039160Y025160D01*
X038160Y026160D01*
X000554Y026160D01*
X000515Y026158D01*
X000477Y026152D01*
X000440Y026143D01*
X000403Y026130D01*
X000368Y026113D01*
X000335Y026094D01*
X000304Y026071D01*
X000275Y026045D01*
X000249Y026016D01*
X000226Y025985D01*
X000207Y025952D01*
X000190Y025917D01*
X000177Y025880D01*
X000168Y025843D01*
X000162Y025805D01*
X000160Y025766D01*
X000160Y005554D01*
X000162Y005515D01*
X000168Y005477D01*
X000177Y005440D01*
X000190Y005403D01*
X000207Y005368D01*
X000226Y005335D01*
X000249Y005304D01*
X000275Y005275D01*
X000304Y005249D01*
X000335Y005226D01*
X000368Y005207D01*
X000403Y005190D01*
X000440Y005177D01*
X000477Y005168D01*
X000515Y005162D01*
X000554Y005160D01*
X021960Y008110D02*
X021960Y008484D01*
X022147Y008670D01*
X022334Y008484D01*
X022334Y008110D01*
X022568Y008110D02*
X022568Y008670D01*
X022941Y008110D01*
X022941Y008670D01*
X023175Y008484D02*
X023362Y008670D01*
X023549Y008484D01*
X023549Y008110D01*
X023783Y008110D02*
X024157Y008110D01*
X024391Y008203D02*
X024391Y008577D01*
X024484Y008670D01*
X024671Y008670D01*
X024765Y008577D01*
X024765Y008203D01*
X024671Y008110D01*
X024484Y008110D01*
X024391Y008203D01*
X024999Y008203D02*
X024999Y008577D01*
X025092Y008670D01*
X025279Y008670D01*
X025372Y008577D01*
X025372Y008390D02*
X025185Y008390D01*
X025372Y008390D02*
X025372Y008203D01*
X025279Y008110D01*
X025092Y008110D01*
X024999Y008203D01*
X023783Y008110D02*
X023783Y008670D01*
X023549Y008390D02*
X023175Y008390D01*
X023175Y008484D02*
X023175Y008110D01*
X022334Y008390D02*
X021960Y008390D01*
X027429Y008110D02*
X027616Y008110D01*
X027523Y008110D02*
X027523Y008670D01*
X027616Y008670D02*
X027429Y008670D01*
X027835Y008670D02*
X028208Y008110D01*
X028208Y008670D01*
X027835Y008670D02*
X027835Y008110D01*
X034550Y014460D02*
X034550Y014740D01*
X034643Y014834D01*
X035017Y014834D01*
X035110Y014740D01*
X035110Y014460D01*
X034550Y014460D01*
X034550Y015068D02*
X034550Y015255D01*
X034550Y015161D02*
X035110Y015161D01*
X035110Y015068D02*
X035110Y015255D01*
X035017Y015473D02*
X034643Y015473D01*
X034550Y015566D01*
X034550Y015753D01*
X034643Y015847D01*
X034830Y015847D02*
X034830Y015660D01*
X034830Y015847D02*
X035017Y015847D01*
X035110Y015753D01*
X035110Y015566D01*
X035017Y015473D01*
X035110Y016081D02*
X035110Y016267D01*
X035110Y016174D02*
X034550Y016174D01*
X034550Y016081D02*
X034550Y016267D01*
X034550Y016486D02*
X034550Y016859D01*
X034550Y016673D02*
X035110Y016673D01*
X035110Y017093D02*
X034736Y017093D01*
X034550Y017280D01*
X034736Y017467D01*
X035110Y017467D01*
X035110Y017701D02*
X034550Y017701D01*
X034830Y017467D02*
X034830Y017093D01*
X035110Y017701D02*
X035110Y018075D01*
X031695Y021320D02*
X031602Y021227D01*
X031415Y021414D01*
X031322Y021320D01*
X031088Y021320D02*
X030994Y021227D01*
X030807Y021414D01*
X030714Y021320D01*
X030480Y021320D02*
X030387Y021227D01*
X030200Y021414D01*
X030106Y021320D01*
X029872Y021320D02*
X029685Y021134D01*
X029499Y021320D01*
X029499Y020760D01*
X029265Y020853D02*
X029171Y020760D01*
X028984Y020760D01*
X028891Y020853D01*
X028891Y021227D01*
X028984Y021320D01*
X029171Y021320D01*
X029265Y021227D01*
X029265Y020853D01*
X029872Y020760D02*
X029872Y021320D01*
X028657Y021227D02*
X028563Y021320D01*
X028377Y021320D01*
X028283Y021227D01*
X028283Y020853D01*
X028377Y020760D01*
X028563Y020760D01*
X028657Y020853D01*
X028049Y021320D02*
X027956Y021227D01*
X027769Y021414D01*
X027675Y021320D01*
X027441Y021320D02*
X027348Y021227D01*
X027161Y021414D01*
X027068Y021320D01*
X026834Y021320D02*
X026740Y021227D01*
X026553Y021414D01*
X026460Y021320D01*
X018049Y022610D02*
X018049Y023170D01*
X017862Y022984D01*
X017675Y023170D01*
X017675Y022610D01*
X017441Y022610D02*
X017441Y023170D01*
X017068Y023170D02*
X017068Y022610D01*
X017255Y022797D01*
X017441Y022610D01*
X016834Y022890D02*
X016834Y023077D01*
X016740Y023170D01*
X016460Y023170D01*
X016460Y022610D01*
X016460Y022797D02*
X016740Y022797D01*
X016834Y022890D01*
D11*
X016160Y022910D02*
X012060Y022910D01*
X011710Y023260D01*
X008839Y024260D02*
X008841Y024276D01*
X008847Y024292D01*
X008856Y024306D01*
X008868Y024317D01*
X008882Y024325D01*
X008898Y024330D01*
X008914Y024331D01*
X008930Y024328D01*
X008945Y024321D01*
X008959Y024312D01*
X008969Y024299D01*
X008977Y024284D01*
X008981Y024268D01*
X008981Y024252D01*
X008977Y024236D01*
X008969Y024221D01*
X008959Y024208D01*
X008946Y024199D01*
X008930Y024192D01*
X008914Y024189D01*
X008898Y024190D01*
X008882Y024195D01*
X008868Y024203D01*
X008856Y024214D01*
X008847Y024228D01*
X008841Y024244D01*
X008839Y024260D01*
X018360Y022910D02*
X022760Y022910D01*
X023160Y023310D01*
X024210Y021760D02*
X024660Y021310D01*
X025160Y021310D01*
X033010Y021310D02*
X033710Y021310D01*
X034160Y021760D01*
X035110Y023760D02*
X035510Y024160D01*
X035110Y023760D02*
X035110Y018360D01*
X035110Y014210D02*
X035110Y009610D01*
X035510Y009210D01*
X035610Y008360D02*
X035960Y008010D01*
X035610Y008360D02*
X028760Y008360D01*
X021410Y008360D02*
X020610Y008360D01*
X020210Y007960D01*
X037160Y007410D02*
X037160Y007210D01*
X038160Y007210D01*
X038160Y007410D01*
X038160Y025660D02*
X038160Y025910D01*
X037160Y025910D01*
X037160Y025660D01*
D12*
X037160Y026910D02*
X036748Y026910D01*
X036354Y026910D02*
X035942Y026910D01*
X035549Y026910D02*
X035137Y026910D01*
X034743Y026910D02*
X034331Y026910D01*
X033937Y026910D02*
X033525Y026910D01*
X033132Y026910D02*
X032720Y026910D01*
X032326Y026910D02*
X031914Y026910D01*
X031520Y026910D02*
X031108Y026910D01*
X030714Y026910D02*
X030302Y026910D01*
X029909Y026910D02*
X029497Y026910D01*
X029103Y026910D02*
X028691Y026910D01*
X028297Y026910D02*
X027885Y026910D01*
X027492Y026910D02*
X027080Y026910D01*
X026686Y026910D02*
X026274Y026910D01*
X025880Y026910D02*
X025468Y026910D01*
X025075Y026910D02*
X024663Y026910D01*
X024269Y026910D02*
X023857Y026910D01*
X023463Y026910D02*
X023051Y026910D01*
X022657Y026910D02*
X022245Y026910D01*
X021852Y026910D02*
X021440Y026910D01*
X021046Y026910D02*
X020634Y026910D01*
X020240Y026910D02*
X019828Y026910D01*
X019435Y026910D02*
X019023Y026910D01*
X018629Y026910D02*
X018217Y026910D01*
X017823Y026910D02*
X017411Y026910D01*
X017018Y026910D02*
X016606Y026910D01*
X016212Y026910D02*
X015800Y026910D01*
X015406Y026910D02*
X014994Y026910D01*
X014600Y026910D02*
X014188Y026910D01*
X013795Y026910D02*
X013383Y026910D01*
X012989Y026910D02*
X012577Y026910D01*
X012183Y026910D02*
X011771Y026910D01*
X011378Y026910D02*
X010966Y026910D01*
X010572Y026910D02*
X010160Y026910D01*
X010160Y027306D01*
X010160Y027699D02*
X010160Y028095D01*
X010160Y028489D02*
X010160Y028884D01*
X010160Y029278D02*
X010160Y029674D01*
X010160Y030067D02*
X010160Y030463D01*
X010160Y030857D02*
X010160Y031253D01*
X010160Y031646D02*
X010160Y032042D01*
X010160Y032436D02*
X010160Y032831D01*
X010160Y033225D02*
X010160Y033621D01*
X010160Y034014D02*
X010160Y034410D01*
X009655Y034410D01*
X009261Y034410D02*
X008756Y034410D01*
X008362Y034410D02*
X007857Y034410D01*
X007463Y034410D02*
X006958Y034410D01*
X006564Y034410D02*
X006059Y034410D01*
X005665Y034410D02*
X005160Y034410D01*
X004696Y034410D01*
X004303Y034410D02*
X003839Y034410D01*
X003445Y034410D02*
X002982Y034410D01*
X002588Y034410D02*
X002125Y034410D01*
X001731Y034410D02*
X001267Y034410D01*
X000874Y034410D02*
X000410Y034410D01*
X000410Y033964D01*
X000410Y033571D02*
X000410Y033125D01*
X000410Y032731D02*
X000410Y032286D01*
X000410Y031892D02*
X000410Y031446D01*
X000410Y031053D02*
X000410Y030607D01*
X000410Y030213D02*
X000410Y029767D01*
X000410Y029374D02*
X000410Y028928D01*
X000410Y028534D02*
X000410Y028089D01*
X000410Y027695D02*
X000410Y027249D01*
X000410Y026856D02*
X000410Y026410D01*
X000874Y026410D01*
X001267Y026410D02*
X001731Y026410D01*
X002125Y026410D02*
X002588Y026410D01*
X002982Y026410D02*
X003445Y026410D01*
X003839Y026410D02*
X004303Y026410D01*
X004696Y026410D02*
X005160Y026410D01*
X005665Y026410D01*
X006059Y026410D02*
X006564Y026410D01*
X006958Y026410D02*
X007463Y026410D01*
X007857Y026410D02*
X008362Y026410D01*
X008756Y026410D02*
X009261Y026410D01*
X009655Y026410D02*
X010160Y026410D01*
X010160Y026910D01*
X005160Y026856D02*
X005160Y026410D01*
X005160Y027249D02*
X005160Y027695D01*
X005160Y028089D02*
X005160Y028534D01*
X005160Y028928D02*
X005160Y029374D01*
X005160Y029767D02*
X005160Y030213D01*
X005160Y030607D02*
X005160Y031053D01*
X005160Y031446D02*
X005160Y031892D01*
X005160Y032286D02*
X005160Y032731D01*
X005160Y033125D02*
X005160Y033571D01*
X005160Y033964D02*
X005160Y034410D01*
X010160Y034410D02*
X010566Y034410D01*
X010960Y034410D02*
X011366Y034410D01*
X011759Y034410D02*
X012165Y034410D01*
X012559Y034410D02*
X012965Y034410D01*
X013359Y034410D02*
X013765Y034410D01*
X014158Y034410D02*
X014564Y034410D01*
X014958Y034410D02*
X015364Y034410D01*
X015758Y034410D02*
X016163Y034410D01*
X016557Y034410D02*
X016963Y034410D01*
X017357Y034410D02*
X017763Y034410D01*
X018157Y034410D02*
X018562Y034410D01*
X018956Y034410D02*
X019362Y034410D01*
X019756Y034410D02*
X020162Y034410D01*
X020555Y034410D02*
X020961Y034410D01*
X021355Y034410D02*
X021761Y034410D01*
X022155Y034410D02*
X022561Y034410D01*
X022954Y034410D02*
X023360Y034410D01*
X023754Y034410D02*
X024160Y034410D01*
X024410Y034410D02*
X024838Y034410D01*
X025231Y034410D02*
X025659Y034410D01*
X026053Y034410D02*
X026481Y034410D01*
X026874Y034410D02*
X027302Y034410D01*
X027696Y034410D02*
X028124Y034410D01*
X028517Y034410D02*
X028945Y034410D01*
X029339Y034410D02*
X029767Y034410D01*
X030160Y034410D02*
X030588Y034410D01*
X030982Y034410D02*
X031410Y034410D01*
X031803Y034410D02*
X032231Y034410D01*
X032625Y034410D02*
X033053Y034410D01*
X033446Y034410D02*
X033874Y034410D01*
X034268Y034410D02*
X034696Y034410D01*
X035089Y034410D02*
X035517Y034410D01*
X035911Y034410D02*
X036339Y034410D01*
X036732Y034410D02*
X037160Y034410D01*
X037160Y034014D01*
X037160Y033621D02*
X037160Y033225D01*
X037160Y032831D02*
X037160Y032436D01*
X037160Y032042D02*
X037160Y031646D01*
X037160Y031253D02*
X037160Y030857D01*
X037160Y030463D02*
X037160Y030067D01*
X037160Y029674D02*
X037160Y029278D01*
X037160Y028884D02*
X037160Y028489D01*
X037160Y028095D02*
X037160Y027699D01*
X037160Y027306D02*
X037160Y026910D01*
X025410Y023660D02*
X025160Y023160D01*
X024910Y023660D01*
X025160Y023410D01*
X025160Y023660D01*
X025410Y023660D01*
X025160Y023410D01*
X025160Y023660D02*
X024910Y023660D01*
X024410Y023160D02*
X024160Y023160D01*
X024160Y023410D01*
X024410Y023160D01*
X024160Y023660D01*
X023910Y023160D01*
X024160Y023410D01*
X024160Y023160D02*
X023910Y023160D01*
D13*
X023885Y022738D02*
X024375Y022411D01*
X024375Y022738D02*
X023885Y022411D01*
X023885Y022222D02*
X023885Y021895D01*
X023885Y022058D02*
X024375Y022058D01*
X024885Y022140D02*
X024966Y022222D01*
X025130Y022222D01*
X025212Y022140D01*
X025212Y021895D01*
X025375Y021895D02*
X024885Y021895D01*
X024885Y022140D01*
X024885Y022411D02*
X025375Y022738D01*
X025375Y022411D02*
X024885Y022738D01*
X025375Y022222D02*
X025212Y022058D01*
X026885Y022058D02*
X027375Y022058D01*
X027375Y022411D02*
X026885Y022738D01*
X026966Y022926D02*
X026885Y023008D01*
X026885Y023171D01*
X026966Y023253D01*
X027048Y023253D01*
X027130Y023171D01*
X027212Y023253D01*
X027293Y023253D01*
X027375Y023171D01*
X027375Y023008D01*
X027293Y022926D01*
X027375Y022738D02*
X026885Y022411D01*
X026885Y022222D02*
X026885Y021895D01*
X027885Y021895D02*
X027885Y022140D01*
X027966Y022222D01*
X028130Y022222D01*
X028212Y022140D01*
X028212Y021895D01*
X028375Y021895D02*
X027885Y021895D01*
X028212Y022058D02*
X028375Y022222D01*
X028375Y022411D02*
X027885Y022738D01*
X027966Y022926D02*
X027885Y023008D01*
X027885Y023171D01*
X027966Y023253D01*
X028048Y023253D01*
X028130Y023171D01*
X028212Y023253D01*
X028293Y023253D01*
X028375Y023171D01*
X028375Y023008D01*
X028293Y022926D01*
X028375Y022738D02*
X027885Y022411D01*
X028130Y023090D02*
X028130Y023171D01*
X028048Y023595D02*
X027885Y023758D01*
X028375Y023758D01*
X028375Y023595D02*
X028375Y023922D01*
X028293Y024111D02*
X028375Y024192D01*
X028375Y024356D01*
X028293Y024438D01*
X028130Y024438D01*
X028048Y024356D01*
X028048Y024274D01*
X028130Y024111D01*
X027885Y024111D01*
X027885Y024438D01*
X027375Y024356D02*
X026885Y024356D01*
X027130Y024111D01*
X027130Y024438D01*
X027375Y023922D02*
X027375Y023595D01*
X027375Y023758D02*
X026885Y023758D01*
X027048Y023595D01*
X027130Y023171D02*
X027130Y023090D01*
X028885Y023171D02*
X028885Y023008D01*
X028966Y022926D01*
X028885Y022738D02*
X029375Y022411D01*
X029375Y022738D02*
X028885Y022411D01*
X028885Y022222D02*
X028885Y021895D01*
X028885Y022058D02*
X029375Y022058D01*
X029885Y022140D02*
X029966Y022222D01*
X030130Y022222D01*
X030212Y022140D01*
X030212Y021895D01*
X030375Y021895D02*
X029885Y021895D01*
X029885Y022140D01*
X029885Y022411D02*
X030375Y022738D01*
X030375Y022926D02*
X030048Y023253D01*
X029966Y023253D01*
X029885Y023171D01*
X029885Y023008D01*
X029966Y022926D01*
X029885Y022738D02*
X030375Y022411D01*
X030375Y022222D02*
X030212Y022058D01*
X030885Y022058D02*
X031375Y022058D01*
X031375Y022411D02*
X030885Y022738D01*
X031048Y022926D02*
X030885Y023090D01*
X031375Y023090D01*
X031375Y023253D02*
X031375Y022926D01*
X031375Y022738D02*
X030885Y022411D01*
X030885Y022222D02*
X030885Y021895D01*
X031885Y021895D02*
X031885Y022140D01*
X031966Y022222D01*
X032130Y022222D01*
X032212Y022140D01*
X032212Y021895D01*
X032375Y021895D02*
X031885Y021895D01*
X032212Y022058D02*
X032375Y022222D01*
X032375Y022411D02*
X031885Y022738D01*
X032048Y022926D02*
X031885Y023090D01*
X032375Y023090D01*
X032375Y023253D02*
X032375Y022926D01*
X032375Y022738D02*
X031885Y022411D01*
X032885Y022411D02*
X032885Y022656D01*
X032966Y022738D01*
X033293Y022738D01*
X033375Y022656D01*
X033375Y022411D01*
X032885Y022411D01*
X032966Y022222D02*
X032885Y022140D01*
X032885Y021977D01*
X032966Y021895D01*
X033048Y021895D01*
X033130Y021977D01*
X033130Y022140D01*
X033212Y022222D01*
X033293Y022222D01*
X033375Y022140D01*
X033375Y021977D01*
X033293Y021895D01*
X033885Y021977D02*
X033966Y021895D01*
X034048Y021895D01*
X034130Y021977D01*
X034130Y022140D01*
X034212Y022222D01*
X034293Y022222D01*
X034375Y022140D01*
X034375Y021977D01*
X034293Y021895D01*
X033885Y021977D02*
X033885Y022140D01*
X033966Y022222D01*
X033966Y022411D02*
X034293Y022411D01*
X034375Y022492D01*
X034375Y022656D01*
X034293Y022738D01*
X034375Y022926D02*
X033885Y022926D01*
X033966Y022738D02*
X033885Y022656D01*
X033885Y022492D01*
X033966Y022411D01*
X034375Y022926D02*
X034375Y023253D01*
X034375Y023595D02*
X034048Y023922D01*
X033966Y023922D01*
X033885Y023840D01*
X033885Y023677D01*
X033966Y023595D01*
X034375Y023595D02*
X034375Y023922D01*
X034375Y024111D02*
X034375Y024438D01*
X034375Y024274D02*
X033885Y024274D01*
X034048Y024111D01*
X033375Y024192D02*
X033293Y024111D01*
X032966Y024438D01*
X033293Y024438D01*
X033375Y024356D01*
X033375Y024192D01*
X033293Y024111D02*
X032966Y024111D01*
X032885Y024192D01*
X032885Y024356D01*
X032966Y024438D01*
X032375Y024356D02*
X032293Y024438D01*
X031966Y024438D01*
X031885Y024356D01*
X031885Y024192D01*
X031966Y024111D01*
X032048Y024111D01*
X032130Y024192D01*
X032130Y024438D01*
X032375Y024356D02*
X032375Y024192D01*
X032293Y024111D01*
X032375Y023922D02*
X032375Y023595D01*
X032375Y023758D02*
X031885Y023758D01*
X032048Y023595D01*
X031375Y023595D02*
X031375Y023922D01*
X031375Y023758D02*
X030885Y023758D01*
X031048Y023595D01*
X031048Y024111D02*
X030966Y024111D01*
X030885Y024192D01*
X030885Y024356D01*
X030966Y024438D01*
X031048Y024438D01*
X031130Y024356D01*
X031130Y024192D01*
X031048Y024111D01*
X031130Y024192D02*
X031212Y024111D01*
X031293Y024111D01*
X031375Y024192D01*
X031375Y024356D01*
X031293Y024438D01*
X031212Y024438D01*
X031130Y024356D01*
X030375Y024111D02*
X030293Y024111D01*
X029966Y024438D01*
X029885Y024438D01*
X029885Y024111D01*
X029885Y023758D02*
X030375Y023758D01*
X030375Y023595D02*
X030375Y023922D01*
X030048Y023595D02*
X029885Y023758D01*
X029375Y023758D02*
X028885Y023758D01*
X029048Y023595D01*
X029375Y023595D02*
X029375Y023922D01*
X029293Y024111D02*
X029130Y024111D01*
X029130Y024356D01*
X029212Y024438D01*
X029293Y024438D01*
X029375Y024356D01*
X029375Y024192D01*
X029293Y024111D01*
X029130Y024111D02*
X028966Y024274D01*
X028885Y024438D01*
X028966Y023253D02*
X028885Y023171D01*
X028966Y023253D02*
X029048Y023253D01*
X029375Y022926D01*
X029375Y023253D01*
X030375Y023253D02*
X030375Y022926D01*
X032885Y023090D02*
X033048Y023253D01*
X033375Y023253D01*
X033130Y023253D02*
X033130Y022926D01*
X033048Y022926D02*
X032885Y023090D01*
X033048Y022926D02*
X033375Y022926D01*
X033375Y023595D02*
X033048Y023922D01*
X032966Y023922D01*
X032885Y023840D01*
X032885Y023677D01*
X032966Y023595D01*
X033375Y023595D02*
X033375Y023922D01*
X035695Y023945D02*
X036022Y024272D01*
X036022Y024354D01*
X035940Y024435D01*
X035777Y024435D01*
X035695Y024354D01*
X035695Y023945D02*
X036022Y023945D01*
X036211Y023945D02*
X036538Y024272D01*
X036538Y024354D01*
X036456Y024435D01*
X036292Y024435D01*
X036211Y024354D01*
X036211Y023945D02*
X036538Y023945D01*
X036456Y023435D02*
X036211Y023190D01*
X036538Y023190D01*
X036456Y022945D02*
X036456Y023435D01*
X036022Y023354D02*
X036022Y023272D01*
X035695Y022945D01*
X036022Y022945D01*
X036022Y023354D02*
X035940Y023435D01*
X035777Y023435D01*
X035695Y023354D01*
X035777Y022435D02*
X035695Y022354D01*
X035777Y022435D02*
X035940Y022435D01*
X036022Y022354D01*
X036022Y022272D01*
X035695Y021945D01*
X036022Y021945D01*
X036211Y022027D02*
X036292Y021945D01*
X036456Y021945D01*
X036538Y022027D01*
X036538Y022108D01*
X036456Y022190D01*
X036211Y022190D01*
X036211Y022027D01*
X036211Y022190D02*
X036374Y022354D01*
X036538Y022435D01*
X036456Y021435D02*
X036292Y021435D01*
X036211Y021354D01*
X036211Y021272D01*
X036292Y021190D01*
X036456Y021190D01*
X036538Y021108D01*
X036538Y021027D01*
X036456Y020945D01*
X036292Y020945D01*
X036211Y021027D01*
X036211Y021108D01*
X036292Y021190D01*
X036456Y021190D02*
X036538Y021272D01*
X036538Y021354D01*
X036456Y021435D01*
X036022Y021354D02*
X035940Y021435D01*
X035777Y021435D01*
X035695Y021354D01*
X036022Y021354D02*
X036022Y021272D01*
X035695Y020945D01*
X036022Y020945D01*
X035940Y020435D02*
X035777Y020435D01*
X035695Y020354D01*
X035858Y020190D02*
X035940Y020190D01*
X036022Y020108D01*
X036022Y020027D01*
X035940Y019945D01*
X035777Y019945D01*
X035695Y020027D01*
X035940Y020190D02*
X036022Y020272D01*
X036022Y020354D01*
X035940Y020435D01*
X036211Y020354D02*
X036292Y020435D01*
X036456Y020435D01*
X036538Y020354D01*
X036211Y020027D01*
X036292Y019945D01*
X036456Y019945D01*
X036538Y020027D01*
X036538Y020354D01*
X036211Y020354D02*
X036211Y020027D01*
X036292Y019435D02*
X036211Y019354D01*
X036292Y019435D02*
X036456Y019435D01*
X036538Y019354D01*
X036538Y019272D01*
X036211Y018945D01*
X036538Y018945D01*
X036456Y018435D02*
X036211Y018190D01*
X036538Y018190D01*
X036456Y017945D02*
X036456Y018435D01*
X036022Y018354D02*
X036022Y018272D01*
X035940Y018190D01*
X036022Y018108D01*
X036022Y018027D01*
X035940Y017945D01*
X035777Y017945D01*
X035695Y018027D01*
X035858Y018190D02*
X035940Y018190D01*
X036022Y018354D02*
X035940Y018435D01*
X035777Y018435D01*
X035695Y018354D01*
X035777Y018945D02*
X035695Y019027D01*
X035777Y018945D02*
X035940Y018945D01*
X036022Y019027D01*
X036022Y019108D01*
X035940Y019190D01*
X035858Y019190D01*
X035940Y019190D02*
X036022Y019272D01*
X036022Y019354D01*
X035940Y019435D01*
X035777Y019435D01*
X035695Y019354D01*
X035777Y017435D02*
X035940Y017435D01*
X036022Y017354D01*
X036022Y017272D01*
X035940Y017190D01*
X036022Y017108D01*
X036022Y017027D01*
X035940Y016945D01*
X035777Y016945D01*
X035695Y017027D01*
X035858Y017190D02*
X035940Y017190D01*
X036211Y017190D02*
X036456Y017190D01*
X036538Y017108D01*
X036538Y017027D01*
X036456Y016945D01*
X036292Y016945D01*
X036211Y017027D01*
X036211Y017190D01*
X036374Y017354D01*
X036538Y017435D01*
X035777Y017435D02*
X035695Y017354D01*
X035777Y016435D02*
X035940Y016435D01*
X036022Y016354D01*
X036022Y016272D01*
X035940Y016190D01*
X036022Y016108D01*
X036022Y016027D01*
X035940Y015945D01*
X035777Y015945D01*
X035695Y016027D01*
X035858Y016190D02*
X035940Y016190D01*
X036211Y016108D02*
X036292Y016190D01*
X036456Y016190D01*
X036538Y016108D01*
X036538Y016027D01*
X036456Y015945D01*
X036292Y015945D01*
X036211Y016027D01*
X036211Y016108D01*
X036292Y016190D02*
X036211Y016272D01*
X036211Y016354D01*
X036292Y016435D01*
X036456Y016435D01*
X036538Y016354D01*
X036538Y016272D01*
X036456Y016190D01*
X035777Y016435D02*
X035695Y016354D01*
X035940Y015435D02*
X035695Y015190D01*
X036022Y015190D01*
X036211Y015027D02*
X036211Y015354D01*
X036292Y015435D01*
X036456Y015435D01*
X036538Y015354D01*
X036211Y015027D01*
X036292Y014945D01*
X036456Y014945D01*
X036538Y015027D01*
X036538Y015354D01*
X035940Y015435D02*
X035940Y014945D01*
X035940Y014435D02*
X035695Y014190D01*
X036022Y014190D01*
X036211Y014354D02*
X036292Y014435D01*
X036456Y014435D01*
X036538Y014354D01*
X036538Y014272D01*
X036211Y013945D01*
X036538Y013945D01*
X036456Y013435D02*
X036211Y013190D01*
X036538Y013190D01*
X036456Y012945D02*
X036456Y013435D01*
X036022Y013190D02*
X035695Y013190D01*
X035940Y013435D01*
X035940Y012945D01*
X035940Y012435D02*
X035695Y012190D01*
X036022Y012190D01*
X036211Y012190D02*
X036456Y012190D01*
X036538Y012108D01*
X036538Y012027D01*
X036456Y011945D01*
X036292Y011945D01*
X036211Y012027D01*
X036211Y012190D01*
X036374Y012354D01*
X036538Y012435D01*
X035940Y012435D02*
X035940Y011945D01*
X035940Y011435D02*
X035695Y011190D01*
X036022Y011190D01*
X036211Y011108D02*
X036292Y011190D01*
X036456Y011190D01*
X036538Y011108D01*
X036538Y011027D01*
X036456Y010945D01*
X036292Y010945D01*
X036211Y011027D01*
X036211Y011108D01*
X036292Y011190D02*
X036211Y011272D01*
X036211Y011354D01*
X036292Y011435D01*
X036456Y011435D01*
X036538Y011354D01*
X036538Y011272D01*
X036456Y011190D01*
X035940Y010945D02*
X035940Y011435D01*
X036022Y010435D02*
X035695Y010435D01*
X035695Y010190D01*
X035858Y010272D01*
X035940Y010272D01*
X036022Y010190D01*
X036022Y010027D01*
X035940Y009945D01*
X035777Y009945D01*
X035695Y010027D01*
X036211Y010027D02*
X036211Y010354D01*
X036292Y010435D01*
X036456Y010435D01*
X036538Y010354D01*
X036211Y010027D01*
X036292Y009945D01*
X036456Y009945D01*
X036538Y010027D01*
X036538Y010354D01*
X036456Y009435D02*
X036292Y009435D01*
X036211Y009354D01*
X036022Y009435D02*
X035695Y009435D01*
X035695Y009190D01*
X035858Y009272D01*
X035940Y009272D01*
X036022Y009190D01*
X036022Y009027D01*
X035940Y008945D01*
X035777Y008945D01*
X035695Y009027D01*
X036211Y008945D02*
X036538Y009272D01*
X036538Y009354D01*
X036456Y009435D01*
X036538Y008945D02*
X036211Y008945D01*
X036130Y007888D02*
X036293Y007888D01*
X036375Y007806D01*
X036375Y007642D01*
X036293Y007561D01*
X036130Y007561D02*
X036048Y007724D01*
X036048Y007806D01*
X036130Y007888D01*
X035885Y007888D02*
X035885Y007561D01*
X036130Y007561D01*
X036375Y007372D02*
X036375Y007045D01*
X036375Y007208D02*
X035885Y007208D01*
X036048Y007045D01*
X035425Y007045D02*
X035425Y007372D01*
X035425Y007208D02*
X034935Y007208D01*
X035098Y007045D01*
X035180Y007561D02*
X034935Y007806D01*
X035425Y007806D01*
X035180Y007888D02*
X035180Y007561D01*
X034425Y007642D02*
X034343Y007561D01*
X034425Y007642D02*
X034425Y007806D01*
X034343Y007888D01*
X034262Y007888D01*
X034180Y007806D01*
X034180Y007724D01*
X034180Y007806D02*
X034098Y007888D01*
X034016Y007888D01*
X033935Y007806D01*
X033935Y007642D01*
X034016Y007561D01*
X033935Y007208D02*
X034425Y007208D01*
X034425Y007045D02*
X034425Y007372D01*
X034098Y007045D02*
X033935Y007208D01*
X033425Y007208D02*
X032935Y007208D01*
X033098Y007045D01*
X033425Y007045D02*
X033425Y007372D01*
X033425Y007561D02*
X033098Y007888D01*
X033016Y007888D01*
X032935Y007806D01*
X032935Y007642D01*
X033016Y007561D01*
X033425Y007561D02*
X033425Y007888D01*
X032425Y007888D02*
X032425Y007561D01*
X032425Y007724D02*
X031935Y007724D01*
X032098Y007561D01*
X032425Y007372D02*
X032425Y007045D01*
X032425Y007208D02*
X031935Y007208D01*
X032098Y007045D01*
X030425Y007127D02*
X030425Y007290D01*
X030343Y007372D01*
X030016Y007372D01*
X029935Y007290D01*
X029935Y007127D01*
X030016Y007045D01*
X030098Y007045D01*
X030180Y007127D01*
X030180Y007372D01*
X030425Y007127D02*
X030343Y007045D01*
X029425Y007127D02*
X029343Y007045D01*
X029262Y007045D01*
X029180Y007127D01*
X029180Y007290D01*
X029262Y007372D01*
X029343Y007372D01*
X029425Y007290D01*
X029425Y007127D01*
X029180Y007127D02*
X029098Y007045D01*
X029016Y007045D01*
X028935Y007127D01*
X028935Y007290D01*
X029016Y007372D01*
X029098Y007372D01*
X029180Y007290D01*
X027425Y007045D02*
X027343Y007045D01*
X027016Y007372D01*
X026935Y007372D01*
X026935Y007045D01*
X026375Y007127D02*
X026375Y007290D01*
X026293Y007372D01*
X026212Y007372D01*
X026130Y007290D01*
X026130Y007045D01*
X026293Y007045D01*
X026375Y007127D01*
X026130Y007045D02*
X025966Y007208D01*
X025885Y007372D01*
X025375Y007290D02*
X025375Y007127D01*
X025293Y007045D01*
X025130Y007045D02*
X025048Y007208D01*
X025048Y007290D01*
X025130Y007372D01*
X025293Y007372D01*
X025375Y007290D01*
X025130Y007045D02*
X024885Y007045D01*
X024885Y007372D01*
X024425Y007290D02*
X023935Y007290D01*
X024180Y007045D01*
X024180Y007372D01*
X023425Y007290D02*
X023425Y007127D01*
X023343Y007045D01*
X023180Y007208D02*
X023180Y007290D01*
X023262Y007372D01*
X023343Y007372D01*
X023425Y007290D01*
X023180Y007290D02*
X023098Y007372D01*
X023016Y007372D01*
X022935Y007290D01*
X022935Y007127D01*
X023016Y007045D01*
X022425Y007045D02*
X022425Y007372D01*
X022425Y007045D02*
X022098Y007372D01*
X022016Y007372D01*
X021935Y007290D01*
X021935Y007127D01*
X022016Y007045D01*
X021325Y007045D02*
X021325Y007372D01*
X021325Y007208D02*
X020835Y007208D01*
X020998Y007045D01*
X020425Y007127D02*
X020425Y007290D01*
X020343Y007372D01*
X020016Y007372D01*
X020343Y007045D01*
X020425Y007127D01*
X020343Y007045D02*
X020016Y007045D01*
X019935Y007127D01*
X019935Y007290D01*
X020016Y007372D01*
X018896Y007367D02*
X018896Y006877D01*
X018569Y007367D01*
X018569Y006877D01*
X018389Y006877D02*
X018225Y006877D01*
X018307Y006877D02*
X018307Y007367D01*
X018225Y007367D02*
X018389Y007367D01*
X018037Y007367D02*
X018037Y007040D01*
X017873Y006877D01*
X017710Y007040D01*
X017710Y007367D01*
X017348Y007285D02*
X017348Y006958D01*
X017266Y006877D01*
X017021Y006877D01*
X017021Y007367D01*
X017266Y007367D01*
X017348Y007285D01*
X016832Y007367D02*
X016832Y006877D01*
X016505Y007367D01*
X016505Y006877D01*
X016317Y006958D02*
X016317Y007122D01*
X016153Y007122D01*
X015990Y007285D02*
X015990Y006958D01*
X016072Y006877D01*
X016235Y006877D01*
X016317Y006958D01*
X016317Y007285D02*
X016235Y007367D01*
X016072Y007367D01*
X015990Y007285D01*
X015632Y007367D02*
X015632Y007040D01*
X015469Y006877D01*
X015305Y007040D01*
X015305Y007367D01*
X015117Y007367D02*
X014790Y007367D01*
X014790Y007122D01*
X014953Y007204D01*
X015035Y007204D01*
X015117Y007122D01*
X015117Y006958D01*
X015035Y006877D01*
X014872Y006877D01*
X014790Y006958D01*
X014413Y006952D02*
X014332Y006870D01*
X014413Y006952D02*
X014413Y007115D01*
X014332Y007197D01*
X014250Y007197D01*
X014168Y007115D01*
X014168Y007033D01*
X014168Y007115D02*
X014086Y007197D01*
X014005Y007197D01*
X013923Y007115D01*
X013923Y006952D01*
X014005Y006870D01*
X013923Y007385D02*
X014250Y007385D01*
X014413Y007549D01*
X014250Y007712D01*
X013923Y007712D01*
X014005Y007901D02*
X013923Y007983D01*
X013923Y008146D01*
X014005Y008228D01*
X014086Y008228D01*
X014168Y008146D01*
X014250Y008228D01*
X014332Y008228D01*
X014413Y008146D01*
X014413Y007983D01*
X014332Y007901D01*
X014168Y008065D02*
X014168Y008146D01*
X013413Y008146D02*
X013413Y007983D01*
X013332Y007901D01*
X013168Y007983D02*
X013168Y008146D01*
X013250Y008228D01*
X013332Y008228D01*
X013413Y008146D01*
X013413Y008417D02*
X012923Y008417D01*
X012923Y008744D01*
X012923Y008932D02*
X012923Y009259D01*
X012923Y009096D02*
X013413Y009096D01*
X013413Y008744D02*
X013413Y008417D01*
X013168Y008417D02*
X013168Y008580D01*
X013005Y008228D02*
X012923Y008146D01*
X012923Y007983D01*
X013005Y007901D01*
X013086Y007901D01*
X013168Y007983D01*
X012923Y007712D02*
X012923Y007385D01*
X013413Y007385D01*
X013413Y007712D01*
X013168Y007549D02*
X013168Y007385D01*
X013168Y007197D02*
X013250Y007115D01*
X013250Y006870D01*
X013413Y006870D02*
X012923Y006870D01*
X012923Y007115D01*
X013005Y007197D01*
X013168Y007197D01*
X013250Y007033D02*
X013413Y007197D01*
X012363Y007295D02*
X012363Y007459D01*
X012282Y007541D01*
X011955Y007541D01*
X011873Y007459D01*
X011873Y007295D01*
X011955Y007214D01*
X012282Y007214D01*
X012363Y007295D01*
X012363Y007033D02*
X012363Y006870D01*
X012363Y006952D02*
X011873Y006952D01*
X011873Y007033D02*
X011873Y006870D01*
X011873Y007729D02*
X011873Y007974D01*
X011955Y008056D01*
X012118Y008056D01*
X012200Y007974D01*
X012200Y007729D01*
X012363Y007729D02*
X011873Y007729D01*
X012200Y007893D02*
X012363Y008056D01*
X012363Y008245D02*
X011873Y008245D01*
X011873Y008572D01*
X011873Y008760D02*
X011873Y009087D01*
X012118Y008924D02*
X012118Y008760D01*
X012363Y008760D02*
X011873Y008760D01*
X012118Y008408D02*
X012118Y008245D01*
X012363Y008245D02*
X012363Y008572D01*
X009863Y022590D02*
X009536Y022590D01*
X009373Y022753D01*
X009536Y022917D01*
X009863Y022917D01*
X009863Y023105D02*
X009373Y023105D01*
X009373Y023351D01*
X009455Y023432D01*
X009618Y023432D01*
X009700Y023351D01*
X009700Y023105D01*
X009700Y023269D02*
X009863Y023432D01*
X009863Y023621D02*
X009863Y023948D01*
X009863Y024137D02*
X009373Y024137D01*
X009373Y024464D01*
X009618Y024300D02*
X009618Y024137D01*
X009373Y023948D02*
X009373Y023621D01*
X009863Y023621D01*
X009618Y023621D02*
X009618Y023785D01*
X010427Y023942D02*
X010918Y023942D01*
X010427Y023615D01*
X010918Y023615D01*
X010836Y023427D02*
X010672Y023427D01*
X010672Y023263D01*
X010509Y023100D02*
X010836Y023100D01*
X010918Y023182D01*
X010918Y023345D01*
X010836Y023427D01*
X010509Y023427D02*
X010427Y023345D01*
X010427Y023182D01*
X010509Y023100D01*
X009618Y022917D02*
X009618Y022590D01*
X010427Y024131D02*
X010427Y024376D01*
X010509Y024458D01*
X010836Y024458D01*
X010918Y024376D01*
X010918Y024131D01*
X010427Y024131D01*
X011385Y024206D02*
X011466Y024288D01*
X011548Y024288D01*
X011630Y024206D01*
X011712Y024288D01*
X011793Y024288D01*
X011875Y024206D01*
X011875Y024042D01*
X011793Y023961D01*
X011875Y023772D02*
X011875Y023445D01*
X011875Y023608D02*
X011385Y023608D01*
X011548Y023445D01*
X011466Y023961D02*
X011385Y024042D01*
X011385Y024206D01*
X011630Y024206D02*
X011630Y024124D01*
X012385Y024042D02*
X012466Y023961D01*
X012385Y024042D02*
X012385Y024206D01*
X012466Y024288D01*
X012548Y024288D01*
X012875Y023961D01*
X012875Y024288D01*
X012875Y023772D02*
X012875Y023445D01*
X012875Y023608D02*
X012385Y023608D01*
X012548Y023445D01*
X013385Y023608D02*
X013875Y023608D01*
X013875Y023445D02*
X013875Y023772D01*
X013875Y023961D02*
X013875Y024288D01*
X013875Y024124D02*
X013385Y024124D01*
X013548Y023961D01*
X013385Y023608D02*
X013548Y023445D01*
X014385Y023608D02*
X014875Y023608D01*
X014875Y023445D02*
X014875Y023772D01*
X014793Y023961D02*
X014466Y024288D01*
X014793Y024288D01*
X014875Y024206D01*
X014875Y024042D01*
X014793Y023961D01*
X014466Y023961D01*
X014385Y024042D01*
X014385Y024206D01*
X014466Y024288D01*
X014385Y023608D02*
X014548Y023445D01*
X015385Y024027D02*
X015466Y023945D01*
X015548Y023945D01*
X015630Y024027D01*
X015630Y024272D01*
X015793Y024272D02*
X015466Y024272D01*
X015385Y024190D01*
X015385Y024027D01*
X015793Y023945D02*
X015875Y024027D01*
X015875Y024190D01*
X015793Y024272D01*
X016385Y024190D02*
X016466Y024272D01*
X016548Y024272D01*
X016630Y024190D01*
X016630Y024027D01*
X016548Y023945D01*
X016466Y023945D01*
X016385Y024027D01*
X016385Y024190D01*
X016630Y024190D02*
X016712Y024272D01*
X016793Y024272D01*
X016875Y024190D01*
X016875Y024027D01*
X016793Y023945D01*
X016712Y023945D01*
X016630Y024027D01*
X017885Y023945D02*
X017885Y024272D01*
X017966Y024272D01*
X018293Y023945D01*
X018375Y023945D01*
X018885Y024272D02*
X018966Y024108D01*
X019130Y023945D01*
X019130Y024190D01*
X019212Y024272D01*
X019293Y024272D01*
X019375Y024190D01*
X019375Y024027D01*
X019293Y023945D01*
X019130Y023945D01*
X019885Y023945D02*
X020130Y023945D01*
X020048Y024108D01*
X020048Y024190D01*
X020130Y024272D01*
X020293Y024272D01*
X020375Y024190D01*
X020375Y024027D01*
X020293Y023945D01*
X019885Y023945D02*
X019885Y024272D01*
X020885Y024190D02*
X021130Y023945D01*
X021130Y024272D01*
X021375Y024190D02*
X020885Y024190D01*
X021885Y024190D02*
X021966Y024272D01*
X022048Y024272D01*
X022130Y024190D01*
X022212Y024272D01*
X022293Y024272D01*
X022375Y024190D01*
X022375Y024027D01*
X022293Y023945D01*
X022130Y024108D02*
X022130Y024190D01*
X021885Y024190D02*
X021885Y024027D01*
X021966Y023945D01*
X022885Y024027D02*
X022966Y023945D01*
X022885Y024027D02*
X022885Y024190D01*
X022966Y024272D01*
X023048Y024272D01*
X023375Y023945D01*
X023375Y024272D01*
X023885Y024108D02*
X024048Y023945D01*
X023885Y024108D02*
X024375Y024108D01*
X024375Y023945D02*
X024375Y024272D01*
X024885Y024190D02*
X024966Y024272D01*
X025293Y023945D01*
X025375Y024027D01*
X025375Y024190D01*
X025293Y024272D01*
X024966Y024272D01*
X024885Y024190D02*
X024885Y024027D01*
X024966Y023945D01*
X025293Y023945D01*
X035940Y014435D02*
X035940Y013945D01*
X038945Y014190D02*
X039272Y014190D01*
X039461Y014027D02*
X039542Y013945D01*
X039706Y013945D01*
X039788Y014027D01*
X039788Y014108D01*
X039706Y014190D01*
X039624Y014190D01*
X039706Y014190D02*
X039788Y014272D01*
X039788Y014354D01*
X039706Y014435D01*
X039542Y014435D01*
X039461Y014354D01*
X039190Y014435D02*
X038945Y014190D01*
X039190Y013945D02*
X039190Y014435D01*
X039190Y014945D02*
X039190Y015435D01*
X038945Y015190D01*
X039272Y015190D01*
X039461Y015272D02*
X039624Y015435D01*
X039624Y014945D01*
X039461Y014945D02*
X039788Y014945D01*
X039706Y015945D02*
X039788Y016027D01*
X039788Y016354D01*
X039706Y016435D01*
X039542Y016435D01*
X039461Y016354D01*
X039461Y016272D01*
X039542Y016190D01*
X039788Y016190D01*
X039706Y015945D02*
X039542Y015945D01*
X039461Y016027D01*
X039272Y016027D02*
X039190Y015945D01*
X039027Y015945D01*
X038945Y016027D01*
X039108Y016190D02*
X039190Y016190D01*
X039272Y016108D01*
X039272Y016027D01*
X039190Y016190D02*
X039272Y016272D01*
X039272Y016354D01*
X039190Y016435D01*
X039027Y016435D01*
X038945Y016354D01*
X039027Y016945D02*
X038945Y017027D01*
X039027Y016945D02*
X039190Y016945D01*
X039272Y017027D01*
X039272Y017108D01*
X039190Y017190D01*
X039108Y017190D01*
X039190Y017190D02*
X039272Y017272D01*
X039272Y017354D01*
X039190Y017435D01*
X039027Y017435D01*
X038945Y017354D01*
X039461Y017435D02*
X039788Y017435D01*
X039788Y017354D01*
X039461Y017027D01*
X039461Y016945D01*
X039542Y017945D02*
X039461Y018027D01*
X039542Y017945D02*
X039706Y017945D01*
X039788Y018027D01*
X039788Y018190D01*
X039706Y018272D01*
X039624Y018272D01*
X039461Y018190D01*
X039461Y018435D01*
X039788Y018435D01*
X039706Y018945D02*
X039542Y018945D01*
X039461Y019027D01*
X039272Y019027D02*
X039190Y018945D01*
X039027Y018945D01*
X038945Y019027D01*
X039108Y019190D02*
X039190Y019190D01*
X039272Y019108D01*
X039272Y019027D01*
X039190Y019190D02*
X039272Y019272D01*
X039272Y019354D01*
X039190Y019435D01*
X039027Y019435D01*
X038945Y019354D01*
X039027Y019945D02*
X038945Y020027D01*
X039027Y019945D02*
X039190Y019945D01*
X039272Y020027D01*
X039272Y020108D01*
X039190Y020190D01*
X039108Y020190D01*
X039190Y020190D02*
X039272Y020272D01*
X039272Y020354D01*
X039190Y020435D01*
X039027Y020435D01*
X038945Y020354D01*
X039461Y020272D02*
X039624Y020435D01*
X039624Y019945D01*
X039461Y019945D02*
X039788Y019945D01*
X039706Y019435D02*
X039788Y019354D01*
X039788Y019272D01*
X039706Y019190D01*
X039788Y019108D01*
X039788Y019027D01*
X039706Y018945D01*
X039706Y019190D02*
X039624Y019190D01*
X039461Y019354D02*
X039542Y019435D01*
X039706Y019435D01*
X039190Y018435D02*
X039272Y018354D01*
X039272Y018272D01*
X039190Y018190D01*
X039272Y018108D01*
X039272Y018027D01*
X039190Y017945D01*
X039027Y017945D01*
X038945Y018027D01*
X039108Y018190D02*
X039190Y018190D01*
X039190Y018435D02*
X039027Y018435D01*
X038945Y018354D01*
X039190Y013435D02*
X038945Y013190D01*
X039272Y013190D01*
X039461Y013190D02*
X039624Y013272D01*
X039706Y013272D01*
X039788Y013190D01*
X039788Y013027D01*
X039706Y012945D01*
X039542Y012945D01*
X039461Y013027D01*
X039461Y013190D02*
X039461Y013435D01*
X039788Y013435D01*
X039190Y013435D02*
X039190Y012945D01*
X039190Y012435D02*
X038945Y012190D01*
X039272Y012190D01*
X039461Y012027D02*
X039461Y011945D01*
X039461Y012027D02*
X039788Y012354D01*
X039788Y012435D01*
X039461Y012435D01*
X039190Y012435D02*
X039190Y011945D01*
X039190Y011435D02*
X038945Y011190D01*
X039272Y011190D01*
X039461Y011272D02*
X039542Y011190D01*
X039788Y011190D01*
X039788Y011027D02*
X039788Y011354D01*
X039706Y011435D01*
X039542Y011435D01*
X039461Y011354D01*
X039461Y011272D01*
X039461Y011027D02*
X039542Y010945D01*
X039706Y010945D01*
X039788Y011027D01*
X039190Y010945D02*
X039190Y011435D01*
X039272Y010435D02*
X038945Y010435D01*
X038945Y010190D01*
X039108Y010272D01*
X039190Y010272D01*
X039272Y010190D01*
X039272Y010027D01*
X039190Y009945D01*
X039027Y009945D01*
X038945Y010027D01*
X038945Y009435D02*
X038945Y009190D01*
X039108Y009272D01*
X039190Y009272D01*
X039272Y009190D01*
X039272Y009027D01*
X039190Y008945D01*
X039027Y008945D01*
X038945Y009027D01*
X038945Y009435D02*
X039272Y009435D01*
X039461Y009354D02*
X039542Y009435D01*
X039706Y009435D01*
X039788Y009354D01*
X039788Y009272D01*
X039706Y009190D01*
X039788Y009108D01*
X039788Y009027D01*
X039706Y008945D01*
X039542Y008945D01*
X039461Y009027D01*
X039624Y009190D02*
X039706Y009190D01*
X039788Y009945D02*
X039461Y009945D01*
X039624Y009945D02*
X039624Y010435D01*
X039461Y010272D01*
X039438Y007685D02*
X039438Y007195D01*
X039111Y007685D01*
X039111Y007195D01*
X038922Y007277D02*
X038922Y007440D01*
X038758Y007440D01*
X038595Y007277D02*
X038677Y007195D01*
X038840Y007195D01*
X038922Y007277D01*
X038922Y007604D02*
X038840Y007685D01*
X038677Y007685D01*
X038595Y007604D01*
X038595Y007277D01*
X039626Y007195D02*
X039871Y007195D01*
X039953Y007277D01*
X039953Y007604D01*
X039871Y007685D01*
X039626Y007685D01*
X039626Y007195D01*
D14*
X027193Y010887D02*
X027031Y010725D01*
X026708Y010725D01*
X026546Y010887D01*
X026546Y011210D01*
X026708Y011372D01*
X027031Y011372D01*
X027193Y011210D01*
X027193Y010887D01*
X026180Y010725D02*
X026180Y011210D01*
X026018Y011372D01*
X025533Y011372D01*
X025533Y010725D01*
X025181Y010725D02*
X024858Y010725D01*
X025019Y010725D02*
X025019Y011372D01*
X024858Y011372D01*
X025019Y011696D02*
X025019Y011858D01*
X024492Y011372D02*
X024492Y010725D01*
X024007Y010725D01*
X023845Y010887D01*
X023845Y011372D01*
X023479Y011372D02*
X022994Y011372D01*
X022832Y011210D01*
X022832Y010887D01*
X022994Y010725D01*
X023479Y010725D01*
X023479Y011696D01*
X022473Y011372D02*
X022311Y011372D01*
X021988Y011049D01*
X021988Y011372D02*
X021988Y010725D01*
X021622Y010725D02*
X021622Y011372D01*
X021299Y011696D01*
X020975Y011372D01*
X020975Y010725D01*
X020975Y011210D02*
X021622Y011210D01*
D15*
X021410Y006660D02*
X020910Y006660D01*
X020660Y006410D01*
X020660Y005910D01*
X020910Y005660D01*
X021410Y005660D01*
X021660Y005910D01*
X021660Y006410D01*
X021410Y006660D01*
X021660Y006410D02*
X021910Y006660D01*
X022410Y006660D01*
X022660Y006410D01*
X022910Y006660D01*
X023410Y006660D01*
X023660Y006410D01*
X023910Y006660D01*
X024410Y006660D01*
X024660Y006410D01*
X024660Y005910D01*
X024410Y005660D01*
X023910Y005660D01*
X023660Y005910D01*
X023410Y005660D01*
X022910Y005660D01*
X022660Y005910D01*
X022410Y005660D01*
X021910Y005660D01*
X021660Y005910D01*
X020660Y005910D02*
X020410Y005660D01*
X019910Y005660D01*
X019660Y005910D01*
X019660Y006410D01*
X019910Y006660D01*
X020410Y006660D01*
X020660Y006410D01*
X022660Y006410D02*
X022660Y005910D01*
X023660Y005910D02*
X023660Y006410D01*
X024660Y006410D02*
X024910Y006660D01*
X025410Y006660D01*
X025660Y006410D01*
X025910Y006660D01*
X026410Y006660D01*
X026660Y006410D01*
X026910Y006660D01*
X027410Y006660D01*
X027660Y006410D01*
X027660Y005910D01*
X027410Y005660D01*
X026910Y005660D01*
X026660Y005910D01*
X026410Y005660D01*
X025910Y005660D01*
X025660Y005910D01*
X025410Y005660D01*
X024910Y005660D01*
X024660Y005910D01*
X025660Y005910D02*
X025660Y006410D01*
X026660Y006410D02*
X026660Y005910D01*
X028660Y005910D02*
X028910Y005660D01*
X029410Y005660D01*
X029660Y005910D01*
X029910Y005660D01*
X030410Y005660D01*
X030660Y005910D01*
X030660Y006410D01*
X030410Y006660D01*
X029910Y006660D01*
X029660Y006410D01*
X029660Y005910D01*
X029660Y006410D02*
X029410Y006660D01*
X028910Y006660D01*
X028660Y006410D01*
X028660Y005910D01*
X030660Y005910D02*
X030910Y005660D01*
X031410Y005660D01*
X031660Y005910D01*
X031910Y005660D01*
X032410Y005660D01*
X032660Y005910D01*
X032910Y005660D01*
X033410Y005660D01*
X033660Y005910D01*
X033660Y006410D01*
X033410Y006660D01*
X032910Y006660D01*
X032660Y006410D01*
X032660Y005910D01*
X032660Y006410D02*
X032410Y006660D01*
X031910Y006660D01*
X031660Y006410D01*
X031660Y005910D01*
X031660Y006410D02*
X031410Y006660D01*
X030910Y006660D01*
X030660Y006410D01*
X031096Y007040D02*
X030930Y007207D01*
X031430Y007207D01*
X031430Y007040D02*
X031430Y007374D01*
X031347Y007556D02*
X031013Y007889D01*
X031347Y007889D01*
X031430Y007806D01*
X031430Y007639D01*
X031347Y007556D01*
X031013Y007556D01*
X030930Y007639D01*
X030930Y007806D01*
X031013Y007889D01*
X033660Y006410D02*
X033910Y006660D01*
X034410Y006660D01*
X034660Y006410D01*
X034910Y006660D01*
X035410Y006660D01*
X035660Y006410D01*
X035910Y006660D01*
X036410Y006660D01*
X036660Y006410D01*
X036660Y005910D01*
X036410Y005660D01*
X035910Y005660D01*
X035660Y005910D01*
X035410Y005660D01*
X034910Y005660D01*
X034660Y005910D01*
X034410Y005660D01*
X033910Y005660D01*
X033660Y005910D01*
X034660Y005910D02*
X034660Y006410D01*
X035660Y006410D02*
X035660Y005910D01*
X036910Y007660D02*
X038410Y007660D01*
X038660Y007910D01*
X038660Y008410D01*
X038410Y008660D01*
X036910Y008660D01*
X036660Y008910D01*
X036660Y009410D01*
X036910Y009660D01*
X038410Y009660D01*
X038660Y009410D01*
X038660Y008910D01*
X038410Y008660D01*
X038410Y009660D02*
X038660Y009910D01*
X038660Y010410D01*
X038410Y010660D01*
X036910Y010660D01*
X036660Y010910D01*
X036660Y011410D01*
X036910Y011660D01*
X038410Y011660D01*
X038660Y011410D01*
X038660Y010910D01*
X038410Y010660D01*
X038410Y011660D02*
X038660Y011910D01*
X038660Y012410D01*
X038410Y012660D01*
X036910Y012660D01*
X036660Y012910D01*
X036660Y013410D01*
X036910Y013660D01*
X038410Y013660D01*
X038660Y013410D01*
X038660Y012910D01*
X038410Y012660D01*
X038410Y013660D02*
X038660Y013910D01*
X038660Y014410D01*
X038410Y014660D01*
X036910Y014660D01*
X036660Y014910D01*
X036660Y015410D01*
X036910Y015660D01*
X038410Y015660D01*
X038660Y015410D01*
X038660Y014910D01*
X038410Y014660D01*
X038410Y015660D02*
X038660Y015910D01*
X038660Y016410D01*
X038410Y016660D01*
X036910Y016660D01*
X036660Y016910D01*
X036660Y017410D01*
X036910Y017660D01*
X038410Y017660D01*
X038660Y017410D01*
X038660Y016910D01*
X038410Y016660D01*
X038410Y017660D02*
X038660Y017910D01*
X038660Y018410D01*
X038410Y018660D01*
X036910Y018660D01*
X036660Y018910D01*
X036660Y019410D01*
X036910Y019660D01*
X038410Y019660D01*
X038660Y019410D01*
X038660Y018910D01*
X038410Y018660D01*
X038410Y019660D02*
X038660Y019910D01*
X038660Y020410D01*
X038410Y020660D01*
X036910Y020660D01*
X036660Y020410D01*
X036660Y019910D01*
X036910Y019660D01*
X036910Y018660D02*
X036660Y018410D01*
X036660Y017910D01*
X036910Y017660D01*
X036910Y016660D02*
X036660Y016410D01*
X036660Y015910D01*
X036910Y015660D01*
X036910Y014660D02*
X036660Y014410D01*
X036660Y013910D01*
X036910Y013660D01*
X036910Y012660D02*
X036660Y012410D01*
X036660Y011910D01*
X036910Y011660D01*
X036910Y010660D02*
X036660Y010410D01*
X036660Y009910D01*
X036910Y009660D01*
X036910Y008660D02*
X036660Y008410D01*
X036660Y007910D01*
X036910Y007660D01*
X032879Y003170D02*
X032923Y003127D01*
X032923Y003083D01*
X032879Y003040D01*
X032793Y003040D01*
X032749Y003083D01*
X032749Y003127D01*
X032793Y003170D01*
X032879Y003170D01*
X032879Y003040D02*
X032923Y002997D01*
X032923Y002953D01*
X032879Y002910D01*
X032793Y002910D01*
X032749Y002953D01*
X032749Y002997D01*
X032793Y003040D01*
X032628Y003040D02*
X032585Y002997D01*
X032455Y002997D01*
X032455Y002910D02*
X032455Y003170D01*
X032585Y003170D01*
X032628Y003127D01*
X032628Y003040D01*
X032333Y003170D02*
X032247Y003170D01*
X032290Y003170D02*
X032290Y002953D01*
X032247Y002910D01*
X032203Y002910D01*
X032160Y002953D01*
X023660Y002410D02*
X023660Y001910D01*
X023410Y001660D01*
X022910Y001660D01*
X022660Y001910D01*
X022410Y001660D01*
X021910Y001660D01*
X021660Y001910D01*
X021410Y001660D01*
X020910Y001660D01*
X020660Y001910D01*
X020410Y001660D01*
X019910Y001660D01*
X019660Y001910D01*
X019410Y001660D01*
X018910Y001660D01*
X018660Y001910D01*
X018410Y001660D01*
X017910Y001660D01*
X017660Y001910D01*
X017410Y001660D01*
X016910Y001660D01*
X016660Y001910D01*
X016410Y001660D01*
X015910Y001660D01*
X015660Y001910D01*
X015660Y002410D01*
X015910Y002660D01*
X016410Y002660D01*
X016660Y002410D01*
X016910Y002660D01*
X017410Y002660D01*
X017660Y002410D01*
X017660Y001910D01*
X017660Y002410D02*
X017910Y002660D01*
X018410Y002660D01*
X018660Y002410D01*
X018910Y002660D01*
X019410Y002660D01*
X019660Y002410D01*
X019910Y002660D01*
X020410Y002660D01*
X020660Y002410D01*
X020660Y001910D01*
X020660Y002410D02*
X020910Y002660D01*
X021410Y002660D01*
X021660Y002410D01*
X021910Y002660D01*
X022410Y002660D01*
X022660Y002410D01*
X022910Y002660D01*
X023410Y002660D01*
X023660Y002410D01*
X022660Y002410D02*
X022660Y001910D01*
X021660Y001910D02*
X021660Y002410D01*
X019660Y002410D02*
X019660Y001910D01*
X018660Y001910D02*
X018660Y002410D01*
X016660Y002410D02*
X016660Y001910D01*
X013160Y001910D02*
X012910Y001660D01*
X012410Y001660D01*
X012160Y001910D01*
X011910Y001660D01*
X011410Y001660D01*
X011160Y001910D01*
X010910Y001660D01*
X010410Y001660D01*
X010160Y001910D01*
X009910Y001660D01*
X009410Y001660D01*
X009160Y001910D01*
X008910Y001660D01*
X008410Y001660D01*
X008160Y001910D01*
X007910Y001660D01*
X007410Y001660D01*
X007160Y001910D01*
X006910Y001660D01*
X006410Y001660D01*
X006160Y001910D01*
X005910Y001660D01*
X005410Y001660D01*
X005160Y001910D01*
X004910Y001660D01*
X004410Y001660D01*
X004160Y001910D01*
X003910Y001660D01*
X003410Y001660D01*
X003160Y001910D01*
X003160Y002410D01*
X003410Y002660D01*
X003910Y002660D01*
X004160Y002410D01*
X004410Y002660D01*
X004910Y002660D01*
X005160Y002410D01*
X005160Y001910D01*
X005160Y002410D02*
X005410Y002660D01*
X005910Y002660D01*
X006160Y002410D01*
X006410Y002660D01*
X006910Y002660D01*
X007160Y002410D01*
X007410Y002660D01*
X007910Y002660D01*
X008160Y002410D01*
X008160Y001910D01*
X008160Y002410D02*
X008410Y002660D01*
X008910Y002660D01*
X009160Y002410D01*
X009410Y002660D01*
X009910Y002660D01*
X010160Y002410D01*
X010410Y002660D01*
X010910Y002660D01*
X011160Y002410D01*
X011160Y001910D01*
X011160Y002410D02*
X011410Y002660D01*
X011910Y002660D01*
X012160Y002410D01*
X012410Y002660D01*
X012910Y002660D01*
X013160Y002410D01*
X013160Y001910D01*
X012160Y001910D02*
X012160Y002410D01*
X010160Y002410D02*
X010160Y001910D01*
X009160Y001910D02*
X009160Y002410D01*
X007160Y002410D02*
X007160Y001910D01*
X006160Y001910D02*
X006160Y002410D01*
X004160Y002410D02*
X004160Y001910D01*
X003879Y002910D02*
X003793Y002910D01*
X003749Y002953D01*
X003836Y003040D02*
X003879Y003040D01*
X003923Y002997D01*
X003923Y002953D01*
X003879Y002910D01*
X003879Y003040D02*
X003923Y003083D01*
X003923Y003127D01*
X003879Y003170D01*
X003793Y003170D01*
X003749Y003127D01*
X003628Y003127D02*
X003628Y003040D01*
X003585Y002997D01*
X003455Y002997D01*
X003455Y002910D02*
X003455Y003170D01*
X003585Y003170D01*
X003628Y003127D01*
X003333Y003170D02*
X003247Y003170D01*
X003290Y003170D02*
X003290Y002953D01*
X003247Y002910D01*
X003203Y002910D01*
X003160Y002953D01*
X001410Y007660D02*
X000910Y007660D01*
X000660Y007910D01*
X000660Y008410D01*
X000910Y008660D01*
X000660Y008910D01*
X000660Y009410D01*
X000910Y009660D01*
X000660Y009910D01*
X000660Y010410D01*
X000910Y010660D01*
X001410Y010660D01*
X001660Y010410D01*
X001660Y009910D01*
X001410Y009660D01*
X001660Y009410D01*
X001660Y008910D01*
X001410Y008660D01*
X001660Y008410D01*
X001660Y007910D01*
X001410Y007660D01*
X001410Y008660D02*
X000910Y008660D01*
X000910Y009660D02*
X001410Y009660D01*
X010660Y006410D02*
X010660Y005910D01*
X010910Y005660D01*
X011410Y005660D01*
X011660Y005910D01*
X011910Y005660D01*
X012410Y005660D01*
X012660Y005910D01*
X012660Y006410D01*
X012410Y006660D01*
X011910Y006660D01*
X011660Y006410D01*
X011660Y005910D01*
X011660Y006410D02*
X011410Y006660D01*
X010910Y006660D01*
X010660Y006410D01*
X012660Y006410D02*
X012910Y006660D01*
X013410Y006660D01*
X013660Y006410D01*
X013910Y006660D01*
X014410Y006660D01*
X014660Y006410D01*
X014910Y006660D01*
X015410Y006660D01*
X015660Y006410D01*
X015660Y005910D01*
X015410Y005660D01*
X014910Y005660D01*
X014660Y005910D01*
X014410Y005660D01*
X013910Y005660D01*
X013660Y005910D01*
X013410Y005660D01*
X012910Y005660D01*
X012660Y005910D01*
X013660Y005910D02*
X013660Y006410D01*
X014660Y006410D02*
X014660Y005910D01*
X015660Y005910D02*
X015910Y005660D01*
X016410Y005660D01*
X016660Y005910D01*
X016910Y005660D01*
X017410Y005660D01*
X017660Y005910D01*
X017910Y005660D01*
X018410Y005660D01*
X018660Y005910D01*
X018660Y006410D01*
X018410Y006660D01*
X017910Y006660D01*
X017660Y006410D01*
X017660Y005910D01*
X017660Y006410D02*
X017410Y006660D01*
X016910Y006660D01*
X016660Y006410D01*
X016660Y005910D01*
X016660Y006410D02*
X016410Y006660D01*
X015910Y006660D01*
X015660Y006410D01*
X014310Y011710D02*
X014160Y011710D01*
X014110Y011760D01*
X012210Y011760D01*
X012160Y011710D01*
X012010Y011710D01*
X011993Y011712D01*
X011976Y011716D01*
X011960Y011723D01*
X011946Y011733D01*
X011933Y011746D01*
X011923Y011760D01*
X011916Y011776D01*
X011912Y011793D01*
X011910Y011810D01*
X011910Y012510D01*
X011912Y012527D01*
X011916Y012544D01*
X011923Y012560D01*
X011933Y012574D01*
X011946Y012587D01*
X011960Y012597D01*
X011976Y012604D01*
X011993Y012608D01*
X012010Y012610D01*
X012160Y012610D01*
X012210Y012560D01*
X014110Y012560D01*
X014160Y012610D01*
X014310Y012610D01*
X014327Y012608D01*
X014344Y012604D01*
X014360Y012597D01*
X014374Y012587D01*
X014387Y012574D01*
X014397Y012560D01*
X014404Y012544D01*
X014408Y012527D01*
X014410Y012510D01*
X014410Y011810D01*
X014408Y011793D01*
X014404Y011776D01*
X014397Y011760D01*
X014387Y011746D01*
X014374Y011733D01*
X014360Y011723D01*
X014344Y011716D01*
X014327Y011712D01*
X014310Y011710D01*
X008535Y022685D02*
X008618Y022768D01*
X008618Y022935D01*
X008535Y023018D01*
X008451Y023018D01*
X008368Y022935D01*
X008368Y022768D01*
X008285Y022685D01*
X008201Y022685D01*
X008118Y022768D01*
X008118Y022935D01*
X008201Y023018D01*
X008118Y023200D02*
X008118Y023451D01*
X008201Y023534D01*
X008535Y023534D01*
X008618Y023451D01*
X008618Y023200D01*
X008118Y023200D01*
X008285Y023716D02*
X008118Y023883D01*
X008285Y024050D01*
X008618Y024050D01*
X008368Y024050D02*
X008368Y023716D01*
X008285Y023716D02*
X008618Y023716D01*
X008810Y024660D02*
X008310Y024660D01*
X008060Y024910D01*
X007810Y024660D01*
X007310Y024660D01*
X007060Y024910D01*
X007060Y025410D01*
X007310Y025660D01*
X007810Y025660D01*
X008060Y025410D01*
X008310Y025660D01*
X008810Y025660D01*
X009060Y025410D01*
X009060Y024910D01*
X008810Y024660D01*
X009060Y024910D02*
X009310Y024660D01*
X009810Y024660D01*
X010060Y024910D01*
X010310Y024660D01*
X010810Y024660D01*
X011060Y024910D01*
X011310Y024660D01*
X011810Y024660D01*
X012060Y024910D01*
X012060Y025410D01*
X011810Y025660D01*
X011310Y025660D01*
X011060Y025410D01*
X011060Y024910D01*
X011060Y025410D02*
X010810Y025660D01*
X010310Y025660D01*
X010060Y025410D01*
X010060Y024910D01*
X010060Y025410D02*
X009810Y025660D01*
X009310Y025660D01*
X009060Y025410D01*
X008060Y025410D02*
X008060Y024910D01*
X007518Y024100D02*
X007518Y023766D01*
X007018Y023766D01*
X007101Y023584D02*
X007018Y023501D01*
X007018Y023334D01*
X007101Y023250D01*
X007435Y023250D01*
X007518Y023334D01*
X007518Y023501D01*
X007435Y023584D01*
X007435Y023068D02*
X007518Y022985D01*
X007518Y022818D01*
X007435Y022735D01*
X007268Y022818D02*
X007268Y022985D01*
X007351Y023068D01*
X007435Y023068D01*
X007268Y022818D02*
X007185Y022735D01*
X007101Y022735D01*
X007018Y022818D01*
X007018Y022985D01*
X007101Y023068D01*
X012060Y024910D02*
X012310Y024660D01*
X012810Y024660D01*
X013060Y024910D01*
X013310Y024660D01*
X013810Y024660D01*
X014060Y024910D01*
X014310Y024660D01*
X014810Y024660D01*
X015060Y024910D01*
X015060Y025410D01*
X014810Y025660D01*
X014310Y025660D01*
X014060Y025410D01*
X014060Y024910D01*
X014060Y025410D02*
X013810Y025660D01*
X013310Y025660D01*
X013060Y025410D01*
X013060Y024910D01*
X013060Y025410D02*
X012810Y025660D01*
X012310Y025660D01*
X012060Y025410D01*
X015060Y025410D02*
X015310Y025660D01*
X015810Y025660D01*
X016060Y025410D01*
X016310Y025660D01*
X016810Y025660D01*
X017060Y025410D01*
X017060Y024910D01*
X016810Y024660D01*
X016310Y024660D01*
X016060Y024910D01*
X015810Y024660D01*
X015310Y024660D01*
X015060Y024910D01*
X016060Y024910D02*
X016060Y025410D01*
X017660Y025410D02*
X017660Y024910D01*
X017910Y024660D01*
X018410Y024660D01*
X018660Y024910D01*
X018660Y025410D01*
X018410Y025660D01*
X017910Y025660D01*
X017660Y025410D01*
X018660Y025410D02*
X018910Y025660D01*
X019410Y025660D01*
X019660Y025410D01*
X019910Y025660D01*
X020410Y025660D01*
X020660Y025410D01*
X020910Y025660D01*
X021410Y025660D01*
X021660Y025410D01*
X021910Y025660D01*
X022410Y025660D01*
X022660Y025410D01*
X022910Y025660D01*
X023410Y025660D01*
X023660Y025410D01*
X023910Y025660D01*
X024410Y025660D01*
X024660Y025410D01*
X024910Y025660D01*
X025410Y025660D01*
X025660Y025410D01*
X025660Y024910D01*
X025410Y024660D01*
X024910Y024660D01*
X024660Y024910D01*
X024410Y024660D01*
X023910Y024660D01*
X023660Y024910D01*
X023660Y025410D01*
X023660Y024910D02*
X023410Y024660D01*
X022910Y024660D01*
X022660Y024910D01*
X022410Y024660D01*
X021910Y024660D01*
X021660Y024910D01*
X021410Y024660D01*
X020910Y024660D01*
X020660Y024910D01*
X020660Y025410D01*
X020660Y024910D02*
X020410Y024660D01*
X019910Y024660D01*
X019660Y024910D01*
X019410Y024660D01*
X018910Y024660D01*
X018660Y024910D01*
X019660Y024910D02*
X019660Y025410D01*
X021660Y025410D02*
X021660Y024910D01*
X022660Y024910D02*
X022660Y025410D01*
X024660Y025410D02*
X024660Y024910D01*
X026660Y024910D02*
X026660Y025410D01*
X026910Y025660D01*
X027410Y025660D01*
X027660Y025410D01*
X027910Y025660D01*
X028410Y025660D01*
X028660Y025410D01*
X028910Y025660D01*
X029410Y025660D01*
X029660Y025410D01*
X029910Y025660D01*
X030410Y025660D01*
X030660Y025410D01*
X030910Y025660D01*
X031410Y025660D01*
X031660Y025410D01*
X031910Y025660D01*
X032410Y025660D01*
X032660Y025410D01*
X032910Y025660D01*
X033410Y025660D01*
X033660Y025410D01*
X033910Y025660D01*
X034410Y025660D01*
X034660Y025410D01*
X034660Y024910D01*
X034410Y024660D01*
X033910Y024660D01*
X033660Y024910D01*
X033410Y024660D01*
X032910Y024660D01*
X032660Y024910D01*
X032660Y025410D01*
X032660Y024910D02*
X032410Y024660D01*
X031910Y024660D01*
X031660Y024910D01*
X031410Y024660D01*
X030910Y024660D01*
X030660Y024910D01*
X030410Y024660D01*
X029910Y024660D01*
X029660Y024910D01*
X029660Y025410D01*
X029660Y024910D02*
X029410Y024660D01*
X028910Y024660D01*
X028660Y024910D01*
X028410Y024660D01*
X027910Y024660D01*
X027660Y024910D01*
X027410Y024660D01*
X026910Y024660D01*
X026660Y024910D01*
X027660Y024910D02*
X027660Y025410D01*
X028660Y025410D02*
X028660Y024910D01*
X030660Y024910D02*
X030660Y025410D01*
X031660Y025410D02*
X031660Y024910D01*
X033660Y024910D02*
X033660Y025410D01*
X035660Y027410D02*
X035910Y027160D01*
X036410Y027160D01*
X036660Y027410D01*
X036660Y027910D01*
X036410Y028160D01*
X035910Y028160D01*
X035660Y027910D01*
X035660Y027410D01*
X035910Y028160D02*
X035660Y028410D01*
X035660Y028910D01*
X035910Y029160D01*
X035660Y029410D01*
X035660Y029910D01*
X035910Y030160D01*
X035660Y030410D01*
X035660Y030910D01*
X035910Y031160D01*
X035660Y031410D01*
X035660Y031910D01*
X035910Y032160D01*
X035660Y032410D01*
X035660Y032910D01*
X035910Y033160D01*
X036410Y033160D01*
X036660Y032910D01*
X036660Y032410D01*
X036410Y032160D01*
X036660Y031910D01*
X036660Y031410D01*
X036410Y031160D01*
X035910Y031160D01*
X036410Y031160D02*
X036660Y030910D01*
X036660Y030410D01*
X036410Y030160D01*
X036660Y029910D01*
X036660Y029410D01*
X036410Y029160D01*
X036660Y028910D01*
X036660Y028410D01*
X036410Y028160D01*
X036410Y029160D02*
X035910Y029160D01*
X035910Y030160D02*
X036410Y030160D01*
X036410Y032160D02*
X035910Y032160D01*
X038710Y031310D02*
X038710Y031160D01*
X038760Y031110D01*
X038760Y029210D01*
X038710Y029160D01*
X038710Y029010D01*
X038712Y028993D01*
X038716Y028976D01*
X038723Y028960D01*
X038733Y028946D01*
X038746Y028933D01*
X038760Y028923D01*
X038776Y028916D01*
X038793Y028912D01*
X038810Y028910D01*
X039510Y028910D01*
X039527Y028912D01*
X039544Y028916D01*
X039560Y028923D01*
X039574Y028933D01*
X039587Y028946D01*
X039597Y028960D01*
X039604Y028976D01*
X039608Y028993D01*
X039610Y029010D01*
X039610Y029160D01*
X039560Y029210D01*
X039560Y031110D01*
X039610Y031160D01*
X039610Y031310D01*
X039608Y031327D01*
X039604Y031344D01*
X039597Y031360D01*
X039587Y031374D01*
X039574Y031387D01*
X039560Y031397D01*
X039544Y031404D01*
X039527Y031408D01*
X039510Y031410D01*
X038810Y031410D01*
X038793Y031408D01*
X038776Y031404D01*
X038760Y031397D01*
X038746Y031387D01*
X038733Y031374D01*
X038723Y031360D01*
X038716Y031344D01*
X038712Y031327D01*
X038710Y031310D01*
X039710Y031310D02*
X039710Y031160D01*
X039760Y031110D01*
X039760Y029210D01*
X039710Y029160D01*
X039710Y029010D01*
X039712Y028993D01*
X039716Y028976D01*
X039723Y028960D01*
X039733Y028946D01*
X039746Y028933D01*
X039760Y028923D01*
X039776Y028916D01*
X039793Y028912D01*
X039810Y028910D01*
X040510Y028910D01*
X040527Y028912D01*
X040544Y028916D01*
X040560Y028923D01*
X040574Y028933D01*
X040587Y028946D01*
X040597Y028960D01*
X040604Y028976D01*
X040608Y028993D01*
X040610Y029010D01*
X040610Y029160D01*
X040560Y029210D01*
X040560Y031110D01*
X040610Y031160D01*
X040610Y031310D01*
X040608Y031327D01*
X040604Y031344D01*
X040597Y031360D01*
X040587Y031374D01*
X040574Y031387D01*
X040560Y031397D01*
X040544Y031404D01*
X040527Y031408D01*
X040510Y031410D01*
X039810Y031410D01*
X039793Y031408D01*
X039776Y031404D01*
X039760Y031397D01*
X039746Y031387D01*
X039733Y031374D01*
X039723Y031360D01*
X039716Y031344D01*
X039712Y031327D01*
X039710Y031310D01*
X041710Y031310D02*
X041710Y031160D01*
X041760Y031110D01*
X041760Y029210D01*
X041710Y029160D01*
X041710Y029010D01*
X041712Y028993D01*
X041716Y028976D01*
X041723Y028960D01*
X041733Y028946D01*
X041746Y028933D01*
X041760Y028923D01*
X041776Y028916D01*
X041793Y028912D01*
X041810Y028910D01*
X042510Y028910D01*
X042527Y028912D01*
X042544Y028916D01*
X042560Y028923D01*
X042574Y028933D01*
X042587Y028946D01*
X042597Y028960D01*
X042604Y028976D01*
X042608Y028993D01*
X042610Y029010D01*
X042610Y029160D01*
X042560Y029210D01*
X042560Y031110D01*
X042610Y031160D01*
X042610Y031310D01*
X042608Y031327D01*
X042604Y031344D01*
X042597Y031360D01*
X042587Y031374D01*
X042574Y031387D01*
X042560Y031397D01*
X042544Y031404D01*
X042527Y031408D01*
X042510Y031410D01*
X041810Y031410D01*
X041793Y031408D01*
X041776Y031404D01*
X041760Y031397D01*
X041746Y031387D01*
X041733Y031374D01*
X041723Y031360D01*
X041716Y031344D01*
X041712Y031327D01*
X041710Y031310D01*
X041910Y025660D02*
X042410Y025660D01*
X042660Y025410D01*
X042660Y024910D01*
X042410Y024660D01*
X042660Y024410D01*
X042660Y023910D01*
X042410Y023660D01*
X042660Y023410D01*
X042660Y022910D01*
X042410Y022660D01*
X041910Y022660D01*
X041660Y022910D01*
X041660Y023410D01*
X041910Y023660D01*
X041660Y023910D01*
X041660Y024410D01*
X041910Y024660D01*
X041660Y024910D01*
X041660Y025410D01*
X041910Y025660D01*
X041910Y024660D02*
X042410Y024660D01*
X042410Y023660D02*
X041910Y023660D01*
X038660Y023410D02*
X038660Y022910D01*
X038410Y022660D01*
X036910Y022660D01*
X036660Y022410D01*
X036660Y021910D01*
X036910Y021660D01*
X038410Y021660D01*
X038660Y021410D01*
X038660Y020910D01*
X038410Y020660D01*
X038410Y021660D02*
X038660Y021910D01*
X038660Y022410D01*
X038410Y022660D01*
X038660Y023410D02*
X038410Y023660D01*
X036910Y023660D01*
X036660Y023410D01*
X036660Y022910D01*
X036910Y022660D01*
X036910Y023660D02*
X036660Y023910D01*
X036660Y024410D01*
X036910Y024660D01*
X038410Y024660D01*
X038660Y024410D01*
X038660Y023910D01*
X038410Y023660D01*
X038410Y024660D02*
X038660Y024910D01*
X038660Y025410D01*
X038410Y025660D01*
X036910Y025660D01*
X036660Y025410D01*
X036660Y024910D01*
X036910Y024660D01*
X036910Y021660D02*
X036660Y021410D01*
X036660Y020910D01*
X036910Y020660D01*
X020989Y028617D02*
X020882Y028617D01*
X020669Y028404D01*
X020669Y028617D02*
X020669Y028190D01*
X020451Y028404D02*
X020024Y028404D01*
X020024Y028510D02*
X020131Y028617D01*
X020344Y028617D01*
X020451Y028510D01*
X020451Y028404D01*
X020344Y028190D02*
X020131Y028190D01*
X020024Y028297D01*
X020024Y028510D01*
X019807Y028617D02*
X019593Y028190D01*
X019380Y028617D01*
X019057Y028617D02*
X019057Y028190D01*
X019163Y028190D02*
X018950Y028190D01*
X018950Y028617D02*
X019057Y028617D01*
X019057Y028831D02*
X019057Y028937D01*
X018733Y028617D02*
X018626Y028617D01*
X018413Y028404D01*
X018413Y028617D02*
X018413Y028190D01*
X018195Y028297D02*
X018195Y028724D01*
X018088Y028831D01*
X017768Y028831D01*
X017768Y028190D01*
X018088Y028190D01*
X018195Y028297D01*
X017551Y028083D02*
X017124Y028083D01*
X016906Y028190D02*
X016906Y028831D01*
X016693Y028617D01*
X016479Y028831D01*
X016479Y028190D01*
X016262Y028190D02*
X016262Y028831D01*
X015835Y028831D02*
X015835Y028190D01*
X016048Y028404D01*
X016262Y028190D01*
X015617Y028510D02*
X015617Y028724D01*
X015510Y028831D01*
X015190Y028831D01*
X015190Y028190D01*
X015190Y028404D02*
X015510Y028404D01*
X015617Y028510D01*
X004610Y029010D02*
X004610Y029160D01*
X004560Y029210D01*
X004560Y031110D01*
X004610Y031160D01*
X004610Y031310D01*
X004608Y031327D01*
X004604Y031344D01*
X004597Y031360D01*
X004587Y031374D01*
X004574Y031387D01*
X004560Y031397D01*
X004544Y031404D01*
X004527Y031408D01*
X004510Y031410D01*
X003810Y031410D01*
X003793Y031408D01*
X003776Y031404D01*
X003760Y031397D01*
X003746Y031387D01*
X003733Y031374D01*
X003723Y031360D01*
X003716Y031344D01*
X003712Y031327D01*
X003710Y031310D01*
X003710Y031160D01*
X003760Y031110D01*
X003760Y029210D01*
X003710Y029160D01*
X003710Y029010D01*
X003712Y028993D01*
X003716Y028976D01*
X003723Y028960D01*
X003733Y028946D01*
X003746Y028933D01*
X003760Y028923D01*
X003776Y028916D01*
X003793Y028912D01*
X003810Y028910D01*
X004510Y028910D01*
X004527Y028912D01*
X004544Y028916D01*
X004560Y028923D01*
X004574Y028933D01*
X004587Y028946D01*
X004597Y028960D01*
X004604Y028976D01*
X004608Y028993D01*
X004610Y029010D01*
X002610Y029010D02*
X002610Y029160D01*
X002560Y029210D01*
X002560Y031110D01*
X002610Y031160D01*
X002610Y031310D01*
X002608Y031327D01*
X002604Y031344D01*
X002597Y031360D01*
X002587Y031374D01*
X002574Y031387D01*
X002560Y031397D01*
X002544Y031404D01*
X002527Y031408D01*
X002510Y031410D01*
X001810Y031410D01*
X001793Y031408D01*
X001776Y031404D01*
X001760Y031397D01*
X001746Y031387D01*
X001733Y031374D01*
X001723Y031360D01*
X001716Y031344D01*
X001712Y031327D01*
X001710Y031310D01*
X001710Y031160D01*
X001760Y031110D01*
X001760Y029210D01*
X001710Y029160D01*
X001710Y029010D01*
X001610Y029010D02*
X001610Y029160D01*
X001560Y029210D01*
X001560Y031110D01*
X001610Y031160D01*
X001610Y031310D01*
X001608Y031327D01*
X001604Y031344D01*
X001597Y031360D01*
X001587Y031374D01*
X001574Y031387D01*
X001560Y031397D01*
X001544Y031404D01*
X001527Y031408D01*
X001510Y031410D01*
X000810Y031410D01*
X000793Y031408D01*
X000776Y031404D01*
X000760Y031397D01*
X000746Y031387D01*
X000733Y031374D01*
X000723Y031360D01*
X000716Y031344D01*
X000712Y031327D01*
X000710Y031310D01*
X000710Y031160D01*
X000760Y031110D01*
X000760Y029210D01*
X000710Y029160D01*
X000710Y029010D01*
X000712Y028993D01*
X000716Y028976D01*
X000723Y028960D01*
X000733Y028946D01*
X000746Y028933D01*
X000760Y028923D01*
X000776Y028916D01*
X000793Y028912D01*
X000810Y028910D01*
X001510Y028910D01*
X001527Y028912D01*
X001544Y028916D01*
X001560Y028923D01*
X001574Y028933D01*
X001587Y028946D01*
X001597Y028960D01*
X001604Y028976D01*
X001608Y028993D01*
X001610Y029010D01*
X001710Y029010D02*
X001712Y028993D01*
X001716Y028976D01*
X001723Y028960D01*
X001733Y028946D01*
X001746Y028933D01*
X001760Y028923D01*
X001776Y028916D01*
X001793Y028912D01*
X001810Y028910D01*
X002510Y028910D01*
X002527Y028912D01*
X002544Y028916D01*
X002560Y028923D01*
X002574Y028933D01*
X002587Y028946D01*
X002597Y028960D01*
X002604Y028976D01*
X002608Y028993D01*
X002610Y029010D01*
D16*
X036195Y020965D02*
X036195Y020790D01*
X036311Y020849D01*
X036370Y020849D01*
X036428Y020790D01*
X036428Y020673D01*
X036370Y020615D01*
X036253Y020615D01*
X036195Y020673D01*
X036195Y020965D02*
X036428Y020965D01*
X036600Y020965D02*
X036600Y020732D01*
X036717Y020615D01*
X036833Y020732D01*
X036833Y020965D01*
D17*
X030743Y013316D02*
X030390Y013316D01*
X030213Y013139D01*
X030213Y012432D01*
X030920Y013139D01*
X030920Y012432D01*
X030743Y012255D01*
X030390Y012255D01*
X030213Y012432D01*
X029769Y012432D02*
X029769Y012609D01*
X029592Y012785D01*
X029062Y012785D01*
X029062Y012432D01*
X029239Y012255D01*
X029592Y012255D01*
X029769Y012432D01*
X029416Y013139D02*
X029062Y012785D01*
X028618Y012785D02*
X028618Y012432D01*
X028441Y012255D01*
X028088Y012255D01*
X027911Y012432D01*
X027911Y012785D02*
X028265Y012962D01*
X028441Y012962D01*
X028618Y012785D01*
X027911Y012785D02*
X027911Y013316D01*
X028618Y013316D01*
X029416Y013139D02*
X029769Y013316D01*
X030743Y013316D02*
X030920Y013139D01*
X027467Y013139D02*
X027290Y013316D01*
X026937Y013316D01*
X026760Y013139D01*
X027467Y013139D02*
X027467Y012962D01*
X026760Y012255D01*
X027467Y012255D01*
X025165Y012255D02*
X025165Y012962D01*
X024812Y013316D01*
X024458Y012962D01*
X024458Y012255D01*
X024014Y012432D02*
X024014Y012785D01*
X023661Y012785D01*
X024014Y012432D02*
X023837Y012255D01*
X023484Y012255D01*
X023307Y012432D01*
X023307Y013139D01*
X023484Y013316D01*
X023837Y013316D01*
X024014Y013139D01*
X024458Y012785D02*
X025165Y012785D01*
X022863Y012255D02*
X022156Y012255D01*
X022156Y013316D01*
X022863Y013316D01*
X022510Y012785D02*
X022156Y012785D01*
X021712Y012255D02*
X021712Y013316D01*
X021359Y012962D01*
X021005Y013316D01*
X021005Y012255D01*
D18*
X025530Y008160D02*
X025532Y008210D01*
X025538Y008260D01*
X025548Y008309D01*
X025562Y008357D01*
X025579Y008404D01*
X025600Y008449D01*
X025625Y008493D01*
X025653Y008534D01*
X025685Y008573D01*
X025719Y008610D01*
X025756Y008644D01*
X025796Y008674D01*
X025838Y008701D01*
X025882Y008725D01*
X025928Y008746D01*
X025975Y008762D01*
X026023Y008775D01*
X026073Y008784D01*
X026122Y008789D01*
X026173Y008790D01*
X026223Y008787D01*
X026272Y008780D01*
X026321Y008769D01*
X026369Y008754D01*
X026415Y008736D01*
X026460Y008714D01*
X026503Y008688D01*
X026544Y008659D01*
X026583Y008627D01*
X026619Y008592D01*
X026651Y008554D01*
X026681Y008514D01*
X026708Y008471D01*
X026731Y008427D01*
X026750Y008381D01*
X026766Y008333D01*
X026778Y008284D01*
X026786Y008235D01*
X026790Y008185D01*
X026790Y008135D01*
X026786Y008085D01*
X026778Y008036D01*
X026766Y007987D01*
X026750Y007939D01*
X026731Y007893D01*
X026708Y007849D01*
X026681Y007806D01*
X026651Y007766D01*
X026619Y007728D01*
X026583Y007693D01*
X026544Y007661D01*
X026503Y007632D01*
X026460Y007606D01*
X026415Y007584D01*
X026369Y007566D01*
X026321Y007551D01*
X026272Y007540D01*
X026223Y007533D01*
X026173Y007530D01*
X026122Y007531D01*
X026073Y007536D01*
X026023Y007545D01*
X025975Y007558D01*
X025928Y007574D01*
X025882Y007595D01*
X025838Y007619D01*
X025796Y007646D01*
X025756Y007676D01*
X025719Y007710D01*
X025685Y007747D01*
X025653Y007786D01*
X025625Y007827D01*
X025600Y007871D01*
X025579Y007916D01*
X025562Y007963D01*
X025548Y008011D01*
X025538Y008060D01*
X025532Y008110D01*
X025530Y008160D01*
X037530Y006160D02*
X037532Y006210D01*
X037538Y006260D01*
X037548Y006309D01*
X037562Y006357D01*
X037579Y006404D01*
X037600Y006449D01*
X037625Y006493D01*
X037653Y006534D01*
X037685Y006573D01*
X037719Y006610D01*
X037756Y006644D01*
X037796Y006674D01*
X037838Y006701D01*
X037882Y006725D01*
X037928Y006746D01*
X037975Y006762D01*
X038023Y006775D01*
X038073Y006784D01*
X038122Y006789D01*
X038173Y006790D01*
X038223Y006787D01*
X038272Y006780D01*
X038321Y006769D01*
X038369Y006754D01*
X038415Y006736D01*
X038460Y006714D01*
X038503Y006688D01*
X038544Y006659D01*
X038583Y006627D01*
X038619Y006592D01*
X038651Y006554D01*
X038681Y006514D01*
X038708Y006471D01*
X038731Y006427D01*
X038750Y006381D01*
X038766Y006333D01*
X038778Y006284D01*
X038786Y006235D01*
X038790Y006185D01*
X038790Y006135D01*
X038786Y006085D01*
X038778Y006036D01*
X038766Y005987D01*
X038750Y005939D01*
X038731Y005893D01*
X038708Y005849D01*
X038681Y005806D01*
X038651Y005766D01*
X038619Y005728D01*
X038583Y005693D01*
X038544Y005661D01*
X038503Y005632D01*
X038460Y005606D01*
X038415Y005584D01*
X038369Y005566D01*
X038321Y005551D01*
X038272Y005540D01*
X038223Y005533D01*
X038173Y005530D01*
X038122Y005531D01*
X038073Y005536D01*
X038023Y005545D01*
X037975Y005558D01*
X037928Y005574D01*
X037882Y005595D01*
X037838Y005619D01*
X037796Y005646D01*
X037756Y005676D01*
X037719Y005710D01*
X037685Y005747D01*
X037653Y005786D01*
X037625Y005827D01*
X037600Y005871D01*
X037579Y005916D01*
X037562Y005963D01*
X037548Y006011D01*
X037538Y006060D01*
X037532Y006110D01*
X037530Y006160D01*
X025530Y019160D02*
X025532Y019210D01*
X025538Y019260D01*
X025548Y019309D01*
X025562Y019357D01*
X025579Y019404D01*
X025600Y019449D01*
X025625Y019493D01*
X025653Y019534D01*
X025685Y019573D01*
X025719Y019610D01*
X025756Y019644D01*
X025796Y019674D01*
X025838Y019701D01*
X025882Y019725D01*
X025928Y019746D01*
X025975Y019762D01*
X026023Y019775D01*
X026073Y019784D01*
X026122Y019789D01*
X026173Y019790D01*
X026223Y019787D01*
X026272Y019780D01*
X026321Y019769D01*
X026369Y019754D01*
X026415Y019736D01*
X026460Y019714D01*
X026503Y019688D01*
X026544Y019659D01*
X026583Y019627D01*
X026619Y019592D01*
X026651Y019554D01*
X026681Y019514D01*
X026708Y019471D01*
X026731Y019427D01*
X026750Y019381D01*
X026766Y019333D01*
X026778Y019284D01*
X026786Y019235D01*
X026790Y019185D01*
X026790Y019135D01*
X026786Y019085D01*
X026778Y019036D01*
X026766Y018987D01*
X026750Y018939D01*
X026731Y018893D01*
X026708Y018849D01*
X026681Y018806D01*
X026651Y018766D01*
X026619Y018728D01*
X026583Y018693D01*
X026544Y018661D01*
X026503Y018632D01*
X026460Y018606D01*
X026415Y018584D01*
X026369Y018566D01*
X026321Y018551D01*
X026272Y018540D01*
X026223Y018533D01*
X026173Y018530D01*
X026122Y018531D01*
X026073Y018536D01*
X026023Y018545D01*
X025975Y018558D01*
X025928Y018574D01*
X025882Y018595D01*
X025838Y018619D01*
X025796Y018646D01*
X025756Y018676D01*
X025719Y018710D01*
X025685Y018747D01*
X025653Y018786D01*
X025625Y018827D01*
X025600Y018871D01*
X025579Y018916D01*
X025562Y018963D01*
X025548Y019011D01*
X025538Y019060D01*
X025532Y019110D01*
X025530Y019160D01*
X035030Y025160D02*
X035032Y025210D01*
X035038Y025260D01*
X035048Y025309D01*
X035062Y025357D01*
X035079Y025404D01*
X035100Y025449D01*
X035125Y025493D01*
X035153Y025534D01*
X035185Y025573D01*
X035219Y025610D01*
X035256Y025644D01*
X035296Y025674D01*
X035338Y025701D01*
X035382Y025725D01*
X035428Y025746D01*
X035475Y025762D01*
X035523Y025775D01*
X035573Y025784D01*
X035622Y025789D01*
X035673Y025790D01*
X035723Y025787D01*
X035772Y025780D01*
X035821Y025769D01*
X035869Y025754D01*
X035915Y025736D01*
X035960Y025714D01*
X036003Y025688D01*
X036044Y025659D01*
X036083Y025627D01*
X036119Y025592D01*
X036151Y025554D01*
X036181Y025514D01*
X036208Y025471D01*
X036231Y025427D01*
X036250Y025381D01*
X036266Y025333D01*
X036278Y025284D01*
X036286Y025235D01*
X036290Y025185D01*
X036290Y025135D01*
X036286Y025085D01*
X036278Y025036D01*
X036266Y024987D01*
X036250Y024939D01*
X036231Y024893D01*
X036208Y024849D01*
X036181Y024806D01*
X036151Y024766D01*
X036119Y024728D01*
X036083Y024693D01*
X036044Y024661D01*
X036003Y024632D01*
X035960Y024606D01*
X035915Y024584D01*
X035869Y024566D01*
X035821Y024551D01*
X035772Y024540D01*
X035723Y024533D01*
X035673Y024530D01*
X035622Y024531D01*
X035573Y024536D01*
X035523Y024545D01*
X035475Y024558D01*
X035428Y024574D01*
X035382Y024595D01*
X035338Y024619D01*
X035296Y024646D01*
X035256Y024676D01*
X035219Y024710D01*
X035185Y024747D01*
X035153Y024786D01*
X035125Y024827D01*
X035100Y024871D01*
X035079Y024916D01*
X035062Y024963D01*
X035048Y025011D01*
X035038Y025060D01*
X035032Y025110D01*
X035030Y025160D01*
X005530Y025160D02*
X005532Y025210D01*
X005538Y025260D01*
X005548Y025309D01*
X005562Y025357D01*
X005579Y025404D01*
X005600Y025449D01*
X005625Y025493D01*
X005653Y025534D01*
X005685Y025573D01*
X005719Y025610D01*
X005756Y025644D01*
X005796Y025674D01*
X005838Y025701D01*
X005882Y025725D01*
X005928Y025746D01*
X005975Y025762D01*
X006023Y025775D01*
X006073Y025784D01*
X006122Y025789D01*
X006173Y025790D01*
X006223Y025787D01*
X006272Y025780D01*
X006321Y025769D01*
X006369Y025754D01*
X006415Y025736D01*
X006460Y025714D01*
X006503Y025688D01*
X006544Y025659D01*
X006583Y025627D01*
X006619Y025592D01*
X006651Y025554D01*
X006681Y025514D01*
X006708Y025471D01*
X006731Y025427D01*
X006750Y025381D01*
X006766Y025333D01*
X006778Y025284D01*
X006786Y025235D01*
X006790Y025185D01*
X006790Y025135D01*
X006786Y025085D01*
X006778Y025036D01*
X006766Y024987D01*
X006750Y024939D01*
X006731Y024893D01*
X006708Y024849D01*
X006681Y024806D01*
X006651Y024766D01*
X006619Y024728D01*
X006583Y024693D01*
X006544Y024661D01*
X006503Y024632D01*
X006460Y024606D01*
X006415Y024584D01*
X006369Y024566D01*
X006321Y024551D01*
X006272Y024540D01*
X006223Y024533D01*
X006173Y024530D01*
X006122Y024531D01*
X006073Y024536D01*
X006023Y024545D01*
X005975Y024558D01*
X005928Y024574D01*
X005882Y024595D01*
X005838Y024619D01*
X005796Y024646D01*
X005756Y024676D01*
X005719Y024710D01*
X005685Y024747D01*
X005653Y024786D01*
X005625Y024827D01*
X005600Y024871D01*
X005579Y024916D01*
X005562Y024963D01*
X005548Y025011D01*
X005538Y025060D01*
X005532Y025110D01*
X005530Y025160D01*
X005030Y006160D02*
X005032Y006210D01*
X005038Y006260D01*
X005048Y006309D01*
X005062Y006357D01*
X005079Y006404D01*
X005100Y006449D01*
X005125Y006493D01*
X005153Y006534D01*
X005185Y006573D01*
X005219Y006610D01*
X005256Y006644D01*
X005296Y006674D01*
X005338Y006701D01*
X005382Y006725D01*
X005428Y006746D01*
X005475Y006762D01*
X005523Y006775D01*
X005573Y006784D01*
X005622Y006789D01*
X005673Y006790D01*
X005723Y006787D01*
X005772Y006780D01*
X005821Y006769D01*
X005869Y006754D01*
X005915Y006736D01*
X005960Y006714D01*
X006003Y006688D01*
X006044Y006659D01*
X006083Y006627D01*
X006119Y006592D01*
X006151Y006554D01*
X006181Y006514D01*
X006208Y006471D01*
X006231Y006427D01*
X006250Y006381D01*
X006266Y006333D01*
X006278Y006284D01*
X006286Y006235D01*
X006290Y006185D01*
X006290Y006135D01*
X006286Y006085D01*
X006278Y006036D01*
X006266Y005987D01*
X006250Y005939D01*
X006231Y005893D01*
X006208Y005849D01*
X006181Y005806D01*
X006151Y005766D01*
X006119Y005728D01*
X006083Y005693D01*
X006044Y005661D01*
X006003Y005632D01*
X005960Y005606D01*
X005915Y005584D01*
X005869Y005566D01*
X005821Y005551D01*
X005772Y005540D01*
X005723Y005533D01*
X005673Y005530D01*
X005622Y005531D01*
X005573Y005536D01*
X005523Y005545D01*
X005475Y005558D01*
X005428Y005574D01*
X005382Y005595D01*
X005338Y005619D01*
X005296Y005646D01*
X005256Y005676D01*
X005219Y005710D01*
X005185Y005747D01*
X005153Y005786D01*
X005125Y005827D01*
X005100Y005871D01*
X005079Y005916D01*
X005062Y005963D01*
X005048Y006011D01*
X005038Y006060D01*
X005032Y006110D01*
X005030Y006160D01*
D19*
X000160Y000160D02*
X043467Y000160D01*
X043467Y034656D01*
X000160Y034656D01*
X000160Y000160D01*
D20*
X000480Y010905D02*
X000405Y010980D01*
X000480Y010905D02*
X000555Y010905D01*
X000630Y010980D01*
X000630Y011355D01*
X000555Y011355D02*
X000705Y011355D01*
X000865Y011355D02*
X001091Y011355D01*
X001166Y011280D01*
X001166Y011130D01*
X001091Y011055D01*
X000865Y011055D01*
X000865Y010905D02*
X000865Y011355D01*
X001326Y011355D02*
X001326Y011130D01*
X001476Y011205D01*
X001551Y011205D01*
X001626Y011130D01*
X001626Y010980D01*
X001551Y010905D01*
X001401Y010905D01*
X001326Y010980D01*
X001326Y011355D02*
X001626Y011355D01*
X004860Y011360D02*
X004860Y011560D01*
X005060Y011560D01*
X005060Y012760D01*
X004860Y012760D01*
X004860Y012960D01*
X007060Y012960D01*
X007160Y012860D01*
X007260Y012960D01*
X009460Y012960D01*
X009460Y012760D01*
X009260Y012760D01*
X009260Y011560D01*
X009460Y011560D01*
X009460Y011360D01*
X007260Y011360D01*
X007160Y011460D01*
X007060Y011360D01*
X004860Y011360D01*
X006260Y011760D02*
X006260Y012560D01*
X008060Y012560D01*
X008060Y011760D01*
X006260Y011760D01*
X007360Y011760D02*
X007360Y012560D01*
X007460Y012560D02*
X007460Y011760D01*
X007560Y011760D02*
X007560Y012560D01*
X007660Y012560D02*
X007660Y011760D01*
X007760Y011760D02*
X007760Y012560D01*
X007860Y012560D02*
X007860Y011760D01*
X007960Y011760D02*
X007960Y012560D01*
X011985Y012785D02*
X011985Y013235D01*
X012210Y013235D01*
X012285Y013160D01*
X012285Y013010D01*
X012210Y012935D01*
X011985Y012935D01*
X012135Y012935D02*
X012285Y012785D01*
X012445Y012785D02*
X012746Y012785D01*
X012596Y012785D02*
X012596Y013235D01*
X012445Y013085D01*
X012906Y013160D02*
X012906Y012860D01*
X013206Y013160D01*
X013206Y012860D01*
X013131Y012785D01*
X012981Y012785D01*
X012906Y012860D01*
X012906Y013160D02*
X012981Y013235D01*
X013131Y013235D01*
X013206Y013160D01*
X007820Y017433D02*
X007519Y017433D01*
X007820Y017733D01*
X007820Y017808D01*
X007745Y017883D01*
X007594Y017883D01*
X007519Y017808D01*
X007359Y017808D02*
X007284Y017883D01*
X007134Y017883D01*
X007059Y017808D01*
X007059Y017733D01*
X007134Y017658D01*
X007284Y017658D01*
X007359Y017583D01*
X007359Y017508D01*
X007284Y017433D01*
X007134Y017433D01*
X007059Y017508D01*
X015280Y008430D02*
X015205Y008355D01*
X015280Y008430D02*
X015430Y008280D01*
X015505Y008355D01*
X015665Y008355D02*
X015740Y008430D01*
X015891Y008280D01*
X015966Y008355D01*
X016126Y008355D02*
X016351Y008355D01*
X016426Y008280D01*
X016426Y008130D01*
X016351Y008055D01*
X016126Y008055D01*
X016126Y007905D02*
X016126Y008355D01*
X016586Y008280D02*
X016586Y007980D01*
X016661Y007905D01*
X016811Y007905D01*
X016886Y007980D01*
X016886Y008280D01*
X016811Y008355D01*
X016661Y008355D01*
X016586Y008280D01*
X017047Y008355D02*
X017047Y007905D01*
X017197Y008055D01*
X017347Y007905D01*
X017347Y008355D01*
X017507Y008355D02*
X017507Y007905D01*
X017807Y007905D01*
X017967Y007905D02*
X017967Y008355D01*
X018193Y008355D01*
X018268Y008280D01*
X018268Y008130D01*
X018193Y008055D01*
X017967Y008055D01*
X018117Y008055D02*
X018268Y007905D01*
X018428Y008355D02*
X018503Y008430D01*
X018653Y008280D01*
X018728Y008355D01*
X018888Y008355D02*
X018963Y008430D01*
X019113Y008280D01*
X019188Y008355D01*
X017807Y008355D02*
X017507Y008355D01*
X017507Y008130D02*
X017657Y008130D01*
X016801Y003355D02*
X016651Y003355D01*
X016576Y003280D01*
X016416Y003280D02*
X016416Y003130D01*
X016341Y003055D01*
X016115Y003055D01*
X016115Y002905D02*
X016115Y003355D01*
X016341Y003355D01*
X016416Y003280D01*
X016801Y003355D02*
X016876Y003280D01*
X016876Y003205D01*
X016576Y002905D01*
X016876Y002905D01*
X015880Y002980D02*
X015880Y003355D01*
X015805Y003355D02*
X015955Y003355D01*
X015880Y002980D02*
X015805Y002905D01*
X015730Y002905D01*
X015655Y002980D01*
X041584Y022040D02*
X041659Y021965D01*
X041734Y021965D01*
X041809Y022040D01*
X041809Y022415D01*
X041734Y022415D02*
X041884Y022415D01*
X042044Y022415D02*
X042269Y022415D01*
X042344Y022340D01*
X042344Y022190D01*
X042269Y022115D01*
X042044Y022115D01*
X042044Y021965D02*
X042044Y022415D01*
X042505Y022415D02*
X042805Y022415D01*
X042805Y022340D01*
X042505Y022040D01*
X042505Y021965D01*
X042485Y026714D02*
X042035Y026714D01*
X042035Y026939D01*
X042110Y027014D01*
X042260Y027014D01*
X042335Y026939D01*
X042335Y026714D01*
X042335Y026864D02*
X042485Y027014D01*
X042260Y027175D02*
X042260Y027475D01*
X042485Y027400D02*
X042035Y027400D01*
X042260Y027175D01*
X040485Y027250D02*
X040410Y027175D01*
X040485Y027250D02*
X040485Y027400D01*
X040410Y027475D01*
X040260Y027475D01*
X040185Y027400D01*
X040185Y027325D01*
X040260Y027175D01*
X040035Y027175D01*
X040035Y027475D01*
X040110Y027014D02*
X040260Y027014D01*
X040335Y026939D01*
X040335Y026714D01*
X040485Y026714D02*
X040035Y026714D01*
X040035Y026939D01*
X040110Y027014D01*
X040335Y026864D02*
X040485Y027014D01*
X039485Y027014D02*
X039335Y026864D01*
X039335Y026939D02*
X039335Y026714D01*
X039485Y026714D02*
X039035Y026714D01*
X039035Y026939D01*
X039110Y027014D01*
X039260Y027014D01*
X039335Y026939D01*
X039410Y027175D02*
X039485Y027250D01*
X039485Y027400D01*
X039410Y027475D01*
X039335Y027475D01*
X039260Y027400D01*
X039260Y027175D01*
X039410Y027175D01*
X039260Y027175D02*
X039110Y027325D01*
X039035Y027475D01*
X038280Y032584D02*
X037980Y032584D01*
X037905Y032659D01*
X037905Y032809D01*
X037980Y032884D01*
X037905Y033044D02*
X038355Y033344D01*
X037905Y033344D01*
X038055Y033505D02*
X037905Y033655D01*
X038355Y033655D01*
X038355Y033505D02*
X038355Y033805D01*
X038355Y033044D02*
X037905Y033044D01*
X038280Y032884D02*
X038355Y032809D01*
X038355Y032659D01*
X038280Y032584D01*
X036626Y033405D02*
X036326Y033405D01*
X036476Y033405D02*
X036476Y033855D01*
X036326Y033705D01*
X036166Y033630D02*
X036091Y033555D01*
X035865Y033555D01*
X035865Y033405D02*
X035865Y033855D01*
X036091Y033855D01*
X036166Y033780D01*
X036166Y033630D01*
X035705Y033855D02*
X035555Y033855D01*
X035630Y033855D02*
X035630Y033480D01*
X035555Y033405D01*
X035480Y033405D01*
X035405Y033480D01*
X018555Y031690D02*
X018255Y031690D01*
X018480Y031915D01*
X018480Y031465D01*
X018094Y031465D02*
X018094Y031915D01*
X017794Y031915D02*
X018094Y031465D01*
X017794Y031465D02*
X017794Y031915D01*
X017634Y031840D02*
X017559Y031915D01*
X017409Y031915D01*
X017334Y031840D01*
X017334Y031540D01*
X017409Y031465D01*
X017559Y031465D01*
X017634Y031540D01*
X009876Y032480D02*
X009801Y032405D01*
X009651Y032405D01*
X009576Y032480D01*
X009416Y032405D02*
X009416Y032855D01*
X009576Y032780D02*
X009651Y032855D01*
X009801Y032855D01*
X009876Y032780D01*
X009876Y032705D01*
X009801Y032630D01*
X009876Y032555D01*
X009876Y032480D01*
X009801Y032630D02*
X009726Y032630D01*
X009416Y032405D02*
X009115Y032855D01*
X009115Y032405D01*
X008955Y032480D02*
X008880Y032405D01*
X008730Y032405D01*
X008655Y032480D01*
X008655Y032780D01*
X008730Y032855D01*
X008880Y032855D01*
X008955Y032780D01*
X004855Y032794D02*
X004405Y032794D01*
X004855Y033094D01*
X004405Y033094D01*
X004480Y033255D02*
X004405Y033330D01*
X004405Y033480D01*
X004480Y033555D01*
X004555Y033555D01*
X004855Y033255D01*
X004855Y033555D01*
X004780Y032634D02*
X004855Y032559D01*
X004855Y032409D01*
X004780Y032334D01*
X004480Y032334D01*
X004405Y032409D01*
X004405Y032559D01*
X004480Y032634D01*
X004485Y027475D02*
X004485Y027175D01*
X004485Y027325D02*
X004035Y027325D01*
X004185Y027175D01*
X004260Y027014D02*
X004335Y026939D01*
X004335Y026714D01*
X004485Y026714D02*
X004035Y026714D01*
X004035Y026939D01*
X004110Y027014D01*
X004260Y027014D01*
X004335Y026864D02*
X004485Y027014D01*
X002485Y027014D02*
X002335Y026864D01*
X002335Y026939D02*
X002335Y026714D01*
X002485Y026714D02*
X002035Y026714D01*
X002035Y026939D01*
X002110Y027014D01*
X002260Y027014D01*
X002335Y026939D01*
X002485Y027175D02*
X002185Y027475D01*
X002110Y027475D01*
X002035Y027400D01*
X002035Y027250D01*
X002110Y027175D01*
X002485Y027175D02*
X002485Y027475D01*
X001235Y027400D02*
X001235Y027250D01*
X001160Y027175D01*
X001235Y027014D02*
X001085Y026864D01*
X001085Y026939D02*
X001085Y026714D01*
X001235Y026714D02*
X000785Y026714D01*
X000785Y026939D01*
X000860Y027014D01*
X001010Y027014D01*
X001085Y026939D01*
X000860Y027175D02*
X000785Y027250D01*
X000785Y027400D01*
X000860Y027475D01*
X000935Y027475D01*
X001010Y027400D01*
X001085Y027475D01*
X001160Y027475D01*
X001235Y027400D01*
X001010Y027400D02*
X001010Y027325D01*
D21*
X000910Y033160D02*
X000660Y033410D01*
X000660Y033910D01*
X000910Y034160D01*
X001410Y034160D01*
X001660Y033910D01*
X001910Y034160D01*
X002410Y034160D01*
X002660Y033910D01*
X002910Y034160D01*
X003410Y034160D01*
X003660Y033910D01*
X003910Y034160D01*
X004410Y034160D01*
X004660Y033910D01*
X004660Y033410D01*
X004410Y033160D01*
X003910Y033160D01*
X003660Y033410D01*
X003410Y033160D01*
X002910Y033160D01*
X002660Y033410D01*
X002410Y033160D01*
X001910Y033160D01*
X001660Y033410D01*
X001410Y033160D01*
X000910Y033160D01*
X005660Y033410D02*
X005910Y033160D01*
X006410Y033160D01*
X006660Y033410D01*
X006910Y033160D01*
X007410Y033160D01*
X007660Y033410D01*
X007910Y033160D01*
X008410Y033160D01*
X008660Y033410D01*
X008910Y033160D01*
X009410Y033160D01*
X009660Y033410D01*
X009660Y033910D01*
X009410Y034160D01*
X008910Y034160D01*
X008660Y033910D01*
X008410Y034160D01*
X007910Y034160D01*
X007660Y033910D01*
X007410Y034160D01*
X006910Y034160D01*
X006660Y033910D01*
X006410Y034160D01*
X005910Y034160D01*
X005660Y033910D01*
X005660Y033410D01*
X014660Y032910D02*
X014660Y032410D01*
X014910Y032160D01*
X015410Y032160D01*
X015660Y032410D01*
X015910Y032160D01*
X016410Y032160D01*
X016660Y032410D01*
X016910Y032160D01*
X017410Y032160D01*
X017660Y032410D01*
X017910Y032160D01*
X018410Y032160D01*
X018660Y032410D01*
X018660Y032910D01*
X018410Y033160D01*
X017910Y033160D01*
X017660Y032910D01*
X017410Y033160D01*
X016910Y033160D01*
X016660Y032910D01*
X016410Y033160D01*
X015910Y033160D01*
X015660Y032910D01*
X015410Y033160D01*
X014910Y033160D01*
X014660Y032910D01*
X008884Y017108D02*
X007184Y017108D01*
X006834Y016313D02*
X006834Y015508D01*
X007184Y014708D02*
X008884Y014708D01*
X009234Y015508D02*
X009234Y016301D01*
X007334Y015908D02*
X007336Y015960D01*
X007342Y016012D01*
X007352Y016064D01*
X007365Y016114D01*
X007382Y016164D01*
X007403Y016212D01*
X007428Y016258D01*
X007456Y016302D01*
X007487Y016344D01*
X007521Y016384D01*
X007558Y016421D01*
X007598Y016455D01*
X007640Y016486D01*
X007684Y016514D01*
X007730Y016539D01*
X007778Y016560D01*
X007828Y016577D01*
X007878Y016590D01*
X007930Y016600D01*
X007982Y016606D01*
X008034Y016608D01*
X008086Y016606D01*
X008138Y016600D01*
X008190Y016590D01*
X008240Y016577D01*
X008290Y016560D01*
X008338Y016539D01*
X008384Y016514D01*
X008428Y016486D01*
X008470Y016455D01*
X008510Y016421D01*
X008547Y016384D01*
X008581Y016344D01*
X008612Y016302D01*
X008640Y016258D01*
X008665Y016212D01*
X008686Y016164D01*
X008703Y016114D01*
X008716Y016064D01*
X008726Y016012D01*
X008732Y015960D01*
X008734Y015908D01*
X008732Y015856D01*
X008726Y015804D01*
X008716Y015752D01*
X008703Y015702D01*
X008686Y015652D01*
X008665Y015604D01*
X008640Y015558D01*
X008612Y015514D01*
X008581Y015472D01*
X008547Y015432D01*
X008510Y015395D01*
X008470Y015361D01*
X008428Y015330D01*
X008384Y015302D01*
X008338Y015277D01*
X008290Y015256D01*
X008240Y015239D01*
X008190Y015226D01*
X008138Y015216D01*
X008086Y015210D01*
X008034Y015208D01*
X007982Y015210D01*
X007930Y015216D01*
X007878Y015226D01*
X007828Y015239D01*
X007778Y015256D01*
X007730Y015277D01*
X007684Y015302D01*
X007640Y015330D01*
X007598Y015361D01*
X007558Y015395D01*
X007521Y015432D01*
X007487Y015472D01*
X007456Y015514D01*
X007428Y015558D01*
X007403Y015604D01*
X007382Y015652D01*
X007365Y015702D01*
X007352Y015752D01*
X007342Y015804D01*
X007336Y015856D01*
X007334Y015908D01*
X032160Y002660D02*
X032160Y001660D01*
X032410Y001410D01*
X032910Y001410D01*
X033160Y001660D01*
X033160Y002660D01*
X032910Y002910D01*
X032410Y002910D01*
X032160Y002660D01*
X033160Y002660D02*
X033410Y002910D01*
X033910Y002910D01*
X034160Y002660D01*
X034160Y001660D01*
X034410Y001410D01*
X034910Y001410D01*
X035160Y001660D01*
X035160Y002660D01*
X035410Y002910D01*
X035910Y002910D01*
X036160Y002660D01*
X036160Y001660D01*
X036410Y001410D01*
X036910Y001410D01*
X037160Y001660D01*
X037160Y002660D01*
X036910Y002910D01*
X036410Y002910D01*
X036160Y002660D01*
X035160Y002660D02*
X034910Y002910D01*
X034410Y002910D01*
X034160Y002660D01*
X034160Y001660D02*
X033910Y001410D01*
X033410Y001410D01*
X033160Y001660D01*
X035160Y001660D02*
X035410Y001410D01*
X035910Y001410D01*
X036160Y001660D01*
X038910Y033160D02*
X038660Y033410D01*
X038660Y033910D01*
X038910Y034160D01*
X039410Y034160D01*
X039660Y033910D01*
X039910Y034160D01*
X040410Y034160D01*
X040660Y033910D01*
X040910Y034160D01*
X041410Y034160D01*
X041660Y033910D01*
X041910Y034160D01*
X042410Y034160D01*
X042660Y033910D01*
X042660Y033410D01*
X042410Y033160D01*
X041910Y033160D01*
X041660Y033410D01*
X041410Y033160D01*
X040910Y033160D01*
X040660Y033410D01*
X040410Y033160D01*
X039910Y033160D01*
X039660Y033410D01*
X039410Y033160D01*
X038910Y033160D01*
D22*
X039160Y031580D03*
X040160Y031580D03*
X042160Y031580D03*
X042160Y028740D03*
X040160Y028740D03*
X039160Y028740D03*
X004160Y028740D03*
X002160Y028740D03*
X001160Y028740D03*
X001160Y031580D03*
X002160Y031580D03*
X004160Y031580D03*
D23*
X011740Y012160D03*
X014580Y012160D03*
D24*
X008127Y010680D02*
X007820Y010680D01*
X007973Y010680D02*
X007973Y011140D01*
X007820Y010987D01*
X007666Y011064D02*
X007589Y011140D01*
X007436Y011140D01*
X007359Y011064D01*
X007359Y010987D01*
X007436Y010910D01*
X007589Y010910D01*
X007666Y010833D01*
X007666Y010757D01*
X007589Y010680D01*
X007436Y010680D01*
X007359Y010757D01*
M02*
