%
M48
M72
T01C0.0236
T02C0.0320
T03C0.0335
T04C0.0354
T05C0.0374
T06C0.0394
T07C0.0400
T08C0.1260
%
T01
X5610Y3960
X6860Y5810
X12810Y4110
X16160Y4160
X19860Y4060
X22160Y4010
X26260Y3960
X29760Y9660
X33660Y8660
X25460Y13260
X20960Y11660
X20060Y12460
X14310Y10160
X12760Y11260
X11610Y12910
X3560Y27510
X39160Y26360
X40760Y25110
X39560Y24960
X40010Y23660
X41010Y23360
T02
X40160Y28160
X39160Y28160
X42160Y28160
X42160Y32160
X40160Y32160
X39160Y32160
X15160Y12160
X11160Y12160
X4160Y28160
X2160Y28160
X1160Y28160
X1160Y32160
X2160Y32160
X4160Y32160
T03
X3660Y2160
X4660Y2160
X5660Y2160
X6660Y2160
X7660Y2160
X8660Y2160
X9660Y2160
X10660Y2160
X11660Y2160
X12660Y2160
X16160Y2160
X17160Y2160
X18160Y2160
X19160Y2160
X20160Y2160
X21160Y2160
X22160Y2160
X23160Y2160
X23160Y6160
X22160Y6160
X21160Y6160
X20160Y6160
X18160Y6160
X17160Y6160
X16160Y6160
X15160Y6160
X14160Y6160
X13160Y6160
X12160Y6160
X11160Y6160
X24160Y6160
X25160Y6160
X26160Y6160
X27160Y6160
X29160Y6160
X30160Y6160
X31160Y6160
X32160Y6160
X33160Y6160
X34160Y6160
X35160Y6160
X36160Y6160
X34160Y25160
X33160Y25160
X32160Y25160
X31160Y25160
X30160Y25160
X29160Y25160
X28160Y25160
X27160Y25160
X25160Y25160
X24160Y25160
X23160Y25160
X22160Y25160
X21160Y25160
X20160Y25160
X19160Y25160
X18160Y25160
X16560Y25160
X15560Y25160
X14560Y25160
X13560Y25160
X12560Y25160
X11560Y25160
X10560Y25160
X9560Y25160
X8560Y25160
X7560Y25160
T04
X7160Y12160
X6160Y12160
X8160Y12160
T05
X37160Y12160
X37160Y11160
X37160Y10160
X37160Y9160
X37160Y8160
X38160Y8160
X38160Y9160
X38160Y10160
X38160Y11160
X38160Y12160
X38160Y13160
X38160Y14160
X38160Y15160
X38160Y16160
X38160Y17160
X38160Y18160
X38160Y19160
X38160Y20160
X38160Y21160
X38160Y22160
X38160Y23160
X38160Y24160
X38160Y25160
X37160Y25160
X37160Y24160
X37160Y23160
X37160Y22160
X37160Y21160
X37160Y20160
X37160Y19160
X37160Y18160
X37160Y17160
X37160Y16160
X37160Y15160
X37160Y14160
X37160Y13160
T06
X36660Y2160
X35660Y2160
X34660Y2160
X33660Y2160
X32660Y2160
T07
X9314Y15018
X9314Y16798
X6754Y16798
X6754Y15018
X1160Y10160
X1160Y9160
X1160Y8160
X15160Y32660
X16160Y32660
X17160Y32660
X18160Y32660
X9160Y33660
X8160Y33660
X7160Y33660
X6160Y33660
X4160Y33660
X3160Y33660
X2160Y33660
X1160Y33660
X36160Y32660
X36160Y31660
X36160Y30660
X36160Y29660
X36160Y28660
X36160Y27660
X42160Y25160
X42160Y24160
X42160Y23160
X42160Y33660
X41160Y33660
X40160Y33660
X39160Y33660
T08
X35660Y25160
X26160Y19160
X26160Y8160
X38160Y6160
X6160Y25160
X5660Y6160
M30
